<svg width="4.3rem" height="4.3rem" viewBox="0 0 70 70" fill="none" xmlns="http://www.w3.org/2000/svg">
<circle cx="35" cy="35" r="35" fill="white"/>
<g clip-path="url(#clip0_16_826)">
<path d="M39.225 15.4651C37.8368 18.571 37.99 21.8556 39.225 25.2657L44.5357 23.3757C45.3668 23.0799 46.1734 22.6557 46.1734 21.7613V17.0795C46.1734 16.1851 45.443 15.4651 44.5357 15.4651H39.225ZM24.6492 15.4651C23.7419 15.4651 23.0114 16.1851 23.0114 17.0795V21.7613C23.0114 22.6557 23.7958 23.072 24.6492 23.3757L29.9599 25.2657C31.1356 21.9437 31.9783 18.6372 29.9599 15.4651H24.6492Z" fill="#4530B2" fill-opacity="0.85"/>
<path d="M29.96 15.4651V25.2657L34.5926 26.9148L39.2251 25.2657V15.4651H29.96Z" fill="#A8D0FF"/>
<path d="M40.1523 28.3286C40.1523 28.3286 39.623 33.2001 38.9655 33.2001H30.2202C29.5627 33.2001 29.0334 28.3286 29.0334 28.3286C29.0334 24.3209 40.1523 23.9881 40.1523 28.3286Z" fill="#4530B2"/>
<path d="M34.5928 28.1384C36.3296 28.1384 38.0493 28.4756 39.6539 29.1308C41.2585 29.7859 42.7165 30.7462 43.9445 31.9568C45.1726 33.1673 46.1468 34.6045 46.8114 36.1861C47.4761 37.7678 47.8182 39.463 47.8182 41.175C47.8182 42.887 47.4761 44.5822 46.8114 46.1639C46.1468 47.7456 45.1726 49.1827 43.9445 50.3933C42.7165 51.6038 41.2585 52.5641 39.6539 53.2192C38.0493 53.8744 36.3296 54.2116 34.5928 54.2116C32.856 54.2116 31.1362 53.8744 29.5317 53.2192C27.9271 52.5641 26.4691 51.6038 25.241 50.3933C24.0129 49.1827 23.0388 47.7456 22.3741 46.1639C21.7095 44.5822 21.3674 42.887 21.3674 41.175C21.3674 39.463 21.7095 37.7678 22.3741 36.1861C23.0388 34.6045 24.0129 33.1673 25.241 31.9568C26.4691 30.7462 27.9271 29.7859 29.5317 29.1308C31.1362 28.4756 32.856 28.1384 34.5928 28.1384Z" fill="#7262E3"/>
<path d="M38.8769 47.4828C37.7056 48.3304 36.078 46.3483 34.6251 46.3554C33.1721 46.3624 31.5643 48.3601 30.3846 47.524C29.2049 46.6878 30.6143 44.5495 30.1585 43.1895C29.7027 41.8295 27.2784 40.9396 27.7206 39.5753C28.1629 38.211 30.6615 38.8714 31.8328 38.0239C33.0041 37.1763 33.1136 34.6286 34.5665 34.6216C36.0195 34.6145 36.1544 37.1611 37.3341 37.9972C38.5138 38.8334 41.0057 38.1487 41.4615 39.5087C41.9173 40.8687 39.502 41.7821 39.0598 43.1464C38.6176 44.5107 40.0482 46.6353 38.8769 47.4828Z" fill="white"/>
</g>
<defs>
<clipPath id="clip0_16_826">
<rect width="26.8605" height="39.0698" fill="white" transform="translate(21.1628 15.4651)"/>
</clipPath>
</defs>
</svg>
