<svg width="1.75rem" height="1.75rem" viewBox="0 0 28 28" fill="none" xmlns="http://www.w3.org/2000/svg">
<path d="M23.3519 3.5858H20.766V2.31481C20.766 1.95448 20.6229 1.6089 20.3681 1.35411C20.1133 1.09931 19.7677 0.956173 19.4074 0.956173C19.0471 0.956173 18.7015 1.09931 18.4467 1.35411C18.1919 1.6089 18.0488 1.95448 18.0488 2.31481V3.5858H10.2475V2.31481C10.2475 1.95448 10.1044 1.6089 9.84959 1.35411C9.5948 1.09932 9.24922 0.956173 8.88889 0.956173C8.52855 0.956173 8.18298 1.09932 7.92818 1.35411C7.67339 1.6089 7.53025 1.95448 7.53025 2.31481V3.5858H4.94444C3.88669 3.5858 2.87226 4.00599 2.12431 4.75394C1.37636 5.50189 0.956173 6.51632 0.956173 7.57407V23.3519C0.956173 24.4096 1.37636 25.424 2.12431 26.172C2.87226 26.9199 3.88669 27.3401 4.94444 27.3401H23.3519C24.4096 27.3401 25.424 26.9199 26.172 26.172C26.9199 25.424 27.3401 24.4096 27.3401 23.3519V7.57407C27.3401 6.51632 26.9199 5.50189 26.172 4.75394C25.424 4.00599 24.4096 3.5858 23.3519 3.5858ZM24.6228 23.3519C24.6228 23.6889 24.4889 24.0122 24.2506 24.2506C24.0122 24.4889 23.6889 24.6228 23.3519 24.6228H4.94444C4.60736 24.6228 4.28408 24.4889 4.04572 24.2506C3.80736 24.0122 3.67346 23.6889 3.67346 23.3519V14.192H24.6228V23.3519ZM24.6228 11.4747H3.67346V7.57407C3.67346 7.23699 3.80736 6.91371 4.04572 6.67535C4.28408 6.43699 4.60736 6.30309 4.94444 6.30309H7.53025V7.57407C7.53025 7.93441 7.67339 8.27998 7.92818 8.53478C8.18298 8.78957 8.52855 8.93272 8.88889 8.93272C9.24922 8.93272 9.5948 8.78957 9.84959 8.53478C10.1044 8.27998 10.2475 7.93441 10.2475 7.57407V6.30309H18.0488V7.57407C18.0488 7.93441 18.1919 8.27998 18.4467 8.53478C18.7015 8.78957 19.0471 8.93272 19.4074 8.93272C19.7677 8.93272 20.1133 8.78957 20.3681 8.53478C20.6229 8.27998 20.766 7.93441 20.766 7.57407V6.30309H23.3519C23.6889 6.30309 24.0122 6.43699 24.2506 6.67535C24.4889 6.91371 24.6228 7.23699 24.6228 7.57407V11.4747Z" fill="#828C97" stroke="#B3BECA" stroke-width="0.0876543"/>
</svg>
