<svg width="146" height="141" viewBox="0 0 146 141" fill="none" xmlns="http://www.w3.org/2000/svg">
<g filter="url(#filter0_d_823_2013)">
<path d="M29.5 23C19.8353 23 12 30.8353 12 40.5C12 48.7634 17.7292 55.6846 25.4312 57.5194C25.0328 57.4245 24.6377 57.3182 24.25 57.197V53.1875C24.25 53.1875 23.5938 53.4062 22.7188 53.4062C20.2708 53.4062 19.2537 51.2221 19 50.125C18.8459 49.4566 18.4434 48.8233 18.0113 48.4363C17.495 47.9759 17.2534 47.9745 17.25 47.817C17.2433 47.4865 17.6929 47.5 17.9062 47.5C19 47.5 19.8292 48.6637 20.2142 49.2655C21.168 50.751 22.1917 51 22.7188 51C23.375 51 23.9417 50.9017 24.3321 50.7133C24.5125 49.4425 25.0779 48.3104 26 47.5C21.8962 46.6795 19 44.3258 19 40.5C19 38.5292 19.7909 36.718 21.1088 35.2554C20.9741 34.8738 20.75 34.1017 20.75 32.8438C20.75 32.0125 20.8079 30.9921 21.1875 30C21.1875 30 23.6833 30.0175 26.037 32.2467C27.1234 31.9304 28.2858 31.75 29.5 31.75C30.7142 31.75 31.8766 31.9304 32.963 32.2467C35.3167 30.0175 37.8125 30 37.8125 30C38.1941 30.9921 38.25 32.0125 38.25 32.8438C38.25 34.2 38.0696 34.9909 37.9592 35.3321C39.2367 36.7813 40 38.5642 40 40.5C40 44.3258 37.1038 46.6795 33 47.5C34.0958 48.4625 34.75 49.8645 34.75 51.4375V57.197C34.3623 57.3188 33.9679 57.4245 33.5687 57.5194C41.2708 55.6846 47 48.7634 47 40.5C47 30.8353 39.1647 23 29.5 23ZM30.7203 57.9529C30.3171 57.9812 29.9106 58 29.5 58C29.9106 58 30.3164 57.9805 30.7203 57.9529ZM33.3944 57.5598C32.611 57.7382 31.808 57.8634 30.9882 57.9327C31.808 57.8634 32.611 57.7375 33.3944 57.5598ZM29.5 58C29.0894 58 28.6829 57.9812 28.2797 57.9529C28.6836 57.9805 29.0894 58 29.5 58ZM28.0112 57.9327C27.192 57.8634 26.3884 57.7382 25.6056 57.5598C26.389 57.7375 27.192 57.8634 28.0112 57.9327Z" fill="black"/>
</g>
<g filter="url(#filter1_d_823_2013)">
<path d="M82.4668 112.939C61.2275 112.939 44 95.712 44 74.4665C44.0002 53.2214 61.2275 36 82.4669 36C103.713 36 120.934 53.2214 120.934 74.4668C120.934 95.7122 103.712 112.939 82.4668 112.939ZM58.4605 69.847C55.916 69.847 53.8469 71.9163 53.8469 74.4726C53.8469 77.017 55.916 79.0862 58.4605 79.0862C61.0168 79.0862 63.0981 77.017 63.0981 74.4726C63.0981 71.9163 61.0169 69.847 58.4605 69.847ZM91.4715 90.8639C89.276 92.1269 88.5121 94.9601 89.7752 97.1557C91.0625 99.3873 93.8895 100.139 96.0851 98.8579C98.3048 97.6008 99.0686 94.7616 97.7754 92.554C96.5002 90.3285 93.679 89.5765 91.4714 90.8698V90.8637L91.4715 90.8639ZM68.5057 74.4726C68.5057 69.9071 70.7794 65.8591 74.2501 63.4168L70.8757 57.7565C66.8216 60.4574 63.8079 64.5897 62.5628 69.426C64.0366 70.6289 64.9508 72.4335 64.9508 74.4726C64.9508 76.4997 64.0366 78.3162 62.5628 79.5072C63.8079 84.3434 66.8275 88.4698 70.8757 91.1646L74.2501 85.5164C70.7794 83.0803 68.5057 79.0261 68.5057 74.4726ZM82.0037 60.9566C89.0715 60.9566 94.858 66.3763 95.4596 73.2877L102.052 73.1673C101.721 68.0906 99.5017 63.4889 96.0851 60.1567C94.3106 60.8063 92.2715 60.7161 90.5272 59.6875C88.7706 58.6768 87.682 56.9747 87.3752 55.1219C85.6251 54.6416 83.8184 54.3988 82.0037 54.4001C78.8157 54.4001 75.8021 55.146 73.1073 56.4694L76.3254 62.2258C78.0458 61.4138 79.9886 60.9626 82.0037 60.9626V60.9566ZM82.0037 87.9766C79.9827 87.9766 78.0458 87.5195 76.3254 86.7134L73.1073 92.4699C75.7961 93.7872 78.8156 94.5331 82.0037 94.5331C83.8745 94.5331 85.6669 94.2924 87.3753 93.8112C87.6759 91.9527 88.7708 90.2382 90.5272 89.2338C92.2896 88.2292 94.3106 88.1209 96.0851 88.7946C99.5077 85.4141 101.715 80.8427 102.052 75.7599L95.4596 75.6636C94.858 82.557 89.0715 87.9705 82.0037 87.9705V87.9766ZM91.4715 58.0815C93.679 59.3566 96.5001 58.6048 97.7754 56.3851C99.0686 54.1777 98.3048 51.3384 96.0971 50.0633C93.8956 48.8001 91.0684 49.5519 89.7872 51.7654C88.506 53.9671 89.27 56.8001 91.4715 58.0755V58.0815Z" fill="#E95420"/>
</g>
<g clip-path="url(#clip0_823_2013)" filter="url(#filter2_d_823_2013)">
<path d="M122.037 117.267H126.262H122.037ZM117.007 117.267H121.233H117.007ZM112.078 117.267H116.303H112.078ZM107.149 117.267H111.273H107.149ZM102.119 117.267H106.344H102.119ZM107.149 112.64H111.273H107.149ZM112.078 112.64H116.303H112.078ZM117.007 112.64H121.233H117.007ZM117.007 108.012H121.233H117.007Z" fill="black"/>
<path d="M122.037 117.267H126.262M117.007 117.267H121.233M112.078 117.267H116.303M107.149 117.267H111.273M102.119 117.267H106.344M107.149 112.64H111.273M112.078 112.64H116.303M117.007 112.64H121.233M117.007 108.012H121.233" stroke="#2396ED" stroke-width="3.82278"/>
<g filter="url(#filter3_d_823_2013)">
<path d="M142.723 117.601C142.723 117.601 140.913 115.891 137.191 116.494C136.788 113.577 133.67 111.867 133.67 111.867C133.67 111.867 130.752 115.388 132.865 119.311C132.261 119.613 131.255 120.015 129.746 120.015H102.081C101.578 121.927 101.578 134.602 115.461 134.602C125.42 134.602 132.865 129.975 136.386 121.524C141.617 121.927 142.723 117.601 142.723 117.601Z" fill="#2396ED"/>
</g>
</g>
<g filter="url(#filter4_d_823_2013)">
<path d="M49.1751 121.489C48.6688 120.843 45.8239 121.178 44.534 121.334C44.1483 121.382 44.088 121.047 44.4376 120.795C46.7039 119.215 50.4287 119.67 50.8627 120.197C51.2967 120.735 50.7422 124.434 48.6206 126.205C48.2951 126.48 47.9817 126.337 48.1263 125.978C48.6085 124.793 49.6814 122.124 49.1751 121.489Z" fill="#FF9900"/>
<path d="M46.7684 123.777C42.8024 126.686 37.0403 128.23 32.0858 128.23C25.1424 128.23 18.886 125.68 14.1606 121.443C13.7869 121.108 14.1244 120.653 14.5704 120.917C19.6816 123.861 25.9862 125.645 32.5077 125.645C36.9077 125.645 41.7416 124.735 46.1898 122.868C46.8528 122.568 47.4193 123.299 46.7684 123.777Z" fill="#FF9900"/>
<path d="M24.2259 115.816C24.2259 116.259 24.2741 116.618 24.3585 116.881C24.4549 117.144 24.5754 117.432 24.7442 117.743C24.8045 117.838 24.8286 117.934 24.8286 118.018C24.8286 118.138 24.7563 118.257 24.5995 118.377L23.8401 118.88C23.7316 118.952 23.6231 118.988 23.5267 118.988C23.4061 118.988 23.2856 118.928 23.165 118.82C22.9963 118.64 22.8516 118.449 22.7311 118.257C22.6105 118.054 22.49 117.827 22.3574 117.551C21.4171 118.652 20.2358 119.203 18.8133 119.203C17.8007 119.203 16.9931 118.916 16.4024 118.341C15.8117 117.767 15.5103 117.001 15.5103 116.043C15.5103 115.026 15.872 114.2 16.6073 113.578C17.3427 112.955 18.3191 112.644 19.5607 112.644C19.9706 112.644 20.3925 112.68 20.8385 112.74C21.2845 112.8 21.7426 112.895 22.2248 113.003V112.129C22.2248 111.22 22.0319 110.585 21.6582 110.214C21.2725 109.843 20.6215 109.664 19.6933 109.664C19.2714 109.664 18.8374 109.712 18.3914 109.819C17.9454 109.927 17.5114 110.059 17.0895 110.226C16.8966 110.31 16.752 110.358 16.6676 110.382C16.5832 110.406 16.5229 110.418 16.4747 110.418C16.306 110.418 16.2216 110.298 16.2216 110.047V109.46C16.2216 109.269 16.2457 109.125 16.306 109.041C16.3662 108.958 16.4747 108.874 16.6435 108.79C17.0654 108.575 17.5717 108.395 18.1624 108.251C18.753 108.096 19.3799 108.024 20.0429 108.024C21.4774 108.024 22.5261 108.347 23.2012 108.993C23.8642 109.64 24.2017 110.621 24.2017 111.938V115.816H24.2259ZM19.3317 117.635C19.7295 117.635 20.1393 117.563 20.5733 117.42C21.0073 117.276 21.393 117.013 21.7185 116.654C21.9114 116.426 22.056 116.175 22.1283 115.888C22.2007 115.6 22.2489 115.253 22.2489 114.846V114.344C21.8993 114.26 21.5256 114.188 21.1399 114.14C20.7541 114.092 20.3804 114.068 20.0067 114.068C19.1991 114.068 18.6084 114.224 18.2106 114.547C17.8128 114.87 17.6199 115.325 17.6199 115.923C17.6199 116.486 17.7646 116.905 18.0659 117.192C18.3552 117.491 18.7772 117.635 19.3317 117.635ZM29.0115 118.928C28.7946 118.928 28.6499 118.892 28.5535 118.808C28.457 118.736 28.3726 118.569 28.3003 118.341L25.4675 109.089C25.3952 108.85 25.359 108.694 25.359 108.61C25.359 108.419 25.4554 108.311 25.6483 108.311H26.8297C27.0587 108.311 27.2154 108.347 27.2998 108.431C27.3962 108.503 27.4686 108.67 27.5409 108.898L29.5661 116.821L31.4466 108.898C31.5069 108.658 31.5792 108.503 31.6756 108.431C31.7721 108.359 31.9408 108.311 32.1578 108.311H33.1222C33.3512 108.311 33.5079 108.347 33.6044 108.431C33.7008 108.503 33.7852 108.67 33.8334 108.898L35.738 116.917L37.8235 108.898C37.8958 108.658 37.9802 108.503 38.0646 108.431C38.161 108.359 38.3177 108.311 38.5347 108.311H39.6558C39.8487 108.311 39.9572 108.407 39.9572 108.61C39.9572 108.67 39.9451 108.73 39.9331 108.802C39.921 108.874 39.8969 108.969 39.8487 109.101L36.9435 118.353C36.8712 118.593 36.7868 118.748 36.6904 118.82C36.5939 118.892 36.4372 118.94 36.2323 118.94H35.1956C34.9665 118.94 34.8098 118.904 34.7134 118.82C34.617 118.736 34.5326 118.581 34.4844 118.341L32.6159 110.621L30.7595 118.329C30.6992 118.569 30.6269 118.724 30.5304 118.808C30.434 118.892 30.2652 118.928 30.0482 118.928H29.0115ZM44.5018 119.251C43.8749 119.251 43.2481 119.179 42.6453 119.035C42.0426 118.892 41.5725 118.736 41.2591 118.557C41.0662 118.449 40.9336 118.329 40.8854 118.222C40.8372 118.114 40.813 117.994 40.813 117.886V117.276C40.813 117.025 40.9095 116.905 41.0903 116.905C41.1626 116.905 41.235 116.917 41.3073 116.941C41.3796 116.965 41.4881 117.013 41.6086 117.061C42.0185 117.24 42.4645 117.384 42.9347 117.479C43.4168 117.575 43.887 117.623 44.3692 117.623C45.1286 117.623 45.7193 117.491 46.1291 117.228C46.539 116.965 46.756 116.582 46.756 116.091C46.756 115.756 46.6475 115.481 46.4305 115.253C46.2135 115.026 45.8037 114.822 45.213 114.631L43.4651 114.092C42.5851 113.817 41.9341 113.41 41.5363 112.871C41.1385 112.345 40.9336 111.758 40.9336 111.136C40.9336 110.633 41.0421 110.19 41.2591 109.807C41.476 109.424 41.7654 109.089 42.127 108.826C42.4886 108.551 42.8985 108.347 43.3807 108.203C43.8629 108.06 44.3692 108 44.8996 108C45.1648 108 45.442 108.012 45.7072 108.048C45.9845 108.084 46.2376 108.132 46.4908 108.18C46.7319 108.239 46.9609 108.299 47.1779 108.371C47.3949 108.443 47.5636 108.515 47.6842 108.586C47.853 108.682 47.9735 108.778 48.0458 108.886C48.1182 108.981 48.1543 109.113 48.1543 109.281V109.843C48.1543 110.095 48.0579 110.226 47.8771 110.226C47.7806 110.226 47.6239 110.178 47.419 110.083C46.7319 109.771 45.9604 109.616 45.1045 109.616C44.4174 109.616 43.8749 109.724 43.5012 109.951C43.1275 110.178 42.9347 110.525 42.9347 111.016C42.9347 111.351 43.0552 111.639 43.2963 111.866C43.5374 112.093 43.9834 112.321 44.6223 112.524L46.3341 113.063C47.202 113.338 47.8288 113.721 48.2025 114.212C48.5762 114.703 48.7571 115.265 48.7571 115.888C48.7571 116.402 48.6486 116.869 48.4436 117.276C48.2266 117.683 47.9373 118.042 47.5636 118.329C47.1899 118.628 46.7439 118.844 46.2256 118.999C45.6831 119.167 45.1165 119.251 44.5018 119.251Z" fill="#252F3E"/>
</g>
<g clip-path="url(#clip1_823_2013)">
<path fill-rule="evenodd" clip-rule="evenodd" d="M117.951 2.12645L118.73 3.14608C118.935 3.41519 118.884 3.80092 118.613 4.00425L117.785 4.62919C117.936 5.02687 118.032 5.45147 118.071 5.88504L119.014 6.01362C119.351 6.05847 119.586 6.36944 119.54 6.70434L119.366 7.97514C119.321 8.31004 119.008 8.54626 118.67 8.49842L117.64 8.35788C117.457 8.75557 117.222 9.12037 116.945 9.44629L117.523 10.1998C117.728 10.4689 117.674 10.8546 117.403 11.058L116.376 11.8324C116.105 12.0357 115.716 11.9819 115.512 11.7158L114.882 10.8935C114.479 11.043 114.054 11.1387 113.615 11.1776L113.485 12.1135C113.44 12.4484 113.127 12.6816 112.79 12.6368L111.51 12.4633C111.173 12.4185 110.938 12.1075 110.983 11.7726L111.125 10.75C110.727 10.5676 110.357 10.3344 110.029 10.0623L109.27 10.6334C108.999 10.8367 108.61 10.7859 108.406 10.5168L107.626 9.49712C107.421 9.22801 107.472 8.84228 107.743 8.63895L108.571 8.01402C108.421 7.61334 108.324 7.19173 108.285 6.75816L107.343 6.62958C107.005 6.58473 106.768 6.27376 106.816 5.93886L106.99 4.66806C107.039 4.33316 107.349 4.09993 107.686 4.14478L108.716 4.28532C108.899 3.89062 109.134 3.52284 109.408 3.19691L108.833 2.4434C108.628 2.17728 108.68 1.79155 108.951 1.58822L109.977 0.813777C110.248 0.610448 110.637 0.66128 110.842 0.930392L111.471 1.75268C111.871 1.60317 112.299 1.50749 112.735 1.46862L112.865 0.532704C112.91 0.197809 113.223 -0.0384111 113.56 0.00644093L114.84 0.179869C115.177 0.224721 115.415 0.535694 115.367 0.870589L115.226 1.89321C115.626 2.07561 115.993 2.30884 116.325 2.58394L117.083 2.01282C117.354 1.8065 117.743 1.85733 117.951 2.12645ZM95.9337 20.0702V15.1365H98.4931C98.9689 15.1365 99.3302 15.1754 99.5801 15.2591C99.83 15.3398 100.035 15.4893 100.185 15.7076C100.339 15.9289 100.417 16.195 100.417 16.509C100.417 16.7811 100.357 17.0203 100.24 17.2176C100.122 17.418 99.9595 17.5795 99.7548 17.702C99.6253 17.7798 99.4446 17.8456 99.2158 17.8964C99.3994 17.9592 99.5319 18.016 99.6132 18.0788C99.6704 18.1207 99.7517 18.2074 99.8571 18.3389C99.9625 18.4705 100.035 18.5752 100.071 18.6469L100.818 20.0732H99.0833L98.2643 18.5692C98.1589 18.3748 98.0686 18.2463 97.9873 18.1894C97.8758 18.1147 97.7494 18.0758 97.6109 18.0758H97.4754V20.0732H95.9337V20.0702ZM101.348 28.6609H98.4811L98.0686 30.0005H95.4851L98.5654 21.8703H101.336L104.404 30.0005H101.754L101.348 28.6609ZM100.812 26.8997L99.9173 23.9753L99.02 26.8997H100.812ZM105 21.8703H109.21C110.128 21.8703 110.814 22.0856 111.269 22.5191C111.724 22.9527 111.953 23.5717 111.953 24.37C111.953 25.1923 111.703 25.8352 111.206 26.2987C110.709 26.7621 109.947 26.9924 108.926 26.9924H107.538V30.0005H105V21.8703ZM107.538 25.3448H108.162C108.652 25.3448 108.999 25.2611 109.197 25.0907C109.396 24.9232 109.496 24.7049 109.496 24.4448C109.496 24.1906 109.408 23.9724 109.237 23.7959C109.065 23.6195 108.74 23.5298 108.264 23.5298H107.538V25.3448ZM112.976 21.8703H115.515V30.0005H112.976V21.8703ZM97.4754 17.1399H98.1228C98.192 17.1399 98.3275 17.116 98.5292 17.0711C98.6316 17.0502 98.7159 16.9994 98.7792 16.9156C98.8454 16.8319 98.8755 16.7362 98.8755 16.6286C98.8755 16.4701 98.8243 16.3445 98.722 16.2608C98.6196 16.1741 98.4299 16.1322 98.1498 16.1322H97.4754V17.1399ZM101.113 15.1365H105.223V16.189H102.654V16.9754H105.036V17.9801H102.654V18.9519H105.298V20.0672H101.113V15.1365ZM105.662 18.4376L107.12 18.3479C107.15 18.5841 107.216 18.7606 107.313 18.8831C107.472 19.0805 107.698 19.1822 107.99 19.1822C108.207 19.1822 108.378 19.1313 108.496 19.0297C108.613 18.928 108.674 18.8084 108.674 18.6738C108.674 18.5453 108.616 18.4316 108.505 18.33C108.394 18.2283 108.132 18.1356 107.719 18.0429C107.048 17.8934 106.569 17.6931 106.28 17.4449C105.991 17.1967 105.846 16.8798 105.846 16.494C105.846 16.2399 105.921 16.0007 106.069 15.7764C106.217 15.5521 106.439 15.3727 106.737 15.2442C107.036 15.1156 107.442 15.0528 107.96 15.0528C108.595 15.0528 109.077 15.1694 109.411 15.4056C109.742 15.6418 109.941 16.0126 110.004 16.5269L108.562 16.6136C108.523 16.3894 108.442 16.2249 108.321 16.1262C108.198 16.0246 108.026 15.9737 107.812 15.9737C107.635 15.9737 107.499 16.0126 107.409 16.0874C107.319 16.1621 107.273 16.2548 107.273 16.3625C107.273 16.4402 107.313 16.509 107.385 16.5748C107.457 16.6376 107.626 16.7004 107.897 16.7572C108.568 16.9007 109.05 17.0472 109.339 17.1937C109.628 17.3402 109.842 17.5226 109.971 17.7409C110.104 17.9562 110.17 18.2014 110.17 18.4705C110.17 18.7875 110.083 19.0775 109.905 19.3436C109.73 19.6098 109.484 19.8131 109.167 19.9506C108.851 20.0882 108.454 20.1569 107.972 20.1569C107.129 20.1569 106.542 19.9955 106.217 19.6725C105.891 19.3436 105.708 18.934 105.662 18.4376ZM110.393 15.1365H115.063V16.3565H113.497V20.0702H111.962V16.3565H110.393V15.1365ZM105.226 3.42715C104.675 3.38529 104.118 3.39127 103.567 3.44509C101.872 3.60656 100.224 4.21954 98.8635 5.26907C97.2887 6.48008 96.0933 8.2921 95.6326 10.6932L95.4881 11.4437L94.7353 11.5753C93.9976 11.7038 93.3382 11.8803 92.76 12.1045C92.2 12.3198 91.7001 12.5859 91.2635 12.8999C90.9143 13.1511 90.6131 13.4321 90.3572 13.7371C89.5653 14.679 89.1979 15.8601 89.207 17.0562C89.216 18.2702 89.6135 19.4961 90.3482 20.5038C90.6222 20.8776 90.9383 21.2214 91.2997 21.5204C91.667 21.8224 92.0795 22.0736 92.5432 22.262C92.8052 22.3696 93.0852 22.4593 93.3773 22.5311V24.7707C92.7751 24.6631 92.2211 24.5016 91.7032 24.2893C91.0196 24.0082 90.4144 23.6464 89.8815 23.2039C89.3756 22.7853 88.933 22.3098 88.5566 21.7925C87.5539 20.4171 87.0119 18.7366 86.9999 17.0622C86.9878 15.3697 87.5178 13.6863 88.662 12.3228C89.0323 11.8803 89.4689 11.4736 89.9688 11.1148C90.5499 10.6962 91.2154 10.3433 91.9681 10.0533C92.486 9.85295 93.0401 9.6855 93.6242 9.55094C94.2866 6.93757 95.6988 4.92521 97.5145 3.52882C99.2128 2.22213 101.257 1.45965 103.362 1.25931C104.467 1.15465 105.587 1.20249 106.683 1.40582C106.659 1.5045 106.638 1.60317 106.626 1.70484L106.623 1.72278C106.602 1.89321 106.593 2.06365 106.602 2.23708C106.37 2.32678 106.153 2.44938 105.958 2.59889L105.949 2.60487C105.656 2.82315 105.41 3.10422 105.226 3.42715ZM121.157 9.16821C121.326 9.3207 121.489 9.47918 121.648 9.64962C121.97 9.99348 122.275 10.3822 122.561 10.8158C123.524 12.2869 124.018 14.2514 123.997 16.1741C123.976 18.0609 123.464 19.9387 122.416 21.3201C121.733 22.2201 120.856 22.9557 119.805 23.5388C119.086 23.9395 118.276 24.2714 117.394 24.5405V22.2231C117.869 22.0467 118.312 21.8494 118.718 21.6251C119.51 21.1856 120.158 20.6503 120.643 20.0074C121.395 19.0117 121.766 17.6034 121.781 16.1591C121.799 14.6431 121.425 13.1212 120.7 12.0148C120.492 11.6949 120.263 11.4078 120.022 11.1507C119.929 11.052 119.836 10.9593 119.739 10.8696C119.754 10.7201 119.76 10.5676 119.751 10.4151C119.983 10.3254 120.2 10.2028 120.396 10.0533L120.405 10.0473C120.715 9.81109 120.974 9.51207 121.157 9.16821ZM113.521 3.82783C114.909 4.01621 115.879 5.28701 115.689 6.66547C115.5 8.04392 114.22 9.00973 112.832 8.82135C111.444 8.63297 110.471 7.36217 110.664 5.98372C110.857 4.60526 112.133 3.63945 113.521 3.82783Z" fill="black"/>
</g>
<defs>
<filter id="filter0_d_823_2013" x="0" y="15" width="59" height="59" filterUnits="userSpaceOnUse" color-interpolation-filters="sRGB">
<feFlood flood-opacity="0" result="BackgroundImageFix"/>
<feColorMatrix in="SourceAlpha" type="matrix" values="0 0 0 0 0 0 0 0 0 0 0 0 0 0 0 0 0 0 127 0" result="hardAlpha"/>
<feOffset dy="4"/>
<feGaussianBlur stdDeviation="6"/>
<feComposite in2="hardAlpha" operator="out"/>
<feColorMatrix type="matrix" values="0 0 0 0 0 0 0 0 0 0 0 0 0 0 0 0 0 0 0.25 0"/>
<feBlend mode="normal" in2="BackgroundImageFix" result="effect1_dropShadow_823_2013"/>
<feBlend mode="normal" in="SourceGraphic" in2="effect1_dropShadow_823_2013" result="shape"/>
</filter>
<filter id="filter1_d_823_2013" x="40" y="36" width="84.9337" height="84.9395" filterUnits="userSpaceOnUse" color-interpolation-filters="sRGB">
<feFlood flood-opacity="0" result="BackgroundImageFix"/>
<feColorMatrix in="SourceAlpha" type="matrix" values="0 0 0 0 0 0 0 0 0 0 0 0 0 0 0 0 0 0 127 0" result="hardAlpha"/>
<feOffset dy="4"/>
<feGaussianBlur stdDeviation="2"/>
<feComposite in2="hardAlpha" operator="out"/>
<feColorMatrix type="matrix" values="0 0 0 0 0.913725 0 0 0 0 0.329412 0 0 0 0 0.12549 0 0 0 0.25 0"/>
<feBlend mode="normal" in2="BackgroundImageFix" result="effect1_dropShadow_823_2013"/>
<feBlend mode="normal" in="SourceGraphic" in2="effect1_dropShadow_823_2013" result="shape"/>
</filter>
<filter id="filter2_d_823_2013" x="96.0667" y="106" width="49.8667" height="34.4668" filterUnits="userSpaceOnUse" color-interpolation-filters="sRGB">
<feFlood flood-opacity="0" result="BackgroundImageFix"/>
<feColorMatrix in="SourceAlpha" type="matrix" values="0 0 0 0 0 0 0 0 0 0 0 0 0 0 0 0 0 0 127 0" result="hardAlpha"/>
<feOffset dy="2.93333"/>
<feGaussianBlur stdDeviation="1.46667"/>
<feComposite in2="hardAlpha" operator="out"/>
<feColorMatrix type="matrix" values="0 0 0 0 0.137255 0 0 0 0 0.588235 0 0 0 0 0.929412 0 0 0 0.25 0"/>
<feBlend mode="normal" in2="BackgroundImageFix" result="effect1_dropShadow_823_2013"/>
<feBlend mode="normal" in="SourceGraphic" in2="effect1_dropShadow_823_2013" result="shape"/>
</filter>
<filter id="filter3_d_823_2013" x="99" y="111.867" width="46.6568" height="28.602" filterUnits="userSpaceOnUse" color-interpolation-filters="sRGB">
<feFlood flood-opacity="0" result="BackgroundImageFix"/>
<feColorMatrix in="SourceAlpha" type="matrix" values="0 0 0 0 0 0 0 0 0 0 0 0 0 0 0 0 0 0 127 0" result="hardAlpha"/>
<feOffset dy="2.93333"/>
<feGaussianBlur stdDeviation="1.46667"/>
<feComposite in2="hardAlpha" operator="out"/>
<feColorMatrix type="matrix" values="0 0 0 0 0.137255 0 0 0 0 0.588235 0 0 0 0 0.929412 0 0 0 0.25 0"/>
<feBlend mode="normal" in2="BackgroundImageFix" result="effect1_dropShadow_823_2013"/>
<feBlend mode="normal" in="SourceGraphic" in2="effect1_dropShadow_823_2013" result="shape"/>
</filter>
<filter id="filter4_d_823_2013" x="11.2593" y="108" width="42.4815" height="25.7112" filterUnits="userSpaceOnUse" color-interpolation-filters="sRGB">
<feFlood flood-opacity="0" result="BackgroundImageFix"/>
<feColorMatrix in="SourceAlpha" type="matrix" values="0 0 0 0 0 0 0 0 0 0 0 0 0 0 0 0 0 0 127 0" result="hardAlpha"/>
<feOffset dy="2.74074"/>
<feGaussianBlur stdDeviation="1.37037"/>
<feComposite in2="hardAlpha" operator="out"/>
<feColorMatrix type="matrix" values="0 0 0 0 0 0 0 0 0 0 0 0 0 0 0 0 0 0 0.15 0"/>
<feBlend mode="normal" in2="BackgroundImageFix" result="effect1_dropShadow_823_2013"/>
<feBlend mode="normal" in="SourceGraphic" in2="effect1_dropShadow_823_2013" result="shape"/>
</filter>
<clipPath id="clip0_823_2013">
<rect width="44" height="28.6" fill="white" transform="translate(99 106)"/>
</clipPath>
<clipPath id="clip1_823_2013">
<rect width="37" height="30" fill="white" transform="translate(87)"/>
</clipPath>
</defs>
</svg>
