<svg width="18rem" height="2.7rem" viewBox="0 0 228 46" fill="none" xmlns="http://www.w3.org/2000/svg">
<g clip-path="url(#clip0_16_578)">
<path d="M55.556 1.1853C49.818 1.1853 47.804 5.20026 47.804 8.94756V11.2418H46.588C45.714 11.2418 45.03 11.9301 45.03 12.8096C45.03 13.689 45.714 14.3773 46.588 14.3773H47.804V30.2077C47.804 31.1255 48.526 31.8902 49.476 31.8902C50.388 31.8902 51.148 31.1637 51.148 30.2077V14.3773H54.834C55.708 14.3773 56.392 13.689 56.392 12.8096C56.392 11.9301 55.708 11.2418 54.834 11.2418H51.148V8.94756C51.148 6.84449 51.908 4.35903 55.594 4.35903C56.468 4.35903 57.152 3.67076 57.152 2.79129C57.114 1.87358 56.43 1.1853 55.556 1.1853Z" fill="#4D4D4D"/>
<path d="M68.476 10.7065C66.006 10.7065 63.916 11.739 62.738 13.4214V12.542C62.738 11.6242 62.016 10.8595 61.066 10.8595C60.154 10.8595 59.394 11.586 59.394 12.542V30.2078C59.394 31.1255 60.116 31.8903 61.066 31.8903C61.978 31.8903 62.738 31.1637 62.738 30.2078V20.4572C62.738 16.3657 64.904 13.9185 68.476 13.9185C69.35 13.9185 70.072 13.192 70.072 12.3125C70.11 11.4331 69.388 10.7065 68.476 10.7065Z" fill="#4D4D4D"/>
<path d="M88.806 19.3866C88.806 18.4306 88.654 15.9452 87.21 13.8803C85.728 11.739 83.41 10.6301 80.256 10.6301C74.404 10.6301 71.06 14.5304 71.06 21.3367C71.06 28.3724 74.404 32.1197 80.674 32.1197C84.892 32.1197 87.21 30.0167 87.628 29.596C87.894 29.3284 88.198 28.9842 88.198 28.4107C88.198 27.5694 87.514 26.8812 86.678 26.8812C86.26 26.8812 85.994 26.9959 85.728 27.1871C84.512 28.1048 83.106 29.0225 80.712 29.0225C76.95 29.0225 74.556 26.537 74.442 22.4838H86.792C88.806 22.4456 88.806 20.6102 88.806 19.3866ZM80.256 13.6891C83.676 13.6891 85.462 15.6393 85.538 19.463H74.48C74.784 15.754 76.836 13.6891 80.256 13.6891Z" fill="#4D4D4D"/>
<path d="M99.978 19.6541C97.508 18.8129 95.38 18.0481 95.38 16.2127C95.38 14.1861 97.622 13.8802 98.952 13.8802C101.346 13.8802 102.524 14.7214 103.474 15.6391C103.778 15.945 104.158 16.098 104.576 16.098C105.412 16.098 106.096 15.4097 106.096 14.5685C106.096 14.1096 105.906 13.8037 105.754 13.5743C104.348 11.7006 101.954 10.6682 98.952 10.6682C94.696 10.6682 92.074 12.8095 92.074 16.2127C92.074 20.3806 95.722 21.6424 98.914 22.7131C101.346 23.5543 103.436 24.2426 103.436 26.0398C103.436 28.487 100.738 28.8694 99.104 28.8694C96.9 28.8694 95.19 28.1811 93.784 26.8045C93.366 26.3839 92.91 26.3074 92.644 26.3074C91.808 26.3074 91.124 26.9957 91.124 27.837C91.124 28.1811 91.238 28.4488 91.504 28.8311C92.758 30.4371 95.608 32.0813 99.104 32.0813C103.892 32.0813 106.742 29.8253 106.742 26.078C106.742 22.0248 103.17 20.763 99.978 19.6541Z" fill="#4D4D4D"/>
<path d="M119.7 10.6301C117.42 10.6301 115.368 11.5478 114.228 13.0008V1.68246C114.228 0.764755 113.506 0 112.556 0C111.644 0 110.884 0.726517 110.884 1.68246V30.246C110.884 31.1638 111.606 31.9285 112.556 31.9285C113.468 31.9285 114.228 31.202 114.228 30.246V19.5012C114.228 15.6392 116.09 13.6891 119.7 13.6891C123.196 13.6891 124.64 15.2951 124.64 19.1953V30.246C124.64 31.1638 125.362 31.9285 126.312 31.9285C127.224 31.9285 127.984 31.202 127.984 30.246V18.6218C127.908 13.3067 125.134 10.6301 119.7 10.6301Z" fill="#4D4D4D"/>
<path d="M155.61 10.8977C154.888 10.8977 154.318 11.3183 154.052 12.0066L149.302 25.6192L145.426 12.0066C145.274 11.4713 144.704 10.8977 143.868 10.8977C143.032 10.8977 142.462 11.4713 142.31 12.0066L138.434 25.581L133.684 11.9684C133.418 11.2801 132.848 10.8977 132.126 10.8977C131.214 10.8977 130.454 11.6242 130.454 12.5802C130.454 12.8096 130.492 13.039 130.606 13.2684L136.952 30.8196C137.218 31.5078 137.788 31.8902 138.51 31.8902C139.27 31.8902 139.916 31.3931 140.106 30.7049L143.83 17.8187L147.554 30.7049C147.744 31.3931 148.428 31.8902 149.15 31.8902C149.872 31.8902 150.442 31.4696 150.708 30.7813L157.054 13.2302C157.168 13.0008 157.206 12.7331 157.206 12.5037C157.244 11.6242 156.522 10.8977 155.61 10.8977Z" fill="#4D4D4D"/>
<path d="M167.694 10.6301C161.652 10.6301 158.346 14.4539 158.346 21.3367C158.346 28.296 161.652 32.1197 167.694 32.1197C173.736 32.1197 177.042 28.296 177.042 21.3367C177.042 14.4157 173.698 10.6301 167.694 10.6301ZM167.694 29.0607C163.666 29.0607 161.69 26.537 161.69 21.3749C161.69 16.2893 163.704 13.7274 167.694 13.7274C171.684 13.7274 173.698 16.2893 173.698 21.3749C173.698 26.537 171.722 29.0607 167.694 29.0607Z" fill="#4D4D4D"/>
<path d="M189.886 10.7065C187.416 10.7065 185.326 11.739 184.148 13.4214V12.542C184.148 11.6242 183.426 10.8595 182.476 10.8595C181.564 10.8595 180.804 11.586 180.804 12.542V30.2078C180.804 31.1255 181.526 31.8903 182.476 31.8903C183.388 31.8903 184.148 31.1637 184.148 30.2078V20.4572C184.148 16.3657 186.314 13.9185 189.886 13.9185C190.76 13.9185 191.482 13.192 191.482 12.3125C191.482 11.4331 190.76 10.7065 189.886 10.7065Z" fill="#4D4D4D"/>
<path d="M202.502 19.4248L209.38 13.8803C209.95 13.4214 210.026 12.8479 210.026 12.542C210.026 11.6243 209.304 10.8595 208.354 10.8595C208.088 10.8595 207.632 10.8978 207.214 11.2801L197.448 19.3101V1.68246C197.448 0.764755 196.726 0 195.776 0C194.864 0 194.104 0.726517 194.104 1.68246V30.246C194.104 31.1638 194.826 31.9285 195.776 31.9285C196.688 31.9285 197.448 31.202 197.448 30.246V23.3633L199.766 21.4896L207.252 31.1638C207.67 31.6608 208.126 31.9285 208.658 31.9285C209.57 31.9285 210.33 31.202 210.33 30.246C210.33 29.9784 210.292 29.596 209.988 29.2136L202.502 19.4248Z" fill="#4D4D4D"/>
<path d="M221.236 19.6541C218.766 18.8129 216.638 18.0481 216.638 16.2127C216.638 14.1861 218.88 13.8802 220.21 13.8802C222.604 13.8802 223.782 14.7214 224.732 15.6391C225.036 15.945 225.416 16.098 225.834 16.098C226.67 16.098 227.354 15.4097 227.354 14.5685C227.354 14.0714 227.088 13.7272 227.012 13.5743C225.606 11.7006 223.212 10.6682 220.21 10.6682C215.954 10.6682 213.332 12.8095 213.332 16.2127C213.332 20.3806 216.98 21.6424 220.172 22.7131C222.604 23.5543 224.694 24.2426 224.694 26.0398C224.694 28.487 221.996 28.8694 220.362 28.8694C218.158 28.8694 216.448 28.1811 215.042 26.8045C214.624 26.3839 214.206 26.3074 213.902 26.3074C213.066 26.3074 212.382 26.9957 212.382 27.837C212.382 28.1811 212.496 28.4488 212.762 28.8311C214.016 30.4371 216.866 32.0813 220.362 32.0813C225.15 32.0813 228 29.8253 228 26.078C228 22.0248 224.428 20.763 221.236 19.6541Z" fill="#4D4D4D"/>
<path d="M0.227997 29.2901C0.873997 33.5344 2.85 37.3582 5.7 40.226L12.35 33.5344C12.35 26.7664 15.846 20.1895 22.078 16.5569L0.227997 29.2901Z" fill="#9B65C3"/>
<path d="M12.35 33.5346C9.044 33.5346 5.7 32.6934 2.622 30.8962C1.786 30.3991 0.987997 29.8638 0.227997 29.252C0.873997 33.4963 2.85 37.3201 5.7 40.1879L12.35 33.5346Z" fill="#9B65C3"/>
<path d="M12.35 33.5345L5.7 40.2261C8.588 43.1321 12.35 45.1205 16.568 45.7323L29.184 23.7456C25.612 30.0166 19.076 33.5345 12.35 33.5345Z" fill="#BE63C5"/>
<path d="M14.972 43.3616C13.186 40.2644 12.35 36.8994 12.35 33.5728L5.7 40.2644C8.588 43.1704 12.35 45.1588 16.568 45.7706C15.998 45.0058 15.466 44.2028 14.972 43.3616Z" fill="#BF63C6"/>
<path d="M37.126 7.83862L22.116 16.5951C15.884 20.2277 8.474 19.96 2.66 16.5951C0.988002 19.4629 0.038002 22.8278 0.038002 26.3839C0.038002 27.3781 0.114002 28.3341 0.266002 29.29C1.026 29.9018 1.824 30.4371 2.66 30.9342C5.738 32.7314 9.082 33.5726 12.388 33.5726L37.544 8.25924C37.392 8.10629 37.278 7.95334 37.126 7.83862Z" fill="#3278B1"/>
<path d="M2.622 30.9344C5.7 32.7315 9.044 33.5728 12.35 33.5728C12.35 26.8047 15.846 20.2278 22.078 16.5952L0.190002 29.2901C0.988002 29.8637 1.786 30.4373 2.622 30.9344Z" fill="#3278B2"/>
<path d="M2.622 16.5952C0.95 19.463 0 22.828 0 26.3841C0 27.3783 0.076 28.3342 0.228 29.2901L22.116 16.5952C15.846 20.1896 8.436 19.9601 2.622 16.5952Z" fill="#45A4EC"/>
<path d="M37.544 8.2211C37.43 8.10639 37.278 7.95344 37.126 7.83872C36.936 7.68577 36.746 7.53282 36.518 7.41811C35.796 6.99749 34.96 6.76807 34.086 6.76807H19.494C12.274 6.76807 6.004 10.7066 2.622 16.5569C8.436 19.9218 15.846 20.1895 22.078 16.5569C15.846 20.1895 12.35 26.7664 12.35 33.5345C19.076 33.5345 25.612 30.0166 29.222 23.7456L37.886 8.64172C37.772 8.48876 37.658 8.33581 37.544 8.2211Z" fill="#19BB7D"/>
<path d="M22.116 16.5951L37.126 7.87691C36.936 7.72396 36.746 7.57101 36.518 7.4563L2.622 16.5951C8.436 19.96 15.846 20.1895 22.116 16.5951Z" fill="#08C7FB"/>
<path d="M34.086 6.76807H19.494C12.274 6.76807 6.004 10.7066 2.622 16.5569L36.518 7.41811C35.796 7.03573 34.998 6.76807 34.086 6.76807Z" fill="#59F2F6"/>
<path d="M29.222 23.7457L37.886 8.64181C37.772 8.48886 37.658 8.37414 37.506 8.22119L12.35 33.5346C12.35 36.8613 13.186 40.2262 14.972 43.3234C15.466 44.1647 15.998 44.9677 16.606 45.7324C17.556 45.8854 18.506 45.9618 19.494 45.9618C23.028 45.9618 26.372 45.0059 29.222 43.3234C25.878 37.4731 25.612 30.0167 29.222 23.7457Z" fill="#DA3757"/>
<path d="M12.35 33.5345C12.35 36.8611 13.186 40.2261 14.972 43.3233C15.466 44.1646 15.998 44.9676 16.606 45.7323L29.222 23.7456C25.612 30.0166 19.076 33.5345 12.35 33.5345Z" fill="#D33C4E"/>
<path d="M29.222 23.7456L16.606 45.7705C17.556 45.9235 18.506 46 19.494 46C23.028 46 26.372 45.044 29.222 43.3616C25.878 37.473 25.612 30.0166 29.222 23.7456Z" fill="#EE5A24"/>
<path d="M38.304 9.25342C38.19 9.02399 38.038 8.8328 37.886 8.64162C37.772 8.48866 37.658 8.37395 37.506 8.221C37.392 8.10629 37.24 7.95334 37.088 7.83862L22.116 16.5951C15.884 20.2276 12.388 26.8045 12.388 33.5726C19.114 33.5726 25.65 30.0547 29.26 23.7838C25.65 30.0547 25.916 37.5111 29.26 43.3615C35.074 39.9583 38.988 33.6491 38.988 26.3839V11.7006C38.95 10.7829 38.722 9.9417 38.304 9.25342Z" fill="#8BDF55"/>
<path d="M37.126 7.83862L22.116 16.5951C15.884 20.2277 12.388 26.8045 12.388 33.5726L37.544 8.25924C37.392 8.10629 37.278 7.95334 37.126 7.83862Z" fill="#25C16F"/>
<path d="M12.35 33.5346C19.076 33.5346 25.612 30.0167 29.222 23.7457L37.886 8.64181C37.772 8.48886 37.658 8.37414 37.506 8.22119L12.35 33.5346Z" fill="#8BDF55"/>
<path d="M37.886 8.64185L29.222 23.7458C25.612 30.0167 25.878 37.4731 29.222 43.3235L38.304 9.21541C38.19 9.02422 38.038 8.83303 37.886 8.64185Z" fill="#FFBB00"/>
<path d="M29.222 43.3615C35.036 39.9583 38.95 33.6491 38.95 26.3839V11.7006C38.95 10.8212 38.722 9.97993 38.304 9.25342L29.222 43.3615Z" fill="#FFA800"/>
</g>
<defs>
<clipPath id="clip0_16_578">
<rect width="228" height="46" fill="white"/>
</clipPath>
</defs>
</svg>
