<svg width="71.2rem" height="3.375rem" viewBox="0 0 1138 54" fill="none" xmlns="http://www.w3.org/2000/svg">
<g clip-path="url(#clip0_16_428)">
<path d="M90.6295 34.2591C91.3292 34.5161 92.0611 34.7346 92.8186 34.9274C93.5826 35.1202 94.5198 35.2165 95.6176 35.2165C97.3509 35.2165 98.6477 34.8631 99.508 34.1498C100.362 33.4366 100.792 32.4727 100.792 31.2646C100.792 30.6734 100.702 30.1594 100.522 29.7353C100.343 29.3112 100.073 28.9449 99.7134 28.6364C99.3539 28.328 98.9045 28.0517 98.3653 27.7946C97.8196 27.5376 97.1905 27.2613 96.4714 26.9657L94.6675 26.2332C94.0512 25.9761 93.4927 25.6934 92.9791 25.3914C92.4719 25.0829 92.0354 24.7038 91.6631 24.2604C91.2907 23.8106 91.0018 23.2965 90.79 22.7118C90.5781 22.127 90.469 21.433 90.469 20.6234C90.469 18.6892 91.1238 17.1791 92.4398 16.0867C93.7495 14.9943 95.5984 14.4417 97.9672 14.4417C98.9816 14.4417 99.9445 14.5316 100.856 14.6987C101.768 14.8658 102.57 15.0842 103.27 15.3348C103.167 16.228 102.936 17.1084 102.57 17.9823C101.999 17.7703 101.338 17.5775 100.586 17.404C99.8354 17.2369 98.988 17.1534 98.0314 17.1534C96.6961 17.1534 95.669 17.4168 94.95 17.963C94.231 18.5028 93.8714 19.3189 93.8714 20.3984C93.8714 20.8483 93.9613 21.2402 94.1411 21.5937C94.3208 21.9471 94.5584 22.2555 94.8537 22.519C95.149 22.7825 95.5021 23.0266 95.9001 23.2323C96.3045 23.4507 96.7282 23.6371 97.1712 23.8106L98.9495 24.511C99.7969 24.8516 100.548 25.205 101.203 25.5777C101.858 25.9504 102.423 26.3874 102.891 26.8822C103.353 27.3834 103.706 27.9746 103.957 28.6557C104.201 29.3369 104.316 30.1337 104.316 31.0461C104.316 33.2309 103.565 34.9595 102.063 36.2254C100.561 37.4849 98.4551 38.1146 95.746 38.1146C95.0912 38.1146 94.4942 38.0953 93.9677 38.0568C93.4413 38.0118 92.947 37.9475 92.4912 37.864C92.0354 37.7805 91.5924 37.6712 91.1752 37.5491C90.7515 37.4206 90.3149 37.2793 89.8719 37.1315C89.9105 36.6624 90.0132 36.1869 90.1608 35.6985C90.3021 35.2037 90.4626 34.7282 90.6295 34.2591Z" fill="#1E1F1D"/>
<path d="M107.969 21.3881C108.207 21.3431 108.47 21.311 108.765 21.2853C109.067 21.266 109.317 21.2596 109.529 21.2596C109.767 21.2596 110.023 21.266 110.319 21.2853C110.62 21.311 110.884 21.3431 111.115 21.3881V30.3394C111.115 31.3611 111.211 32.2029 111.397 32.8712C111.59 33.5459 111.879 34.0664 112.258 34.4519C112.643 34.8311 113.105 35.0945 113.657 35.2423C114.209 35.3901 114.845 35.4672 115.564 35.4672C116.642 35.4672 117.567 35.3451 118.324 35.1138V21.3817C118.562 21.3431 118.818 21.311 119.107 21.2853C119.39 21.266 119.647 21.2532 119.884 21.2532C120.115 21.2532 120.378 21.266 120.661 21.2853C120.95 21.3046 121.207 21.3367 121.438 21.3817V37.2151C120.699 37.4336 119.814 37.6328 118.786 37.8255C117.759 38.0119 116.694 38.1083 115.596 38.1083C114.562 38.1083 113.58 38.0183 112.656 37.8384C111.738 37.6585 110.929 37.2922 110.229 36.7396C109.529 36.1869 108.977 35.4158 108.579 34.4134C108.175 33.4174 107.976 32.1001 107.976 30.4615V21.3881H107.969Z" fill="#1E1F1D"/>
<path d="M147.29 30.3395C147.329 32.1195 147.791 33.4304 148.67 34.2593C149.55 35.0882 150.847 35.4995 152.561 35.4995C154.063 35.4995 155.494 35.236 156.849 34.7027C157.016 35.024 157.157 35.4095 157.26 35.8658C157.369 36.322 157.427 36.7782 157.452 37.2216C156.753 37.5172 155.982 37.7421 155.148 37.8899C154.313 38.0377 153.382 38.1148 152.368 38.1148C150.885 38.1148 149.614 37.9092 148.555 37.4915C147.502 37.0803 146.622 36.4955 145.942 35.7437C145.249 34.9854 144.748 34.0986 144.427 33.0641C144.112 32.0359 143.952 30.905 143.952 29.6712C143.952 28.4631 144.112 27.3322 144.414 26.2783C144.722 25.2245 145.197 24.312 145.826 23.5345C146.462 22.7634 147.264 22.1465 148.227 21.6838C149.19 21.2276 150.327 21.0027 151.643 21.0027C152.766 21.0027 153.748 21.189 154.596 21.5746C155.443 21.9601 156.149 22.4871 156.721 23.1489C157.298 23.8236 157.729 24.6205 158.024 25.5394C158.319 26.4647 158.473 27.4671 158.473 28.5531C158.473 28.8487 158.46 29.1636 158.441 29.4913C158.415 29.819 158.396 30.1017 158.377 30.3331H147.29V30.3395ZM155.353 27.9812C155.353 27.3836 155.276 26.8181 155.116 26.2783C154.962 25.7321 154.724 25.263 154.416 24.8582C154.114 24.4534 153.716 24.1321 153.241 23.8879C152.766 23.6437 152.201 23.5216 151.546 23.5216C150.25 23.5216 149.261 23.9136 148.574 24.6976C147.887 25.488 147.47 26.5804 147.322 27.9812H155.353Z" fill="#1E1F1D"/>
<path d="M162.505 21.3883C162.736 21.3433 162.954 21.3112 163.172 21.2855C163.378 21.2662 163.602 21.2598 163.84 21.2598C164.071 21.2598 164.302 21.2662 164.54 21.2855C164.771 21.3112 164.983 21.3433 165.169 21.3883C165.233 21.7032 165.297 22.1273 165.361 22.6413C165.426 23.1683 165.458 23.6052 165.458 23.9651C165.901 23.2454 166.491 22.6221 167.223 22.0887C167.955 21.5554 168.892 21.2855 170.035 21.2855C170.202 21.2855 170.375 21.2983 170.555 21.3047C170.735 21.3176 170.889 21.3305 171.017 21.3562C171.062 21.5425 171.094 21.7481 171.114 21.9602C171.139 22.1722 171.146 22.3971 171.146 22.6285C171.146 22.8855 171.126 23.149 171.101 23.4253C171.069 23.7016 171.03 23.9651 170.985 24.2221C170.818 24.1835 170.645 24.1643 170.465 24.1643C170.285 24.1643 170.138 24.1643 170.035 24.1643C169.464 24.1643 168.918 24.2414 168.398 24.402C167.878 24.5562 167.416 24.8454 166.998 25.2438C166.588 25.6486 166.26 26.2013 166.016 26.9017C165.772 27.6021 165.65 28.5017 165.65 29.607V37.7293C165.419 37.7743 165.156 37.8 164.874 37.8257C164.585 37.845 164.328 37.8578 164.09 37.8578C163.859 37.8578 163.602 37.845 163.314 37.8257C163.031 37.8064 162.761 37.7743 162.505 37.7293V21.3883Z" fill="#1E1F1D"/>
<path d="M173.585 34.767C174.156 35.0048 174.785 35.1847 175.472 35.3261C176.166 35.461 176.846 35.5317 177.527 35.5317C178.008 35.5317 178.477 35.4803 178.92 35.371C179.369 35.2682 179.754 35.1076 180.082 34.8955C180.409 34.6835 180.672 34.42 180.871 34.1116C181.07 33.8031 181.179 33.4626 181.179 33.077C181.179 32.6529 181.096 32.2995 180.936 32.0232C180.781 31.7468 180.57 31.5155 180.306 31.3227C180.037 31.1364 179.735 30.9693 179.382 30.8279C179.035 30.693 178.657 30.5581 178.259 30.4295L177.148 30.0183C175.793 29.5042 174.805 28.9323 174.195 28.2961C173.579 27.66 173.27 26.7989 173.27 25.7129C173.27 24.2671 173.784 23.1233 174.811 22.2751C175.838 21.4204 177.347 20.9963 179.337 20.9963C180.165 20.9963 180.974 21.0799 181.77 21.2341C182.56 21.3947 183.259 21.5811 183.85 21.7931C183.812 22.2173 183.728 22.6414 183.613 23.0719C183.497 23.496 183.356 23.888 183.182 24.2478C182.72 24.0808 182.162 23.9137 181.52 23.753C180.871 23.5924 180.178 23.5153 179.433 23.5153C178.657 23.5153 177.957 23.6502 177.353 23.9265C176.75 24.2093 176.448 24.6912 176.448 25.3981C176.448 25.7579 176.519 26.0664 176.666 26.317C176.82 26.574 177.019 26.7925 177.27 26.9724C177.527 27.1523 177.816 27.3066 178.143 27.4351C178.47 27.5636 178.823 27.6921 179.209 27.8206L180.608 28.2961C181.115 28.4632 181.597 28.6688 182.053 28.9002C182.508 29.1379 182.9 29.4271 183.227 29.7741C183.555 30.1275 183.818 30.5516 184.017 31.0529C184.216 31.5476 184.325 32.1517 184.325 32.8521C184.325 33.6361 184.165 34.3558 183.844 35.0048C183.529 35.6474 183.08 36.2 182.496 36.6562C181.911 37.1125 181.212 37.4723 180.383 37.7293C179.555 37.98 178.65 38.1085 177.649 38.1085C176.634 38.1085 175.748 38.0378 174.984 37.9028C174.22 37.7615 173.514 37.5751 172.853 37.3438C172.898 36.9197 172.988 36.4892 173.123 36.0586C173.264 35.6217 173.412 35.1911 173.585 34.767Z" fill="#1E1F1D"/>
<path d="M194.835 38.1148C193.557 38.1148 192.453 37.8963 191.496 37.4594C190.54 37.0224 189.75 36.4248 189.115 35.6601C188.479 34.8955 188.011 33.9958 187.702 32.9548C187.394 31.9138 187.24 30.7829 187.24 29.5748C187.24 28.3668 187.394 27.2358 187.702 26.1948C188.011 25.1538 188.479 24.2542 189.115 23.4895C189.75 22.7248 190.546 22.1208 191.496 21.6774C192.447 21.2276 193.557 21.0027 194.835 21.0027C196.106 21.0027 197.21 21.2276 198.167 21.6774C199.117 22.1208 199.913 22.7248 200.548 23.4895C201.184 24.2542 201.653 25.1538 201.961 26.1948C202.269 27.2358 202.423 28.3668 202.423 29.5748C202.423 30.7829 202.269 31.9138 201.961 32.9548C201.653 33.9958 201.184 34.8955 200.548 35.6601C199.913 36.4248 199.117 37.0224 198.167 37.4594C197.216 37.8963 196.099 38.1148 194.835 38.1148ZM194.835 35.5959C196.292 35.5959 197.371 35.069 198.07 34.0023C198.77 32.942 199.117 31.464 199.117 29.5748C199.117 27.6856 198.77 26.2141 198.07 25.1602C197.371 24.1064 196.292 23.5859 194.835 23.5859C193.371 23.5859 192.293 24.1064 191.606 25.1602C190.919 26.2141 190.572 27.6856 190.572 29.5748C190.572 31.464 190.919 32.942 191.606 34.0023C192.293 35.0625 193.371 35.5959 194.835 35.5959Z" fill="#1E1F1D"/>
<path d="M206.262 21.3881C206.499 21.3431 206.762 21.311 207.058 21.2853C207.353 21.266 207.61 21.2596 207.822 21.2596C208.053 21.2596 208.316 21.266 208.611 21.2853C208.913 21.311 209.176 21.3431 209.407 21.3881V30.3394C209.407 31.3611 209.504 32.2029 209.69 32.8712C209.882 33.5459 210.165 34.0664 210.55 34.4519C210.935 34.8311 211.397 35.0945 211.949 35.2423C212.502 35.3901 213.137 35.4672 213.856 35.4672C214.935 35.4672 215.859 35.3451 216.617 35.1138V21.3817C216.854 21.3431 217.111 21.311 217.393 21.2853C217.682 21.266 217.939 21.2532 218.177 21.2532C218.408 21.2532 218.671 21.266 218.953 21.2853C219.242 21.3046 219.499 21.3367 219.73 21.3817V37.2151C218.992 37.4336 218.106 37.6328 217.079 37.8255C216.052 38.0119 214.986 38.1083 213.888 38.1083C212.855 38.1083 211.872 38.0183 210.948 37.8384C210.03 37.6585 209.221 37.2922 208.521 36.7396C207.822 36.1869 207.269 35.4158 206.871 34.4134C206.467 33.4174 206.268 32.1001 206.268 30.4615V21.3881H206.262Z" fill="#1E1F1D"/>
<path d="M224.59 21.3883C224.821 21.3433 225.039 21.3112 225.258 21.2855C225.463 21.2662 225.688 21.2598 225.925 21.2598C226.156 21.2598 226.387 21.2662 226.625 21.2855C226.856 21.3112 227.068 21.3433 227.261 21.3883C227.318 21.7032 227.383 22.1273 227.447 22.6413C227.511 23.1683 227.543 23.6052 227.543 23.9651C227.986 23.2454 228.577 22.6221 229.308 22.0887C230.04 21.5554 230.978 21.2855 232.12 21.2855C232.287 21.2855 232.467 21.2983 232.64 21.3047C232.82 21.3176 232.981 21.3305 233.103 21.3562C233.147 21.5425 233.18 21.7481 233.199 21.9602C233.225 22.1722 233.231 22.3971 233.231 22.6285C233.231 22.8855 233.218 23.149 233.186 23.4253C233.154 23.7016 233.115 23.9651 233.077 24.2221C232.904 24.1835 232.73 24.1643 232.55 24.1643C232.371 24.1643 232.229 24.1643 232.12 24.1643C231.549 24.1643 231.01 24.2414 230.483 24.402C229.963 24.5562 229.501 24.8454 229.09 25.2438C228.673 25.6486 228.346 26.2013 228.102 26.9017C227.858 27.6021 227.736 28.5017 227.736 29.607V37.7293C227.505 37.7743 227.241 37.8 226.959 37.8257C226.67 37.845 226.413 37.8578 226.182 37.8578C225.945 37.8578 225.688 37.845 225.399 37.8257C225.116 37.8064 224.847 37.7743 224.59 37.7293V21.3883Z" fill="#1E1F1D"/>
<path d="M246.694 34.8955C246.86 35.191 247.008 35.5637 247.137 36.0136C247.265 36.4569 247.336 36.9132 247.355 37.3823C246.103 37.8706 244.678 38.1148 243.073 38.1148C240.357 38.1148 238.316 37.3437 236.942 35.8015C235.562 34.2657 234.875 32.1902 234.875 29.5748C234.875 28.3668 235.048 27.2358 235.388 26.1948C235.722 25.1538 236.229 24.2542 236.897 23.4895C237.565 22.7248 238.393 22.1208 239.388 21.6774C240.383 21.2276 241.539 21.0027 242.855 21.0027C243.741 21.0027 244.524 21.0541 245.204 21.1633C245.885 21.2726 246.527 21.4396 247.137 21.671C247.137 22.0373 247.092 22.4549 246.995 22.9305C246.899 23.406 246.764 23.8301 246.597 24.1899C245.564 23.8301 244.376 23.6437 243.041 23.6437C241.41 23.6437 240.19 24.1899 239.388 25.2695C238.585 26.3554 238.181 27.7884 238.181 29.5684C238.181 31.6118 238.637 33.1026 239.548 34.0472C240.46 34.9983 241.712 35.4674 243.298 35.4674C243.933 35.4674 244.524 35.4224 245.063 35.3388C245.596 35.2553 246.141 35.1075 246.694 34.8955Z" fill="#1E1F1D"/>
<path d="M251.714 19.4347C251.669 19.1777 251.643 18.9014 251.63 18.6058C251.624 18.3102 251.618 18.0403 251.618 17.809C251.618 17.5776 251.618 17.3142 251.63 17.0186C251.643 16.7166 251.669 16.4531 251.714 16.2218C251.99 16.1768 252.285 16.1511 252.6 16.1254C252.921 16.1061 253.19 16.0933 253.428 16.0933C253.659 16.0933 253.935 16.1061 254.256 16.1254C254.571 16.1447 254.86 16.1768 255.11 16.2218C255.155 16.4531 255.181 16.7166 255.193 17.0186C255.2 17.3142 255.206 17.5776 255.206 17.809C255.206 18.0467 255.2 18.3102 255.193 18.6058C255.181 18.9014 255.155 19.1777 255.11 19.4347C254.86 19.4797 254.577 19.5118 254.269 19.5311C253.967 19.5504 253.691 19.5632 253.46 19.5632C253.21 19.5632 252.921 19.5504 252.606 19.5311C252.279 19.5118 251.984 19.4797 251.714 19.4347Z" fill="#1E1F1D"/>
<path d="M259.969 21.3882C260.2 21.3433 260.431 21.3111 260.65 21.2854C260.868 21.2661 261.099 21.2597 261.33 21.2597C261.568 21.2597 261.78 21.2661 261.985 21.2854C262.184 21.3111 262.402 21.3433 262.633 21.3882C262.698 21.7031 262.762 22.1336 262.826 22.6734C262.884 23.2196 262.922 23.6694 262.922 24.0293C263.128 23.6694 263.404 23.3096 263.731 22.9497C264.059 22.5899 264.431 22.2622 264.855 21.9794C265.278 21.6903 265.766 21.4525 266.318 21.2726C266.87 21.0926 267.474 21.0027 268.129 21.0027C269.99 21.0027 271.364 21.5425 272.257 22.6156C273.142 23.6823 273.585 25.2759 273.585 27.3772V37.7357C273.354 37.7743 273.091 37.8064 272.796 37.8321C272.5 37.8514 272.231 37.8642 272 37.8642C271.769 37.8642 271.512 37.8514 271.223 37.8321C270.94 37.8064 270.677 37.7807 270.446 37.7357V28.2382C270.446 26.7282 270.209 25.6229 269.746 24.9096C269.278 24.1964 268.54 23.8429 267.525 23.8429C266.928 23.8429 266.37 23.9457 265.837 24.1578C265.31 24.3699 264.842 24.6976 264.437 25.1474C264.033 25.5908 263.712 26.1691 263.468 26.8824C263.224 27.5956 263.108 28.4503 263.108 29.4463V37.7293C262.871 37.7743 262.614 37.8 262.325 37.8257C262.043 37.8449 261.78 37.8578 261.548 37.8578C261.311 37.8578 261.054 37.8449 260.759 37.8257C260.457 37.8064 260.194 37.7743 259.963 37.7293V21.3882H259.969Z" fill="#1E1F1D"/>
<path d="M277.251 29.3306C277.251 26.7345 277.848 24.6654 279.042 23.1296C280.243 21.5938 281.828 20.8291 283.806 20.8291C285.828 20.8291 287.413 21.5488 288.543 22.9882L288.685 21.1375H291.278V37.4015C291.278 39.5606 290.636 41.257 289.365 42.4972C288.088 43.7374 286.38 44.3607 284.229 44.3607C283.035 44.3607 281.86 44.1037 280.718 43.5896C279.569 43.0755 278.695 42.3751 278.092 41.4819L279.562 39.7726C280.782 41.2827 282.271 42.0345 284.03 42.0345C285.41 42.0345 286.489 41.649 287.259 40.865C288.036 40.0811 288.421 38.9887 288.421 37.5685V36.142C287.285 37.4529 285.731 38.1083 283.767 38.1083C281.828 38.1083 280.249 37.3244 279.049 35.75C277.848 34.1821 277.251 32.0423 277.251 29.3306ZM280.101 29.6518C280.101 31.5282 280.487 33.0062 281.251 34.0793C282.021 35.1524 283.099 35.6858 284.473 35.6858C286.264 35.6858 287.58 34.8697 288.421 33.2375V25.6357C287.555 24.042 286.245 23.2452 284.505 23.2452C283.125 23.2452 282.047 23.785 281.27 24.8646C280.493 25.9441 280.101 27.5377 280.101 29.6518Z" fill="#1E1F1D"/>
<path d="M140.318 25.5137C139.99 24.4855 139.535 23.6309 138.95 22.9626C138.366 22.2943 137.666 21.8059 136.858 21.4846C136.042 21.1633 135.156 21.0027 134.2 21.0027C133.571 21.0027 132.993 21.0798 132.473 21.2276C131.953 21.3754 131.491 21.5746 131.073 21.8316C130.663 22.0887 130.303 22.3714 130.008 22.6927C129.712 23.0076 129.456 23.3417 129.25 23.6823C129.25 23.618 129.231 23.4702 129.199 23.2325C129.167 23.0011 129.135 22.757 129.103 22.4999C129.07 22.2493 129.038 22.0051 129.006 21.7866C128.974 21.5682 128.948 21.4332 128.929 21.3882C128.711 21.3497 128.493 21.3176 128.262 21.2919C128.024 21.2726 127.806 21.2597 127.587 21.2597C127.356 21.2597 127.132 21.2726 126.907 21.2919C126.689 21.3111 126.47 21.3433 126.259 21.3882V45.2476L129.404 44.1809V37.7614C129.764 37.8706 130.187 37.9542 130.675 38.0184C131.163 38.0763 131.638 38.1148 132.107 38.1148C134.88 38.1148 137.018 37.3244 138.54 35.7372C140.048 34.1565 140.806 31.9653 140.806 29.1571C140.806 27.7563 140.645 26.5418 140.318 25.5137ZM137.108 32.0424C136.845 32.8199 136.485 33.4625 136.029 33.9701C135.574 34.4842 135.028 34.8633 134.392 35.1011C133.757 35.3453 133.057 35.4674 132.3 35.4674C131.619 35.4674 131.073 35.4352 130.65 35.371C130.226 35.3067 129.809 35.2039 129.411 35.0561V28.4246C129.411 27.6213 129.526 26.9209 129.757 26.3362C129.995 25.7578 130.297 25.2695 130.675 24.8903C131.061 24.5048 131.497 24.2221 131.979 24.0293C132.466 23.8429 132.974 23.7401 133.5 23.7401C134.925 23.7401 135.94 24.2413 136.569 25.2373C137.191 26.2398 137.506 27.5892 137.506 29.2857C137.506 30.3524 137.371 31.2713 137.108 32.0424Z" fill="#1E1F1D"/>
<path d="M251.867 21.9922V37.7357C252.105 37.7742 252.362 37.8064 252.651 37.8321C252.933 37.8513 253.184 37.8642 253.395 37.8642C253.633 37.8642 253.89 37.8513 254.172 37.8321C254.461 37.8064 254.718 37.7807 254.955 37.7357V20.9448L251.867 21.9922Z" fill="#1E1F1D"/>
<path d="M81.0904 34.9918L81.0969 34.9853L76.9176 30.9242L76.9112 30.9306L76.7122 30.725L63.1473 17.5005L52.9206 32.7813L43.3937 46.9568C42.373 48.4733 43.8752 50.8766 45.5058 50.3239L80.6603 38.3782C81.9635 37.9412 82.047 36.0263 81.0904 34.9918Z" fill="url(#paint0_linear_16_428)"/>
<path d="M68.9629 23.1873L60.553 35.6985L79.9984 38.4423C81.6997 38.6865 82.393 36.2447 81.0063 34.8952L68.9629 23.1873Z" fill="url(#paint1_linear_16_428)"/>
<path d="M42.6104 18.2717L60.5472 35.6988L80.1852 6.48667C81.2059 4.97016 79.7101 2.5733 78.0795 3.11308L42.9635 14.7761C41.686 15.2002 41.487 17.1793 42.6104 18.2717Z" fill="url(#paint2_linear_16_428)"/>
</g>
<g clip-path="url(#clip1_16_428)">
<path d="M463.463 25.6966C459.058 25.6966 458.726 22.3723 458.726 21.3354C458.726 20.1382 459.036 18.0111 461.849 16.9742C464.746 15.916 465.356 15.7877 467.355 15.1678V14.644C467.355 13.682 467.355 13.4468 467.163 12.8482C466.789 11.7151 465.687 10.9883 464.19 10.9883C462.704 10.9883 461.464 11.8113 460.918 13.0085L460.106 12.5275C460.608 10.689 462.447 8.8718 465.634 8.8718C467.901 8.8718 469.376 9.51316 470.285 10.8921C470.969 11.9931 471.034 13.5109 471.034 15.0929C471.034 16.4932 470.991 18.0431 470.969 19.2938C470.948 20.1596 470.927 20.9079 470.927 21.3675C470.927 22.5112 471.108 23.3984 472.06 23.3984C472.456 23.3984 472.531 23.2916 472.862 23.0243L473.386 23.6336C472.531 24.7453 471.59 25.6752 469.996 25.6752C468.713 25.6752 467.815 25.0553 467.516 24.0291C466.799 24.7667 465.505 25.6966 463.463 25.6966ZM467.345 17.1773C465.185 17.8294 464.447 18.1821 463.784 18.5242C462.843 18.9945 462.373 19.9458 462.373 21.0682C462.373 21.9447 462.683 23.4198 464.789 23.4198C465.484 23.4198 466.489 23.2809 467.345 22.6716V17.1773ZM431.011 24.8201C431.011 23.1954 431.021 21.8058 430.893 20.1382H431.855C431.866 21.1751 432.155 21.934 432.604 22.4471C433.299 23.2167 434.881 23.6871 436.368 23.6871C439.458 23.6871 440.891 22.5219 440.891 20.01C440.891 17.8614 439.565 16.9635 437.715 15.7236L437.426 15.5205L435.491 14.2164C432.786 12.4313 431.406 10.999 431.406 8.14494C431.406 6.74465 431.941 2.18036 438.731 2.18036C440.452 2.18036 442.698 2.36207 444.056 2.61861C444.045 2.8324 444.024 3.87994 444.024 4.75646C444.024 5.77193 444.024 6.11399 444.066 7.35394H443.243C443.222 6.25295 442.912 5.54746 442.441 5.07713C441.789 4.42509 440.345 4.12579 438.816 4.12579C435.213 4.12579 434.785 5.97503 434.785 7.35394C434.785 9.2673 435.769 9.90866 437.897 11.3303L440.367 12.9551C442.463 14.3554 444.441 15.6701 444.441 19.1441C444.441 25.0232 438.955 25.6539 436.603 25.6539C434.454 25.6646 432.743 25.3973 431.011 24.8201ZM474.83 9.95142C475.653 10.0156 476.893 9.93004 478.102 9.72694C479.128 9.54523 479.502 9.40626 480.262 9.02145L480.582 9.21386V10.5073C481.395 9.89797 483.042 8.94663 485.287 8.94663C488.206 8.94663 490.12 10.3148 490.666 12.7947C490.826 13.4147 490.879 14.8898 490.879 15.6915V20.4268C490.879 23.0991 490.986 23.8474 491.478 24.3284C491.735 24.5529 492.334 24.7987 493.05 24.7987V25.5577C492.002 25.5042 490.152 25.3973 489.04 25.3973C487.554 25.3973 485.875 25.4722 484.977 25.579V24.8308C485.779 24.7453 486.335 24.5101 486.613 24.2429C487.083 23.7726 487.169 22.8319 487.233 20.8223C487.255 20.2237 487.276 18.9517 487.276 18.0218C487.276 16.8139 487.276 15.5526 487.137 14.3126C486.902 12.2175 485.79 11.2341 483.705 11.2341C482.24 11.2341 481.341 11.5655 480.657 11.9075V20.4268C480.657 23.0991 480.764 23.8474 481.277 24.3284C481.523 24.5529 482.154 24.7987 482.838 24.7987V25.5577C481.502 25.4935 479.887 25.3973 478.85 25.3973C476.69 25.3973 476.016 25.4401 474.765 25.579V24.8094C475.471 24.8094 476.145 24.5529 476.53 24.1146C477.022 23.5588 477.054 22.1692 477.054 19.4114V14.7829C477.054 12.7734 477.011 11.9289 476.733 11.4907C476.508 11.1593 475.952 10.8814 474.84 10.9028V9.95142H474.83ZM494.985 24.7667C495.648 24.7774 496.354 24.5208 496.75 24.0826C497.252 23.5267 497.274 22.1585 497.274 19.39V11.3517H495.157V10.4431C496.044 10.1011 496.835 9.69487 497.274 9.35282C497.274 7.92046 497.327 6.06054 497.52 5.05575C498.15 1.71003 500.353 -0.000244141 504.021 -0.000244141C505.635 -0.000244141 507.186 0.555595 508.105 1.3466L508.159 1.68865L506.544 3.9227H506.149C505.603 2.57586 504.78 1.80623 503.326 1.80623C502.823 1.80623 502.128 1.96657 501.69 2.38345C500.995 3.08894 500.877 4.12579 500.877 6.1995V9.33144H504.491V11.341H500.877V20.3306C500.877 22.4685 500.952 23.516 501.23 23.9329C501.679 24.617 503.112 24.6918 503.807 24.6705V25.5256C502.62 25.4508 500.76 25.3653 499.38 25.3653C497.37 25.3653 496.055 25.4294 494.975 25.547V24.7667H494.985ZM513.644 25.8356C508.694 25.8356 505.732 22.7464 505.732 17.5942C505.732 13.5751 507.892 8.90387 513.976 8.90387C518.927 8.90387 521.878 11.9824 521.878 17.1453C521.899 21.143 519.739 25.8356 513.644 25.8356ZM513.858 10.7745C512.896 10.7745 512.126 11.0203 511.549 11.512C510.255 12.6023 509.592 14.5798 509.592 17.4125C509.592 18.5028 509.795 23.9543 513.794 23.9543C514.746 23.9543 515.526 23.7084 516.082 23.2274C517.397 22.1371 518.05 20.1489 518.05 17.3163C518.039 16.226 517.836 10.7745 513.858 10.7745ZM523.524 9.88728C524.626 9.95141 525.813 9.82314 527.064 9.59867C528.026 9.42764 528.646 9.22455 528.988 9.06421L529.277 9.21386V10.6248C530.058 9.88728 531.287 9.11766 533.02 9.11766C534.292 9.11766 535.137 9.4704 535.842 10.1224V10.6355L534.484 13.1368H533.822C533.394 12.3779 532.581 11.6724 531.116 11.6724C530.432 11.6724 529.855 11.8434 529.341 12.1855V20.3627C529.341 22.5006 529.416 23.5053 529.694 23.9329C530.143 24.617 531.491 24.6918 532.26 24.6598V25.5577C531.148 25.4935 529.224 25.3973 527.844 25.3973C526.272 25.3973 524.733 25.4294 523.439 25.579V24.756C524.348 24.7132 524.85 24.4567 525.203 24.0612C525.706 23.4946 525.738 22.1692 525.738 19.4114V14.7829C525.738 12.7734 525.727 11.9075 525.417 11.4907C525.15 11.1272 524.562 10.9134 523.514 10.9028V9.88728H523.524ZM546.353 0.940407C547.337 0.940407 548.61 0.75869 550.171 0.49146C551.048 0.341811 551.646 0.181473 551.935 0.0638911L552.213 0.224229C552.074 1.56038 552.074 4.57474 552.074 6.71258V19.9351C552.074 21.9126 552.106 23.1312 552.395 23.5267C552.641 23.8902 553.24 24.136 554.266 24.1467V25.0125C553.24 25.0125 552.031 25.1408 550.78 25.3546C549.946 25.4935 549.294 25.6218 548.984 25.7928L548.545 25.6432V24.275C547.744 24.8736 546.14 25.8035 544.012 25.8035C539.564 25.8035 536.687 22.7143 536.687 17.9363C536.687 16.3436 536.997 14.8364 537.553 13.5644C538.922 10.6248 541.745 8.93594 545.306 8.93594C546.61 8.93594 547.776 9.09628 548.471 9.24593V5.79331C548.471 3.77305 548.439 2.69344 548.15 2.26587C547.925 1.9345 547.594 1.77417 546.375 1.68865V0.940407H546.353ZM545.787 23.4733C546.899 23.4733 547.647 23.2916 548.46 22.8105V11.9503C548.193 11.6938 547.209 10.8707 545.22 10.8707C542.066 10.8707 540.537 13.0299 540.537 17.4766C540.526 19.3472 541.082 23.4733 545.787 23.4733ZM457.09 23.9329C456.598 24.5315 455.337 25.7821 452.696 25.7821C450.193 25.7821 448.793 24.8949 448.173 22.8854C447.927 22.0837 447.927 20.523 447.927 19.5824C447.927 16.9849 447.959 14.9112 447.98 12.5061L447.991 11.3731H445.852V10.7424C446.718 10.4004 447.306 10.0476 447.884 9.62005C449.146 8.64733 449.948 7.42876 450.91 5.71849H451.626V9.36351H457.133V11.3731H451.626V19.8817C451.626 22.4257 452.086 23.8795 454.492 23.8795C455.615 23.8795 456.352 23.516 456.823 23.2702L457.09 23.9329Z" fill="#8C1515"/>
<path d="M431.117 34.5366H433.619V40.2019H439.329V34.5366H441.831V48.625H439.329V42.3825H433.619V48.625H431.117V34.5366Z" fill="#4D4F53"/>
<path d="M444.611 34.5366H453.101V36.6424H447.113V40.2447H452.182V42.3611H447.113V46.5192H453.315V48.625H444.611V34.5366Z" fill="#4D4F53"/>
<path d="M463.484 44.809H458.747L457.646 48.625H455.101L459.688 34.5366H462.618L467.205 48.625H464.575L463.484 44.809ZM462.928 42.8528L462.436 41.1319C461.987 39.6461 461.57 38.032 461.164 36.4821H461.078C460.694 38.0534 460.276 39.6461 459.827 41.1319L459.336 42.8528H462.928Z" fill="#4D4F53"/>
<path d="M469.087 34.5366H471.579V46.5085H477.438V48.6143H469.077V34.5366H469.087Z" fill="#4D4F53"/>
<path d="M480.378 36.6531H476.305V34.5474H486.944V36.6531H482.87V48.6251H480.368V36.6531H480.378Z" fill="#4D4F53"/>
<path d="M489.072 34.5366H491.574V40.2019H497.284V34.5366H499.786V48.625H497.284V42.3825H491.574V48.625H489.072V34.5366Z" fill="#4D4F53"/>
<path d="M513.751 34.28C515.451 34.28 516.873 35.1245 517.761 36.0651L516.36 37.6151C515.654 36.9096 514.852 36.4499 513.772 36.4499C511.452 36.4499 509.805 38.3847 509.805 41.5594C509.805 44.7662 511.313 46.7116 513.687 46.7116C514.938 46.7116 515.847 46.1985 516.638 45.3113L518.039 46.8399C516.895 48.1546 515.408 48.8815 513.644 48.8815C510.041 48.8815 507.25 46.2947 507.25 41.6235C507.25 37.0165 510.137 34.28 513.751 34.28Z" fill="#4D4F53"/>
<path d="M527.116 44.809H522.379L521.278 48.625H518.733L523.32 34.5366H526.25L530.837 48.625H528.207L527.116 44.809ZM526.55 42.8528L526.058 41.1319C525.609 39.6461 525.202 38.032 524.785 36.4821H524.7C524.315 38.0534 523.909 39.6461 523.449 41.1319L522.957 42.8528H526.55Z" fill="#4D4F53"/>
<path d="M539.916 48.625L536.879 43.1094H534.73V48.625H532.228V34.5366H536.986C539.916 34.5366 542.161 35.5735 542.161 38.7161C542.161 40.8753 541.038 42.158 539.36 42.7459L542.717 48.625H539.916ZM534.73 41.1319H536.729C538.643 41.1319 539.702 40.3088 539.702 38.7161C539.702 37.102 538.643 36.5355 536.729 36.5355H534.73V41.1319Z" fill="#4D4F53"/>
<path d="M544.631 34.5366H553.121V36.6424H547.123V40.2447H552.191V42.3611H547.123V46.5192H553.325V48.625H544.621V34.5366H544.631Z" fill="#4D4F53"/>
<path d="M399.904 53.168C428.219 37.7221 421.472 6.94789 419.515 2.39429H380.294C378.348 6.94789 371.59 37.7221 399.904 53.168Z" fill="#8C1515"/>
<path d="M389.191 6.39221L389.201 7.00149C389.608 6.67013 390.196 6.41359 390.656 6.31738C390.399 7.48251 389.832 7.77112 389.212 7.87801L389.191 8.85073C389.693 8.44454 390.463 7.89939 391.04 7.77112C390.709 9.24623 389.993 9.78069 389.212 9.89827V10.8603C389.843 10.4541 390.837 9.73793 391.564 9.62035C391.147 11.1168 390.217 11.7047 389.212 11.8009V12.6882C389.843 12.282 390.827 11.6406 391.554 11.523C391.147 12.9661 390.174 13.8426 389.212 13.9815V14.7298C389.843 14.3236 390.827 13.6823 391.554 13.5754C391.169 15.0932 390.206 15.9056 389.201 15.9911V16.6004C389.96 16.1515 391.201 15.3711 392.078 15.2429C391.575 16.8676 390.399 17.7548 389.212 17.8617V18.5672C389.618 18.2465 390.474 17.8938 390.934 17.7976C390.688 18.9093 389.789 19.2941 389.201 19.433V20.7478C389.34 20.7478 389.479 20.7158 389.618 20.7051C389.576 20.2454 389.843 19.7858 390.431 19.401C390.463 19.7537 390.26 20.2561 390.142 20.5982C390.463 20.5233 390.773 20.4378 391.094 20.2989C390.923 19.6361 391.147 18.7276 391.907 17.9579C392.046 18.471 391.917 19.3048 391.853 19.8606C392.185 19.6575 392.527 19.433 392.848 19.1444C392.484 18.5138 392.548 17.5411 393.265 16.547C393.478 17.028 393.489 17.9579 393.489 18.5245C393.778 18.2145 394.088 17.8724 394.366 17.4983C393.863 16.889 393.842 16.2904 394.441 15.1039C394.655 15.5849 394.847 16.3118 394.847 16.8783C395.104 16.547 395.296 16.2584 395.51 15.8629C395.382 15.5529 395.446 15.3177 395.596 15.1253C395.82 14.8474 396.152 14.6122 396.44 14.7939C396.857 14.9863 396.643 15.4353 396.504 15.7666C396.398 16.0018 396.226 16.1621 395.916 16.1515C395.702 16.5363 395.403 16.9425 395.146 17.2738C395.745 17.4662 396.173 17.6052 396.579 18.0221C395.692 18.3855 395.157 18.3 394.719 17.9366C394.43 18.3214 394.013 18.7276 393.714 19.0482C394.302 19.23 394.676 19.3903 395.157 19.8713C394.184 20.2775 393.468 20.1492 393.04 19.6896C392.709 19.9782 392.377 20.2775 392.035 20.4806C392.612 20.7692 393.019 21.0792 393.371 21.5602C392.27 21.8167 391.543 21.4961 391.222 20.8868C390.901 21.0151 390.591 21.1326 390.26 21.1968C390.57 21.464 390.795 21.6778 390.944 22.0305C390.185 22.0091 389.757 21.8381 389.65 21.3678C389.501 21.3785 389.34 21.4854 389.191 21.4854V22.9605L388.271 22.5543V21.4747C388.175 21.464 387.95 21.3785 387.865 21.3678C387.726 21.8061 387.394 21.9771 386.667 21.9878C386.827 21.6243 386.913 21.3785 387.277 21.1861C386.945 21.1006 386.624 20.9402 386.293 20.7906C386.004 21.4747 385.352 21.7633 384.186 21.4961C384.529 21.0151 384.956 20.5875 385.544 20.3951C385.245 20.2134 384.967 20.021 384.678 19.7323C384.251 20.2134 383.534 20.3737 382.54 19.9675C382.946 19.5506 383.352 19.23 383.962 19.1124C383.652 18.8024 383.363 18.4283 383.074 18.0541C382.636 18.4389 381.962 18.5672 381.053 18.1824C381.46 17.7655 381.92 17.3273 382.508 17.338C382.326 17.0814 382.176 16.7928 381.984 16.5042C381.791 16.5042 381.631 16.5042 381.428 16.2584C381.214 15.9804 381.011 15.3925 381.363 15.2001C381.588 15.0077 382.101 15.2856 382.272 15.5956C382.433 15.8735 382.369 16.0446 382.315 16.2477C382.497 16.5363 382.7 16.8142 382.882 17.0707C382.754 16.2584 382.989 15.5742 383.192 15.0932C383.919 16.1087 383.791 16.9852 383.384 17.6052C383.684 17.9793 383.94 18.2572 384.24 18.5672C384.154 17.99 384.218 17.1349 384.432 16.6539C385.117 17.5945 385.202 18.5565 384.892 19.1872C385.181 19.433 385.448 19.6575 385.726 19.8392C385.576 19.3048 385.502 18.4069 385.641 17.8938C386.41 18.6741 386.646 19.5613 386.475 20.224C386.806 20.3737 387.116 20.502 387.448 20.5768C387.287 20.2561 387.138 19.711 387.17 19.3689C387.747 19.7323 387.897 20.1599 387.865 20.6089C387.961 20.6196 388.207 20.7264 388.292 20.7371L388.271 19.4437C387.704 19.2941 386.849 18.9734 386.56 17.8724C387.095 18.0007 387.779 18.129 388.271 18.5672V17.8831C387.116 17.7869 385.961 16.9745 385.395 15.3391C386.389 15.5101 387.351 15.9911 388.271 16.5897V15.9911C387.266 15.9163 386.314 14.9863 385.897 13.6609C386.731 13.8212 387.501 14.1953 388.271 14.7405V13.9815C387.33 13.8747 386.368 13.0837 385.897 11.6085C386.731 11.7689 387.501 12.1216 388.271 12.6668V11.8223C387.319 11.7582 386.4 11.213 385.919 9.70586C386.753 9.8662 387.523 10.2938 388.292 10.8496V9.90896C387.533 9.81276 386.806 9.34243 386.421 7.85663C387.095 8.01697 387.683 8.29489 388.292 8.85073V7.86732C387.704 7.76043 387.159 7.52526 386.86 6.38152C387.266 6.46703 387.758 6.48841 388.303 6.98011L388.292 6.39221C387.843 5.72948 387.94 5.43018 387.993 4.90641C388.046 4.42539 388.218 4.07265 388.742 4.05127C389.255 4.07265 389.437 4.42539 389.49 4.90641C389.533 5.43018 389.629 5.72948 389.191 6.39221Z" fill="white"/>
<path d="M410.683 11.2557L409.7 10.9884L409.165 10.7212L409.069 10.8495L409.625 11.106L410.17 11.9825L410.138 11.3625L410.683 11.2557Z" fill="white"/>
<path d="M411.036 18.5029C411.335 14.783 411.88 13.7782 412.8 13.0193L412.939 12.9017L412.565 10.4325L412.255 10.486C411.838 10.5501 411.453 10.8708 411.153 11.2128V9.38496L408.394 7.74951V9.12842C408.181 8.92533 407.999 8.77568 407.913 8.71154C407.635 8.50845 407.389 8.41224 407.133 8.41224C406.983 8.41224 406.855 8.44431 406.737 8.47638C406.523 8.51913 406.395 8.5512 406.106 8.43362C404.855 8.17708 403.882 8.46569 403.347 9.21393C402.845 9.93011 402.759 11.0204 403.134 12.0786C403.369 12.7521 403.807 13.5324 404.438 14.3875C404.695 14.7296 406.887 17.0491 407.379 17.5515C407.699 17.8829 408.042 18.2036 408.394 18.5242V19.3687L407.838 18.9946L407.101 20.6942L407.336 20.8331C407.849 21.1538 408.373 22.0303 408.747 26.6694C407.411 27.2253 405.721 28.7966 405.668 30.4106C405.646 31.1803 406.01 32.2599 407.924 33.0081C408.288 33.1578 408.683 33.3074 409.079 33.4678C409.1 34.355 409.122 35.2956 409.143 36.3111C408.758 36.4821 408.127 36.8776 408.01 37.4335C407.903 37.9359 408.213 38.4169 408.929 38.8765C409.015 38.9299 409.1 38.962 409.186 38.9941C409.186 39.272 409.186 39.5713 409.196 39.8706C408.897 40.0202 408.737 40.1271 408.501 40.3944C408.373 40.544 408.255 40.6937 408.32 40.8433C408.341 40.8861 408.394 40.9716 408.544 40.9716C408.64 40.9716 408.79 40.9288 409.057 40.8219C409.132 40.8006 409.186 40.7685 409.239 40.7578C409.378 41.0892 409.678 41.303 410.02 41.303C410.394 41.303 410.693 41.0571 410.779 40.683L410.79 40.6509V40.6188C410.79 40.4906 410.79 40.373 410.79 40.2447C411.057 40.063 411.207 39.7958 411.228 39.4644C411.239 39.0903 411.068 38.7269 410.779 38.4596C410.779 38.0427 410.779 37.6472 410.768 37.2411C411.987 36.9524 413.249 36.1614 413.367 35.1032C413.441 34.4405 413.089 33.4785 410.993 32.634C410.907 32.6019 410.832 32.5699 410.758 32.5378C410.758 30.7741 410.758 29.1707 410.768 27.717C412.939 26.616 414.425 25.5791 414.607 24.2002C414.789 22.7465 413.613 21.0469 411.036 18.5029ZM412.041 11.2342L412.255 12.6452C411.335 13.4576 410.779 14.5265 410.458 17.9363C410.02 17.5088 409.539 17.0598 409.025 16.5788L409.015 11.0739C409.068 11.0525 409.122 11.0311 409.164 10.999L409.56 11.1914L410.095 12.0466L410.255 11.9824L410.223 11.4373L410.512 11.3838V12.2176L411.11 12.3566C411.26 12.0466 411.656 11.4907 412.041 11.2342ZM410.512 9.73771V11.1166L409.742 10.9135L409.346 10.7104C409.389 10.4539 409.239 10.1439 409.015 9.83391V8.8505L410.512 9.73771ZM407.774 15.4351C404.374 12.3566 404.235 10.9563 404.449 10.3897C404.705 9.73771 405.572 9.71633 405.753 9.75908C405.86 9.78046 405.86 9.80184 405.903 9.9408C405.957 10.1653 406.031 10.486 406.684 10.6997C407.411 10.9349 407.967 11.0739 408.384 11.1166V16.0016C408.181 15.8092 407.988 15.6275 407.774 15.4351ZM407.389 30.4534C407.336 30.0258 407.796 29.47 408.886 28.6362C408.94 29.5662 408.983 30.6031 409.025 31.7682C408.063 31.3192 407.443 30.8917 407.389 30.4534ZM410.127 38.0427C410.02 37.9893 409.891 37.9038 409.795 37.7969C409.774 36.3111 409.742 34.9643 409.71 33.7243C409.838 33.7777 409.977 33.8419 410.105 33.8953C410.116 35.1994 410.116 36.5783 410.127 38.0427ZM409.827 40.5333C409.827 40.063 409.817 39.6034 409.817 39.1651C409.956 39.1972 410.063 39.2506 410.137 39.3255C410.137 39.7316 410.137 40.1378 410.148 40.5547C410.105 40.683 409.924 40.715 409.827 40.5333ZM411.827 35.1673C411.816 35.3063 411.656 35.5735 410.747 35.8728C410.747 35.3063 410.747 34.7505 410.736 34.2053C411.388 34.5581 411.838 34.8894 411.827 35.1673ZM409.667 32.0675C409.335 22.3617 408.608 20.9721 407.903 20.4483L408.116 19.9459L409.025 20.5659V19.1015C409.132 19.1977 409.25 19.3046 409.357 19.4008C409.678 19.6894 409.998 19.978 410.298 20.2559C410.159 23.0137 410.105 26.8511 410.105 32.2706C409.956 32.1957 409.806 32.1316 409.667 32.0675ZM412.725 23.9437C412.607 24.6385 411.966 25.2584 410.768 25.825C410.79 23.8475 410.832 22.1906 410.897 20.8117C412.051 21.9341 412.875 22.9923 412.725 23.9437Z" fill="white"/>
<path d="M406.919 9.86575C406.865 9.83369 406.801 9.823 406.748 9.823C406.651 9.823 406.566 9.86576 406.523 9.94058C406.459 10.0689 406.523 10.2292 406.683 10.3147C406.737 10.3468 406.801 10.3575 406.865 10.3575C406.961 10.3575 407.047 10.3147 407.09 10.2292C407.133 10.1116 407.068 9.95127 406.919 9.86575Z" fill="#8C1515"/>
<path d="M407.464 8.90382C407.4 8.83968 407.314 8.80762 407.229 8.80762C407.165 8.80762 407.1 8.829 407.068 8.87175C407.026 8.91451 407.004 8.96796 407.004 9.03209C407.004 9.1176 407.047 9.20312 407.122 9.26725C407.186 9.33139 407.272 9.36346 407.357 9.36346C407.421 9.36346 407.485 9.34208 407.528 9.28863C407.571 9.24587 407.592 9.18174 407.592 9.12829C407.582 9.05347 407.539 8.96796 407.464 8.90382Z" fill="#8C1515"/>
<path d="M394.494 32.9976V28.3799H386.292V36.5678H388.827V41.1856H397.017V32.9869H394.494V32.9976ZM392.066 29.4274H393.403V32.8587H392.066V29.4274ZM393.435 36.5678V37.6047H392.398V36.5678H393.435ZM387.522 29.4274H390.954V30.7636H387.522V29.4274ZM388.827 35.531H387.479V32.1104H388.816V35.531H388.827ZM389.864 31.9501H390.901V32.9976H389.864V31.9501ZM389.981 34.1948H393.414V35.531H389.981V34.1948ZM391.35 39.9991H390.013V36.5678H391.35V39.9991ZM395.788 39.967H392.355V38.6308H395.788V39.967ZM395.82 37.5833H394.483V34.1521H395.82V37.5833Z" fill="white"/>
<path d="M400.332 53.7773H399.477V24.7668H378.401V23.9116H399.477V2.1377H400.332V53.7773Z" fill="white"/>
</g>
<path d="M649.955 12.1606C647.149 12.1606 644.655 12.2558 641.885 12.4875V41.191H649.923C650.468 41.191 651.127 41.1786 651.642 41.1518C662.646 40.5887 667.225 34.1338 667.225 26.6822C667.225 17.3738 660.889 12.1607 649.955 12.1607V12.1606ZM692.81 12.6305V41.1596H699.915V12.6305H692.81ZM728.331 12.6385V18.1049H735.436V12.6385H728.331ZM748.018 13.6017L741.064 14.3779V20.1035H738.333V25.3216H741.064V33.9462C741.064 38.6894 743.253 41.5919 748.249 41.5919C749.186 41.5919 750.242 41.4963 751.218 41.3515C752.119 41.2174 752.92 41.0567 753.269 40.943C753.276 40.9373 753.217 35.4436 753.217 35.4232C752.989 35.5015 751.378 35.7704 750.789 35.7704C750.218 35.7704 749.368 35.6979 748.762 35.0822C748.329 34.6435 748.018 33.9299 748.018 32.7693V25.3216H752.611V20.1035H748.018L748.018 13.6017ZM764.457 13.6017L757.501 14.3779V20.1035H754.771V25.3216H757.501V33.9462C757.501 38.6894 759.689 41.5919 764.685 41.5919C765.623 41.5919 766.679 41.4963 767.654 41.3515C768.555 41.2174 769.356 41.0567 769.707 40.943C769.713 40.9373 769.654 35.4436 769.654 35.4232C769.426 35.5015 767.817 35.7704 767.227 35.7704C766.655 35.7704 765.807 35.6979 765.201 35.0822C764.767 34.6435 764.457 33.9299 764.457 32.7693V25.3216H769.049V20.1035H764.457L764.457 13.6017ZM651.315 17.8927C655.445 17.8927 659.846 20.5489 659.846 26.6823C659.846 33.0817 655.711 35.2157 652.162 35.5064C651.867 35.53 651.423 35.5426 651.138 35.5426H648.885C648.888 35.5401 648.885 18.0074 648.885 18.0074C649.664 17.9388 650.653 17.8927 651.315 17.8927V17.8927ZM679.827 19.6085C673.007 19.6085 669.377 24.9085 669.377 30.8477C669.377 37.6933 674.206 41.6107 680.95 41.6107C682.667 41.6107 683.923 41.4574 684.96 41.2493C686.035 41.0316 687.219 40.6815 688.221 40.2375L687.167 35.4012C686.429 35.65 685.659 35.8741 684.888 36.0297C683.985 36.2109 683.049 36.3109 682.099 36.3109C679.027 36.3109 676.624 35.298 676.231 32.8856H689.333C689.43 32.4233 689.602 31.3006 689.602 30.1218C689.602 24.6406 686.849 19.6085 679.827 19.6085ZM781.542 19.6085C774.721 19.6085 771.091 24.9085 771.091 30.8477C771.091 37.6933 775.92 41.6107 782.664 41.6107C784.381 41.6107 785.636 41.4574 786.674 41.2493C787.749 41.0316 788.933 40.6815 789.936 40.2375L788.88 35.4012C788.141 35.65 787.372 35.8741 786.603 36.0297C785.698 36.2109 784.764 36.3109 783.814 36.3109C780.743 36.3109 778.338 35.298 777.945 32.8856H791.047C791.144 32.4233 791.315 31.3006 791.315 30.1218C791.315 24.6406 788.562 19.6085 781.542 19.6085ZM714.435 19.6431C706.142 19.6431 703.118 25.6332 703.118 30.7754C703.118 37.2284 707.638 41.6108 714.088 41.6108C719.632 41.6108 725.244 38.1513 725.244 30.425C725.244 25.8245 722.493 19.6431 714.435 19.6431ZM728.331 20.1082V41.1598H735.436V20.1082H728.331ZM679.708 24.5266C682.305 24.5266 683.09 26.8768 683.09 28.1672H676.09C676.09 26.3383 677.372 24.5266 679.708 24.5266ZM781.423 24.5266C784.019 24.5266 784.805 26.8768 784.805 28.1672H777.804C777.804 26.3383 779.087 24.5266 781.423 24.5266ZM714.207 24.8722C716.94 24.8722 717.911 27.9548 717.911 30.601C717.911 34.1139 716.436 36.3895 714.183 36.3895C711.876 36.3895 710.359 34.1282 710.359 30.6324C710.359 27.8468 711.376 24.8722 714.207 24.8722Z" fill="black"/>
<path d="M793.572 37.7221C793.572 35.5714 795.332 33.8284 797.503 33.8284C799.672 33.8284 801.433 35.5714 801.433 37.7221C801.433 39.8738 799.672 41.6168 797.503 41.6168C795.332 41.6168 793.572 39.8738 793.572 37.7221Z" fill="#85BC1F"/>
<g clip-path="url(#clip2_16_428)">
<path d="M968.261 16.1963C969.465 15.5219 970.836 15.1847 972.208 15.2409C973.608 15.2128 975.008 15.5219 976.267 16.1401C977.471 16.7302 978.535 17.5733 979.375 18.613C980.271 19.737 980.971 21.0297 981.362 22.4066C981.838 23.9803 982.062 25.6382 982.062 27.2962C982.09 28.9822 981.838 30.6682 981.362 32.2981C980.943 33.675 980.271 34.9677 979.347 36.0917C978.507 37.1033 977.443 37.9183 976.239 38.4803C974.98 39.0423 973.636 39.3514 972.264 39.3233C970.668 39.3233 969.465 39.0985 968.261 38.5084C967.309 38.0588 966.441 37.4124 965.713 36.6256H965.629V46.4047H959.862V15.8591H965.405V18.332H965.545C966.357 17.5171 967.281 16.7864 968.261 16.1963ZM971.368 34.4619C972.796 34.49 974.168 33.8155 974.98 32.6072C975.875 31.3708 976.323 29.6285 976.323 27.4086C976.323 25.1886 975.931 23.362 975.12 21.957C974.308 20.552 972.992 19.8494 971.144 19.8494C970.304 19.8213 969.493 20.018 968.765 20.4396C968.093 20.833 967.561 21.395 967.141 22.0413C966.693 22.7719 966.385 23.5868 966.217 24.458C966.021 25.4415 965.937 26.425 965.937 27.4086C965.937 29.5442 966.385 31.2584 967.309 32.5229C968.233 33.7874 969.577 34.4619 971.368 34.4619Z" fill="#503462"/>
<path d="M993.232 16.1963C994.436 15.5219 995.807 15.1847 997.179 15.2409C998.579 15.2128 999.979 15.5219 1001.24 16.1401C1002.44 16.7302 1003.51 17.5733 1004.35 18.613C1005.24 19.737 1005.91 21.0297 1006.33 22.4066C1006.81 23.9803 1007.03 25.6382 1007.03 27.2962C1007.06 28.9822 1006.84 30.6682 1006.33 32.2981C1005.91 33.675 1005.24 34.9677 1004.32 36.0917C1003.48 37.1033 1002.41 37.9183 1001.21 38.4803C999.951 39.0423 998.607 39.3514 997.235 39.3233C995.639 39.3233 994.436 39.0985 993.232 38.5084C992.28 38.0588 991.412 37.4124 990.684 36.6256H990.6V46.4047H984.833V15.8591H990.376V18.332H990.516C991.328 17.5171 992.224 16.7864 993.232 16.1963ZM996.339 34.4619C997.795 34.49 999.139 33.8155 999.951 32.6072C1000.85 31.3708 1001.29 29.6285 1001.29 27.4086C1001.29 25.1886 1000.9 23.362 1000.09 21.957C999.279 20.552 997.963 19.8494 996.115 19.8494C995.275 19.8213 994.464 20.018 993.736 20.4396C993.064 20.833 992.532 21.395 992.112 22.0413C991.664 22.7719 991.356 23.5868 991.188 24.458C990.992 25.4415 990.908 26.425 990.908 27.4086C990.908 29.5442 991.356 31.2584 992.28 32.5229C993.204 33.8155 994.548 34.4619 996.339 34.4619Z" fill="#503462"/>
<path d="M1077.58 41.3466H1079.04C1080.24 41.3466 1081.11 41.0656 1081.61 40.5036C1082.14 39.8853 1082.42 39.0704 1082.4 38.2274C1082.4 37.8902 1082.37 37.553 1082.31 37.2158C1082.23 36.7943 1082.14 36.3727 1082.03 35.9512C1081.89 35.4735 1081.72 34.9115 1081.5 34.2933C1081.28 33.6751 1081 32.9163 1080.69 32.0452L1074.59 15.8311H1080.91L1084.27 26.0878C1084.44 26.6218 1084.61 27.1838 1084.78 27.7458C1084.94 28.3359 1085.08 28.8698 1085.25 29.3756C1085.39 29.9377 1085.56 30.4997 1085.73 31.0617H1085.81C1085.92 30.4997 1086.06 29.9377 1086.2 29.3756C1086.32 28.8698 1086.46 28.3359 1086.62 27.7458C1086.79 27.1557 1086.96 26.6218 1087.13 26.0878L1090.32 15.8311H1096.39L1088.47 39.1828C1088.11 40.2788 1087.66 41.3747 1087.13 42.4144C1086.68 43.2855 1086.34 43.9881 1085.73 44.5501C1085.11 45.1121 1084.38 45.5055 1083.6 45.7303C1082.65 45.9832 1081.64 46.0956 1080.66 46.0956H1075.79L1077.58 41.3466Z" fill="#503462"/>
<path d="M1041.5 31.8484C1041.19 32.6633 1040.66 33.3659 1039.96 33.8717C1039.26 34.3775 1038.3 34.6304 1037.13 34.6304C1035.42 34.6304 1034.08 34.1246 1033.13 33.1129C1032.17 32.1013 1031.56 30.7244 1031.33 28.9259H1047.79C1047.82 27.0432 1047.57 25.1885 1047.07 23.362C1046.62 21.7883 1045.89 20.3271 1044.91 19.0344C1043.99 17.8261 1042.78 16.8707 1041.41 16.2244C1039.9 15.5218 1038.25 15.1846 1036.6 15.2127C1033.55 15.1565 1030.61 16.4211 1028.53 18.6691C1027.53 19.7651 1026.74 21.0577 1026.24 22.4627C1025.68 23.9802 1025.4 25.5819 1025.43 27.1837C1025.43 28.8135 1025.68 30.4153 1026.21 31.9327C1027.19 34.8271 1029.35 37.1595 1032.17 38.3116C1033.77 38.9579 1035.48 39.267 1037.21 39.2389C1038.56 39.267 1039.87 39.0422 1041.13 38.6488C1042.25 38.2835 1043.29 37.7496 1044.21 37.019C1045.05 36.3726 1045.78 35.5577 1046.34 34.6585C1046.7 34.0403 1047.01 33.394 1047.21 32.7195L1041.5 31.8484ZM1033.04 21.1982C1033.88 20.3271 1035.08 19.8775 1036.68 19.8775C1037.94 19.8213 1039.17 20.3271 1040.07 21.2263C1040.96 22.1817 1041.47 23.4463 1041.5 24.767H1031.42C1031.67 23.2777 1032.2 22.0693 1033.04 21.1982Z" fill="#503462"/>
<path d="M1059.92 15.2409C1058.54 15.2128 1057.2 15.4938 1055.94 16.0277C1054.77 16.5335 1053.7 17.3203 1052.83 18.2757C1051.94 19.3155 1051.24 20.4957 1050.79 21.8164C1050.29 23.3058 1050.03 24.8513 1050.06 26.3969C1050.03 27.9705 1050.34 29.5161 1050.93 30.9773C1051.46 32.2418 1052.22 33.4221 1053.2 34.4056C1054.09 35.3329 1055.19 36.0636 1056.39 36.5413C1057.57 37.019 1058.82 37.2719 1060.08 37.2719C1060.08 37.2719 1063.53 37.5529 1066.02 35.08H1066.16V37.1033C1066.16 40.2787 1064.48 41.8523 1061.12 41.8523C1059.69 41.8523 1058.66 41.5994 1057.96 41.1217C1057.34 40.7002 1056.87 40.1101 1056.61 39.4356L1051.38 41.6837C1052.02 42.8358 1052.92 43.8194 1054.01 44.55C1055.83 45.8145 1058.6 46.4327 1061.71 46.4327C1063.19 46.4608 1064.65 46.236 1066.05 45.8145C1067.36 45.4492 1068.57 44.7748 1069.57 43.8475C1070.41 43.0888 1070.89 42.1333 1071.37 41.0093C1071.87 39.7167 1072.12 38.3116 1072.07 36.9347V15.8591H1066.27V17.9104H1066.19C1064.26 14.9879 1059.92 15.2409 1059.92 15.2409ZM1066.13 28.6449C1065.94 29.3475 1065.63 30.0219 1065.18 30.612C1064.73 31.174 1064.17 31.6517 1063.53 31.9327C1062.77 32.2699 1061.93 32.4385 1061.09 32.4104C1059.52 32.4104 1058.29 31.8765 1057.37 30.8087C1056.45 29.7409 1055.97 28.2234 1055.97 26.2845C1055.97 24.3455 1056.45 22.8281 1057.37 21.7321C1058.26 20.6362 1059.64 20.018 1061.06 20.0742C1061.88 20.0461 1062.72 20.2147 1063.44 20.5519C1064.09 20.861 1064.68 21.3106 1065.12 21.8726C1065.57 22.4628 1065.91 23.1372 1066.13 23.8397C1066.36 24.5984 1066.47 25.4133 1066.47 26.2283C1066.47 27.0713 1066.36 27.8581 1066.13 28.6449Z" fill="#503462"/>
<path d="M1012.04 7.37256V15.6623H1008.8V20.8047H1012.04V32.6633C1012.04 32.6633 1011.82 37.3842 1016.72 38.5925C1020.5 39.4918 1024.64 37.8619 1024.64 37.8619L1022.54 32.4666C1022.54 32.4666 1017.92 34.7427 1017.92 30.6119V20.7766L1022.65 20.7485L1024.64 15.6342H1017.92V7.37256H1012.04Z" fill="#503462"/>
<path d="M955.998 35.3051V23.6994C955.998 21.0298 955.243 18.9785 953.759 17.5172C952.275 16.056 949.812 15.3254 946.424 15.3254C944.968 15.2973 943.513 15.494 942.141 15.9436C941.049 16.3089 940.013 16.8428 939.145 17.5734C938.138 18.4165 937.41 19.5405 937.018 20.7769L941.777 22.8002H942.029C942.113 21.7043 942.505 20.8893 943.233 20.3835C943.933 19.8777 944.996 19.5967 946.424 19.5967C947.684 19.5967 948.636 19.8496 949.28 20.3273C949.896 20.7769 950.259 21.5357 950.231 22.2944C950.231 23.1655 949.784 23.7275 948.888 24.0366C947.516 24.43 946.144 24.7111 944.716 24.8797C943.513 25.0483 942.337 25.2731 941.161 25.6103C940.125 25.8913 939.145 26.3409 938.25 26.931C937.438 27.4649 936.766 28.1955 936.318 29.0667C935.814 30.0502 935.562 31.118 935.618 32.214C935.618 34.4901 936.346 36.2324 937.83 37.4126C939.313 38.5928 941.217 39.183 943.541 39.183C944.52 39.183 945.528 39.0987 946.508 38.9582C948.132 38.649 949.616 37.8622 950.819 36.7101L951.043 38.649H956.838V38.4242C956.25 38.0589 955.998 37.0192 955.998 35.3051ZM950.315 30.6403C950.315 31.2023 950.203 31.7644 949.952 32.2702C949.7 32.8041 949.364 33.2818 948.916 33.6471C948.412 34.0686 947.852 34.4058 947.236 34.6306C946.508 34.8835 945.724 35.024 944.968 34.9959C944.073 35.0521 943.177 34.8273 942.393 34.3496C941.749 33.9281 941.413 33.1694 941.413 32.1016C941.413 31.0337 941.805 30.275 942.561 29.7973C943.317 29.3196 944.52 28.8981 946.088 28.5609C946.844 28.3923 947.6 28.1955 948.356 27.9988C949.028 27.8302 949.672 27.5773 950.287 27.212V30.6403H950.315Z" fill="#503462"/>
<path d="M908.687 7.37256C897.853 7.37256 889.062 16.1962 889.062 27.0712C889.062 36.485 896.649 44.297 905.496 46.2641C905.608 46.2922 905.692 46.236 905.72 46.1236C905.748 46.0674 905.72 45.9831 905.664 45.9269C900.037 40.8125 896.005 32.6352 895.865 27.7456C895.837 26.4811 896.145 25.2166 896.817 24.1206C897.993 22.0131 899.337 19.9898 900.456 17.8542C901.66 15.4937 902.556 15.1846 905.02 15.1003C907.483 15.016 909.863 15.1003 912.27 15.0722C914.902 15.0441 915.798 15.6061 917.086 17.9666C918.429 20.4113 919.633 21.9569 920.977 24.4016C921.873 26.0596 921.817 28.0829 920.893 29.7127C919.745 31.7922 917.17 36.1197 916.946 36.5131C915.854 38.6769 914.566 39.1265 912.214 39.1827C911.683 39.1827 910.619 39.1827 910.115 39.1827C908.771 39.1546 907.511 39.829 906.783 40.9811C905.384 43.0606 907.455 46.5451 910.087 46.3765C920.305 45.7583 928.312 37.4966 928.312 27.0431C928.312 16.1962 919.521 7.37256 908.687 7.37256Z" fill="#F5887E"/>
</g>
<defs>
<linearGradient id="paint0_linear_16_428" x1="64.3029" y1="37.146" x2="26.9705" y2="81.2659" gradientUnits="userSpaceOnUse">
<stop offset="0.00186302" stop-color="#0096E3"/>
<stop offset="0.2137" stop-color="#00A8FF"/>
<stop offset="0.3791" stop-color="#24B4FF"/>
<stop offset="0.5807" stop-color="#4CC2FF"/>
</linearGradient>
<linearGradient id="paint1_linear_16_428" x1="67.5071" y1="10.4179" x2="79.8769" y2="97.1316" gradientUnits="userSpaceOnUse">
<stop offset="0.013" stop-color="#26B2FA"/>
<stop offset="0.4657" stop-color="#36B5F7"/>
</linearGradient>
<linearGradient id="paint2_linear_16_428" x1="45.3504" y1="19.34" x2="93.6497" y2="14.1113" gradientUnits="userSpaceOnUse">
<stop stop-color="#21A7EB"/>
<stop offset="1" stop-color="#18AAF5"/>
</linearGradient>
<clipPath id="clip0_16_428">
<rect width="249.805" height="47.7058" fill="white" transform="translate(41.6342 3.03589)"/>
</clipPath>
<clipPath id="clip1_16_428">
<rect width="176.078" height="53.7774" fill="white" transform="translate(378.177)"/>
</clipPath>
<clipPath id="clip2_16_428">
<rect width="207.303" height="39.032" fill="white" transform="translate(889.062 7.37256)"/>
</clipPath>
</defs>
</svg>
