<svg width="68.25rem" height="3.75rem" viewBox="0 0 1092 60" fill="none" xmlns="http://www.w3.org/2000/svg">
<g clip-path="url(#clip0_16_524)">
<path d="M104.075 23.0615H89.4119V15.6334H99.981V11.5491H89.4119V4.12091H104.075V0.0366211H85.1034V27.1458H104.075V23.0615Z" fill="black"/>
<path d="M103.79 34.8366C102.949 34.0993 101.965 33.5447 100.899 33.2076C99.8343 32.8705 98.7112 32.7583 97.6007 32.878H93.0779C91.9674 32.7569 90.8438 32.8684 89.7785 33.2055C88.7131 33.5426 87.7291 34.098 86.8888 34.8366C86.1469 35.6649 85.5925 36.6446 85.2638 37.7084C84.9351 38.7721 84.8398 39.8946 84.9845 40.9988V51.8425C84.8426 52.9503 84.9392 54.0757 85.2677 55.1429C85.5962 56.21 86.149 57.1941 86.8888 58.0286C87.7341 58.758 88.7194 59.306 89.7838 59.6387C90.8482 59.9714 91.9693 60.0819 93.0779 59.9633H97.6007C98.7093 60.0805 99.83 59.9693 100.894 59.6367C101.958 59.304 102.944 58.7568 103.79 58.0286C104.53 57.1941 105.082 56.21 105.411 55.1429C105.739 54.0757 105.836 52.9503 105.694 51.8425V40.9988C105.834 39.8948 105.737 38.7735 105.408 37.7105C105.08 36.6475 104.528 35.6675 103.79 34.8366ZM101.409 51.0304C101.409 53.4189 101.243 54.3982 100.6 55.0908C99.9573 55.7835 99.1956 55.9029 96.5533 55.9029H94.1729C91.5306 55.9029 90.7689 55.7357 90.1262 55.0908C89.4835 54.4459 89.3168 53.5383 89.3168 51.0304V41.8348C89.3168 39.2791 89.4835 38.4432 90.1262 37.7505C90.7689 37.0578 91.5306 36.9384 94.1729 36.9384H96.5533C99.1956 36.9384 99.9573 37.1056 100.576 37.7505C101.195 38.3954 101.409 39.2791 101.409 41.8348V51.0304Z" fill="black"/>
<path d="M126.452 1.99527C125.612 1.25551 124.628 0.699319 123.563 0.362117C122.497 0.0249137 121.373 -0.0859051 120.262 0.0367199H108.36V27.1459H120.262C121.373 27.2685 122.497 27.1577 123.563 26.8205C124.628 26.4833 125.612 25.9271 126.452 25.1874C127.191 24.3528 127.744 23.3688 128.073 22.3016C128.401 21.2344 128.498 20.109 128.356 19.0012V8.15753C128.499 7.05339 128.403 5.93127 128.074 4.86778C127.746 3.80429 127.192 2.82449 126.452 1.99527ZM124.071 18.1891C124.071 20.7209 123.904 21.5569 123.262 22.2495C122.619 22.9422 121.857 23.0616 119.215 23.0616H112.74V4.12101H119.191C121.834 4.12101 122.595 4.2882 123.238 4.90921C123.881 5.53021 124.047 6.46172 124.047 8.9935L124.071 18.1891Z" fill="black"/>
<path d="M148.756 4.12091V0.0366211H131.664V4.12091H138.044V23.0615H131.664V27.1458H148.756V23.0615H142.376V4.12091H148.756Z" fill="black"/>
<path d="M171.918 12.2179L166.848 1.2309C166.708 0.87677 166.465 0.573195 166.151 0.360056C165.837 0.146916 165.465 0.0341811 165.086 0.0366612H159.682C159.3 0.0358719 158.927 0.148962 158.609 0.361583C158.291 0.574204 158.043 0.876773 157.897 1.2309L152.851 12.2179C152.57 12.8165 152.416 13.4672 152.398 14.1287V27.1458H156.731V19.6938H168.062V27.1458H172.346V14.1287C172.337 13.4689 172.191 12.8183 171.918 12.2179ZM168.062 15.6095H156.731V13.8659L161.301 4.12095H163.444L168.062 13.8659V15.6095Z" fill="black"/>
<path d="M125.69 46.4447L114.382 32.8782H110.05V59.9635H114.382V38.9449L125.69 52.5353V59.9635H129.998V32.8782H125.69V46.4447Z" fill="black"/>
<path d="M166.109 44.4861C163.039 43.1486 159.778 41.9305 159.778 39.7092C159.758 38.9886 160.022 38.2893 160.512 37.762C161.002 37.2348 161.678 36.9218 162.396 36.8908H168.347C169.042 36.8908 169.708 37.1676 170.199 37.6603C170.69 38.153 170.966 38.8213 170.966 39.5181V40.2346H175.203V39.6614C175.2 38.7612 175.02 37.8704 174.674 37.0399C174.327 36.2095 173.822 35.4555 173.185 34.8212C172.548 34.1869 171.793 33.6846 170.963 33.343C170.133 33.0014 169.244 32.8272 168.347 32.8304H162.563C160.749 32.8367 159.011 33.5642 157.73 34.8535C156.45 36.1429 155.731 37.8889 155.731 39.7092C155.731 44.4861 160.825 46.5641 164.824 48.3077C167.895 49.6452 171.132 50.8633 171.132 53.0846C171.152 53.8052 170.888 54.5045 170.398 55.0318C169.908 55.559 169.231 55.872 168.514 55.903H162.586C161.892 55.903 161.226 55.6262 160.735 55.1335C160.244 54.6408 159.968 53.9725 159.968 53.2757V52.583H155.731V53.1563C155.734 54.0565 155.914 54.9473 156.26 55.7777C156.606 56.6082 157.112 57.3621 157.749 57.9965C158.385 58.6308 159.14 59.1331 159.97 59.4747C160.8 59.8163 161.689 59.9905 162.586 59.9873H168.347C169.249 59.9873 170.143 59.8086 170.976 59.4614C171.809 59.1142 172.566 58.6054 173.203 57.9641C173.84 57.3228 174.345 56.5617 174.688 55.7244C175.031 54.887 175.206 53.99 175.203 53.0846C175.203 48.236 170.085 46.2297 166.109 44.4861Z" fill="black"/>
<path d="M142.9 46.2775L154.421 32.8782H148.732L139.424 44.3906V32.8782H135.092V59.9635H139.424V48.451L149.136 59.9635H154.945L142.9 46.2775Z" fill="black"/>
<path d="M76.1291 6.89154L70.059 15.6334H66.5598L60.5135 6.89154V27.1458H56.1812V0.0366211H60.5135L68.3213 11.2863L76.1291 0.0366211H80.4615V27.1458H76.1291V6.89154Z" fill="black"/>
<path d="M76.1291 39.7331L70.059 48.451H66.5598L60.5135 39.7331V59.9635H56.1812V32.8782H60.5135L68.3213 44.1279L76.1291 32.8782H80.4615V59.9635H76.1291V39.7331Z" fill="black"/>
</g>
<g clip-path="url(#clip1_16_524)">
<path d="M381.268 48.1185H389.913V31.0762C390.718 28.5047 394.489 26.0998 399.929 27.3023V18.9508C395.407 18.9508 391.516 21.9271 389.913 26.6713V19.5223H381.268V48.1185ZM367.189 25.1891C369.822 25.1891 371.139 26.6177 371.139 27.9927C371.139 29.9928 369.536 31.9988 360.605 33.0227C360.605 28.3321 363.584 25.1891 367.189 25.1891ZM378.235 45.4872V37.88C375.375 40.2847 371.538 41.6003 368.446 41.6003C365.241 41.6003 362.667 39.886 361.403 37.1418C372.736 36.3442 378.289 32.4512 378.289 26.963C378.289 22.5581 373.767 18.8437 367.469 18.8437C359.11 18.8437 352.359 24.9629 352.359 33.8858C352.359 42.2909 359.282 48.5232 367.987 48.5232C371.711 48.5172 375.489 47.4339 378.235 45.4872ZM346.067 39.255V25.1891H351.96V19.5877L346.067 19.6473V12.784L329.694 24.3379V14.2721L316.014 24.5641V25.195H321.168V40.8621C321.168 45.8385 324.832 48.4695 329.813 48.4695C331.988 48.4695 333.823 48.0708 335.479 47.1004V41.2074C334.675 41.6658 333.704 42.0111 332.62 42.0111C330.79 42.0111 329.7 41.0945 329.7 39.4931V25.195H337.541V40.8087C337.541 45.8385 341.205 48.4695 346.24 48.4695C348.474 48.4695 350.303 48.184 352.079 47.1004V41.1539C351.334 41.6121 350.19 42.0111 349.046 42.0111C347.211 41.999 346.067 41.029 346.067 39.255ZM304.342 25.1891C306.976 25.1891 308.292 26.6177 308.292 27.9927C308.292 29.9928 306.69 31.9988 297.758 33.0227C297.758 28.3321 300.731 25.1891 304.342 25.1891ZM315.388 45.4872V37.88C312.529 40.2847 308.692 41.6003 305.599 41.6003C302.394 41.6003 299.82 39.886 298.557 37.1418C309.889 36.3442 315.442 32.4512 315.442 26.963C315.442 22.5581 310.92 18.8437 304.622 18.8437C296.263 18.8437 289.512 24.9629 289.512 33.8858C289.512 42.2909 296.435 48.5232 305.14 48.5232C308.864 48.5172 312.642 47.4339 315.388 45.4872ZM273.83 32.7369C276.517 32.7369 278.752 34.3977 278.752 37.1954C278.752 39.8265 276.517 41.4277 273.83 41.4277H267.306V32.7369H273.83ZM273.371 18.0996C275.945 18.0996 278.007 19.7008 278.007 22.1592C278.007 24.7903 275.945 26.3915 273.371 26.3915H267.306V18.0996H273.371ZM258.434 11.4625V48.1185H275.719C282.356 48.1185 287.57 44.0587 287.57 37.88C287.57 33.9334 285.049 30.7905 281.385 29.3023C284.704 27.8142 286.938 24.8974 286.938 21.4092C286.938 15.4031 281.671 11.4565 274.974 11.4565H258.434V11.4625Z" fill="black"/>
</g>
<g clip-path="url(#clip2_16_524)">
<path d="M526.641 52.8323H498.616C496.19 52.8323 494.222 50.8706 494.222 48.4512V13.2498C494.222 10.8303 496.19 8.86865 498.616 8.86865H526.641C529.067 8.86865 531.035 10.8303 531.035 13.2498V48.4512C531.035 50.8706 529.067 52.8323 526.641 52.8323Z" fill="#F05761"/>
<path d="M513.11 55.1208C527.284 55.1208 538.774 44.1814 538.774 30.6869C538.774 17.1924 527.284 6.25293 513.11 6.25293C498.936 6.25293 487.446 17.1924 487.446 30.6869C487.446 44.1814 498.936 55.1208 513.11 55.1208Z" fill="#F05761"/>
<path d="M624.467 36.528C624.598 36.4408 624.708 36.3318 624.817 36.2228C624.926 36.1138 624.992 36.0049 625.036 35.8741C625.079 35.7433 625.079 35.5907 625.014 35.4163C624.992 35.3728 624.992 35.351 625.014 35.351C625.036 35.351 625.036 35.3074 625.036 35.2856C625.014 35.242 624.992 35.1984 624.992 35.133C624.992 35.0676 624.97 35.024 624.948 34.9804C624.883 34.8932 624.795 34.7842 624.708 34.6753C624.62 34.5663 624.533 34.4573 624.424 34.3701C624.402 34.3265 624.38 34.3047 624.358 34.3047C624.336 34.3047 624.292 34.2611 624.249 34.2393C624.096 34.1521 623.964 34.0432 623.79 33.9778C623.615 33.9124 623.505 33.7816 623.396 33.6508C623.265 33.4765 623.112 33.3239 622.959 33.1931C622.806 33.0623 622.587 32.9751 622.325 32.9533C622.259 32.9533 622.194 32.9315 622.15 32.8879C621.778 32.5828 621.429 32.561 621.079 32.8008C620.817 32.9533 620.598 33.1277 620.423 33.3239C620.314 33.4329 620.248 33.5636 620.161 33.6726C619.243 34.4137 618.368 35.1548 617.538 35.9831C616.663 36.8549 615.658 37.6178 614.914 38.5768C614.892 38.5986 614.871 38.5768 614.871 38.5986C614.739 38.7512 614.63 38.9038 614.521 39.0782C614.28 39.3615 614.04 39.6231 613.778 39.9064C613.472 40.2552 613.187 40.5821 612.903 40.9091C612.838 40.9963 612.794 41.0835 612.772 41.1924C612.728 41.3014 612.706 41.3886 612.641 41.4976C612.597 41.5848 612.532 41.672 612.444 41.7373C612.357 41.8027 612.226 41.8463 612.051 41.8463C612.073 42.1297 611.985 42.3259 611.81 42.4348C611.613 42.5438 611.46 42.6964 611.307 42.849C611.133 43.0451 610.958 43.2413 610.805 43.4593C610.652 43.6554 610.52 43.917 610.433 44.1786C610.346 44.3965 610.193 44.5927 609.996 44.7889C609.799 44.985 609.602 45.1812 609.406 45.3774C609.056 45.6825 608.772 46.0313 608.553 46.4018C608.334 46.7724 608.16 47.1865 608.007 47.6006C608.007 47.6442 607.985 47.666 607.941 47.6878C607.897 47.7096 607.832 47.7314 607.788 47.775C607.569 48.0148 607.351 48.2545 607.154 48.4943C606.957 48.734 606.761 48.9956 606.586 49.2354C606.476 49.3443 606.411 49.4751 606.323 49.6059C606.258 49.7367 606.192 49.8457 606.105 49.9764V49.9546C606.148 49.8675 606.148 49.7585 606.148 49.6495C606.148 49.5405 606.148 49.4315 606.192 49.3443C606.214 49.2572 606.236 49.1482 606.258 49.0828C606.28 48.9956 606.301 48.9084 606.323 48.8212C606.345 48.6251 606.367 48.4289 606.389 48.2545C606.411 48.0583 606.433 47.884 606.454 47.6878C606.454 47.5788 606.476 47.448 606.498 47.3391C606.52 47.2301 606.542 47.0993 606.586 46.9903C606.673 46.9685 606.761 46.8377 606.848 46.598C606.935 46.3582 607.023 46.1185 607.088 45.8351C607.154 45.5517 607.22 45.312 607.263 45.0504C607.307 44.8107 607.307 44.6581 607.285 44.6363C607.394 44.4183 607.504 44.244 607.591 44.0696C607.679 43.917 607.766 43.7644 607.875 43.5901L607.766 43.5683C607.722 43.5901 607.635 43.6336 607.504 43.7208C607.482 43.699 607.46 43.6772 607.438 43.6554C607.416 43.6336 607.394 43.6119 607.394 43.5901C607.438 43.5465 607.46 43.5029 607.504 43.4593C607.526 43.4157 607.569 43.3939 607.613 43.3939C607.766 43.4157 607.875 43.3939 607.919 43.3285C607.963 43.2631 607.985 43.1977 608.028 43.1105C608.072 43.0233 608.116 42.9362 608.16 42.8708C608.203 42.8054 608.247 42.7182 608.247 42.631C608.269 42.5438 608.247 42.4348 608.247 42.3259C608.225 42.2387 608.203 42.1297 608.203 42.0207C608.203 41.9989 608.203 41.9989 608.225 41.9989C608.247 41.9989 608.247 41.9989 608.247 41.9771C608.291 41.9771 608.334 41.9771 608.4 41.9553C608.444 41.9553 608.509 41.9335 608.553 41.9335C608.356 41.7156 608.291 41.563 608.378 41.4758C608.466 41.3886 608.597 41.3014 608.794 41.1924C608.794 41.1052 608.75 41.0181 608.706 40.8873C608.728 40.8873 608.75 40.8873 608.772 40.9091C608.793 40.9309 608.815 40.9309 608.837 40.9309C608.881 40.8655 608.925 40.8219 608.968 40.7783C609.012 40.7347 609.056 40.6693 609.1 40.6257C609.143 40.5821 609.165 40.5385 609.143 40.4731C609.143 40.4078 609.143 40.3642 609.165 40.3206C609.34 39.9936 609.493 39.6667 609.668 39.3615C609.821 39.0564 610.018 38.7294 610.236 38.4243C610.389 38.1845 610.52 37.9447 610.608 37.6614C610.695 37.378 610.892 37.1819 611.176 37.0075C611.22 36.9639 611.286 36.9203 611.395 36.8549C611.504 36.7895 611.482 36.6805 611.373 36.5062C611.351 36.5062 611.351 36.4844 611.373 36.4408C611.395 36.3972 611.417 36.3754 611.439 36.3536C611.548 36.1574 611.701 35.9613 611.854 35.7869C612.007 35.6125 612.116 35.4163 612.138 35.1984C612.204 35.133 612.226 35.1112 612.204 35.1112C612.379 35.0458 612.488 34.9586 612.532 34.806C612.575 34.6753 612.619 34.5227 612.685 34.3919C612.772 34.2175 612.947 34.0432 613.166 33.8688C613.537 33.5636 613.734 33.2367 613.778 32.8444C613.778 32.8008 613.778 32.779 613.799 32.7572C613.821 32.7354 613.843 32.7136 613.865 32.67C613.931 32.5828 613.996 32.5174 614.062 32.452C614.127 32.3866 614.193 32.3212 614.237 32.2341C614.302 32.1469 614.324 32.0379 614.346 31.9289C614.368 31.8417 614.433 31.7545 614.586 31.7327C614.63 31.7109 614.652 31.6673 614.674 31.602C614.696 31.5366 614.718 31.4712 614.761 31.4494C614.892 31.3404 614.98 31.2532 615.067 31.2096C615.089 31.166 615.111 31.166 615.155 31.166C615.199 31.166 615.22 31.166 615.242 31.1224C615.352 30.9699 615.483 30.8173 615.592 30.6429C615.701 30.4903 615.832 30.3377 615.942 30.1634C616.16 29.88 616.379 29.6185 616.576 29.3351C616.772 29.0518 616.969 28.7902 617.166 28.5068C617.253 28.3979 617.297 28.2671 617.341 28.1363C617.385 28.0055 617.428 27.8747 617.494 27.744C617.516 27.7004 617.538 27.6568 617.559 27.635C617.581 27.5914 617.625 27.5478 617.669 27.526C617.712 27.5042 617.756 27.4388 617.822 27.417C617.887 27.3952 617.931 27.3298 617.975 27.308C618.106 27.0247 618.106 26.7849 617.997 26.5234C617.887 26.2836 617.778 26.0438 617.669 25.8041C617.559 25.5425 614.499 24.3437 614.412 24.4963C614.237 24.8232 614.04 25.1502 613.843 25.4771C613.646 25.8041 613.428 26.131 613.187 26.458C612.794 27.0683 612.4 27.7004 612.029 28.3107C611.635 28.921 611.242 29.5313 610.87 30.1634C610.499 30.7301 610.127 31.275 609.755 31.8417C609.384 32.4084 609.034 32.9751 608.684 33.5418C608.291 34.1521 607.919 34.7842 607.547 35.4163C607.46 35.5907 607.351 35.7433 607.263 35.8959C606.848 36.5498 606.454 37.2255 606.061 37.9448C605.995 38.0537 605.93 38.1845 605.864 38.2935C605.689 38.6422 605.514 38.9692 605.361 39.3179C605.252 39.5577 605.143 39.7975 605.034 40.0372V40.059C604.487 41.2578 604.05 42.4784 603.744 43.7208C603.7 43.8516 603.656 44.0042 603.634 44.135C603.613 44.2222 603.591 44.3311 603.569 44.4401C603.503 44.7017 603.46 44.985 603.416 45.2466C603.394 45.3992 603.35 45.5517 603.328 45.7043C603.263 46.2492 603.175 46.7724 603.11 47.2737C602.935 48.2763 603.001 49.2572 603.307 50.2162C603.416 50.5432 603.569 50.8701 603.722 51.1753C603.875 51.4804 604.137 51.742 604.487 51.9599C604.706 52.0471 604.859 52.1997 604.968 52.3741C605.121 52.6792 605.361 52.8318 605.689 52.8754V52.9626C605.733 52.9626 605.755 52.9626 605.777 52.9408C605.777 52.919 605.821 52.919 605.864 52.919C605.908 52.8972 605.952 52.8754 606.017 52.8536C606.061 52.8318 606.127 52.81 606.17 52.7882H606.214C606.389 52.701 606.542 52.592 606.695 52.4613C606.848 52.3523 607.001 52.2433 607.176 52.1343V52.0253C607.088 51.5676 607.154 51.1753 607.351 50.8265C607.547 50.4778 607.766 50.1508 608.007 49.8021C608.181 49.5623 608.4 49.3443 608.597 49.1264C608.815 48.9084 608.968 48.6687 609.056 48.4289C609.121 48.2109 609.187 48.0148 609.274 47.8186C609.34 47.6224 609.449 47.4263 609.58 47.2519C609.799 46.9903 609.996 46.7506 610.171 46.489C610.346 46.2274 610.542 45.9659 610.717 45.7043C610.936 45.421 611.154 45.1594 611.373 44.8543C611.592 44.5709 611.81 44.2875 612.029 44.026C612.313 43.7208 612.597 43.3721 612.859 43.0233C612.881 42.9798 612.925 42.9362 612.947 42.8926C613.187 42.631 613.406 42.3477 613.559 42.0207C613.821 41.4976 614.171 41.1052 614.521 40.6257C614.871 40.1462 615.111 39.5795 615.505 39.1436C615.548 39.1218 615.57 39.1 615.592 39.0564C616.357 38.0101 617.494 37.1819 618.434 36.2446C618.696 35.9831 618.98 35.7433 619.243 35.5035C619.068 35.8523 618.871 36.201 618.696 36.5498C618.478 36.9857 618.259 37.4216 618.04 37.8358C617.844 38.2935 617.625 38.7294 617.385 39.1654C617.166 39.6013 616.947 40.0372 616.751 40.4949C616.488 41.1706 616.226 41.8463 615.964 42.522C615.701 43.1977 615.461 43.8734 615.199 44.5491C614.98 45.1158 614.783 45.6825 614.586 46.271C614.39 46.8377 614.215 47.4262 614.018 47.993C613.931 48.2981 613.843 48.6251 613.734 48.9302C613.625 49.2354 613.537 49.5623 613.45 49.8893C613.362 50.2162 613.297 50.565 613.253 50.8919C613.187 51.2189 613.144 51.5676 613.078 51.8945C613.056 52.1125 613.034 52.3087 612.991 52.5048C612.947 52.701 612.925 52.8972 612.925 53.1152C612.903 53.4639 612.903 53.8344 612.925 54.1832C612.947 54.5319 612.969 54.9025 613.034 55.2512C613.1 55.8833 613.231 56.4718 613.472 57.0167C613.712 57.5617 614.149 58.0412 614.783 58.4335C614.849 58.4771 614.914 58.5207 614.958 58.5861C615.002 58.6515 615.067 58.6951 615.133 58.7169C615.308 58.7823 615.505 58.8258 615.679 58.8258C615.854 58.8258 616.029 58.9348 616.16 59.0656C616.182 59.1092 616.248 59.131 616.357 59.131C616.904 59.022 617.144 58.6515 617.1 58.063C616.991 58.0848 616.882 58.1066 616.772 58.1066C616.772 58.1066 616.772 58.1066 616.751 58.1066C616.466 57.845 616.204 57.4091 616.051 56.9949C616.051 56.9513 616.073 56.9296 616.051 56.886C616.029 56.7116 616.007 56.5372 616.007 56.341C615.986 56.1449 615.986 55.9705 615.986 55.7743C615.986 55.6653 615.986 55.5782 616.007 55.4692C616.029 55.3602 616.029 55.273 616.051 55.164C616.073 54.9461 616.095 54.7281 616.139 54.4883C616.182 54.2486 616.204 54.0306 616.226 53.8126H616.182C616.226 53.6165 616.292 53.4203 616.335 53.2241C616.379 53.1587 616.423 53.1152 616.445 53.0498C616.532 52.8318 616.619 52.6138 616.663 52.3741C616.707 52.1779 616.772 51.9817 616.816 51.7856C617.013 51.2624 617.144 50.7175 617.188 50.1508C617.297 49.8675 617.406 49.5841 617.516 49.3008C617.538 49.279 617.559 49.279 617.559 49.279C617.603 49.2354 617.603 49.1482 617.603 49.0174C617.647 48.9084 617.691 48.7994 617.712 48.6904C617.712 48.6687 617.712 48.6687 617.712 48.6469C617.756 48.5597 617.778 48.4943 617.8 48.4071C617.8 48.3853 617.8 48.3853 617.822 48.3635C617.909 48.0801 617.997 47.7968 618.084 47.5352C618.215 47.2083 618.325 46.9031 618.434 46.5762C618.478 46.5762 618.499 46.5544 618.499 46.5326C618.543 46.4672 618.543 46.4236 618.478 46.38C618.543 46.1838 618.587 45.9877 618.631 45.7697C618.762 45.6171 618.893 45.4646 619.046 45.312C619.046 45.2248 619.046 45.1594 619.046 45.0722C619.046 44.985 619.068 44.8979 619.068 44.8107C619.068 44.7671 619.068 44.7235 619.112 44.7017C619.155 44.6799 619.155 44.6145 619.155 44.5927C619.133 44.3311 619.199 44.135 619.33 43.9824C619.461 43.8298 619.614 43.6772 619.789 43.5029C620.161 43.1541 620.401 42.7836 620.511 42.3912C620.532 42.3041 620.554 42.2387 620.62 42.1951C620.664 42.1297 620.707 42.0643 620.751 41.9989C620.795 41.9335 620.817 41.8463 620.817 41.7591C620.817 41.672 620.86 41.6066 620.926 41.563C621.101 41.4758 621.188 41.345 621.21 41.2142C621.232 41.0835 621.298 40.9527 621.385 40.8219C621.472 40.7347 621.538 40.6257 621.604 40.5603C621.669 40.4732 621.713 40.386 621.778 40.2988C621.822 40.2552 621.844 40.2334 621.844 40.2116C621.778 40.059 621.8 39.9282 621.931 39.8193C622.041 39.7103 622.128 39.6013 622.194 39.4705C622.587 38.882 623.024 38.2717 623.505 37.6396C623.593 37.487 623.724 37.3344 623.833 37.2255C623.964 37.0947 624.074 36.9639 624.205 36.8331C624.227 36.7023 624.336 36.6152 624.467 36.528Z" fill="#F05761"/>
<path d="M673.718 39.6233C673.697 39.3835 673.697 39.1437 673.697 38.9258C673.718 38.686 673.675 38.4462 673.609 38.2283C673.544 38.0103 673.456 37.7706 673.325 37.5308C673.216 37.3128 673.106 37.0731 673.019 36.8333C672.975 36.7243 672.953 36.6153 672.931 36.5282C672.91 36.441 672.822 36.441 672.713 36.4628C672.691 36.3756 672.669 36.3102 672.669 36.2666C672.669 36.2012 672.625 36.1576 672.582 36.114C672.429 35.9614 672.297 35.8089 672.144 35.6563C671.991 35.5037 671.817 35.3511 671.576 35.2422C671.248 35.0896 670.942 34.9152 670.636 34.7408C670.352 34.5665 670.046 34.3921 669.74 34.2395C669.609 34.1523 669.543 34.0869 669.587 33.9997C669.609 33.8472 669.674 33.6946 669.74 33.5638C669.805 33.433 669.871 33.2805 669.958 33.1497C670.002 33.0407 670.024 32.9317 670.024 32.8227C670.046 32.7355 669.958 32.6266 669.762 32.5176C669.718 32.474 669.696 32.4304 669.696 32.4086C669.631 32.2124 669.521 32.0817 669.368 31.9945C669.215 31.9073 669.062 31.8201 668.931 31.7329C668.778 31.6239 668.669 31.5367 668.581 31.4713C668.625 31.4278 668.647 31.406 668.647 31.3842C668.538 31.3624 668.406 31.3406 668.275 31.3406C668.144 31.3406 668.013 31.3188 667.904 31.297C667.751 31.2534 667.641 31.2098 667.619 31.188C667.554 31.1008 667.445 31.0136 667.292 30.9918C667.16 30.9482 667.029 30.97 666.92 31.0572C666.745 31.2098 666.592 31.3624 666.461 31.5367C666.308 31.6893 666.177 31.8419 666.002 32.0163C665.783 32.2342 665.565 32.474 665.39 32.7573C665.215 33.0407 664.974 33.2369 664.646 33.4112C664.756 33.5856 664.756 33.7164 664.625 33.7818C664.515 33.8472 664.406 33.9126 664.297 33.9779C664.056 34.0651 663.838 34.1305 663.619 34.1741C663.4 34.2177 663.182 34.3049 662.941 34.3703C662.526 34.5011 662.132 34.6536 661.717 34.7844C661.302 34.9152 660.908 35.0678 660.471 35.2204C660.427 35.2639 660.406 35.2857 660.362 35.3075C660.34 35.3293 660.296 35.3511 660.253 35.3947C660.165 35.5473 660.056 35.6781 659.925 35.7435C659.881 35.7653 659.793 35.7653 659.728 35.7871C659.925 35.5255 660.099 35.2422 660.296 34.9806C660.34 34.8934 660.384 34.828 660.427 34.7408C660.471 34.6536 660.515 34.5883 660.515 34.5011C660.537 34.3485 660.559 34.1741 660.559 34.0215C660.559 33.8472 660.559 33.6946 660.602 33.542C660.646 33.4112 660.624 33.2805 660.58 33.1715C660.537 33.0625 660.493 32.9535 660.427 32.8663C660.34 32.7573 660.274 32.6266 660.231 32.4958C660.165 32.365 660.078 32.2778 659.968 32.256C659.64 32.1034 659.466 31.9291 659.466 31.7547C659.356 31.6675 659.247 31.6021 659.16 31.5585C659.072 31.5149 658.985 31.4496 658.897 31.406C658.722 31.3188 658.591 31.2534 658.438 31.188C658.307 31.1226 658.154 31.0572 657.979 30.9918C657.87 30.9482 657.739 30.97 657.586 31.0136C657.433 31.0572 657.301 30.9918 657.192 30.8174C657.192 30.7957 657.17 30.7957 657.105 30.7957C657.039 30.7957 656.995 30.8174 656.952 30.8174C656.842 30.9046 656.755 30.97 656.667 31.0354C656.58 31.1008 656.493 31.188 656.427 31.2752C656.361 31.3624 656.318 31.4495 656.296 31.5367C656.274 31.6239 656.208 31.7111 656.143 31.7765C655.859 32.0381 655.553 32.2778 655.247 32.4958C654.941 32.7138 654.634 32.9535 654.328 33.1933C654.307 33.2151 654.285 33.2369 654.285 33.2587L654.263 33.2805C654.11 33.3676 653.979 33.4984 653.826 33.651C653.826 33.6292 653.782 33.6292 653.782 33.6074C652.077 35.1114 650.612 36.7679 649.41 38.6424C649.235 38.7296 649.126 38.8386 649.082 38.9912C649.082 38.9912 649.082 39.013 649.06 39.013C648.995 39.0783 648.951 39.1437 648.907 39.2091C648.798 39.3617 648.667 39.5361 648.579 39.7104C648.492 39.8848 648.361 40.0592 648.273 40.2118C648.076 40.5169 647.88 40.8221 647.683 41.1272C647.486 41.4324 647.311 41.7157 647.136 42.0209C646.874 42.435 646.634 42.8492 646.415 43.2633C646.196 43.6774 645.956 44.0916 645.715 44.5057L643.661 48.3855C643.617 48.4291 643.573 48.4509 643.508 48.4727C643.464 48.4945 643.398 48.5163 643.333 48.5598C643.376 48.3855 643.42 48.2329 643.464 48.0803C643.508 47.9277 643.529 47.8188 643.595 47.688C643.639 47.6008 643.683 47.4918 643.77 47.3828C643.857 47.2956 643.857 47.2085 643.814 47.1431C643.682 46.9033 643.661 46.6853 643.77 46.4892C643.879 46.293 643.945 46.075 643.967 45.8571C644.01 45.6391 644.098 45.4211 644.229 45.2032C644.36 44.9852 644.491 44.7672 644.601 44.5493C644.644 44.4621 644.71 44.3531 644.797 44.2659C644.885 44.1787 644.929 44.0916 644.885 44.0262C644.819 43.8518 644.841 43.6992 644.907 43.612C644.994 43.503 645.06 43.3941 645.147 43.3069C645.3 43.1543 645.388 42.9799 645.475 42.7838C645.541 42.5876 645.497 42.3914 645.344 42.1735C645.584 42.1299 645.759 42.0427 645.825 41.8901C645.912 41.7375 645.978 41.585 646.022 41.4106C646.109 41.1272 646.218 40.8657 646.328 40.6259C646.437 40.3861 646.655 40.1464 646.962 39.972C647.071 39.8848 647.158 39.7976 647.246 39.6887C647.333 39.5797 647.399 39.4707 647.442 39.3399C647.552 39.1219 647.661 38.904 647.77 38.6424C647.88 38.4027 647.989 38.1629 648.098 37.9449C648.142 37.8577 648.208 37.7706 648.295 37.7052C648.382 37.6398 648.448 37.5744 648.47 37.4654C648.557 37.182 648.688 36.9423 648.863 36.7461C649.038 36.5499 649.213 36.332 649.388 36.114C649.628 35.8525 649.76 35.5691 649.781 35.2639C649.803 34.9588 649.825 34.6536 649.891 34.3485C649.891 34.3049 649.869 34.2613 649.847 34.1959C649.825 34.1305 649.803 34.0869 649.76 34.0433C649.628 33.8036 649.454 33.6074 649.257 33.4548C649.06 33.3023 648.863 33.1497 648.667 32.9753C648.492 32.8445 648.339 32.7355 648.186 32.6266C648.033 32.5394 647.836 32.5394 647.595 32.6048L647.574 32.3432C647.508 32.3214 647.421 32.3214 647.311 32.3214C647.202 32.3432 647.115 32.3432 647.049 32.3432C646.983 32.365 646.896 32.3432 646.809 32.2996C646.721 32.256 646.655 32.1906 646.612 32.0599C646.087 32.1688 645.759 32.4522 645.628 32.8881C645.475 33.2151 645.322 33.542 645.147 33.869C644.972 34.1959 644.819 34.5229 644.71 34.8934C644.579 35.2204 644.426 35.5473 644.207 35.8525C644.01 36.1576 643.857 36.4846 643.77 36.8333C643.726 37.0295 643.661 37.2256 643.573 37.4C643.486 37.5744 643.398 37.7706 643.311 37.9667C643.136 38.4244 642.939 38.8604 642.764 39.2963C642.589 39.7322 642.393 40.1682 642.218 40.6259C642.043 41.04 641.89 41.4542 641.737 41.8683C641.671 42.0427 641.606 42.2171 641.54 42.4132C641.387 42.6094 641.212 42.8274 641.059 43.0235C640.95 43.1107 640.841 43.2415 640.753 43.3505C640.71 43.3941 640.688 43.4159 640.666 43.4377C640.6 43.5248 640.556 43.5902 640.491 43.6774C640.425 43.7646 640.36 43.83 640.272 43.8736C639.988 44.1569 639.682 44.4185 639.398 44.6583C639.092 44.9198 638.786 45.1596 638.48 45.4211C638.13 45.7481 637.78 46.075 637.43 46.3802C637.081 46.6853 636.709 47.0123 636.337 47.3174C635.9 47.6662 635.463 48.0149 635.026 48.3855C634.589 48.7342 634.151 49.083 633.692 49.4099C633.496 49.5189 633.277 49.6715 633.015 49.8676C632.752 50.0638 632.468 50.2382 632.184 50.4344C631.9 50.6305 631.594 50.8049 631.331 50.9575C631.047 51.1318 630.829 51.2626 630.632 51.3934C630.282 51.6114 629.823 51.7857 629.277 51.9165C628.73 52.0473 628.227 52.0691 627.79 52.0255C627.55 51.9819 627.353 51.8729 627.2 51.6986C627.134 51.6114 627.069 51.5024 627.047 51.3934C627.025 51.2844 627.003 51.1754 626.959 51.0882L626.85 50.9139C626.785 50.7831 626.741 50.6959 626.653 50.6741C626.5 50.5869 626.479 50.4561 626.544 50.3254C626.632 50.2164 626.632 50.1074 626.544 49.9984C626.369 49.7587 626.369 49.5625 626.544 49.3881C626.588 49.3663 626.632 49.3227 626.653 49.2355C626.675 49.1484 626.675 49.0394 626.697 48.9304C626.719 48.8432 626.741 48.7342 626.763 48.6252C626.719 48.5816 626.653 48.5599 626.566 48.5163C626.479 48.4945 626.5 48.4291 626.61 48.3201C626.653 48.2765 626.675 48.2547 626.675 48.2111C626.675 48.1893 626.719 48.1457 626.741 48.1021C626.763 48.0585 626.763 48.0149 626.785 47.9931C626.785 47.9495 626.828 47.9277 626.85 47.906C627.091 47.797 627.178 47.6226 627.112 47.4264L627.309 47.3392L627.353 47.361C627.637 47.4264 628.031 47.4482 628.533 47.4264C629.014 47.4046 629.408 47.361 629.692 47.3174H629.736C629.801 47.3174 629.911 47.2956 630.02 47.2521C630.37 47.1649 630.719 47.0559 631.069 46.9687C631.419 46.8815 631.747 46.7289 632.031 46.511C632.053 46.4892 632.075 46.4892 632.14 46.4892C632.293 46.402 632.425 46.293 632.578 46.2276C632.709 46.1404 632.84 46.0532 632.971 45.9661C633.08 45.8789 633.168 45.8135 633.255 45.7263C633.343 45.6391 633.452 45.5737 633.539 45.4865C633.671 45.3993 633.802 45.2904 633.955 45.1814C634.108 45.0942 634.217 44.9852 634.326 44.8762C634.479 44.7237 634.589 44.5493 634.698 44.3967C634.807 44.2223 634.96 44.0916 635.179 44.0044C635.244 43.9826 635.288 43.9172 635.332 43.83C635.376 43.6774 635.441 43.5466 635.529 43.4377C635.638 43.2851 635.725 43.1325 635.835 43.0235C635.944 42.9145 636.053 42.762 636.141 42.6094C636.25 42.4568 636.381 42.2824 636.49 42.1081C636.6 41.9337 636.731 41.7593 636.84 41.585C637.037 41.3452 637.234 41.0836 637.409 40.7567C637.518 40.5823 637.627 40.3861 637.737 40.19C637.758 40.1464 637.758 40.1028 637.758 40.0592C637.758 40.0156 637.78 39.972 637.802 39.9284C637.911 39.8412 637.955 39.7758 637.955 39.6887C637.955 39.6015 637.977 39.5143 638.021 39.4053C638.064 39.2963 638.086 39.1655 638.086 39.0565C638.086 38.9476 638.108 38.8386 638.13 38.7078C638.174 38.5988 638.217 38.468 638.305 38.3591C638.392 38.2501 638.327 38.1411 638.108 38.0103C638.13 37.9667 638.152 37.9449 638.174 37.9013C638.196 37.8795 638.196 37.8577 638.196 37.8359C638.086 37.618 638.064 37.4 638.13 37.182C638.196 36.9641 638.174 36.7461 638.043 36.5282C637.911 36.332 637.802 36.1358 637.737 35.9396C637.671 35.7435 637.562 35.5473 637.43 35.3293C637.343 35.1986 637.299 35.046 637.277 34.9152C637.256 34.7844 637.212 34.6536 637.168 34.5229C637.146 34.5011 637.124 34.4793 637.124 34.4575C636.993 34.2395 636.862 34.0433 636.731 33.869C636.6 33.6946 636.403 33.542 636.163 33.3894C636.075 33.3459 635.988 33.3023 635.878 33.2369C635.791 33.1715 635.704 33.1061 635.616 33.0407C635.551 32.9535 635.463 32.8663 635.354 32.8445C635.266 32.8009 635.157 32.7573 635.048 32.7355C635.026 32.7355 635.004 32.7355 634.982 32.7138C634.96 32.7138 634.938 32.692 634.917 32.692L633.977 32.3432C633.933 32.3214 633.867 32.3214 633.78 32.365C633.714 32.4086 633.649 32.4304 633.583 32.474C633.518 32.4958 633.474 32.5394 633.43 32.583C633.146 32.8009 632.862 33.0189 632.621 33.2369C632.381 33.4548 632.162 33.7164 631.965 34.0215C631.812 34.2831 631.616 34.5011 631.375 34.719C631.135 34.937 630.916 35.155 630.719 35.3729C630.523 35.5909 630.304 35.7871 630.107 35.9832C629.911 36.1794 629.714 36.3974 629.561 36.6371C629.495 36.7243 629.408 36.8333 629.298 36.8987C629.211 36.9423 629.211 37.0295 629.211 37.1385C629.189 37.1602 629.145 37.182 629.145 37.2256C629.145 37.2474 629.124 37.2692 629.124 37.291C628.949 37.3346 628.774 37.4218 628.621 37.5962C628.468 37.7706 628.402 37.9013 628.424 38.0103C628.424 38.0321 628.424 38.0539 628.424 38.0757C628.38 38.1847 628.315 38.2719 628.249 38.3591C628.14 38.4244 628.031 38.4898 627.921 38.5552C627.812 38.6206 627.768 38.7078 627.768 38.795C627.593 39.013 627.419 39.2309 627.265 39.4271C627.222 39.4489 627.178 39.4489 627.156 39.5143C627.112 39.5579 627.112 39.6233 627.091 39.6669C627.069 39.6886 627.025 39.7322 627.003 39.7758L627.025 39.7976C626.981 39.9284 626.938 40.0592 626.894 40.19C626.85 40.3861 626.785 40.5169 626.697 40.6695C626.675 40.6913 626.653 40.6913 626.61 40.7131C626.588 40.7131 626.566 40.7131 626.566 40.7349C626.566 40.7567 626.544 40.7567 626.522 40.7567C626.479 40.8439 626.435 40.9528 626.391 41.0182C626.347 41.1054 626.304 41.1708 626.26 41.258C626.172 41.3452 626.107 41.4542 626.041 41.5414C625.976 41.6285 625.888 41.7157 625.779 41.8247C625.801 41.8465 625.779 41.8683 625.779 41.8901C625.713 41.8901 625.648 41.9119 625.582 41.9555C625.298 42.1517 625.232 42.435 625.254 42.7402C625.254 42.7402 625.254 42.762 625.232 42.762C625.211 42.7838 625.167 42.8056 625.145 42.8492C625.079 42.9363 625.058 42.9799 625.079 43.0017C625.101 43.0235 625.079 43.0235 625.101 43.0453C625.058 43.1543 624.992 43.2415 624.948 43.3505C624.861 43.503 624.773 43.6338 624.73 43.7646C624.708 43.7864 624.708 43.8082 624.708 43.8518C624.664 43.9608 624.664 44.0916 624.664 44.2005C624.664 44.2223 624.664 44.2223 624.642 44.2441C624.314 44.3313 624.271 44.5057 624.489 44.7455C624.38 44.789 624.314 44.8326 624.293 44.898C624.205 45.1814 624.118 45.4429 624.008 45.7263C623.899 46.0097 623.877 46.3148 623.921 46.6418C623.921 46.6853 623.921 46.7071 623.899 46.7289C623.899 46.9251 623.877 47.1213 623.855 47.2956C623.833 47.47 623.833 47.6662 623.812 47.8624C623.79 48.1457 623.812 48.4073 623.899 48.6688C623.986 48.9304 624.074 49.1919 624.183 49.4753C624.227 49.5843 624.293 49.6933 624.336 49.8023C624.38 49.9112 624.446 49.9984 624.511 50.1074C624.577 50.1946 624.664 50.3036 624.752 50.4126C624.839 50.4997 624.926 50.6087 624.992 50.7177C625.036 50.8049 625.101 50.9139 625.145 51.0011C625.189 51.0882 625.254 51.1536 625.342 51.219C625.582 51.4152 625.779 51.6986 625.91 52.0473L626.019 52.2217V52.2435C626.041 52.2653 626.063 52.2871 626.063 52.3089C626.085 52.3307 626.107 52.3525 626.107 52.3742C626.216 52.4614 626.282 52.5704 626.369 52.6576C626.435 52.7448 626.544 52.832 626.653 52.941C626.653 52.8538 626.653 52.8102 626.653 52.7448C626.653 52.7012 626.653 52.6576 626.653 52.614C626.675 52.614 626.697 52.614 626.697 52.5922C626.697 52.5922 626.719 52.5704 626.741 52.5704C626.785 52.723 626.85 52.832 626.959 52.8756C627.069 52.9192 627.178 52.941 627.309 52.941C627.44 52.9628 627.572 52.9628 627.703 52.9628C627.834 52.9628 627.921 52.8974 627.965 52.7666C628.074 52.614 628.205 52.5922 628.402 52.7012C628.665 52.8756 628.949 52.9628 629.233 52.9628C629.517 52.9628 629.801 52.941 630.107 52.8974C630.392 52.8538 630.676 52.8102 630.938 52.723C631.2 52.6358 631.441 52.5268 631.681 52.3742C631.791 52.3089 631.944 52.2217 632.162 52.0909C632.381 51.9601 632.599 51.8293 632.818 51.6986C633.037 51.5678 633.255 51.437 633.474 51.3062C633.692 51.1972 633.867 51.11 633.977 51.0447C634.02 51.0229 634.064 51.0011 634.086 50.9793C634.108 50.9575 634.151 50.9357 634.195 50.9139C634.457 50.6959 634.742 50.4779 635.004 50.26C635.266 50.042 635.529 49.8023 635.769 49.6061C636.01 49.3663 636.272 49.1702 636.556 48.974C636.84 48.7778 637.059 48.5381 637.212 48.2329C637.277 48.1675 637.299 48.1457 637.299 48.1675L637.583 47.906C637.627 47.8624 637.649 47.8188 637.693 47.797C637.737 47.7752 637.758 47.7098 637.802 47.688C637.846 47.6662 637.89 47.6226 637.955 47.6226C637.999 47.6226 638.064 47.6008 638.108 47.5572C638.305 47.361 638.502 47.1649 638.698 46.9687C638.895 46.7725 639.092 46.5764 639.332 46.3584L639.595 46.0968C639.77 45.9661 639.944 45.7917 640.141 45.6609C640.338 45.5083 640.535 45.334 640.731 45.1596C640.578 45.7917 640.469 46.4456 640.382 47.1213C640.25 48.1239 640.272 49.1266 640.447 50.151C640.535 50.5433 640.644 50.9357 640.819 51.3062C640.994 51.6768 641.212 52.0255 641.518 52.3742C641.649 52.5268 641.781 52.6358 641.934 52.6794C642.087 52.723 642.218 52.7666 642.371 52.8538C642.939 53.1589 643.355 53.0935 643.617 52.6576C643.77 52.4396 643.945 52.2435 644.12 52.0473C644.295 51.8511 644.426 51.6332 644.535 51.3934C644.622 51.1754 644.754 50.9575 644.907 50.7613C645.06 50.5651 645.191 50.3472 645.3 50.1074C645.541 49.6279 645.781 49.1702 645.978 48.6906C646.175 48.2111 646.393 47.7316 646.655 47.2739C646.94 46.7071 647.224 46.1186 647.508 45.5301C647.792 44.9416 648.098 44.3531 648.426 43.7864C648.82 43.1325 649.191 42.5004 649.585 41.8683C649.978 41.2362 650.372 40.6041 650.787 39.972C650.94 39.6886 651.115 39.4489 651.29 39.1873C651.487 38.9476 651.661 38.686 651.836 38.4462C651.924 38.3591 651.989 38.2501 652.055 38.1847C652.121 38.0975 652.186 38.0103 652.252 37.9231C652.339 37.7706 652.427 37.618 652.514 37.4654C652.58 37.3128 652.667 37.182 652.776 37.0295C652.995 36.7679 653.214 36.5281 653.41 36.2884C653.607 36.0486 653.826 35.8089 654.044 35.5909C654.088 35.5473 654.154 35.5037 654.219 35.4819C654.285 35.4383 654.35 35.3947 654.394 35.3729L654.503 35.4601C654.46 35.6345 654.416 35.8089 654.372 35.9832C654.328 36.1576 654.285 36.332 654.197 36.4846C653.673 37.8141 653.454 39.1873 653.563 40.5823C653.651 41.4542 653.891 42.2388 654.285 42.9799C654.678 43.721 655.334 44.3313 656.23 44.8544C656.624 45.0942 657.017 45.0942 657.367 44.8544C657.258 44.6801 657.17 44.5057 657.061 44.3313C656.973 44.1569 656.864 44.0044 656.777 43.8518C656.777 43.7646 656.777 43.6992 656.777 43.6338C656.777 43.5684 656.777 43.503 656.777 43.4377C656.777 43.2415 656.755 43.0453 656.711 42.8492C656.667 42.653 656.667 42.5004 656.755 42.3696C656.908 42.1299 656.952 41.8901 656.886 41.6503C656.82 41.4106 656.842 41.1708 656.952 40.9528C656.995 40.8221 657.039 40.6695 657.061 40.5169C657.083 40.3643 657.148 40.2336 657.236 40.1028C657.301 39.972 657.389 39.8412 657.476 39.7104C657.542 39.5797 657.629 39.4489 657.673 39.2745C657.739 39.1873 657.782 39.0566 657.782 38.9258C657.804 38.795 657.848 38.7078 657.935 38.6424C658.11 38.5552 658.22 38.4244 658.263 38.2937C658.307 38.1629 658.373 38.0103 658.416 37.8577C658.46 37.7706 658.482 37.7052 658.482 37.618C658.504 37.5308 658.526 37.4436 658.591 37.3782C658.875 36.9859 659.138 36.5935 659.422 36.2012C659.444 36.1794 659.466 36.1358 659.487 36.114C659.597 36.1358 659.684 36.1576 659.815 36.1576C660.099 36.1576 660.318 36.114 660.515 36.0486C660.777 35.9614 660.974 35.9178 661.105 35.9178C661.236 35.9178 661.367 36.005 661.499 36.1358C661.608 36.0922 661.717 36.0704 661.848 36.0268C661.958 36.005 662.089 35.9832 662.198 35.9614C662.351 35.9614 662.482 36.0268 662.613 36.1576C662.635 36.1794 662.635 36.223 662.613 36.2666C662.592 36.332 662.57 36.3756 662.526 36.4192C662.439 36.5717 662.329 36.7243 662.242 36.8769C662.154 37.0295 662.067 37.182 661.958 37.3346C661.608 37.9449 661.28 38.577 660.952 39.2091C660.821 39.4489 660.69 39.6887 660.58 39.9066C660.471 40.1246 660.362 40.3861 660.253 40.6477C660.165 40.8003 660.078 40.9746 660.034 41.1272C659.99 41.3016 659.925 41.4542 659.837 41.6067C659.772 41.7593 659.684 41.9337 659.619 42.0863C659.553 42.2606 659.487 42.435 659.422 42.6094C659.225 43.1325 659.05 43.6992 658.897 44.2877C658.875 44.3531 658.875 44.3967 658.897 44.4621C658.919 44.5275 658.919 44.5929 658.897 44.7019C658.897 44.7237 658.875 44.7455 658.832 44.7672C658.788 44.789 658.766 44.8326 658.766 44.8762C658.7 45.1596 658.635 45.4429 658.591 45.7263C658.547 46.0097 658.504 46.293 658.482 46.5764C658.46 46.8597 658.482 47.1213 658.504 47.3828C658.526 47.6444 658.569 47.906 658.591 48.1893C658.635 48.2983 658.657 48.4291 658.7 48.5598C658.744 48.6906 658.788 48.7996 658.832 48.9304C658.963 49.2137 659.116 49.4535 659.269 49.7151C659.422 49.9548 659.575 50.1946 659.728 50.4344C659.881 50.7177 660.078 50.9357 660.296 51.1318C660.493 51.2844 660.668 51.437 660.865 51.6114C661.061 51.7857 661.214 51.9165 661.389 52.0909C661.52 52.1999 661.652 52.2653 661.783 52.2871C661.936 52.3089 662.067 52.3307 662.176 52.4178C662.417 52.5486 662.679 52.6794 662.985 52.7666C663.094 52.8102 663.226 52.832 663.335 52.8538C663.466 52.8756 663.553 52.8538 663.641 52.832C663.881 52.7012 664.122 52.614 664.406 52.5922C664.69 52.5704 664.931 52.4614 665.171 52.2435C665.368 52.0473 665.608 51.8729 665.871 51.7204C666.133 51.5678 666.373 51.4152 666.592 51.2408C666.745 51.1536 666.876 51.0447 667.007 50.9357C667.138 50.8267 667.248 50.7177 667.379 50.6305C667.554 50.5215 667.707 50.3908 667.838 50.26C667.969 50.1292 668.1 49.9984 668.253 49.8676C668.428 49.6497 668.625 49.4317 668.8 49.2137C668.975 48.9958 669.171 48.7778 669.346 48.5598C669.565 48.3201 669.784 48.1021 670.002 47.8624C670.221 47.6444 670.439 47.4046 670.658 47.1649C670.592 47.0777 670.483 46.9905 670.374 46.9033C670.549 46.8161 670.636 46.7725 670.658 46.7507C670.702 46.6635 670.724 46.5982 670.724 46.5546C670.724 46.4892 670.745 46.4456 670.789 46.402C670.898 46.2494 671.03 46.0968 671.161 45.9225C671.292 45.7699 671.423 45.6173 671.532 45.4429C671.664 45.2468 671.795 45.0506 671.926 44.8544C672.057 44.6583 672.166 44.4621 672.297 44.2659C672.341 44.2223 672.363 44.1787 672.407 44.1569C672.429 44.1134 672.472 44.0698 672.516 44.048C672.604 43.8518 672.691 43.6556 672.778 43.4595C672.866 43.2633 672.953 43.0671 673.041 42.8709C673.106 42.7184 673.216 42.5658 673.325 42.435C673.434 42.3042 673.434 42.1299 673.303 41.9337C673.194 41.7593 673.172 41.6067 673.237 41.4542C673.303 41.3234 673.369 41.1708 673.412 41.0182C673.478 40.8657 673.522 40.6913 673.544 40.5387C673.565 40.3643 673.587 40.2118 673.609 40.0592C673.631 39.9938 673.631 39.9284 673.609 39.863C673.718 39.754 673.718 39.6887 673.718 39.6233ZM628.074 45.6173L628.14 45.5519C628.315 45.3993 628.446 45.225 628.512 45.0288C628.577 44.8326 628.643 44.6365 628.752 44.4403C628.796 44.3531 628.839 44.2877 628.905 44.2441C628.971 44.1787 629.014 44.1351 629.058 44.0698L629.211 43.9172C629.255 43.83 629.277 43.7646 629.32 43.6992C629.364 43.6338 629.386 43.5684 629.43 43.4813C629.473 43.3723 629.473 43.2851 629.473 43.2197C629.495 43.1325 629.495 43.0889 629.517 43.0235C629.539 42.9799 629.605 42.9581 629.714 42.9799C629.736 43.0017 629.779 43.0017 629.823 42.9799C629.867 42.9581 629.889 42.9363 629.911 42.9145C630.042 42.7402 630.173 42.5658 630.304 42.3696C630.413 42.1735 630.545 41.9991 630.698 41.8247C630.719 41.7811 630.719 41.7375 630.698 41.6939C630.676 41.6503 630.676 41.585 630.676 41.5414C630.96 41.4542 631.157 41.3234 631.31 41.1272C631.441 40.9311 631.594 40.7349 631.769 40.5605C631.9 40.4515 632.031 40.3207 632.162 40.19C632.293 40.0592 632.403 39.9284 632.512 39.7976C632.621 39.6669 632.687 39.5143 632.752 39.3835C632.818 39.2527 632.905 39.1001 632.993 38.9694C633.015 38.9258 633.058 38.8822 633.146 38.795C633.233 38.7514 633.321 38.7078 633.408 38.6642C633.496 38.6206 633.561 38.5552 633.627 38.5116C633.78 38.3809 633.911 38.2283 634.02 38.0757C634.13 37.9231 634.283 37.7923 634.457 37.6834C634.611 37.5962 634.742 37.509 634.829 37.4218C634.938 37.3346 635.048 37.2256 635.179 37.1602C635.266 37.0949 635.332 37.0513 635.419 36.9859C635.507 36.9205 635.572 36.8551 635.66 36.7897C635.704 36.7679 635.791 36.7025 635.9 36.5935C636.031 36.4846 636.097 36.3974 636.141 36.3538C636.228 36.2666 636.316 36.2448 636.425 36.2448C636.469 36.2448 636.512 36.2666 636.556 36.332C636.6 36.3974 636.622 36.441 636.622 36.4846C636.644 36.6807 636.665 36.8769 636.687 37.0731C636.709 37.2692 636.709 37.4654 636.687 37.6616C636.644 38.2283 636.534 38.7514 636.337 39.2527C636.141 39.754 635.9 40.2118 635.594 40.6913C635.551 40.7349 635.529 40.7785 635.529 40.8439C635.529 40.9093 635.507 40.9529 635.485 40.9964C635.485 41.0618 635.463 41.1054 635.441 41.149C635.288 41.3452 635.113 41.5414 634.96 41.7375C634.807 41.9337 634.632 42.1299 634.479 42.326C634.37 42.4786 634.239 42.6312 634.108 42.8056C633.977 42.9581 633.845 43.1107 633.692 43.2851L633.561 43.3941C633.386 43.6774 633.19 43.9172 632.949 44.1351C632.709 44.3531 632.446 44.5711 632.162 44.7672C632.053 44.8544 631.944 44.898 631.834 44.9634C631.725 45.007 631.616 45.0724 631.506 45.116L630.566 45.7263C630.523 45.7699 630.479 45.7917 630.435 45.7917C630.348 45.8353 630.26 45.8571 630.195 45.8789C630.129 45.9007 630.042 45.9225 629.976 45.9661C629.889 46.0097 629.823 46.0314 629.758 46.0314C629.692 46.0314 629.583 46.0532 629.452 46.075C629.342 46.1186 629.255 46.1404 629.167 46.1622C629.08 46.184 628.992 46.2058 628.883 46.2494C628.708 46.3148 628.512 46.3148 628.315 46.2712C628.118 46.2276 627.921 46.2058 627.746 46.2058L628.074 45.6173ZM653.017 34.5883C652.995 34.6101 652.973 34.6101 652.973 34.6318C652.995 34.6101 653.017 34.5883 653.061 34.5447C653.039 34.5665 653.017 34.5883 653.017 34.5883ZM661.63 34.8934C661.608 34.8934 661.586 34.8934 661.564 34.8934C661.586 34.8934 661.63 34.8716 661.652 34.8716C661.652 34.8716 661.63 34.8716 661.63 34.8934ZM671.598 40.9311C671.554 41.0618 671.511 41.2144 671.467 41.3452L670.702 42.6312C670.767 42.4786 670.811 42.3478 670.789 42.2824C670.592 42.5876 670.396 42.9145 670.199 43.1979C670.111 43.3505 670.002 43.503 669.893 43.6556C669.39 44.3095 668.865 44.9634 668.385 45.6391C668.297 45.6391 668.21 45.6609 668.144 45.6391C668.035 45.6173 667.991 45.7045 667.991 45.9225C667.991 45.9879 667.947 46.0314 667.838 46.075C667.729 46.1186 667.641 46.184 667.576 46.2276C667.488 46.293 667.423 46.3366 667.335 46.402C667.248 46.4674 667.204 46.511 667.16 46.5546C667.182 46.62 667.204 46.6635 667.226 46.7071C667.248 46.7507 667.27 46.8161 667.292 46.8597H667.007C666.898 46.8379 666.789 46.8815 666.723 46.9469C666.636 47.0341 666.614 47.0995 666.614 47.1867C666.505 47.2956 666.417 47.4046 666.352 47.4918C666.264 47.579 666.177 47.6662 666.067 47.7752C665.849 47.9277 665.652 48.1021 665.455 48.2765C665.258 48.4509 665.018 48.6252 664.799 48.7778C664.559 48.9304 664.319 49.1048 664.078 49.2791C663.838 49.4535 663.575 49.6279 663.313 49.7805C663.094 49.8894 662.876 49.9984 662.657 50.0856C662.439 50.1728 662.198 50.26 661.958 50.3472C661.761 50.4126 661.63 50.3254 661.564 50.1074C661.52 49.8676 661.477 49.6279 661.455 49.4099C661.411 49.1702 661.389 48.9304 661.367 48.7124C661.367 48.6252 661.367 48.5163 661.389 48.4073C661.411 48.2983 661.433 48.1893 661.433 48.1021C661.455 47.8842 661.477 47.6662 661.499 47.4264C661.52 47.1867 661.542 46.9687 661.564 46.7507V46.6635C661.87 46.511 661.979 46.3148 661.936 46.075C661.892 45.8353 661.87 45.5955 661.892 45.3776C662.132 45.4211 662.264 45.3558 662.286 45.225C662.286 45.0942 662.329 44.9634 662.395 44.8762C662.482 44.6583 662.57 44.4621 662.613 44.2659C662.679 44.0698 662.745 43.8736 662.832 43.6774C662.963 43.3941 663.094 43.1325 663.204 42.8492C663.313 42.5658 663.466 42.2824 663.597 41.9773C663.663 41.8683 663.706 41.7375 663.772 41.6285C663.838 41.5196 663.925 41.4106 663.991 41.2798C664.144 40.9964 664.297 40.7567 664.428 40.4951C664.559 40.2554 664.712 39.9938 664.865 39.754C664.952 39.5797 665.062 39.4053 665.171 39.2309C665.28 39.0565 665.39 38.8822 665.477 38.7078C665.565 38.6206 665.63 38.5116 665.696 38.4027C665.761 38.2937 665.849 38.1847 665.958 38.0975C666.155 37.8359 666.352 37.5962 666.548 37.3346C666.745 37.0731 666.942 36.8333 667.138 36.5717C667.291 36.3538 667.466 36.1576 667.641 35.9614C667.816 35.7653 668.013 35.5691 668.188 35.3511C668.21 35.2857 668.253 35.2639 668.319 35.2422C668.472 35.1768 668.647 35.155 668.865 35.1768C669.084 35.1986 669.303 35.2204 669.521 35.2857C669.74 35.3511 669.958 35.4383 670.155 35.5255C670.352 35.6127 670.505 35.7217 670.636 35.8525C670.789 35.9832 670.877 36.114 670.942 36.2448C671.248 37.0731 671.423 37.8577 671.511 38.6642C671.511 38.7514 671.511 38.8168 671.511 38.8822H671.532C671.554 39.0783 671.598 39.2527 671.598 39.4489C671.642 40.0156 671.664 40.4515 671.598 40.9311Z" fill="#F05761"/>
<path d="M565.838 11.1785C565.838 10.1105 565.641 9.21685 565.27 8.49756C564.898 7.77828 564.373 7.18977 563.718 6.73204C563.062 6.27431 562.297 5.96916 561.4 5.7512C560.526 5.55503 559.564 5.44604 558.537 5.44604H551.694V24.0167H556.198V17.0418H558.427C559.389 17.0418 560.329 16.9328 561.226 16.7367C562.122 16.5405 562.909 16.1917 563.586 15.734C564.264 15.2763 564.811 14.6878 565.226 13.9467C565.641 13.1838 565.838 12.2684 565.838 11.1785ZM561.073 12.312C560.898 12.5953 560.657 12.8351 560.351 13.0095C560.045 13.1838 559.695 13.3146 559.302 13.38C558.908 13.4454 558.515 13.489 558.1 13.489H556.198V9.08607H558.165C558.58 9.08607 558.952 9.10787 559.346 9.17326C559.717 9.21685 560.067 9.32583 560.351 9.47841C560.657 9.63098 560.898 9.84895 561.051 10.1323C561.204 10.4157 561.313 10.7644 561.313 11.2003C561.335 11.6581 561.247 12.0068 561.073 12.312Z" fill="#003346"/>
<path d="M573.03 5.46802L565.204 24.0387H570.101L571.478 20.3987H578.692L580.135 24.0387H585.141L577.402 5.46802C577.402 5.46802 573.03 5.46802 573.03 5.46802ZM572.768 16.8022L575.129 10.4158L577.446 16.8022H572.768Z" fill="#003346"/>
<path d="M600.421 14.2519C601.099 13.4019 601.448 12.3338 601.448 11.0696C601.448 10.0016 601.252 9.10793 600.836 8.38865C600.443 7.66936 599.896 7.10265 599.219 6.64492C598.541 6.20899 597.776 5.90384 596.923 5.70767C596.071 5.5333 595.196 5.42432 594.3 5.42432H587.218V23.995H591.611V16.6713H593.142L597.186 24.0386H602.454L597.579 16.0828C598.803 15.7341 599.743 15.1238 600.421 14.2519ZM596.705 12.312C596.508 12.6172 596.246 12.8351 595.918 12.9877C595.59 13.1403 595.24 13.2493 594.869 13.3147C594.497 13.3801 594.103 13.4019 593.732 13.4019H591.59V9.08614H593.994C594.322 9.08614 594.672 9.10793 595.043 9.17332C595.415 9.21692 595.743 9.3259 596.027 9.47848C596.311 9.63105 596.552 9.84902 596.749 10.1106C596.923 10.3721 597.033 10.7427 597.033 11.1786C597.011 11.6363 596.902 12.0287 596.705 12.312Z" fill="#003346"/>
<path d="M608.356 24.0387H612.837V9.30421H618.106V5.46802H603.088V9.30421H608.356V24.0387Z" fill="#003346"/>
<path d="M624.948 11.898H625.035L632.533 24.0387H637.648V5.46802H633.276L633.386 17.5869H633.298L625.822 5.46802H620.685V24.0387H625.057L624.948 11.898Z" fill="#003346"/>
<path d="M655.005 20.2243H646.349V16.3663H654.087V12.7699H646.349V9.23882H654.546V5.46802H642.02V24.0387H655.005V20.2243Z" fill="#003346"/>
<path d="M662.919 16.6713H664.449L668.493 24.0386H673.762L668.887 16.0828C670.089 15.7123 671.051 15.102 671.729 14.2519C672.406 13.4019 672.756 12.3338 672.756 11.0696C672.756 10.0016 672.559 9.10793 672.144 8.38865C671.751 7.66936 671.204 7.10265 670.526 6.64492C669.849 6.20899 669.084 5.90384 668.231 5.70767C667.379 5.5115 666.504 5.42432 665.608 5.42432H658.503V23.995H662.897L662.919 16.6713ZM662.875 9.08614H665.28C665.608 9.08614 665.958 9.10793 666.329 9.17332C666.701 9.21692 667.029 9.3259 667.313 9.47848C667.597 9.63105 667.838 9.84902 668.034 10.1106C668.209 10.3721 668.319 10.7427 668.319 11.1786C668.319 11.6581 668.209 12.0287 668.013 12.3338C667.816 12.639 667.553 12.8569 667.226 13.0095C666.898 13.1621 666.548 13.2711 666.176 13.3365C665.783 13.4019 665.411 13.4237 665.04 13.4237H662.897L662.875 9.08614Z" fill="#003346"/>
<path d="M513.176 0.868896C497.065 0.868896 483.993 13.9032 483.993 29.9891C483.993 46.075 497.065 59.1093 513.198 59.1093C529.331 59.1093 542.403 46.075 542.403 29.9891C542.403 13.9032 529.309 0.868896 513.176 0.868896ZM530.03 21.4013C530.03 21.4884 530.03 21.5756 530.008 21.6628C529.986 21.75 529.986 21.8372 529.986 21.9244C529.965 22.3603 529.899 22.7744 529.812 23.2104C529.724 23.6463 529.527 24.104 529.265 24.6489C529.243 24.7579 529.199 24.8451 529.134 24.9323C529.09 25.0195 529.046 25.1067 529.003 25.2157C528.872 25.5426 528.719 25.8696 528.565 26.1965C528.412 26.5234 528.238 26.8286 528.041 27.1338L527.997 27.1555C527.757 27.4607 527.538 27.7659 527.298 28.071C527.079 28.3762 526.839 28.6595 526.598 28.9429C526.183 29.4006 525.746 29.8583 525.286 30.3161C524.827 30.7738 524.368 31.2315 523.866 31.6674C523.669 31.8636 523.428 32.038 523.21 32.1906C522.969 32.3431 522.729 32.4957 522.445 32.6483C522.292 32.7355 522.16 32.8445 522.007 32.9316C521.876 33.0188 521.723 33.1278 521.614 33.2368C521.505 33.324 521.417 33.3894 521.352 33.4766C521.286 33.5419 521.199 33.6291 521.111 33.7381C521.067 33.7599 521.024 33.8035 521.002 33.8253C520.98 33.8471 520.958 33.8907 520.893 33.9125C520.871 33.9343 520.871 33.9561 520.849 33.9561C520.827 33.9561 520.827 33.9779 520.805 33.9997C520.499 34.174 520.171 34.3484 519.865 34.5446C519.494 34.7407 519.1 34.9369 518.685 35.1331C518.269 35.3293 517.876 35.5254 517.482 35.6998C517.482 35.6998 517.482 35.6998 517.461 35.6998C517.461 35.7216 517.461 35.7216 517.439 35.7434C517.329 36.1357 517.439 36.2229 517.417 36.2883C517.395 36.3537 517.395 36.4191 517.417 36.4409C517.461 36.5499 517.482 36.6371 517.439 36.7024C517.395 36.7678 517.373 36.8332 517.373 36.8986C517.329 37.0512 517.307 37.2038 517.286 37.3563C517.264 37.5089 517.264 37.6397 517.242 37.7705C517.22 38.2282 517.176 38.6641 517.154 39.1001C517.133 39.536 517.133 39.9719 517.133 40.3861C517.133 40.5822 517.133 40.8002 517.133 40.9964C517.133 41.1925 517.133 41.4105 517.133 41.6067C517.154 41.6503 517.154 41.6939 517.133 41.7156C517.023 41.9554 516.98 42.1952 517.023 42.4567C517.067 42.7183 517.067 42.9799 517.045 43.2196C517.045 43.285 517.023 43.3504 517.023 43.4158C517.023 43.4812 517.001 43.5466 517.001 43.612C516.958 43.8517 516.936 44.0697 516.914 44.3094C516.892 44.5492 516.892 44.789 516.914 45.0505C516.958 45.3339 517.001 45.639 517.045 45.9224C517.111 46.2275 517.154 46.5109 517.198 46.816C517.22 46.8814 517.22 46.9686 517.22 47.0558C517.22 47.143 517.242 47.2302 517.264 47.3174C517.264 47.361 517.264 47.4046 517.286 47.4699C517.307 47.5353 517.329 47.5789 517.329 47.6007C517.461 47.7533 517.439 47.8623 517.242 47.9277C517.198 47.9277 517.176 47.9713 517.154 48.0149C517.133 48.0584 517.133 48.102 517.133 48.1238C517.22 48.2764 517.264 48.429 517.329 48.5816C517.373 48.7341 517.439 48.8867 517.526 49.0393C517.548 49.0611 517.57 49.0829 517.592 49.1047C517.614 49.1265 517.635 49.1483 517.657 49.1701C517.701 49.1919 517.745 49.2137 517.767 49.2355C517.788 49.2573 517.832 49.2791 517.876 49.3009C517.898 49.3444 517.941 49.388 517.963 49.4534C517.985 49.5188 518.029 49.5624 518.094 49.6496C518.029 49.6496 517.985 49.6496 517.92 49.6714C517.854 49.6932 517.81 49.6932 517.767 49.6932C517.242 49.6932 516.783 49.5188 516.368 49.1483C516.171 48.9957 515.996 48.8213 515.799 48.647C515.602 48.4726 515.428 48.2982 515.231 48.1456C515.165 48.0584 515.121 47.9931 515.078 47.9277C515.034 47.8623 515.056 47.7969 515.121 47.6879C515.121 47.6443 515.121 47.6007 515.1 47.5353C515.078 47.4699 515.034 47.4481 515.012 47.4263C514.881 47.3174 514.75 47.2084 514.662 47.0994C514.575 46.9904 514.488 46.8378 514.444 46.6417C514.378 46.4673 514.313 46.2929 514.269 46.0968C514.225 46.0096 514.203 45.9006 514.16 45.8134C514.05 45.53 513.963 45.2685 513.941 44.9851C513.854 44.5274 513.788 44.0697 513.744 43.5902C513.701 43.1978 513.657 42.8055 513.591 42.4131C513.591 42.3913 513.569 42.3478 513.569 42.3042C513.569 42.2824 513.569 42.2824 513.569 42.2606C513.569 42.2388 513.569 42.2388 513.569 42.217C513.526 41.8682 513.504 41.5195 513.504 41.2143C513.482 41.0182 513.482 40.822 513.46 40.6258C513.438 40.4297 513.46 40.2335 513.504 40.0155C513.482 39.754 513.482 39.4924 513.482 39.2526C513.482 39.0129 513.46 38.7513 513.46 38.4898C513.482 38.25 513.504 37.9884 513.504 37.7487C513.504 37.5961 513.504 37.4653 513.526 37.3345C512.826 37.6179 512.105 37.9013 511.362 38.2064C511.055 38.3372 510.728 38.4462 510.4 38.5334C510.181 38.5987 509.941 38.6423 509.7 38.6859C509.722 38.9039 509.722 39.1001 509.744 39.209C509.788 39.3834 509.766 39.6014 509.635 39.8847C509.613 39.9283 509.591 39.9937 509.547 40.0591C509.525 40.1245 509.525 40.1899 509.547 40.2117C509.591 40.3425 509.613 40.4297 509.569 40.4732C509.547 40.5386 509.503 40.604 509.482 40.6694C509.438 40.822 509.416 40.9746 509.394 41.1271C509.372 41.2797 509.372 41.4105 509.35 41.5413C509.329 41.999 509.241 42.5003 509.241 42.9363C509.241 43.1542 509.241 43.3504 509.241 43.5684C509.241 43.7863 509.241 43.9825 509.241 44.2005C509.263 44.2441 509.263 44.2876 509.241 44.3094C509.132 44.5492 509.088 44.789 509.132 45.0723C509.175 45.3557 509.175 45.5954 509.154 45.857C509.154 45.9224 509.132 45.9878 509.132 46.0532C509.132 46.1186 509.11 46.1839 509.11 46.2493C509.066 46.4891 509.044 46.7289 509.022 46.9686C509.001 47.2084 509.001 47.4699 509.022 47.7315C509.066 48.0367 509.11 48.32 509.175 48.6252C509.241 48.9303 509.285 49.2355 509.329 49.5406C509.35 49.606 509.35 49.6932 509.35 49.7804C509.35 50.2817 509.154 50.783 509.285 50.8702C509.416 50.9574 509.416 51.1754 509.482 51.3279C509.547 51.4805 509.591 51.6331 509.678 51.7857C509.7 51.8075 510.203 52.3306 510.269 52.4178C510.203 52.4178 509.962 52.4614 509.941 52.4396C509.416 52.4396 508.935 52.2652 508.498 51.8946C508.301 51.7421 508.301 51.7639 508.104 51.5677C508.039 51.5023 507.798 51.5241 507.798 51.2843C507.798 51.1536 507.405 50.9138 507.361 50.8484C507.317 50.783 506.815 49.933 506.727 49.824C506.64 49.715 506.552 49.5624 506.509 49.3662C506.443 49.1919 506.377 48.9957 506.334 48.7995C506.29 48.7123 506.268 48.6034 506.224 48.5162C506.093 48.2328 506.028 47.9495 505.984 47.6661C505.896 47.1866 505.831 46.7289 505.787 46.2493C505.743 45.8352 505.7 45.4429 505.634 45.0505C505.634 45.0287 505.612 44.9851 505.612 44.9415C505.612 44.9197 505.612 44.9197 505.612 44.8979C505.612 44.8762 505.612 44.8762 505.612 44.8544C505.569 44.4838 505.547 44.1569 505.547 43.8517C505.525 43.6555 505.525 43.4376 505.503 43.2414C505.481 43.0452 505.525 41.8464 505.525 41.5849C505.525 41.3233 505.525 41.0835 505.547 40.822C505.569 40.495 505.569 40.1681 505.59 39.8629C505.59 39.7758 505.59 39.6886 505.612 39.6232C505.569 39.645 505.503 39.645 505.437 39.6668C504.913 39.7976 504.41 39.9283 503.885 40.0591C503.514 40.1681 503.164 40.2553 502.814 40.2989C502.464 40.3425 502.115 40.3861 501.765 40.4297L500.563 40.6476C500.147 40.6912 499.732 40.7348 499.338 40.8002C498.945 40.8438 498.551 40.9092 498.158 40.9746C498.027 40.9964 497.918 40.9964 497.808 41.0182C497.699 41.0182 497.59 41.04 497.458 41.0618C497.393 41.0835 497.284 41.1053 497.152 41.1489C497.021 41.1925 496.344 41.1271 496.234 41.0618C495.885 40.822 495.557 40.4297 495.294 39.8847C495.229 39.6886 495.163 39.5142 495.098 39.318C495.032 39.1219 494.966 38.9475 494.901 38.7513C494.835 38.5551 494.77 38.3808 494.704 38.1846C494.638 37.9884 494.573 37.7923 494.507 37.6179C494.551 37.3563 494.551 37.0948 494.507 36.8332C494.464 36.5935 494.42 36.3537 494.376 36.1139C494.332 35.9396 494.289 35.7652 494.267 35.6126C494.245 35.46 494.223 35.3075 494.223 35.1549C494.223 35.1113 494.223 35.0895 494.223 35.0677C494.223 35.0459 494.245 35.0241 494.223 34.9805C494.245 34.6536 494.245 34.3702 494.289 34.1304C494.332 33.8907 494.376 33.6291 494.464 33.3894C494.551 33.3022 494.617 33.1932 494.638 33.0624C494.66 32.9534 494.682 32.8227 494.682 32.7137C494.682 32.6265 494.682 32.5393 494.682 32.4739C494.704 32.4085 494.704 32.3431 494.704 32.2777C494.813 32.0816 494.945 31.8854 495.054 31.711C495.163 31.5149 495.294 31.3187 495.447 31.1225C495.469 31.0353 495.491 30.9699 495.557 30.9264C495.6 30.861 495.666 30.7956 495.71 30.7084C495.797 30.643 495.863 30.5776 495.863 30.5122C495.863 30.4468 495.863 30.3814 495.863 30.3161C495.841 30.1635 495.928 30.0109 496.125 29.9019C496.191 29.8583 496.234 29.7929 496.3 29.7711C496.344 29.7275 496.409 29.6622 496.453 29.575L496.475 29.5532C496.54 29.5096 496.606 29.4442 496.65 29.3788C496.715 29.3134 496.737 29.2044 496.759 29.0736C496.759 29.0301 496.759 29.0083 496.781 28.9647C496.978 28.9865 497.131 28.9647 497.262 28.8775C497.393 28.7903 497.502 28.7031 497.611 28.6159C497.655 28.6159 497.677 28.5941 497.677 28.5941C497.677 28.5723 497.699 28.5723 497.743 28.5723C497.874 28.4633 498.005 28.3544 498.158 28.2672C498.311 28.1582 498.442 28.0492 498.573 27.9184C498.836 27.7441 499.054 27.5697 499.251 27.3953C499.448 27.2209 499.688 27.0466 499.929 26.9158C500.016 26.8504 500.125 26.8068 500.213 26.785C500.3 26.7632 500.388 26.7196 500.475 26.676C500.541 26.676 500.563 26.676 500.606 26.6542C500.65 26.6324 500.672 26.6324 500.737 26.6324C501.109 26.9376 501.568 26.9158 502.115 26.567C502.137 26.5452 502.18 26.5234 502.268 26.4799C502.355 26.4581 502.508 26.4799 502.661 26.5888C502.683 26.6106 502.705 26.6324 502.727 26.676C502.749 26.7196 502.77 26.7632 502.792 26.8068C502.224 27.3735 501.656 27.9402 501.109 28.4633C500.563 29.0083 500.06 29.5968 499.535 30.2289C499.273 30.5776 498.989 30.9699 498.704 31.4495C498.42 31.9072 497.764 32.6047 497.633 33.0188C497.568 33.1714 497.48 33.3458 497.437 33.4983C497.393 33.6509 497.327 33.8035 497.24 33.9779C497.174 34.2176 497.152 34.4138 497.152 34.5446C497.152 34.6318 497.174 34.719 497.152 34.7843C497.152 34.8497 497.131 34.9151 497.131 35.0023C497.152 35.0459 497.196 35.0895 497.284 35.1767C497.371 35.2639 497.415 35.3075 497.437 35.3511V35.7434H497.786C497.83 35.7652 497.874 35.7652 497.918 35.7652C498.071 35.787 498.202 35.8088 498.289 35.787C498.377 35.787 498.464 35.7652 498.551 35.7652C498.639 35.7652 498.726 35.7434 498.814 35.7434C499.404 35.7216 499.95 35.6562 500.431 35.5472C500.978 35.4382 501.546 35.3075 502.137 35.1985C502.727 35.0895 503.361 34.9587 504.016 34.8061C504.65 34.6536 505.284 34.4574 505.94 34.283C505.94 33.9997 505.962 33.7163 505.984 33.4548C506.028 32.9098 506.049 32.3867 506.115 31.8636C506.181 31.3405 506.203 30.8174 506.203 30.2725C506.224 29.7493 506.268 29.2262 506.312 28.7031C506.356 28.18 506.356 27.6351 506.246 27.112C506.224 26.8068 506.312 26.5888 506.487 26.4581C506.596 26.3709 506.727 26.3273 506.88 26.2837C506.836 26.1965 506.771 26.1311 506.705 26.0657C506.596 25.9785 506.487 25.8696 506.377 25.7606L506.29 25.608C506.29 25.2375 506.268 24.8669 506.224 24.54C506.181 24.1912 506.159 23.8425 506.181 23.4501C506.159 23.1668 506.203 22.8398 506.268 22.5129C506.356 22.1859 506.421 21.859 506.487 21.5538C506.465 21.532 506.487 21.5102 506.53 21.4666L506.574 21.4448C506.815 21.4013 507.033 21.2269 507.252 20.9653C507.296 20.9435 507.339 20.9217 507.383 20.8999C507.427 20.8781 507.47 20.8563 507.492 20.8127C507.58 20.5294 507.733 20.355 507.951 20.3332C508.17 20.3114 508.389 20.246 508.607 20.1589C508.869 20.0499 509.154 20.0717 509.416 20.2024C509.503 20.2896 509.591 20.3332 509.7 20.3332C509.809 20.3332 509.919 20.355 510.028 20.3768L510.137 20.3986C510.378 20.573 510.575 20.8345 510.706 21.1833C510.837 21.532 510.881 21.8372 510.815 22.0987C510.793 22.1423 510.771 22.2077 510.793 22.2731C510.815 22.3385 510.815 22.3821 510.815 22.4257C510.946 22.8398 510.968 23.3194 510.881 23.7989C510.881 23.8643 510.902 23.9297 510.946 24.0168C510.99 24.104 510.99 24.1694 510.968 24.2566C510.924 24.5182 510.881 24.7797 510.793 25.0195C510.706 25.2592 510.662 25.499 510.64 25.7388C510.596 25.9785 510.422 26.0875 510.159 26.0439C510.465 26.2619 510.509 26.4363 510.247 26.5888C510.181 26.6542 510.094 26.676 510.028 26.7414C510.137 26.8068 510.247 26.8722 510.356 26.9376C510.487 27.0466 510.596 27.1338 510.728 27.2427C510.837 27.3299 510.924 27.4171 510.99 27.5261C511.055 27.6351 511.077 27.7659 511.034 27.9402C511.034 27.9838 511.034 28.0274 511.055 28.0492C511.077 28.071 511.099 28.0928 511.121 28.1146C511.296 28.18 511.383 28.289 511.383 28.4415C511.34 28.6813 511.318 28.8993 511.296 29.1172C511.274 29.3352 511.274 29.5532 511.252 29.7493C511.23 29.8147 511.208 29.8801 511.143 29.9237C511.099 30.0545 511.077 30.1635 511.055 30.2943C511.034 30.4032 510.99 30.534 510.924 30.643C510.793 30.8392 510.749 31.0135 510.749 31.2315C510.771 31.4277 510.749 31.6238 510.684 31.7982C510.618 31.929 510.553 32.0598 510.509 32.2124C510.443 32.3431 510.422 32.4957 510.422 32.6483C510.422 32.7355 510.422 32.8009 510.4 32.888C510.422 32.888 510.443 32.8662 510.443 32.8662C510.946 32.7137 511.427 32.5611 511.908 32.3867C512.389 32.2124 512.87 32.038 513.351 31.8418L513.46 31.82C513.482 31.82 513.526 31.7982 513.548 31.7764C513.569 31.4931 513.591 31.1879 513.613 30.9046C513.657 30.4032 513.701 29.8801 513.701 29.357C513.722 28.8557 513.744 28.3326 513.81 27.8094C513.854 27.2863 513.832 26.7632 513.744 26.2619C513.722 25.9785 513.81 25.7606 513.985 25.6298C514.072 25.5644 514.16 25.5208 514.269 25.4772C514.247 25.4554 514.247 25.4336 514.225 25.4118C514.181 25.3246 514.116 25.2592 514.028 25.2157C513.941 25.1721 513.854 25.1285 513.744 25.0631C513.679 25.0195 513.613 24.9759 513.569 24.9323C513.504 24.8887 513.482 24.8451 513.504 24.8015C513.613 24.4746 513.569 24.213 513.329 24.0168C513.11 23.8207 512.979 23.5809 512.914 23.3194C512.935 23.2976 512.979 23.2758 513.045 23.254C513.11 23.2104 513.132 23.1668 513.132 23.1014C513.11 22.7744 513.154 22.5129 513.307 22.3167C513.46 22.1205 513.657 21.9244 513.875 21.7064C513.985 21.641 514.072 21.5538 514.138 21.4448C514.203 21.3359 514.269 21.2051 514.356 21.0961C514.575 20.7474 514.75 20.4422 514.859 20.1806C515.078 19.6793 515.406 19.5268 515.865 19.7229C516.04 19.7665 516.171 19.7883 516.236 19.7883C516.608 19.6575 516.87 19.5921 517.001 19.6357C517.133 19.6793 517.329 19.8537 517.592 20.1589C517.745 20.3768 517.876 20.5948 517.985 20.8127C518.094 21.0307 518.204 21.2705 518.291 21.5102C518.466 21.9026 518.619 22.2949 518.707 22.6655C518.794 23.036 518.86 23.4501 518.925 23.8861C518.969 24.1694 518.969 24.431 518.947 24.6925C518.925 24.9541 518.903 25.2374 518.903 25.5426C518.925 25.717 518.86 25.8478 518.728 25.9349C518.488 26.0439 518.247 26.1311 518.029 26.2401C518.007 26.2401 517.985 26.2619 517.985 26.2619C518.051 26.3055 518.094 26.3491 518.16 26.3927C518.269 26.4799 518.357 26.567 518.422 26.676C518.488 26.785 518.838 26.894 518.816 27.5697C518.794 27.8094 518.75 28.0274 518.728 28.2454C518.707 28.4633 518.707 28.6595 518.685 28.8775C518.663 28.9429 518.641 28.9865 518.597 29.0518C518.554 29.139 518.554 29.248 518.532 29.3352C518.597 29.2916 518.663 29.2698 518.728 29.248C518.794 29.2262 518.881 29.2044 518.991 29.1608C519.1 29.1172 519.166 29.0083 519.187 28.8557C519.253 28.7467 519.384 28.6595 519.559 28.5941C519.647 28.5287 519.756 28.4633 519.843 28.398C519.931 28.3326 520.018 28.2454 520.084 28.1364C520.106 28.1582 520.127 28.1582 520.149 28.1364C520.171 28.1146 520.215 28.1146 520.28 28.1146C520.346 28.0928 520.412 28.071 520.455 28.0274C520.499 27.9838 520.565 27.9402 520.63 27.9402C520.74 27.853 520.827 27.7876 520.893 27.7223C520.958 27.6569 521.024 27.5915 521.111 27.5261C521.199 27.4607 521.33 27.3517 521.483 27.2209C521.592 27.1338 521.701 27.0684 521.811 27.003C521.92 26.9376 522.029 26.8722 522.117 26.8068C522.182 26.785 522.248 26.7632 522.292 26.7414C522.335 26.7196 522.379 26.676 522.445 26.6542C522.685 26.5234 522.926 26.3927 523.166 26.2619C523.406 26.1093 523.625 25.8913 523.822 25.608C523.931 25.4118 524.128 25.1939 524.412 24.9759C524.521 24.8887 524.609 24.8015 524.696 24.7143C524.784 24.6271 524.871 24.54 524.937 24.4528C525.767 23.5591 526.511 22.6655 527.21 21.8154C527.319 21.641 527.407 21.3795 527.451 21.0307C527.516 20.682 527.582 20.4204 527.669 20.2242C527.691 20.0935 527.713 19.9845 527.757 19.8973C527.8 19.8319 527.844 19.7447 527.91 19.6575C528.128 19.1998 528.041 18.7857 527.669 18.4151C527.188 17.9574 526.664 17.4997 526.139 17.0419C525.614 16.5842 525.002 16.2791 524.303 16.1047C524.15 16.0611 523.997 16.0175 523.844 15.9521C523.691 15.8867 523.538 15.8431 523.406 15.8213C523.188 15.7559 522.969 15.6688 522.773 15.6034C522.576 15.538 522.357 15.4726 522.139 15.429C522.007 15.4072 521.854 15.3636 521.723 15.32C521.592 15.2764 521.417 15.211 521.264 15.1892C520.849 15.102 520.412 14.9931 519.974 14.9059C519.537 14.7969 519.1 14.7751 518.663 14.8187C518.51 14.8187 518.357 14.7969 518.226 14.7751C518.073 14.7533 517.92 14.7097 517.745 14.6661C517.635 14.6661 517.526 14.6443 517.417 14.6225C517.307 14.6007 517.198 14.5789 517.089 14.5789L516.892 14.5571C516.367 14.4917 515.843 14.4264 515.34 14.3828C514.815 14.3392 514.291 14.2956 513.788 14.2738C513.11 14.2302 512.455 14.2084 511.842 14.1866C511.23 14.1866 510.64 14.1648 510.072 14.1648C509.962 14.1648 509.853 14.1648 509.744 14.1648C509.635 14.1648 509.547 14.1866 509.482 14.2084C509.46 13.8814 509.438 13.7071 509.394 13.6635C509.35 13.6199 509.219 13.6199 509.022 13.6635C508.957 13.6853 508.891 13.6853 508.848 13.6635C508.804 13.6417 508.738 13.6417 508.673 13.6635C508.563 13.6635 508.454 13.6417 508.345 13.5981C508.236 13.5545 508.148 13.5545 508.061 13.5545C507.776 13.6199 507.514 13.6635 507.252 13.6417C506.989 13.6199 506.727 13.6199 506.443 13.5981C506.028 13.5327 505.634 13.5109 505.241 13.5327C504.847 13.5545 504.454 13.5981 504.06 13.6635C504.016 13.6853 503.951 13.7725 503.885 13.8814C503.71 13.5109 503.426 13.3583 503.011 13.4019C502.923 13.4019 502.836 13.4237 502.792 13.4237C502.749 13.4237 502.77 13.4673 502.77 13.3801C503.055 13.3147 503.339 13.2711 503.601 13.2711C503.885 13.2711 504.148 13.2711 504.41 13.2929C504.497 13.2929 504.585 13.2929 504.65 13.2929C504.716 13.3147 504.803 13.3147 504.891 13.2929C505.153 13.2929 505.394 13.0314 505.743 12.966C505.896 12.9878 506.028 12.857 506.137 12.8352C506.246 12.8352 506.159 12.5083 505.853 12.5083L505.7 12.3557L505.131 12.2903L504.869 12.0287C504.65 11.898 503.973 11.9633 504.213 11.9415C504.476 11.9198 504.323 11.7018 503.798 11.7018L503.667 11.7236C503.623 11.7018 503.251 11.8108 503.164 11.789C503.077 11.7672 502.989 11.7454 502.902 11.7672C502.836 11.789 502.749 11.789 502.661 11.8108C502.574 11.8108 502.464 11.8108 502.355 11.8108L502.464 11.789C502.246 11.7018 502.027 11.6582 501.765 11.6582C501.503 11.6582 501.306 11.7454 501.153 11.898C501.044 11.898 500.956 11.898 500.934 11.898L500.912 11.789C500.716 11.68 500.388 11.7236 500.606 11.68C500.672 11.6582 500.737 11.6364 500.825 11.6146C501.065 11.5274 501.371 11.3748 501.787 11.1569C502.115 11.0479 502.508 11.0261 502.967 11.0479C503.055 11.0479 503.164 11.0479 503.251 11.0479C503.361 11.0479 503.47 11.0479 503.601 11.0261L503.645 11.0479C503.71 11.0261 503.798 11.0043 503.863 11.0043C503.951 11.0043 504.038 10.9389 504.126 10.8517C504.257 10.6991 504.476 10.5902 504.803 10.5466C504.891 10.503 505.044 10.4594 505.241 10.4158C505.306 10.3722 505.372 10.3068 505.481 10.2414L505.503 10.1978L505.7 10.0017L505.678 9.95806L505.722 9.93626C505.809 9.93626 505.918 9.91447 506.006 9.89267C506.115 9.87088 506.203 9.84908 506.29 9.84908C506.487 9.80549 506.683 9.78369 506.88 9.76189C507.077 9.7401 507.274 9.7183 507.47 9.67471C507.536 9.65291 507.602 9.65291 507.645 9.65291C507.689 9.65291 507.755 9.63111 507.82 9.63111C507.908 9.63111 507.995 9.60932 508.082 9.58752C508.17 9.56572 508.257 9.54393 508.345 9.54393C508.585 9.54393 508.848 9.54393 509.11 9.54393C509.372 9.56572 509.635 9.56572 509.875 9.54393C510.028 9.52213 510.203 9.52213 510.378 9.52213C510.553 9.52213 510.706 9.54393 510.859 9.54393C510.924 9.52213 510.968 9.52213 511.012 9.52213C511.055 9.52213 511.099 9.52213 511.165 9.50033H511.34C511.471 9.47854 511.602 9.47854 511.733 9.45674C511.864 9.43495 511.995 9.43495 512.127 9.41315C512.455 9.41315 512.739 9.43495 513.023 9.41315C513.307 9.39135 513.613 9.36955 513.941 9.32596C514.05 9.30416 514.16 9.28237 514.269 9.28237C514.4 9.28237 514.531 9.28237 514.662 9.28237C514.903 9.28237 515.121 9.26057 515.318 9.26057C515.515 9.23878 515.734 9.21698 515.996 9.15159C516.302 9.0862 516.695 9.12979 517.176 9.26057C517.307 9.28237 517.417 9.30416 517.526 9.32596C517.614 9.34776 517.723 9.36955 517.832 9.36955L517.898 9.41315C517.963 9.41315 518.029 9.43494 518.138 9.43494C518.226 9.45674 518.313 9.41315 518.4 9.34776C518.554 9.26057 518.707 9.21698 518.86 9.23878C519.034 9.23878 519.231 9.28237 519.45 9.36955C519.515 9.36955 519.559 9.39135 519.625 9.41315C519.69 9.43495 519.756 9.45674 519.8 9.45674C519.843 9.45674 519.865 9.45674 519.909 9.47854C519.974 9.47854 520.04 9.50033 520.106 9.50033C520.193 9.52213 520.28 9.52213 520.368 9.52213C520.893 9.45674 521.33 9.58752 521.68 9.93626C521.723 10.0235 521.811 10.0888 521.92 10.176C522.029 10.2632 522.182 10.2632 522.335 10.2414C522.488 10.2196 522.641 10.2414 522.773 10.3068C522.904 10.3722 523.057 10.4594 523.232 10.5466C523.341 10.612 523.45 10.6773 523.581 10.7427C523.713 10.8081 523.844 10.8735 523.997 10.8953C524.281 10.9389 524.631 11.1133 525.024 11.4184L525.374 11.6364L525.505 11.7236L525.571 11.7672C525.702 11.9415 525.833 12.0941 525.964 12.2467C526.095 12.3993 526.226 12.5519 526.379 12.7044C526.707 13.0532 527.035 13.4019 527.341 13.7507C527.604 14.0994 527.888 14.4482 528.15 14.7969C528.412 15.1674 528.631 15.5598 528.806 15.9739C528.893 16.0829 528.937 16.1919 528.981 16.3227C529.003 16.4534 529.046 16.5842 529.09 16.7586C529.112 16.824 529.112 16.8894 529.134 16.933C529.156 16.9766 529.156 17.0419 529.178 17.1073L529.199 17.1509C529.199 17.1945 529.221 17.2381 529.221 17.3035C529.221 17.3689 529.265 17.4343 529.309 17.4779C529.462 17.6522 529.571 17.8484 529.637 18.0664C529.702 18.2843 529.724 18.5023 529.768 18.7639C529.79 19.0472 529.855 19.3306 530.008 19.6575C529.986 19.6793 530.008 19.7011 530.03 19.7011C529.921 19.9409 529.877 20.1371 529.921 20.3332C529.943 20.5294 530.008 20.7256 530.074 20.8999L530.096 20.9435C530.118 21.0089 530.118 21.0961 530.096 21.1833C530.074 21.2051 530.052 21.2923 530.03 21.4013Z" fill="#003346"/>
</g>
<path fill-rule="evenodd" clip-rule="evenodd" d="M835.497 37.5741C835.768 38.1151 835.903 38.5209 836.174 39.0619C836.309 38.5209 836.58 37.9799 836.851 37.5741C837.121 37.0331 837.257 36.6274 837.527 36.0864L846.731 18.9094C846.867 18.6389 847.002 18.5037 847.137 18.3684C847.273 18.2331 847.408 18.0979 847.543 18.0979C847.679 18.0979 847.814 17.9626 848.085 17.9626C848.22 17.9626 848.491 17.9626 848.762 17.9626H853.093V48.9352H847.95V29.0533C847.95 28.6475 847.95 28.2418 847.95 27.836C847.95 27.4303 847.95 26.8892 848.085 26.4835L838.746 44.0662C838.475 44.4719 838.204 44.7425 837.933 45.013C837.527 45.2835 837.257 45.2835 836.715 45.2835H835.903C835.497 45.2835 835.091 45.1482 834.685 45.013C834.279 44.7425 834.008 44.4719 833.873 44.0662L824.398 26.4835C824.398 26.8892 824.534 27.4303 824.534 27.836C824.534 28.2418 824.534 28.6475 824.534 29.0533V49.0705H819.255V18.0979H823.586C823.857 18.0979 824.127 18.0979 824.263 18.0979C824.398 18.0979 824.669 18.0979 824.804 18.2331C824.94 18.2331 825.075 18.3684 825.21 18.5037C825.346 18.6389 825.481 18.7742 825.616 19.0447L834.82 36.2216C835.091 36.6274 835.362 37.1684 835.497 37.5741ZM864.869 45.6892C865.41 45.6892 865.951 45.6892 866.357 45.554C866.764 45.4187 867.305 45.2835 867.711 45.1482C868.117 45.013 868.523 44.7425 868.929 44.4719C869.335 44.2014 869.741 43.7957 870.012 43.3899V39.7381C868.523 39.7381 867.17 39.8734 866.087 40.0086C865.004 40.1439 864.192 40.4144 863.65 40.6849C862.974 40.9554 862.568 41.3612 862.297 41.7669C862.026 42.1727 861.891 42.5784 861.891 43.1194C861.891 44.0662 862.162 44.7425 862.703 45.1482C863.38 45.554 864.056 45.6892 864.869 45.6892ZM875.155 49.0705H872.719C872.178 49.0705 871.772 48.9352 871.501 48.8C871.23 48.6647 870.959 48.3942 870.824 47.8532L870.418 46.2302C869.877 46.7712 869.335 47.177 868.794 47.5827C868.252 47.9885 867.711 48.259 867.17 48.5295C866.628 48.8 865.951 48.9352 865.41 49.0705C864.733 49.2057 864.056 49.2058 863.244 49.2058C862.297 49.2058 861.485 49.0705 860.673 48.8C859.861 48.5295 859.184 48.1237 858.642 47.718C858.101 47.3122 857.695 46.636 857.289 45.8245C857.018 45.1482 856.883 44.2014 856.883 43.2547C856.883 42.4432 857.154 41.6317 857.56 40.8202C857.966 40.0086 858.778 39.3324 859.725 38.6561C860.808 37.9799 862.026 37.4389 863.786 37.0331C865.41 36.6274 867.576 36.3569 870.012 36.3569V35.0043C870.012 33.5166 869.741 32.4346 869.065 31.7583C868.388 31.082 867.576 30.6763 866.357 30.6763C865.545 30.6763 864.733 30.8115 864.192 30.9468C863.65 31.082 863.109 31.3525 862.703 31.6231C862.297 31.8936 861.891 32.1641 861.485 32.2993C861.079 32.4346 860.673 32.5698 860.267 32.5698C859.861 32.5698 859.59 32.4346 859.319 32.2993C859.048 32.1641 858.913 31.8936 858.642 31.6231L857.695 30C860.267 27.7008 863.244 26.4835 866.899 26.4835C868.117 26.4835 869.335 26.754 870.283 27.1597C871.23 27.5655 872.178 28.1065 872.854 28.918C873.531 29.7295 874.073 30.541 874.479 31.6231C874.885 32.7051 875.02 33.7871 875.02 35.0043C875.155 35.1396 875.155 49.0705 875.155 49.0705Z" fill="black"/>
<mask id="mask0_16_524" style="mask-type:alpha" maskUnits="userSpaceOnUse" x="877" y="26" width="22" height="31">
<path fill-rule="evenodd" clip-rule="evenodd" d="M877.458 26.75H898.438V56.7758H877.458V26.75Z" fill="white"/>
</mask>
<g mask="url(#mask0_16_524)">
<path fill-rule="evenodd" clip-rule="evenodd" d="M887.203 37.5701C887.879 37.5701 888.421 37.4349 888.962 37.2996C889.504 37.1644 889.91 36.8939 890.18 36.6234C890.451 36.3529 890.722 35.9471 890.857 35.5413C890.992 35.1356 891.128 34.5946 891.128 34.0536C891.128 32.9716 890.857 32.1601 890.18 31.4838C889.504 30.6723 888.421 30.4018 887.203 30.4018C885.849 30.4018 884.902 30.6723 884.225 31.3486C883.548 32.0248 883.277 32.8363 883.277 33.9183C883.277 34.4593 883.413 34.8651 883.548 35.4061C883.683 35.8119 883.954 36.2176 884.225 36.4881C884.496 36.7586 884.902 37.0291 885.443 37.2996C885.984 37.4349 886.526 37.5701 887.203 37.5701ZM893.023 50.0133C893.023 49.6075 892.887 49.2018 892.617 48.9313C892.346 48.6607 892.075 48.3902 891.534 48.255C891.128 48.1197 890.586 47.9845 890.045 47.9845C889.504 47.8492 888.827 47.8492 888.15 47.8492H885.984C885.308 47.8492 884.631 47.714 883.954 47.5787C883.413 47.8492 882.871 48.255 882.465 48.796C882.059 49.2018 881.924 49.7428 881.924 50.2838C881.924 50.6895 882.059 51.0953 882.195 51.3658C882.33 51.6363 882.736 52.042 883.142 52.1773C883.548 52.4478 884.09 52.583 884.766 52.7183C885.443 52.8535 886.255 52.8535 887.203 52.8535C888.15 52.8535 889.098 52.7183 889.774 52.583C890.451 52.4478 891.128 52.1773 891.534 51.9068C891.94 51.6363 892.346 51.3658 892.617 50.96C892.887 50.8248 893.023 50.419 893.023 50.0133ZM887.203 26.75C888.15 26.75 889.098 26.8853 889.91 27.0205C890.722 27.1558 891.534 27.5615 892.211 27.832H898.437V29.8608C898.437 30.1313 898.302 30.4018 898.166 30.6723C898.031 30.8075 897.76 30.9428 897.354 31.078L895.324 31.4838C895.459 31.8896 895.594 32.2953 895.594 32.7011C895.73 32.9716 895.73 33.3773 895.73 33.7831C895.73 34.8651 895.459 35.8119 895.053 36.7586C894.647 37.5701 893.97 38.3816 893.293 39.0579C892.481 39.7341 891.669 40.1399 890.586 40.5457C889.504 40.8162 888.421 41.0867 887.203 41.0867C886.391 41.0867 885.578 40.9514 884.766 40.8162C884.09 41.2219 883.683 41.7629 883.683 42.1687C883.683 42.5744 883.954 42.9802 884.225 43.1154C884.631 43.3859 885.172 43.5212 885.849 43.5212C886.526 43.6564 887.203 43.6564 888.15 43.6564C889.098 43.6564 889.91 43.6564 890.722 43.7917C891.669 43.9269 892.481 43.9269 893.293 44.1974C894.106 44.3327 894.918 44.6032 895.594 45.009C896.271 45.4147 896.813 45.9557 897.219 46.632C897.625 47.3082 897.895 48.1197 897.895 49.2018C897.895 50.1485 897.625 51.0953 897.219 52.042C896.677 52.9888 896.001 53.8003 895.188 54.4766C894.376 55.1528 893.023 55.6938 891.669 56.0996C890.316 56.5053 888.827 56.7758 887.203 56.7758C885.578 56.7758 884.09 56.6406 882.871 56.2348C881.653 55.9643 880.57 55.4233 879.758 54.8823C878.946 54.3413 878.405 53.6651 877.999 52.9888C877.593 52.3125 877.457 51.501 877.457 50.8248C877.457 49.7428 877.728 48.9312 878.405 48.255C879.081 47.5787 879.894 47.0377 880.976 46.632C880.435 46.3615 880.029 45.9557 879.623 45.4147C879.352 44.8737 879.081 44.1974 879.081 43.5212C879.081 43.2507 879.081 42.8449 879.217 42.4392C879.352 42.0334 879.488 41.7629 879.758 41.3572C880.029 40.9514 880.3 40.6809 880.706 40.4104C881.112 40.1399 881.518 39.8694 881.924 39.5989C880.841 39.0579 879.894 38.2464 879.352 37.1644C878.811 36.0824 878.405 35.1356 878.405 33.7831C878.405 32.7011 878.675 31.7543 879.081 30.8075C879.488 29.996 880.164 29.1845 880.976 28.6435C881.789 27.9673 882.736 27.5615 883.683 27.1558C884.766 26.8853 885.849 26.75 887.203 26.75Z" fill="black"/>
</g>
<path fill-rule="evenodd" clip-rule="evenodd" d="M900.872 49.0705V27.0245H904.121C904.797 27.0245 905.204 27.295 905.474 27.9713L905.88 29.5943C906.286 29.1885 906.692 28.7828 907.098 28.377C907.505 27.9713 907.911 27.7008 908.452 27.4303C908.993 27.1597 909.399 27.0245 909.941 26.754C910.482 26.6187 911.159 26.4835 911.7 26.4835C913.054 26.4835 914.272 26.8892 915.084 27.5655C916.032 28.377 916.708 29.3238 917.115 30.541C917.521 29.8648 917.927 29.1885 918.333 28.6475C918.874 28.1065 919.416 27.7008 920.092 27.4303C920.769 27.1597 921.31 26.8892 921.987 26.754C922.664 26.6187 923.341 26.4835 924.018 26.4835C925.236 26.4835 926.319 26.6187 927.266 27.0245C928.213 27.4302 929.026 27.9713 929.702 28.6475C930.379 29.3238 930.785 30.2705 931.191 31.2173C931.462 32.2993 931.733 33.3813 931.733 34.7338V48.6647H926.454V35.0043C926.454 33.6518 926.183 32.5698 925.506 31.8935C924.83 31.2173 924.018 30.8115 922.799 30.8115C922.258 30.8115 921.717 30.9468 921.31 31.082C920.904 31.2173 920.498 31.4878 920.092 31.8935C919.686 32.2993 919.416 32.7051 919.28 33.2461C919.145 33.7871 919.009 34.3281 919.009 35.0043V48.9352H913.731V35.0043C913.731 33.5166 913.46 32.4346 912.783 31.7583C912.242 31.082 911.294 30.8115 910.212 30.8115C909.399 30.8115 908.723 30.9468 908.046 31.3525C907.369 31.7583 906.828 32.2993 906.151 32.8403V48.9352L900.872 49.0705ZM943.102 45.6892C943.644 45.6892 944.185 45.6892 944.591 45.554C944.997 45.4187 945.539 45.2835 945.945 45.1482C946.351 45.0129 946.757 44.7424 947.163 44.4719C947.569 44.2014 947.975 43.7957 948.246 43.3899V39.7381C946.757 39.7381 945.403 39.8734 944.32 40.0086C943.238 40.1439 942.425 40.4144 941.884 40.6849C941.207 40.9554 940.801 41.3612 940.531 41.7669C940.26 42.1727 940.124 42.5784 940.124 43.1194C940.124 44.0662 940.395 44.7424 940.937 45.1482C941.478 45.554 942.155 45.6892 943.102 45.6892ZM953.389 49.0705H950.953C950.411 49.0705 950.005 48.9352 949.735 48.8C949.464 48.6647 949.193 48.3942 949.058 47.8532L948.652 46.2302C948.11 46.7712 947.569 47.177 947.027 47.5827C946.486 47.9885 945.945 48.259 945.403 48.5295C944.862 48.8 944.185 48.9352 943.644 49.0705C942.967 49.2057 942.29 49.2057 941.478 49.2057C940.531 49.2057 939.718 49.0705 938.906 48.8C938.094 48.5295 937.417 48.1237 936.876 47.718C936.335 47.177 935.929 46.636 935.522 45.8245C935.116 45.0129 935.116 44.2014 935.116 43.2547C935.116 42.4432 935.387 41.6317 935.793 40.8202C936.199 40.0086 937.011 39.3324 937.959 38.6561C938.906 37.9799 940.26 37.4389 942.019 37.0331C943.644 36.6274 945.809 36.3569 948.246 36.3569V35.0043C948.246 33.5166 947.975 32.4346 947.298 31.7583C946.621 31.082 945.809 30.6763 944.591 30.6763C943.779 30.6763 942.967 30.8115 942.425 30.9468C941.884 31.082 941.343 31.3525 940.937 31.623C940.531 31.8936 940.124 32.1641 939.718 32.2993C939.312 32.4346 938.906 32.5698 938.5 32.5698C938.094 32.5698 937.823 32.4346 937.553 32.2993C937.282 32.1641 937.147 31.8936 936.876 31.623L935.929 30C938.5 27.7008 941.478 26.4835 945.133 26.4835C946.351 26.4835 947.569 26.754 948.516 27.1597C949.464 27.5655 950.411 28.1065 951.088 28.918C951.765 29.7295 952.306 30.541 952.712 31.623C953.118 32.7051 953.254 33.7871 953.254 35.0043L953.389 49.0705ZM961.51 47.177H975.858V49.0705H959.345V18.7742H961.51V47.177ZM984.385 47.8532C985.197 47.8532 986.009 47.718 986.686 47.5827C987.363 47.4475 988.039 47.177 988.581 46.7712C989.122 46.5007 989.664 46.095 990.205 45.6892C990.746 45.2835 991.288 44.7424 991.694 44.2014V38.6561C989.663 38.6561 987.904 38.9266 986.415 39.0619C984.926 39.3324 983.708 39.6029 982.761 40.1439C981.813 40.5496 981.136 41.0907 980.595 41.6317C980.189 42.1727 979.918 42.8489 979.918 43.6604C979.918 44.3367 980.053 45.0129 980.324 45.554C980.595 46.095 980.866 46.5007 981.272 46.9065C981.678 47.177 982.084 47.4475 982.625 47.5827C983.302 47.8532 983.843 47.8532 984.385 47.8532ZM993.047 49.0705C992.641 49.0705 992.371 48.9352 992.235 48.5295L991.965 45.8245C991.423 46.3655 990.746 46.9065 990.205 47.3122C989.664 47.718 988.987 48.1237 988.445 48.5295C987.769 48.8 987.092 49.0705 986.415 49.2057C985.738 49.341 984.926 49.4763 983.979 49.4763C983.302 49.4763 982.49 49.341 981.813 49.2057C981.136 48.9352 980.46 48.6647 980.053 48.259C979.512 47.8532 979.106 47.3122 978.835 46.5007C978.565 45.8245 978.294 45.0129 978.294 44.0662C978.294 43.1194 978.565 42.3079 979.106 41.4964C979.647 40.6849 980.46 40.0086 981.542 39.4676C982.625 38.9266 983.979 38.3856 985.738 38.1151C987.498 37.7094 989.528 37.5741 991.965 37.5741V35.4101C991.965 33.3813 991.558 31.8936 990.746 30.8115C989.934 29.7295 988.581 29.1885 986.956 29.1885C985.874 29.1885 985.062 29.3238 984.385 29.5943C983.708 29.8648 983.031 30.1353 982.49 30.541C981.948 30.9468 981.542 31.2173 981.272 31.4878C981.001 31.7583 980.73 31.8935 980.46 31.8935C980.189 31.8935 979.918 31.7583 979.783 31.4878L979.377 30.8115C980.46 29.7295 981.678 28.918 982.896 28.2418C984.114 27.7008 985.468 27.4303 987.092 27.4303C988.175 27.4303 989.257 27.5655 990.07 27.9713C990.882 28.377 991.694 28.918 992.235 29.5943C992.777 30.2705 993.183 31.082 993.453 32.0288C993.724 32.9756 993.859 34.0576 993.859 35.2748V49.2057L993.047 49.0705ZM1008.61 29.0533C1007.26 29.0533 1005.91 29.459 1004.82 30.1353C1003.74 30.8115 1002.66 31.8935 1001.71 33.1108V44.3367C1002.52 45.554 1003.47 46.3655 1004.42 46.9065C1005.36 47.4475 1006.58 47.5827 1007.8 47.5827C1009.02 47.5827 1010.1 47.3122 1011.05 46.9065C1012 46.5007 1012.81 45.8245 1013.49 45.0129C1014.16 44.2014 1014.57 43.1194 1014.97 42.0374C1015.25 40.8202 1015.52 39.6029 1015.52 38.2504C1015.52 35.1396 1014.97 32.7051 1013.76 31.2173C1012.4 29.7295 1010.78 29.0533 1008.61 29.0533ZM999.544 49.0705V17.8274H1001.57V31.3525C1002.52 30.1353 1003.6 29.0533 1004.82 28.377C1006.04 27.7008 1007.53 27.295 1009.02 27.295C1011.59 27.295 1013.62 28.2418 1015.11 30C1016.6 31.7583 1017.28 34.4633 1017.28 38.1151C1017.28 39.6029 1017.14 41.0907 1016.6 42.4432C1016.19 43.7957 1015.65 45.0129 1014.84 45.9597C1014.03 46.9065 1013.08 47.718 1011.86 48.259C1010.64 48.8 1009.42 49.0705 1007.94 49.0705C1006.45 49.0705 1005.23 48.8 1004.15 48.259C1003.06 47.718 1002.12 46.7712 1001.44 45.6892L1001.3 48.259C1001.3 48.6647 1001.03 48.8 1000.76 48.8H999.544V49.0705ZM1033.65 30.4058C1033.52 30.541 1033.38 30.6763 1033.25 30.6763C1033.11 30.6763 1032.84 30.541 1032.57 30.4058C1032.3 30.2705 1032.03 30 1031.62 29.8648C1031.22 29.5943 1030.68 29.459 1030.13 29.3238C1029.59 29.1885 1028.78 29.0533 1027.97 29.0533C1027.16 29.0533 1026.48 29.1885 1025.8 29.3238C1025.13 29.5943 1024.58 29.8648 1024.18 30.2705C1023.77 30.6763 1023.37 31.082 1023.1 31.623C1022.82 32.1641 1022.69 32.5698 1022.69 33.1108C1022.69 33.7871 1022.82 34.3281 1023.23 34.7338C1023.64 35.1396 1024.04 35.5453 1024.58 35.8158C1025.13 36.0863 1025.8 36.3568 1026.48 36.6274C1027.16 36.8979 1027.97 37.0331 1028.65 37.3036C1029.46 37.5741 1030.13 37.8446 1030.81 38.1151C1031.49 38.3856 1032.16 38.7914 1032.71 39.1971C1033.25 39.6029 1033.65 40.1439 1034.06 40.6849C1034.47 41.2259 1034.6 42.0374 1034.6 42.8489C1034.6 43.7957 1034.47 44.6072 1034.06 45.4187C1033.65 46.2302 1033.25 46.9065 1032.57 47.4475C1031.89 47.9885 1031.22 48.5295 1030.27 48.8C1029.32 49.2057 1028.24 49.341 1027.16 49.341C1025.67 49.341 1024.31 49.0705 1023.23 48.6647C1022.15 48.1237 1021.2 47.5827 1020.25 46.7712L1020.79 46.095C1020.93 45.9597 1020.93 45.9597 1021.07 45.8245C1021.2 45.8245 1021.34 45.6892 1021.47 45.6892C1021.61 45.6892 1021.88 45.8245 1022.15 46.095C1022.42 46.3655 1022.82 46.636 1023.23 46.7712C1023.64 47.0417 1024.18 47.3122 1024.86 47.4475C1025.53 47.718 1026.34 47.8532 1027.29 47.8532C1028.24 47.8532 1029.05 47.718 1029.73 47.4475C1030.4 47.177 1030.95 46.9065 1031.49 46.3655C1031.89 45.9597 1032.3 45.4187 1032.57 44.8777C1032.84 44.3367 1032.98 43.6604 1032.98 42.9842C1032.98 42.3079 1032.84 41.6317 1032.43 41.2259C1032.03 40.8202 1031.62 40.4144 1031.08 40.0086C1030.54 39.7381 1029.86 39.4676 1029.19 39.1971C1028.51 38.9266 1027.7 38.7914 1027.02 38.5209C1026.21 38.2504 1025.53 37.9799 1024.86 37.7094C1024.18 37.4389 1023.5 37.0331 1022.96 36.6274C1022.42 36.2216 1022.01 35.6806 1021.61 35.1396C1021.2 34.5986 1021.07 33.7871 1021.07 32.9756C1021.07 32.1641 1021.2 31.4878 1021.61 30.8115C1021.88 30.1353 1022.42 29.459 1022.96 28.918C1023.5 28.377 1024.31 27.9713 1025.13 27.7008C1025.94 27.4302 1027.02 27.1597 1028.1 27.1597C1029.46 27.1597 1030.54 27.295 1031.62 27.7008C1032.57 28.1065 1033.52 28.6475 1034.47 29.459L1033.65 30.4058Z" fill="black"/>
<mask id="mask1_16_524" style="mask-type:alpha" maskUnits="userSpaceOnUse" x="756" y="18" width="24" height="32">
<path fill-rule="evenodd" clip-rule="evenodd" d="M756.993 18.3643H779.597V49.0664H756.993V18.3643Z" fill="white"/>
</mask>
<g mask="url(#mask1_16_524)">
<path fill-rule="evenodd" clip-rule="evenodd" d="M774.048 18.6347L757.129 47.9843C756.858 48.39 757.264 49.0663 757.805 49.0663H765.927C766.468 49.0663 766.874 48.7958 767.145 48.39L779.462 27.0203C779.733 26.6145 779.733 26.0735 779.462 25.6678L775.401 18.7699C774.995 18.2289 774.318 18.2289 774.048 18.6347Z" fill="#FF5C5C"/>
</g>
<path fill-rule="evenodd" clip-rule="evenodd" d="M799.629 33.3813L795.569 40.2791C795.298 40.6848 795.298 41.2259 795.569 41.6316L799.358 48.2589C799.629 48.6647 800.035 48.9352 800.577 48.9352H808.698C809.239 48.9352 809.645 48.3942 809.374 47.8532L800.847 33.246C800.577 32.8403 799.9 32.8403 799.629 33.3813Z" fill="#CB3737"/>
<path fill-rule="evenodd" clip-rule="evenodd" d="M791.102 18.6388L778.514 40.279C778.243 40.6848 778.243 41.2258 778.514 41.6315L782.575 48.5294C782.845 48.9351 783.522 48.9351 783.793 48.5294L796.381 26.8891C796.651 26.4834 796.651 25.9424 796.381 25.5366L792.32 18.6388C792.049 18.233 791.373 18.233 791.102 18.6388Z" fill="#F84848"/>
<mask id="mask2_16_524" style="mask-type:alpha" maskUnits="userSpaceOnUse" x="778" y="3" width="10" height="17">
<path fill-rule="evenodd" clip-rule="evenodd" d="M778.379 3.62207H787.989V19.5817H778.379V3.62207Z" fill="white"/>
</mask>
<g mask="url(#mask2_16_524)">
<path fill-rule="evenodd" clip-rule="evenodd" d="M787.854 10.9255L783.793 4.0277C783.522 3.62195 782.846 3.62195 782.575 4.0277L778.514 10.9255C778.244 11.3313 778.244 11.8723 778.514 12.278L782.575 19.1759C782.846 19.5816 783.522 19.5816 783.793 19.1759L787.854 12.278C788.124 11.8723 788.124 11.3313 787.854 10.9255Z" fill="#CB3737"/>
</g>
<defs>
<clipPath id="clip0_16_524">
<rect width="119.021" height="59.9268" fill="white" transform="translate(56.1814 0.0366211)"/>
</clipPath>
<clipPath id="clip1_16_524">
<rect width="142.326" height="38.2866" fill="white" transform="translate(258.434 10.8567)"/>
</clipPath>
<clipPath id="clip2_16_524">
<rect width="189.768" height="58.2622" fill="white" transform="translate(483.992 0.868896)"/>
</clipPath>
</defs>
</svg>
