<svg width="70rem" height="2.87rem" viewBox="0 0 1110 46" fill="none" xmlns="http://www.w3.org/2000/svg">
<g clip-path="url(#clip0_16_487)">
<path d="M177.474 36.6582L167.95 10.9177C167.9 10.4988 167.9 10.0759 167.95 9.65695C167.947 9.10645 168.156 8.57489 168.537 8.16667C168.917 7.75845 169.441 7.50305 170.006 7.45062C170.564 7.46124 171.102 7.65344 171.533 7.99638C171.965 8.33932 172.266 8.81312 172.387 9.34176L180.288 31.5101L188.188 9.34176C188.309 8.81312 188.61 8.33932 189.042 7.99638C189.474 7.65344 190.012 7.46124 190.569 7.45062V7.45062C191.127 7.46124 191.665 7.65344 192.097 7.99638C192.529 8.33932 192.829 8.81312 192.95 9.34176L200.851 31.5101L209.076 9.2367C209.197 8.73602 209.485 8.28855 209.897 7.96507C210.309 7.64158 210.82 7.46056 211.349 7.45062C211.682 7.38794 212.024 7.39819 212.352 7.48063C212.68 7.56306 212.985 7.7156 213.244 7.92709C213.504 8.13858 213.711 8.40366 213.851 8.70296C213.992 9.00226 214.061 9.3282 214.055 9.65695C214.104 10.0407 214.104 10.4289 214.055 10.8127L204.531 36.6582C204.371 37.2149 204.033 37.7081 203.567 38.0667C203.1 38.4254 202.528 38.6312 201.933 38.6544V38.6544C201.323 38.6891 200.722 38.5048 200.243 38.1367C199.764 37.7686 199.441 37.2424 199.336 36.6582L190.678 14.8051L182.777 36.6582C182.627 37.2036 182.285 37.6807 181.811 38.007C181.336 38.3332 180.759 38.4879 180.179 38.4443V38.4443C179.585 38.4211 179.013 38.2153 178.546 37.8566C178.079 37.4979 177.742 37.0048 177.582 36.4481" fill="#696566"/>
<path d="M246.524 9.76208C246.524 9.14906 246.775 8.56115 247.221 8.12768C247.668 7.6942 248.273 7.45068 248.905 7.45068C249.536 7.45068 250.142 7.6942 250.588 8.12768C251.035 8.56115 251.286 9.14906 251.286 9.76208V15.0152C252.202 12.9215 253.699 11.1156 255.61 9.79859C257.521 8.4816 259.77 7.70518 262.109 7.55575C262.426 7.54072 262.742 7.59022 263.038 7.70106C263.334 7.8119 263.603 7.98163 263.827 8.19934C264.051 8.41704 264.226 8.6779 264.34 8.96514C264.454 9.25237 264.505 9.55963 264.49 9.86714C264.495 10.4293 264.289 10.974 263.911 11.3995C263.532 11.8249 263.007 12.1019 262.433 12.1785C260.784 12.398 259.196 12.931 257.759 13.747C256.322 14.563 255.065 15.6461 254.06 16.9342C253.054 18.2223 252.321 19.6902 251.9 21.2538C251.48 22.8175 251.382 24.4462 251.611 26.0469V36.5532C251.611 37.1663 251.36 37.7542 250.913 38.1876C250.467 38.6211 249.861 38.8646 249.23 38.8646C248.598 38.8646 247.992 38.6211 247.546 38.1876C247.099 37.7542 246.848 37.1663 246.848 36.5532V9.76208H246.524Z" fill="#696566"/>
<path d="M279.75 39.0747C277.661 39.0629 275.596 38.6409 273.68 37.834C271.764 37.0271 270.036 35.852 268.6 34.3795C267.164 32.9071 266.05 31.1677 265.325 29.2662C264.6 27.3647 264.279 25.3403 264.381 23.3152V23.3152C264.25 21.3437 264.526 19.3666 265.193 17.5002C265.86 15.6339 266.905 13.9159 268.267 12.4475C269.628 10.979 271.278 9.78976 273.12 8.94966C274.962 8.10956 276.959 7.6356 278.992 7.55566C280.983 7.57798 282.947 7.99792 284.764 8.78935C286.58 9.58078 288.209 10.7267 289.549 12.1559C290.889 13.585 291.912 15.2666 292.554 17.0961C293.195 18.9256 293.442 20.8638 293.278 22.7899C293.278 23.3471 293.05 23.8816 292.644 24.2757C292.238 24.6697 291.688 24.8911 291.114 24.8911H269.035C269.035 27.6776 270.175 30.3499 272.205 32.3202C274.235 34.2905 276.987 35.3975 279.858 35.3975C283.172 35.4241 286.362 34.1778 288.733 31.9304C288.975 31.5309 289.36 31.2318 289.815 31.0899C290.08 31.0756 290.345 31.1139 290.594 31.2025C290.843 31.2911 291.07 31.4281 291.263 31.6052C291.455 31.7823 291.609 31.9956 291.713 32.2322C291.818 32.4687 291.872 32.7236 291.871 32.981C291.876 33.2672 291.809 33.5501 291.677 33.8061C291.545 34.0621 291.352 34.2836 291.114 34.4519C289.626 35.9683 287.826 37.1636 285.83 37.9601C283.835 38.7565 281.69 39.1363 279.533 39.0747M288.624 21.5291C288.727 20.2116 288.554 18.8875 288.115 17.6369C287.676 16.3863 286.98 15.2351 286.069 14.253C285.159 13.2709 284.053 12.4783 282.818 11.9231C281.583 11.3679 280.244 11.0616 278.884 11.0228C276.147 11.2092 273.585 12.3979 271.716 14.3484C269.847 16.2989 268.812 18.8655 268.819 21.5291H288.624Z" fill="#696566"/>
<path d="M214.055 29.6189C214.055 23.21 219.574 19.7429 227.475 19.7429C230.74 19.6986 233.992 20.1596 237.107 21.1087V20.0581C237.107 14.5948 233.644 11.7581 227.8 11.7581C225.269 11.6298 222.744 12.0984 220.44 13.1239H219.574C219.017 13.1536 218.47 12.9735 218.047 12.6212C217.623 12.2689 217.356 11.7715 217.302 11.2328C217.278 10.8235 217.391 10.4177 217.626 10.0767C217.86 9.73557 218.202 9.47761 218.6 9.34162C221.57 8.10606 224.788 7.53168 228.016 7.66061C229.842 7.51227 231.68 7.73458 233.413 8.3134C235.146 8.89221 236.736 9.81486 238.081 11.0226C239.227 12.192 240.108 13.5815 240.668 15.1015C241.227 16.6215 241.452 18.2384 241.328 19.848V36.6581C241.328 37.2433 241.089 37.8044 240.663 38.2182C240.236 38.632 239.658 38.8644 239.055 38.8644C238.767 38.8796 238.479 38.8356 238.209 38.7354C237.939 38.6352 237.694 38.4809 237.49 38.2827C237.286 38.0844 237.127 37.8467 237.024 37.5849C236.921 37.3231 236.875 37.0431 236.891 36.7632V33.8214C235.631 35.4524 233.997 36.7763 232.118 37.6881C230.24 38.5999 228.168 39.0746 226.068 39.0746C224.637 39.2345 223.188 39.1155 221.805 38.7246C220.422 38.3337 219.133 37.6787 218.014 36.798C216.895 35.9174 215.969 34.8287 215.289 33.596C214.609 32.3632 214.189 31.0111 214.055 29.6189ZM237.107 27.3075V24.3657C234.135 23.438 231.03 22.977 227.908 22.9999C222.064 22.9999 218.817 25.5214 218.817 29.3037C218.817 33.191 222.388 35.3973 226.717 35.3973C227.988 35.5891 229.286 35.5262 230.531 35.2124C231.776 34.8985 232.941 34.3405 233.955 33.5726C234.969 32.8048 235.81 31.8434 236.427 30.7478C237.044 29.6522 237.423 28.4456 237.54 27.2024" fill="#696566"/>
<path d="M92.7308 9.44679C92.5286 8.88885 92.2101 8.37732 91.7953 7.94408C91.3805 7.51084 90.8782 7.16517 90.3197 6.92861C89.7613 6.69205 89.1586 6.56967 88.5493 6.56909C87.94 6.56852 87.3372 6.68976 86.7782 6.92527C86.1338 7.09403 85.5383 7.40515 85.0383 7.83432C84.5383 8.26348 84.1472 8.79908 83.8957 9.39925C83.6442 9.99942 83.5391 10.6479 83.5886 11.2941C83.638 11.9402 83.8407 12.5665 84.1807 13.124L94.1378 34.1367C95.653 37.4987 97.3846 39.1797 100.415 39.1797C103.445 39.1797 105.177 37.2886 106.801 34.1367C106.801 34.1367 115.459 15.8557 115.459 15.6455C115.507 15.4744 115.592 15.315 115.707 15.1778C115.823 15.0406 115.968 14.9287 116.131 14.8494C116.294 14.7701 116.473 14.7251 116.656 14.7175C116.838 14.7098 117.021 14.7397 117.19 14.805C117.564 14.805 117.922 14.9489 118.185 15.2051C118.449 15.4612 118.597 15.8086 118.597 16.1708V34.0316C118.522 34.6587 118.582 35.2943 118.775 35.8973C118.968 36.5003 119.289 37.0573 119.717 37.5325C120.146 38.0077 120.672 38.3904 121.262 38.656C121.852 38.9217 122.493 39.0643 123.143 39.0747C123.775 39.0361 124.392 38.8728 124.956 38.5949C125.521 38.3169 126.021 37.9301 126.426 37.458C126.831 36.986 127.133 36.4386 127.313 35.8495C127.493 35.2603 127.547 34.6418 127.472 34.0316V19.4278C127.452 18.7651 127.579 18.106 127.845 17.4952C128.11 16.8844 128.508 16.3362 129.011 15.8878C129.514 15.4393 130.111 15.1012 130.76 14.8962C131.41 14.6913 132.097 14.6243 132.775 14.7C133.419 14.6685 134.061 14.7702 134.661 14.9981C135.261 15.226 135.804 15.5751 136.254 16.0221C136.704 16.4691 137.052 17.0039 137.273 17.591C137.494 18.1782 137.584 18.8043 137.537 19.4278V34.0316C137.462 34.6587 137.522 35.2943 137.715 35.8973C137.908 36.5003 138.229 37.0573 138.657 37.5325C139.086 38.0077 139.612 38.3904 140.202 38.656C140.792 38.9217 141.433 39.0643 142.083 39.0747C142.747 39.0773 143.403 38.9454 144.011 38.6872C144.619 38.4291 145.165 38.0505 145.613 37.5756C146.062 37.1008 146.403 36.5403 146.615 35.93C146.827 35.3197 146.905 34.6731 146.845 34.0316V19.4278C146.814 18.799 146.919 18.1708 147.153 17.5837C147.387 16.9965 147.744 16.4632 148.203 16.018C148.662 15.5729 149.211 15.2257 149.816 14.9987C150.421 14.7717 151.068 14.67 151.715 14.7C152.359 14.6685 153.001 14.7702 153.601 14.9981C154.201 15.226 154.744 15.5751 155.194 16.0221C155.644 16.4691 155.992 17.0039 156.213 17.591C156.434 18.1782 156.524 18.8043 156.477 19.4278V34.0316C156.477 35.2298 156.968 36.3789 157.841 37.2261C158.713 38.0734 159.897 38.5493 161.131 38.5493C162.366 38.5493 163.549 38.0734 164.422 37.2261C165.295 36.3789 165.785 35.2298 165.785 34.0316V17.4316C165.785 14.6452 164.645 11.9728 162.615 10.0025C160.586 8.03219 157.833 6.92527 154.962 6.92527C151.254 6.98787 147.718 8.45886 145.113 11.0227C143.96 9.53532 142.42 8.3721 140.652 7.65214C138.883 6.93217 136.949 6.68133 135.048 6.92527C131.559 7.23668 128.28 8.68015 125.741 11.0227C124.713 9.79763 123.429 8.79868 121.974 8.09223C120.518 7.38577 118.925 6.98799 117.299 6.92527C115.131 6.92323 113.013 7.55308 111.218 8.73321C109.424 9.91335 108.035 11.5894 107.233 13.5443L100.848 27.9379L92.7308 9.44679Z" fill="#696566"/>
<path d="M293.819 11.3379C293.819 10.8412 293.92 10.3494 294.116 9.89053C294.312 9.43164 294.599 9.01469 294.96 8.66347C295.322 8.31225 295.752 8.03365 296.224 7.84357C296.697 7.6535 297.204 7.55566 297.715 7.55566C298.227 7.55566 298.734 7.6535 299.206 7.84357C299.679 8.03365 300.109 8.31225 300.47 8.66347C300.832 9.01469 301.119 9.43164 301.315 9.89053C301.511 10.3494 301.612 10.8412 301.612 11.3379C301.612 11.8346 301.511 12.3265 301.315 12.7854C301.119 13.2442 300.832 13.6612 300.47 14.0124C300.109 14.3636 299.679 14.6422 299.206 14.8323C298.734 15.0224 298.227 15.1202 297.715 15.1202C297.204 15.1202 296.697 15.0224 296.224 14.8323C295.752 14.6422 295.322 14.3636 294.96 14.0124C294.599 13.6612 294.312 13.2442 294.116 12.7854C293.92 12.3265 293.819 11.8346 293.819 11.3379M300.854 11.3379C300.855 10.5199 300.527 9.73372 299.942 9.14555C299.356 8.55739 298.558 8.21331 297.715 8.18604C297.294 8.1858 296.877 8.26795 296.489 8.4276C296.101 8.58724 295.75 8.82111 295.457 9.11526C295.164 9.40941 294.935 9.75781 294.784 10.1397C294.633 10.5216 294.562 10.9291 294.577 11.3379V11.3379C294.562 11.742 294.632 12.1448 294.785 12.5211C294.937 12.8974 295.168 13.2392 295.462 13.5251C295.757 13.811 296.109 14.0349 296.497 14.1828C296.884 14.3307 297.299 14.3995 297.715 14.3848C298.51 14.3315 299.254 13.9871 299.796 13.4214C300.339 12.8557 300.64 12.1109 300.638 11.3379" fill="#696566"/>
</g>
<g clip-path="url(#clip1_16_487)">
<path d="M464.899 30.6861C463.944 32.1956 461.111 26.0651 458.74 29.3922C458.34 30.0083 456.646 35.2762 460.249 36.7857C464.376 38.5725 467.116 34.198 468.749 25.0793C468.749 24.6172 468.749 30.0391 469.026 29.8543C469.14 29.7949 469.267 29.7639 469.395 29.7639C469.524 29.7639 469.651 29.7949 469.765 29.8543C469.901 29.917 470.023 30.0066 470.124 30.1178C470.224 30.229 470.301 30.3594 470.35 30.5012C470.489 30.9069 470.541 31.3371 470.504 31.7643C470.361 32.473 470.176 33.1726 469.95 33.8591C469.209 35.5646 468.006 37.0285 466.477 38.0848C464.947 39.1411 463.153 39.7476 461.296 39.8356C455.66 39.8356 452.796 33.6743 452.55 32.8117C452.277 31.923 452.131 30.9997 452.119 30.0699C452.129 29.2306 452.275 28.3983 452.55 27.6054C452.712 27.022 453.007 26.4842 453.412 26.0343C453.751 25.7262 455.322 22.9536 461.111 24.4016C466.901 25.8495 465.33 30.1007 464.899 30.6861Z" fill="#0596DE"/>
<path d="M478.603 14.1123C478.603 14.1123 473.984 33.428 473.86 34.1981C473.614 36.0773 473.614 37.0631 475.092 37.556C477.248 38.2954 479.188 34.7834 479.188 34.7834C481.775 29.3923 480.574 28.9302 484.885 29.1151C485.47 29.1151 483.623 31.3947 483.53 31.9492C483.42 32.5251 483.266 33.0915 483.068 33.6436C482.773 34.5807 482.37 35.4801 481.867 36.3238C481.345 37.2187 480.703 38.0376 479.958 38.7575C479.638 39.0903 479.256 39.3569 478.833 39.5419C478.411 39.7269 477.956 39.8268 477.494 39.8357C475.843 39.9003 474.223 39.364 472.936 38.3262C471.657 37.3162 470.607 36.0456 469.857 34.5986C469.005 33.1099 468.46 31.4652 468.256 29.762C468.635 23.3051 469.857 16.9255 471.889 10.7852C472.06 10.5875 472.273 10.4317 472.514 10.3302C472.754 10.2287 473.015 10.1841 473.275 10.1999C474.007 10.3272 474.721 10.5445 475.4 10.8468C479.404 12.0483 478.48 14.1123 478.48 14.1123H478.603ZM520.793 31.2099C521.132 30.4089 521.655 30.1625 522.333 30.4705C523.01 30.7786 523.226 31.3947 523.072 32.4113C522.982 33.128 522.806 33.8313 522.548 34.5062C522.271 35.2455 520.947 39.4968 517.005 39.4968C513.063 39.4968 511.154 34.8142 510.846 33.9825C510.413 33.1887 510.062 32.3526 509.799 31.4872C509.575 30.6619 509.441 29.815 509.399 28.961C509.281 28.3401 509.281 27.7027 509.399 27.0818C509.399 26.6197 509.737 26.3733 510.169 26.4349L511.4 26.7738C511.864 26.9266 512.317 27.1119 512.755 27.3283C513.166 27.5278 513.558 27.765 513.926 28.0368C514.277 28.2909 514.571 28.6163 514.788 28.9918C515.002 29.5066 515.157 30.044 515.25 30.5938C515.25 31.2715 515.435 31.9801 515.558 32.6886C515.681 33.3972 515.804 34.0441 515.927 34.6294C516.05 35.2147 516.235 35.5844 516.512 35.7076C516.79 35.8309 516.974 35.7076 517.375 35.7076C517.846 35.4242 518.272 35.0711 518.637 34.6602C519.087 34.2037 519.509 33.7202 519.9 33.2123C520.314 32.5756 520.674 31.9059 520.978 31.2099H520.793Z" fill="#0596DE"/>
<path d="M465.423 18.8258C468.04 18.641 470.565 18.4254 473.06 18.1173C475.554 17.8092 473.707 18.1173 475.708 17.7168C477.71 17.3163 479.373 17.2547 480.697 17.0391C482.021 16.8234 482.822 16.7618 483.13 16.7618C483.808 16.7433 484.484 16.837 485.132 17.0391C485.864 17.2361 486.576 17.5044 487.257 17.84C487.837 18.0991 488.377 18.4416 488.858 18.8566C489.289 19.2571 489.412 19.5652 489.289 19.8733C489.166 20.1813 488.519 20.1813 487.318 20.2737L482.545 20.4586L475.524 20.6126C472.906 20.6126 479.897 19.9965 471.304 20.4278C462.712 20.8591 465.145 18.8258 465.145 18.8258H465.423ZM442.049 24.8023C442.742 24.7885 443.425 24.97 444.019 25.326C444.581 25.6188 445.011 26.1144 445.221 26.7123C446.443 26.8992 447.546 27.5502 448.3 28.5299C448.974 29.4281 449.389 30.4933 449.501 31.6105C450.46 31.5565 451.364 31.1428 452.032 30.4519C452.7 29.761 453.082 28.8437 453.104 27.8829C453.104 27.2976 453.751 29.6697 453.535 31.3333C453.228 32.4032 452.616 33.3605 451.774 34.0882C450.932 34.8158 449.896 35.2822 448.793 35.4305C448.177 35.4305 447.9 36.1083 447.592 36.7552C446.957 37.7943 446.043 38.6341 444.954 39.1788C443.865 39.7235 442.645 39.9511 441.433 39.8358C440.419 39.7148 439.444 39.3771 438.572 38.8456C437.701 38.314 436.954 37.6011 436.382 36.7552C435.721 35.969 435.351 34.9789 435.335 33.9518C435.253 32.9148 435.357 31.8714 435.643 30.8712C435.965 29.8105 436.442 28.8035 437.06 27.8829C437.601 27.0187 438.314 26.2744 439.154 25.6957C440.016 25.1318 441.019 24.8221 442.049 24.8023V24.8023ZM440.447 37.1249C440.909 37.7102 441.648 37.7102 442.695 37.1249C443.845 36.4415 444.833 35.5165 445.59 34.4139C444.639 33.7948 443.805 33.0126 443.126 32.1034C442.347 31.0901 441.763 29.9411 441.402 28.7147C440.503 30.2313 439.897 31.9033 439.616 33.6437C439.472 34.2486 439.473 34.8787 439.617 35.4832C439.762 36.0878 440.046 36.6501 440.447 37.1249V37.1249ZM487.595 24.8023C488.278 24.7926 488.95 24.974 489.536 25.326C490.097 25.6188 490.527 26.1144 490.737 26.7123C491.955 26.9081 493.055 27.5573 493.816 28.5299C494.49 29.4281 494.905 30.4933 495.017 31.6105C495.976 31.5565 496.88 31.1428 497.548 30.4519C498.216 29.761 498.599 28.8437 498.62 27.8829C498.62 27.2976 499.267 29.6697 499.051 31.3333C498.744 32.4032 498.132 33.3605 497.29 34.0882C496.448 34.8158 495.412 35.2822 494.309 35.4305C493.693 35.4305 493.416 36.1083 493.108 36.7552C492.473 37.7943 491.559 38.6341 490.47 39.1788C489.381 39.7235 488.161 39.9511 486.949 39.8358C485.935 39.7148 484.96 39.3771 484.088 38.8456C483.217 38.314 482.47 37.6011 481.898 36.7552C481.25 35.9616 480.882 34.9761 480.851 33.9518C480.781 32.913 480.895 31.8698 481.19 30.8712C481.487 29.8065 481.955 28.7973 482.576 27.8829C483.14 26.989 483.885 26.2229 484.762 25.6341C485.613 25.1028 486.593 24.8151 487.595 24.8023ZM485.994 37.1249C486.456 37.7102 487.195 37.7102 488.242 37.1249C489.392 36.4415 490.38 35.5165 491.137 34.4139C490.186 33.7948 489.352 33.0126 488.673 32.1034C487.894 31.0901 487.309 29.9411 486.949 28.7147C486.05 30.2313 485.444 31.9033 485.163 33.6437C485.019 34.2486 485.02 34.8787 485.164 35.4832C485.309 36.0878 485.593 36.6501 485.994 37.1249Z" fill="#0596DE"/>
<path d="M511.431 30.5322C511.031 30.255 509.214 26.1885 509.368 27.1127C509.553 28.7147 505.703 37.4945 502.778 35.985C499.852 34.4755 500.868 29.5156 501.053 29.2384C505.295 23.3658 508.072 16.5635 509.152 9.39902C509.383 8.66189 509.454 7.88397 509.359 7.11735C509.265 6.35074 509.008 5.61313 508.606 4.95392C508.203 4.29471 507.665 3.7291 507.026 3.29499C506.387 2.86087 505.663 2.56827 504.903 2.43676C499.575 1.57418 498.374 4.25434 497.85 5.51741C495.756 10.2308 496.465 27.0819 498.251 34.0134C498.651 35.6153 500.776 39.6202 503.548 39.6202C505.138 39.4341 506.648 38.8162 507.913 37.8333C509.178 36.8504 510.149 35.5401 510.723 34.0442L511.678 31.8877C511.924 31.1792 511.678 30.6863 511.431 30.409V30.5322ZM501.7 15.129C501.7 13.8043 501.7 12.5413 501.915 11.2474C501.987 10.1216 502.12 9.00054 502.316 7.8895C502.51 7.09795 502.821 6.33992 503.24 5.64063C503.343 5.40386 503.509 5.20055 503.722 5.05359C503.934 4.90663 504.183 4.82187 504.441 4.80886C505.18 4.80886 505.672 5.36337 505.919 6.28757C506.187 7.42727 506.27 8.60261 506.165 9.7687C506.026 11.306 505.769 12.8304 505.395 14.3281C505.026 15.9916 504.625 17.5935 504.225 19.1031C503.679 21.0769 502.926 22.9873 501.977 24.8022C501.823 20.1197 501.638 17.7784 501.7 15.3139V15.129ZM540.194 30.5322C540.103 30.4885 540.003 30.4658 539.902 30.4658C539.801 30.4658 539.701 30.4885 539.609 30.5322C539.417 30.6405 539.249 30.7874 539.117 30.9635C538.991 31.2467 538.805 31.4986 538.571 31.701C538.336 31.9034 538.06 32.0514 537.762 32.1342C537.067 32.3288 536.332 32.3288 535.637 32.1342C535.635 31.5884 535.541 31.0469 535.36 30.5322C535.19 29.9902 534.882 29.5018 534.466 29.1151C533.997 28.5799 533.373 28.2033 532.68 28.0369C532.114 27.9161 531.535 27.8644 530.956 27.8829C530.502 27.9229 530.066 28.0823 529.693 28.345C529.37 28.5892 529.142 28.9374 529.046 29.3308C528.926 29.7746 528.926 30.2425 529.046 30.6863C529.24 31.219 529.533 31.7102 529.909 32.1342C529.871 32.6315 529.799 33.1256 529.693 33.6129C529.609 34.1646 529.454 34.703 529.231 35.2148C529.07 35.6484 528.841 36.0539 528.554 36.4163C528.493 36.4826 528.419 36.5355 528.337 36.5718C528.255 36.608 528.166 36.6267 528.076 36.6267C527.987 36.6267 527.898 36.608 527.816 36.5718C527.733 36.5355 527.66 36.4826 527.599 36.4163C527.173 36.1502 526.865 35.7315 526.737 35.2456C526.552 34.6911 526.429 34.1058 526.275 33.4897C526.165 32.7345 526.103 31.973 526.09 31.21C526.932 29.9777 527.763 28.5914 528.585 27.0511C529.385 25.48 530.124 23.9705 530.802 22.1221C531.479 20.2737 532.064 18.6718 532.557 16.9466C533.057 15.3629 533.448 13.7469 533.727 12.11C534.002 10.7731 534.106 9.4066 534.035 8.04353C534.035 7.00975 533.747 5.99649 533.204 5.11692C532.703 4.42013 532.036 3.85903 531.264 3.48418C530.421 3.00945 529.521 2.64697 528.585 2.40595C527.742 2.15846 526.874 2.00351 525.998 1.94386C525.404 1.89711 524.807 1.97045 524.242 2.1595C522.961 2.78785 521.977 3.89392 521.501 5.24015C520.758 7.01433 520.25 8.87872 519.992 10.7853C519.67 13.0409 519.495 15.3152 519.469 17.5935C519.469 19.9964 519.469 22.2761 519.715 24.4326C519.861 26.3253 520.118 28.2078 520.485 30.0701C520.626 31.2191 520.992 32.3289 521.563 33.3356C522.056 34.1058 525.382 39.4969 530.032 39.4969C534.682 39.4969 535.698 34.2598 534.682 34.1058C535.854 34.2023 537.026 33.9149 538.02 33.2869C539.014 32.659 539.778 31.7246 540.194 30.6247V30.5322ZM525.474 15.5603C525.474 14.2664 525.628 12.9726 525.72 11.6787C525.782 10.5486 525.936 9.42546 526.182 8.32079C526.343 7.49471 526.645 6.70261 527.076 5.9795C527.205 5.73532 527.395 5.52808 527.626 5.37721C527.858 5.22634 528.124 5.13678 528.4 5.11692C528.804 5.1509 529.186 5.31715 529.487 5.58998C529.787 5.86281 529.99 6.22705 530.063 6.62644C530.343 7.75367 530.437 8.91923 530.34 10.0768C530.222 11.6147 529.975 13.1399 529.601 14.6361L528.338 19.4419C527.955 20.8548 527.461 22.2352 526.86 23.57C526.499 24.4705 526.077 25.3454 525.597 26.1885C525.413 22.1529 525.382 18.641 525.474 15.5603ZM532.434 30.9635L532.034 30.5939C531.897 30.4952 531.781 30.3693 531.695 30.2242C531.605 30.141 531.541 30.0342 531.51 29.9161C531.51 29.9161 531.51 29.7621 531.51 29.7313C531.53 29.7056 531.556 29.6849 531.585 29.6707C531.615 29.6564 531.647 29.649 531.679 29.649C531.712 29.649 531.744 29.6564 531.774 29.6707C531.803 29.6849 531.829 29.7056 531.849 29.7313L532.28 30.0085C532.456 30.1619 532.612 30.338 532.742 30.5322L533.173 31.1176C533.307 31.2775 533.421 31.4534 533.512 31.6413C533.593 31.765 533.655 31.8999 533.697 32.0418C533.246 31.718 532.814 31.3683 532.403 30.9943L532.434 30.9635Z" fill="#0596DE"/>
<path d="M514.85 19.3803C514.826 19.8862 514.654 20.3738 514.355 20.7829C514.057 21.1919 513.645 21.5043 513.171 21.6814C512.696 21.8585 512.18 21.8925 511.687 21.7792C511.194 21.6659 510.744 21.4102 510.395 21.0438C510.045 20.6775 509.811 20.2166 509.72 19.7183C509.63 19.22 509.688 18.7061 509.887 18.2404C510.086 17.7747 510.417 17.3776 510.839 17.0983C511.262 16.8191 511.757 16.6699 512.263 16.6693C512.963 16.6934 513.625 16.9906 514.109 17.4973C514.592 18.004 514.858 18.6799 514.85 19.3803ZM392.375 23.1079C392.333 23.2147 392.281 23.3178 392.221 23.4159C392.221 23.6316 392.036 23.9397 391.882 24.3401C391.452 25.3879 391.152 26.4847 390.989 27.6056C390.926 28.3539 390.926 29.1062 390.989 29.8545V31.0868C390.959 31.2393 390.959 31.3963 390.989 31.5489C390.976 31.7026 390.976 31.8572 390.989 32.011C391.811 33.7382 393.089 35.2082 394.685 36.2622C396.928 37.7956 399.31 39.1158 401.799 40.2055C404.579 41.5852 407.546 42.5504 410.606 43.0705C412.239 43.3171 413.9 43.3171 415.534 43.0705C416.37 42.9763 417.195 42.8009 417.997 42.5468C418.811 42.3031 419.604 41.994 420.368 41.6226C421.891 40.8529 423.259 39.8085 424.403 38.5419C425.507 37.3095 426.401 35.9047 427.051 34.383C427.39 33.6129 427.636 32.8735 427.913 32.0726C428.191 31.2716 428.314 30.5014 428.529 29.608V28.9611V28.345C428.529 27.9445 428.745 27.5132 428.807 27.1127C428.868 26.7122 428.991 26.2501 429.053 25.8497C429.114 25.4492 429.207 25.0179 429.268 24.6174C429.834 21.5628 429.834 18.4301 429.268 15.3755C429.035 14.0966 428.61 12.8605 428.006 11.7095C427.724 11.1941 427.405 10.6999 427.051 10.2308C426.822 9.80629 426.554 9.40406 426.25 9.02933C424.396 7.45456 422.204 6.32682 419.845 5.73304C417.621 5.10323 415.342 4.69055 413.039 4.50078C410.853 4.28514 409.066 4.22353 407.465 4.16191C405.864 4.1003 404.632 4.16191 403.77 4.16191H402.137V3.69982H402.415C402.415 3.69982 402.815 3.48417 403.646 3.1453C404.769 2.6089 405.92 2.1358 407.096 1.7282C409.002 1.1632 410.947 0.741012 412.916 0.465138C415.563 0.120996 418.244 0.120996 420.892 0.465138C422.478 0.646599 424.038 1.00834 425.542 1.54336C425.943 1.54336 426.374 1.85143 426.743 2.00546C427.161 2.16311 427.563 2.35905 427.944 2.59078C428.787 3.02394 429.59 3.52898 430.346 4.1003C431.141 4.71532 431.873 5.40662 432.533 6.16433C433.187 6.95612 433.774 7.80109 434.288 8.69046C434.777 9.59517 435.179 10.5441 435.489 11.5247C435.643 12.0176 435.766 12.5105 435.92 13.0342C436.074 13.5579 436.074 14.02 436.167 14.5129C436.413 16.4768 436.413 18.4638 436.167 20.4277C435.941 22.3349 435.56 24.2204 435.027 26.0653C435.027 26.5274 434.75 26.9587 434.627 27.4208C434.504 27.8829 434.35 28.3142 434.165 28.7455C433.98 29.1768 433.826 29.6389 433.641 30.101L433.364 30.7479L433.087 31.3948L432.502 32.6887C432.286 33.1508 432.071 33.5821 431.825 34.0134C431.349 34.8911 430.814 35.7352 430.223 36.5395C429.035 38.1387 427.625 39.5599 426.035 40.76C424.493 41.904 422.818 42.8557 421.046 43.5942L419.753 44.0563L418.428 44.4876C417.535 44.734 416.642 44.9497 415.718 45.1345C413.945 45.4614 412.157 45.6979 410.36 45.8431C406.88 46.1257 403.377 45.8554 399.982 45.0421C396.837 44.2671 393.902 42.8047 391.39 40.76C390.219 39.8051 389.183 38.6963 388.31 37.4637C387.381 36.2388 386.749 34.8153 386.462 33.3048C386.417 32.9159 386.417 32.5231 386.462 32.1342C386.343 31.7529 386.26 31.3608 386.216 30.9635C386.201 30.6659 386.201 30.3678 386.216 30.0701C386.27 29.7885 386.342 29.5106 386.432 29.2384C386.688 28.2292 387.093 27.2638 387.633 26.3734C388.355 25.1621 389.319 24.1132 390.466 23.2927C390.626 23.1586 390.802 23.0447 390.989 22.9539L391.39 22.769H391.698H391.975H392.375V23.1079Z" fill="#0596DE"/>
<path d="M413.593 11.463C412.238 18.3636 410.852 25.2951 409.559 32.1957C409.097 34.4446 413.839 31.8568 414.116 30.3165C415.471 23.4159 416.796 16.4844 418.151 9.58377C418.613 7.30409 413.901 9.92264 413.593 11.463V11.463Z" fill="#0596DE"/>
</g>
<g clip-path="url(#clip2_16_487)">
<path fill-rule="evenodd" clip-rule="evenodd" d="M733.436 23.9436H748.171C748.171 19.0102 745.064 15.573 741.072 15.573C737.08 15.573 733.932 18.3632 733.436 23.9436ZM751.842 41.2374C749.181 42.3481 746.324 42.9074 743.443 42.8819C738.795 42.8819 734.642 41.9788 731.722 39.0403C728.801 36.1018 727.703 31.7211 727.703 27.0438C727.534 22.9533 728.913 18.9505 731.561 15.8426C732.789 14.4219 734.315 13.2933 736.03 12.5381C737.744 11.7828 739.603 11.4199 741.474 11.4753C743.143 11.3879 744.81 11.6946 746.34 12.371C747.871 13.0474 749.223 14.0747 750.288 15.3708C752.364 17.9453 753.396 21.6251 753.396 26.3833V28.0413H733.544C733.437 29.4204 733.618 30.8067 734.075 32.1115C734.531 33.4162 735.254 34.6105 736.196 35.6181C737.138 36.6256 738.279 37.424 739.545 37.9623C740.811 38.5005 742.175 38.7667 743.55 38.7438C745.626 38.7438 750.462 37.2476 751.976 35.5761L751.842 41.2374V41.2374ZM685.775 42.2079V12.1627H690.637V16.503C692.781 12.1492 695.902 11.1113 700.014 11.5022C700.564 11.5022 701.14 11.5022 701.742 11.637V16.22C700.331 15.9502 698.881 15.9502 697.469 16.22C693.705 16.867 690.946 22.5687 690.946 25.8846V42.2079H685.775ZM663.712 42.8954C661.73 43.0043 659.748 42.684 657.899 41.9562C656.05 41.2284 654.378 40.1099 652.996 38.6764C650.25 35.5086 648.838 31.3897 649.058 27.1921C648.833 23.002 650.247 18.8898 652.996 15.7347C654.378 14.3011 656.05 13.1827 657.899 12.4549C659.748 11.727 661.73 11.4068 663.712 11.5157C665.694 11.4085 667.676 11.7296 669.525 12.4573C671.373 13.1851 673.045 14.3026 674.429 15.7347C677.108 18.5519 678.354 22.3665 678.354 27.1921C678.354 32.0176 677.041 35.8322 674.362 38.6629C672.986 40.0863 671.325 41.1986 669.489 41.9261C667.652 42.6535 665.683 42.9793 663.712 42.8819V42.8954ZM663.712 38.8516C664.948 38.9103 666.18 38.6648 667.3 38.1363C668.421 37.6078 669.396 36.8123 670.142 35.8188C671.801 33.2835 672.6 30.276 672.419 27.246C672.604 24.224 671.804 21.2239 670.142 18.7002C669.396 17.7066 668.421 16.9111 667.3 16.3826C666.18 15.8541 664.948 15.6086 663.712 15.6673C662.478 15.6062 661.247 15.8507 660.129 16.3794C659.01 16.9082 658.037 17.7051 657.296 18.7002C655.645 21.2283 654.85 24.2262 655.032 27.246C654.854 30.2738 655.648 33.2791 657.296 35.8188C658.045 36.8015 659.02 37.5853 660.139 38.1022C661.257 38.619 662.484 38.8531 663.712 38.7842V38.8516ZM644.383 42.2079C642.973 42.6326 641.513 42.8638 640.042 42.8954C638.866 42.9682 637.687 42.7951 636.581 42.3868C635.474 41.9785 634.463 41.3439 633.612 40.523C632.812 39.6309 632.196 38.5876 631.801 37.4536C631.405 36.3197 631.238 35.1179 631.308 33.9182V16.2604H624.798V12.2166H631.308V5.04569L636.72 3.11816V12.1627H644.061V16.2065H636.72V32.8938C636.72 36.8297 638.408 38.7842 641.77 38.7842C642.651 38.7608 643.527 38.6434 644.383 38.4337V42.2079ZM707.677 42.2079V12.1627H712.539V16.503C714.683 12.1492 717.804 11.1113 721.916 11.5022C722.465 11.5022 723.055 11.5022 723.658 11.637V16.22C722.246 15.9502 720.796 15.9502 719.384 16.22C715.607 16.867 712.847 22.5687 712.847 25.8846V42.2079H707.677Z" fill="black"/>
</g>
<path d="M863.22 24.2573C863.198 24.2573 863.22 35.6687 863.22 35.6687C863.22 37.1041 861.999 38.3619 860.401 38.3619H858.87V38.9431H871.83V38.3619H870.299C868.723 38.3619 867.481 37.0835 867.481 35.6687V24.0782V10.2451C867.481 8.85376 868.701 7.55485 870.299 7.55485H871.83V6.9707H858.87V7.55485H860.401C862.021 7.55485 863.22 8.85376 863.22 10.2451V22.6428H847.864V10.2451C847.864 8.85376 849.106 7.55485 850.682 7.55485H852.212V6.9707H839.252V7.55485H840.785C842.381 7.55485 843.603 8.85376 843.603 10.2451V24.0782V35.6687C843.603 37.0835 842.381 38.3619 840.785 38.3619H839.252V38.9431H852.212V38.3619H850.682C849.106 38.3619 847.864 37.0835 847.864 35.6687C847.864 35.6687 847.884 24.2573 847.864 24.2573H863.22V24.2573Z" fill="#1A1818"/>
<path d="M894.041 30.5776C894.153 32.4562 893 35.308 891.4 36.7639C889.863 38.1671 887.672 39.3882 884.743 39.3882C881.415 39.3882 878.552 37.5947 877.509 37.191C876.877 36.9459 876.049 36.9723 875.555 37.2806C874.978 37.6402 874.623 38.2214 874.49 39.2987H874.002V28.2219H874.49C874.934 31.6299 876.509 33.6319 877.487 34.7693C879.085 36.6304 882.102 37.6842 885.009 37.213C887.319 36.8388 889.847 34.307 889.57 31.1705C889.471 30.0389 889.225 28.3922 886.896 26.8555C885.435 25.8897 883.359 24.5204 881.392 23.2009C878.909 21.538 876.656 19.7371 876.022 19.0077C875.191 18.0522 874.157 16.677 874.157 14.4784C874.157 12.5953 874.867 10.4436 876.377 9.00823C877.886 7.57428 879.927 6.49846 882.856 6.49846C885.787 6.49846 888.006 8.06743 888.76 8.42555C889.514 8.78367 890.348 8.70001 890.823 8.42555C891.29 8.15549 891.601 7.75187 891.734 6.67605H892.222V17.1701H891.734C891.29 13.7606 889.825 11.2068 888.804 10.2646C887.784 9.32231 885.787 8.02193 882.813 8.60461C879.959 9.1638 878.571 10.4671 878.308 12.7743C878.107 14.5327 879.051 15.6144 879.595 16.2719C880.705 17.6163 887.746 21.6481 890.935 24.4338C892.578 25.8677 893.865 27.5732 894.041 30.5776" fill="#1A1818"/>
<path d="M904.358 37.1352C906.55 37.8206 910.724 38.3475 913.632 36.2413C917.122 33.7183 917.857 27.5525 912.932 24.3397C910.949 23.0452 906.001 23.1347 904.358 23.5252V37.1352ZM904.358 21.7228C905.911 22.125 910.484 22.2336 912.258 21.0946C915.039 19.3114 916.003 16.4494 915.49 13.919C915.182 12.3985 914.386 10.9954 913.012 10.0194C910.305 8.0908 906.4 8.40342 904.358 9.0316V21.7228V21.7228ZM914.566 22.6181C920.208 24.5746 921.816 28.5975 920.768 32.7423C919.539 37.6151 914.1 38.6058 912.336 38.8421C911.54 38.9463 909.508 38.9375 907.499 38.9375C903.913 38.9419 899.378 38.9302 895.736 38.9302V38.3475H897.601C898.786 38.3475 900.14 37.3377 900.14 35.8142V10.288C900.14 8.76301 898.786 7.73268 897.611 7.73268H895.747V7.14854C898.964 7.14854 903.649 7.14707 906.999 7.14854C909.705 7.14854 911.176 7.41126 912.126 7.59766C913.722 7.91028 918.384 9.30166 919.493 13.6945C920.351 17.0966 918.672 21.3852 914.566 22.6181" fill="#1A1818"/>
<path d="M950.434 7.53025L950.89 18.3589L950.246 18.3824C949.935 15.6452 948.914 13.7181 947.627 12.4617C947.256 12.1007 946.553 11.3698 945.539 10.724C943.85 9.64814 941.336 8.69707 938.351 9.23425C933.868 10.0415 931.559 13.0341 930.406 15.9152C928.985 19.4568 928.086 25.514 930.496 30.6245C932.45 34.7723 936.207 36.4997 939.105 36.9459C941.575 37.3261 947.05 37.2086 951.223 31.5213L951.888 31.9689C948.647 36.5878 944.342 39.5467 939.416 39.5012C933.114 39.4454 929.153 35.9361 927.343 33.852C925.434 31.6549 923.97 27.4851 923.951 23.8526C923.936 20.6236 924.641 17.0307 925.789 14.9289C927.765 11.3199 931.892 7.73279 937.328 7.19414C941.4 6.79199 944.076 7.59776 946.363 8.92016C947.505 9.58209 948.147 9.65841 948.769 9.39129C949.389 9.12123 949.89 8.58406 949.89 7.53025H950.434V7.53025Z" fill="#1A1818"/>
<path d="M1008.76 38.9402H977.137V7.00442H1008.76V38.9402Z" fill="white"/>
<path d="M961.323 22.9721L977.134 38.9436V6.99908L961.323 22.9721V22.9721Z" fill="#E71D1C"/>
<path d="M977.136 38.9426H1008.76L992.945 22.9711L977.136 38.9426Z" fill="#E71D1C"/>
<path d="M992.946 22.9714L1008.76 6.99844H977.137L992.946 22.9714V22.9714Z" fill="#E71D1C"/>
<path d="M1008.76 6.99883V38.9434L1024.57 22.9718L1008.76 6.99883Z" fill="#E71D1C"/>
<defs>
<clipPath id="clip0_16_487">
<rect width="217.431" height="32.1494" fill="white" transform="translate(84.1806 6.92529)"/>
</clipPath>
<clipPath id="clip1_16_487">
<rect width="153.979" height="45.686" fill="white" transform="translate(386.216 0.156982)"/>
</clipPath>
<clipPath id="clip2_16_487">
<rect width="128.598" height="39.7637" fill="white" transform="translate(624.798 3.11816)"/>
</clipPath>
</defs>
</svg>
