<svg width="33rem" height="28rem" viewBox="0 0 666 508" fill="none" xmlns="http://www.w3.org/2000/svg">
<g clip-path="url(#clip0_16_226)">
<path d="M489.486 486.98C440.033 483.709 390.431 483.341 340.936 485.878L338.67 486.831C359.492 499.446 385.711 496.091 409.888 499.31C424.433 501.253 438.595 505.71 453.215 506.886C467.835 508.062 483.717 505.425 494.252 495.225C494.866 494.747 495.377 494.149 495.753 493.468C496.13 492.787 496.364 492.037 496.443 491.263C496.406 488.255 492.494 487.178 489.486 486.98Z" fill="#455A64" fill-opacity="0.32"/>
<path d="M189.403 485.308C184.748 482.61 179.177 482.176 173.817 481.805L144.429 479.787C136.42 479.23 128.2 478.698 120.475 480.938C112.751 483.179 105.497 488.774 103.603 496.586V496.846C117.529 499.705 131.518 502.565 145.692 503.308C159.866 504.05 174.411 502.59 187.509 497.118C190.269 495.954 193.339 494.06 193.463 491.077C193.55 488.576 191.519 486.546 189.403 485.308Z" fill="#455A64" fill-opacity="0.32"/>
<path d="M40.5672 198.829L30.0326 202.06C30.0326 202.06 32.7436 210.911 23.5954 213.882C21.847 214.487 19.9538 214.531 18.179 214.01C16.4041 213.488 14.8358 212.427 13.692 210.973C12.7153 209.763 12.0371 208.341 11.7124 206.82C11.3877 205.3 11.4255 203.724 11.8228 202.221C12.7141 198.73 15.7965 194.794 23.2859 193.915L15.9946 170.171L5.58368 173.365L9.90402 187.279C9.90402 187.279 -3.55216 195.536 1.38714 211.629C6.11598 227.029 21.0205 226.373 26.9378 224.553C31.3943 223.167 46.4597 217.361 40.5672 198.829Z" fill="#B7C5D5"/>
<path d="M3.95267 168.51L14.5214 165.269L11.4943 155.399L0.925544 158.64L3.95267 168.51Z" fill="#B7C5D5"/>
<path d="M252.537 377.214L246.595 379.034C246.808 379.709 246.883 380.42 246.815 381.125C246.747 381.83 246.537 382.514 246.199 383.135C245.86 383.757 245.399 384.304 244.844 384.744C244.289 385.184 243.651 385.507 242.968 385.694C241.981 386.036 240.912 386.063 239.909 385.771C238.906 385.478 238.019 384.88 237.372 384.059C236.819 383.375 236.435 382.57 236.253 381.71C236.07 380.849 236.093 379.958 236.32 379.108C236.827 377.127 238.573 374.948 242.782 374.428L238.684 361.034L232.73 362.903L235.206 370.752C233.011 372.197 231.351 374.323 230.483 376.804C229.615 379.285 229.587 381.982 230.403 384.48C233.064 393.146 241.47 392.799 244.8 391.772C247.337 390.93 255.842 387.662 252.537 377.214Z" fill="#B7C5D5"/>
<path d="M231.875 360.099L237.84 358.27L236.134 352.708L230.169 354.537L231.875 360.099Z" fill="#B7C5D5"/>
<path d="M548.063 12.7083L554.253 12.3864C554.215 11.68 554.318 10.9731 554.558 10.3076C554.798 9.64204 555.169 9.03144 555.65 8.51196C556.13 7.99247 556.709 7.57468 557.354 7.28332C557.999 6.99197 558.695 6.83299 559.403 6.8158C560.454 6.71348 561.511 6.94407 562.423 7.47497C563.336 8.00588 564.06 8.81025 564.49 9.77443C564.859 10.572 565.033 11.4456 564.999 12.3236C564.964 13.2016 564.722 14.0588 564.292 14.8251C563.327 16.6077 561.111 18.3037 556.865 17.7714L557.57 31.7722L563.76 31.4628L563.253 23.2677C565.734 22.4005 567.861 20.7425 569.308 18.5484C570.755 16.3544 571.442 13.7458 571.262 11.1238C570.804 2.04982 562.596 0.353868 559.081 0.527177C556.432 0.663348 547.395 1.7651 548.063 12.7083Z" fill="#B7C5D5"/>
<path d="M563.897 34.355L557.666 34.6685L557.958 40.4793L564.189 40.1658L563.897 34.355Z" fill="#B7C5D5"/>
<path d="M221.205 17.053L227.394 16.7435C227.354 16.0371 227.457 15.3299 227.695 14.6637C227.933 13.9975 228.303 13.386 228.782 12.8654C229.261 12.3447 229.84 11.9255 230.484 11.6327C231.128 11.3398 231.824 11.1793 232.532 11.1605C233.573 11.0716 234.616 11.3086 235.516 11.8387C236.417 12.3688 237.13 13.1657 237.558 14.1192C237.925 14.9166 238.1 15.7892 238.068 16.6667C238.035 17.5441 237.797 18.4016 237.372 19.1699C236.406 20.9648 234.178 22.6484 229.944 22.1285L230.65 36.117L236.84 35.8075L236.444 27.6125C238.925 26.7453 241.052 25.0872 242.499 22.8932C243.946 20.6991 244.633 18.0906 244.453 15.4685C243.995 6.39454 235.787 4.6986 232.272 4.8719C229.573 5.00807 220.536 6.10982 221.205 17.053Z" fill="#B7C5D5"/>
<path d="M237.032 38.7002L230.801 39.0137L231.093 44.8245L237.324 44.5111L237.032 38.7002Z" fill="#B7C5D5"/>
<path d="M249.108 199.423L255.842 204.375C255.842 204.375 260.001 198.718 265.956 202.939C267.116 203.731 268 204.865 268.486 206.182C268.972 207.5 269.035 208.937 268.667 210.292C268.374 211.435 267.816 212.493 267.037 213.379C266.258 214.265 265.281 214.955 264.185 215.392C261.71 216.432 257.897 216.308 253.948 212.174L242.807 227.351L249.467 232.24L256.003 223.352C256.003 223.352 267.144 227.809 274.683 217.509C281.925 207.606 274.77 198.94 270.969 196.118C268.073 193.989 257.724 187.453 249.108 199.423Z" fill="#1CBEF5"/>
<path d="M247.244 235.433L240.491 230.469L235.85 236.783L242.602 241.747L247.244 235.433Z" fill="#1CBEF5"/>
<path d="M422.503 26.6355L429.237 31.5871C429.237 31.5871 433.384 25.9298 439.339 30.1511C440.502 30.9403 441.39 32.0731 441.878 33.3915C442.367 34.7098 442.431 36.1478 442.062 37.5044C441.767 38.6478 441.206 39.7055 440.425 40.5917C439.644 41.4778 438.666 42.1674 437.569 42.6046C435.093 43.6568 431.28 43.5207 427.331 39.386L416.19 54.5629L422.837 59.5146L429.374 50.6139C429.374 50.6139 440.515 55.0704 448.054 44.7833C455.296 34.88 448.153 26.2146 444.34 23.3797C441.468 21.2381 431.107 14.6648 422.503 26.6355Z" fill="#1CBEF5"/>
<path d="M420.645 62.603L413.893 57.6392L409.252 63.9528L416.004 68.9166L420.645 62.603Z" fill="#1CBEF5"/>
<path d="M282.134 287.229V322.262H202.696V471.765H164.21V126.386H301.383V161.407H202.696V287.229H282.134Z" fill="#5450D6"/>
<path d="M338.992 402.194L325.672 471.765H290.156L356.261 126.386H411.967L478.084 471.765H439.647L426.327 402.194H338.992ZM343.944 369.142H420.893L381.923 169.788L343.944 369.142Z" fill="#5450D6"/>
<path d="M653.113 209.773V388.379C653.113 409.597 648.681 428.339 639.793 442.155C643.742 450.548 650.154 453.011 661.011 453.011H665.962V487.054H659.55C637.837 487.054 623.527 479.168 615.629 464.858C604.772 471.27 590.474 475.219 573.688 475.219C520.903 475.219 494.746 440.681 494.746 388.379V209.773C494.746 156.975 520.903 122.933 573.688 122.933C626.968 122.933 653.113 156.975 653.113 209.773ZM532.725 207.792V390.348C532.725 421.927 546.045 440.186 573.676 440.186C601.801 440.186 614.638 421.927 614.638 390.348V207.792C614.638 176.708 601.801 157.966 573.676 157.966C546.045 157.966 532.725 176.708 532.725 207.792Z" fill="#5450D6"/>
<g opacity="0.3">
<path d="M282.133 287.228V322.262H202.696V471.765H164.209V126.386H301.383V161.406H202.696V287.228H282.133Z" fill="black"/>
<path d="M338.991 402.194L325.671 471.765H290.155L356.26 126.386H411.966L478.083 471.765H439.646L426.326 402.194H338.991ZM343.942 369.142H420.891L381.922 169.787L343.942 369.142Z" fill="black"/>
<path d="M653.112 209.772V388.379C653.112 409.597 648.681 428.339 639.792 442.154C643.741 450.547 650.154 453.011 661.01 453.011H665.962V487.053H659.55C637.837 487.053 623.526 479.168 615.628 464.857C604.772 471.27 590.474 475.219 573.688 475.219C520.903 475.219 494.746 440.681 494.746 388.379V209.772C494.746 156.975 520.903 122.932 573.688 122.932C626.968 122.932 653.112 156.975 653.112 209.772ZM532.725 207.791V390.347C532.725 421.927 546.045 440.186 573.675 440.186C601.801 440.186 614.638 421.927 614.638 390.347V207.791C614.638 176.707 601.801 157.965 573.675 157.965C546.045 157.965 532.725 176.707 532.725 207.791Z" fill="black"/>
</g>
<path d="M315.087 402.194L301.767 471.765H266.239L332.356 126.386H388.062L454.18 471.765H415.742L402.422 402.194H315.087ZM320.039 369.142H397.013L358.018 169.788L320.039 369.142Z" fill="#5450D6"/>
<path d="M266.561 287.39V322.423H187.123V471.964H148.636V126.584H285.798V161.618H187.123V287.39H266.561Z" fill="#5450D6"/>
<path d="M629.207 209.401V388.045C629.207 409.263 624.763 428.018 615.887 441.833C619.836 450.214 626.249 452.69 637.105 452.69H642.057V486.695H635.645C613.931 486.695 599.621 478.797 591.736 464.487C580.879 470.899 566.569 474.848 549.795 474.848C496.998 474.848 470.853 440.31 470.853 388.008V209.401C470.853 156.604 496.998 122.562 549.795 122.562C603.05 122.599 629.207 156.641 629.207 209.401ZM508.783 207.47V390.026C508.783 421.605 522.103 439.852 549.733 439.852C577.859 439.852 590.683 421.605 590.683 390.026V207.47C590.683 176.386 577.859 157.632 549.733 157.632C522.14 157.632 508.783 176.386 508.783 207.47Z" fill="#5450D6"/>
<path d="M92.5705 24.8403H21.1921V94.0028H45.6782L58.0202 107.744L68.2083 94.0028H92.5705V24.8403Z" fill="white"/>
<path d="M92.5706 24.8405C92.5706 24.8405 92.5706 25.249 92.5706 26.0785C92.5706 26.9079 92.5706 28.1458 92.5706 29.7922C92.5706 33.0232 92.5706 37.7396 92.6325 43.7559C92.6325 55.8628 92.7068 73.1812 92.7563 94.0649V94.3125H68.2084L68.4189 94.2135L58.2432 107.892L58.0451 108.165L57.8099 107.917C53.8857 103.535 49.7139 98.9052 45.4307 94.1763L45.6412 94.2754H20.8828V93.9906C20.8828 68.6381 20.8828 44.9938 20.8828 24.8282V24.5806H21.1304L72.9868 24.7044H87.4333H91.2213H92.4592H91.1223H87.2847L72.8877 24.9519L21.1923 25.0757L21.4399 24.8282C21.4399 44.9938 21.4399 68.6381 21.4399 93.9906L21.1551 93.7059H45.8021L45.8764 93.805L58.2556 107.546H57.8223L68.0227 93.805L68.097 93.7059H92.5954L92.3478 93.9535C92.3478 73.1317 92.4469 55.8751 92.4716 43.8054C92.4716 37.7644 92.4716 33.0232 92.4716 29.7798C92.4716 28.1705 92.4716 26.9326 92.4716 26.0661C92.4716 25.1995 92.5706 24.8405 92.5706 24.8405Z" fill="#263238"/>
<path d="M45.1451 50.7624H51.4956C51.4921 50.0399 51.6336 49.3241 51.9118 48.6573C52.1901 47.9906 52.5993 47.3865 53.1154 46.8808C53.6314 46.3752 54.2437 45.9783 54.916 45.7137C55.5883 45.449 56.3068 45.3221 57.0291 45.3403C58.0929 45.3052 59.1413 45.6022 60.0286 46.1901C60.916 46.7779 61.5983 47.6275 61.9808 48.6208C62.3169 49.4516 62.4517 50.3501 62.3743 51.243C62.2968 52.1358 62.0093 52.9977 61.5351 53.7582C60.4581 55.5284 58.0937 57.1377 53.8229 56.3949V70.7548H60.0991V62.3122C62.6724 61.5539 64.9257 59.9722 66.5134 57.8098C68.1011 55.6474 68.9354 53.0238 68.8884 50.3415C68.8884 41.0695 60.5695 38.9155 57.0167 38.9155C54.3057 38.9155 45.0213 39.5716 45.1451 50.7624Z" fill="#5450D6"/>
<path d="M60.1874 73.6392H53.8245V79.5812H60.1874V73.6392Z" fill="#5450D6"/>
<path d="M509.862 339.791C504.836 337.254 502.311 331.336 501.939 325.704C501.568 320.071 502.929 314.563 503.66 308.918C504.39 303.273 504.39 297.331 501.593 292.429C498.795 287.526 492.395 284.345 487.295 286.746L472.984 296.922C475.248 303.237 476.586 309.845 476.958 316.543C477.243 321.557 477.032 326.83 479.273 331.324C482.442 337.662 489.733 340.843 496.728 341.995L494.091 338.343C496.405 339.844 499.05 340.761 501.798 341.013C504.545 341.265 507.312 340.846 509.862 339.791Z" fill="#263238"/>
<path d="M462.338 269.7C468.528 269.056 473.789 271.768 478.74 275.568C483.761 279.611 487.43 285.089 489.259 291.27C491.088 297.451 490.99 304.043 488.978 310.168C487.882 313.275 486.169 316.128 483.942 318.556C481.714 320.983 479.019 322.934 476.017 324.292C467.76 327.82 457.646 325.741 450.862 319.873C444.079 314.005 440.563 304.808 440.811 295.833C440.884 289.586 442.924 283.522 446.641 278.502C448.511 276.029 450.869 273.967 453.569 272.444C456.27 270.922 459.254 269.971 462.338 269.651" fill="#263238"/>
<path d="M478.43 291.711C477.687 289.297 478.207 286.759 478.009 284.197C477.588 278.663 473.454 273.972 468.49 271.508C463.872 269.206 458.042 269.255 452.199 270.741C448.142 271.676 444.438 273.755 441.528 276.732C439.666 278.757 438.315 281.198 437.589 283.851C436.864 286.504 436.784 289.293 437.356 291.983L465.655 289.743C468.008 292.238 470.756 294.329 473.788 295.932C474.679 296.402 475.678 296.628 476.685 296.588C477.188 296.565 477.674 296.395 478.082 296.101C478.491 295.806 478.805 295.399 478.987 294.929C479.128 293.825 478.934 292.704 478.43 291.711Z" fill="#263238"/>
<path d="M451.085 278.439L475.225 285.223C476.362 285.376 477.401 285.949 478.138 286.828C478.875 287.707 479.258 288.83 479.211 289.977L475.497 342.947C475.235 346.562 473.791 349.99 471.387 352.702L468.911 355.562C467.587 357.078 465.906 358.24 464.019 358.943C462.133 359.645 460.101 359.867 458.108 359.586C456.114 359.306 454.222 358.533 452.602 357.338C450.983 356.142 449.687 354.562 448.832 352.739C448.612 352.288 448.454 351.809 448.362 351.316C448.362 350.833 448.201 350.511 448.201 350.078C447.957 347.399 447.994 344.702 448.312 342.031C448.374 337.302 448.424 335.359 448.424 335.396C448.424 335.433 438.52 333.477 436.762 320.405C435.908 313.906 436.515 303.297 437.295 294.631C437.901 286.857 443.323 277.412 451.085 278.439Z" fill="#FFBE9D"/>
<path d="M440.266 304.845C440.252 305.28 440.409 305.703 440.703 306.025C440.996 306.346 441.404 306.54 441.838 306.566C442.05 306.588 442.264 306.567 442.468 306.505C442.672 306.444 442.861 306.342 443.025 306.206C443.189 306.069 443.324 305.902 443.422 305.713C443.52 305.524 443.579 305.317 443.596 305.105C443.613 304.671 443.459 304.248 443.168 303.926C442.876 303.604 442.47 303.41 442.036 303.384C441.824 303.362 441.609 303.382 441.405 303.444C441.2 303.506 441.01 303.608 440.845 303.743C440.68 303.879 440.544 304.047 440.445 304.236C440.345 304.425 440.285 304.632 440.266 304.845Z" fill="#263238"/>
<path d="M439.35 300.239C439.56 300.462 440.848 299.558 442.643 299.608C444.438 299.657 445.737 300.598 445.935 300.388C446.133 300.177 445.836 299.893 445.267 299.459C444.505 298.898 443.588 298.587 442.643 298.568C441.708 298.536 440.788 298.805 440.018 299.336C439.461 299.769 439.251 300.14 439.35 300.239Z" fill="#263238"/>
<path d="M456.359 305.488C456.345 305.924 456.502 306.349 456.795 306.672C457.088 306.996 457.496 307.192 457.931 307.221C458.143 307.243 458.357 307.223 458.561 307.161C458.765 307.099 458.954 306.997 459.118 306.861C459.282 306.725 459.417 306.557 459.515 306.368C459.613 306.179 459.672 305.973 459.689 305.76C459.706 305.325 459.553 304.901 459.261 304.577C458.97 304.253 458.564 304.056 458.129 304.027C457.917 304.005 457.702 304.025 457.498 304.087C457.293 304.149 457.103 304.251 456.938 304.387C456.773 304.523 456.637 304.69 456.538 304.879C456.438 305.068 456.378 305.275 456.359 305.488Z" fill="#263238"/>
<path d="M456.408 300.92C456.606 301.143 457.893 300.24 459.688 300.289C461.483 300.339 462.783 301.279 462.981 301.057C463.179 300.834 462.882 300.561 462.313 300.128C461.551 299.568 460.634 299.26 459.688 299.249C458.754 299.22 457.835 299.489 457.064 300.017C456.507 300.425 456.309 300.809 456.408 300.92Z" fill="#263238"/>
<path d="M450.131 314.191C449.19 313.873 448.213 313.673 447.222 313.597C446.764 313.535 446.343 313.423 446.269 313.114C446.245 312.639 446.366 312.169 446.616 311.764L448.064 308.298C450.082 303.347 451.555 299.323 451.357 299.249C451.159 299.175 449.352 303.099 447.346 308.014C446.851 309.251 446.393 310.39 445.947 311.492C445.643 312.038 445.542 312.674 445.663 313.287C445.724 313.45 445.821 313.598 445.948 313.718C446.075 313.838 446.227 313.928 446.393 313.98C446.647 314.055 446.909 314.101 447.173 314.116C448.151 314.277 449.147 314.302 450.131 314.191Z" fill="#263238"/>
<path d="M448.324 335.421C454.454 335.682 460.536 334.233 465.89 331.237C465.89 331.237 461.26 340.137 448.262 338.565L448.324 335.421Z" fill="#EB996E"/>
<path d="M450.776 318.548C451.129 318.127 451.584 317.803 452.097 317.606C452.61 317.409 453.165 317.345 453.71 317.421C454.107 317.465 454.491 317.59 454.838 317.788C455.185 317.986 455.488 318.253 455.727 318.573C455.96 318.878 456.093 319.247 456.108 319.63C456.124 320.013 456.021 320.392 455.814 320.714C455.516 321.03 455.13 321.249 454.707 321.344C454.283 321.438 453.841 321.405 453.437 321.247C452.596 320.927 451.829 320.438 451.184 319.811C450.979 319.667 450.806 319.481 450.677 319.266C450.61 319.167 450.574 319.051 450.574 318.932C450.574 318.813 450.61 318.696 450.677 318.597" fill="#EB996E"/>
<path d="M455.392 315.577C455.095 315.577 455.045 317.508 453.337 318.845C451.629 320.182 449.623 319.91 449.536 320.182C449.45 320.455 449.982 320.578 450.861 320.628C452.004 320.671 453.125 320.312 454.03 319.613C454.897 318.943 455.47 317.962 455.627 316.877C455.726 316.06 455.553 315.577 455.392 315.577Z" fill="#263238"/>
<path d="M456.854 295.598C457.015 296.093 458.822 295.907 460.914 296.217C463.006 296.526 464.715 297.145 464.999 296.724C465.136 296.514 464.851 296.043 464.17 295.56C463.274 294.94 462.243 294.545 461.162 294.409C460.089 294.248 458.993 294.35 457.968 294.706C457.176 294.991 456.792 295.362 456.854 295.598Z" fill="#263238"/>
<path d="M440.08 292.342C440.39 292.762 441.64 292.342 443.125 292.342C444.611 292.342 445.874 292.688 446.171 292.267C446.307 292.069 446.171 291.648 445.576 291.252C444.851 290.749 443.984 290.489 443.101 290.509C442.217 290.501 441.353 290.764 440.625 291.265C440.13 291.772 439.956 292.193 440.08 292.342Z" fill="#263238"/>
<path d="M483.159 288.219C481.116 280.606 470.693 269.725 462.807 269.911L449.908 276.868C450.218 279.03 451.107 281.069 452.479 282.768C453.852 284.468 455.658 285.765 457.707 286.523C459.898 287.291 462.56 287.6 463.798 289.569C465.036 291.537 464.132 294.384 465.296 296.452C466.917 299.323 471.671 299.41 472.835 302.48C473.355 303.817 472.983 305.377 473.515 306.714C474.221 308.496 478.529 310.898 480.386 310.428C482.243 309.957 482.379 306.838 483.047 305.228C483.884 303.429 484.073 301.395 483.58 299.472C482.948 295.734 484.137 291.859 483.159 288.219Z" fill="#263238"/>
<path d="M474.939 311.703C474.939 310.725 476.177 308.472 477.106 308.348C479.668 308.014 484.273 308.348 484.149 314.847C483.976 323.723 475.088 321.705 475.088 321.458C475.088 321.21 474.84 315.045 474.939 311.703Z" fill="#FFBE9D"/>
<path d="M477.837 318.14C477.837 318.14 477.986 318.252 478.245 318.388C478.619 318.535 479.035 318.535 479.409 318.388C479.988 318.036 480.463 317.537 480.785 316.94C481.107 316.344 481.265 315.673 481.241 314.996C481.279 314.234 481.148 313.473 480.857 312.768C480.782 312.484 480.639 312.224 480.441 312.008C480.242 311.792 479.995 311.628 479.719 311.53C479.54 311.483 479.352 311.498 479.183 311.572C479.015 311.647 478.876 311.775 478.79 311.938C478.666 312.186 478.728 312.371 478.679 312.384C478.629 312.396 478.493 312.223 478.567 311.864C478.622 311.644 478.748 311.448 478.926 311.307C479.181 311.136 479.489 311.065 479.793 311.109C480.156 311.184 480.493 311.352 480.771 311.598C481.049 311.843 481.258 312.157 481.377 312.508C481.736 313.282 481.902 314.131 481.86 314.983C481.774 316.778 480.82 318.425 479.533 318.771C479.293 318.836 479.042 318.846 478.798 318.801C478.554 318.756 478.323 318.657 478.122 318.512C477.837 318.338 477.837 318.165 477.837 318.14Z" fill="#EB996E"/>
<path d="M490.438 300.536C490.749 299.691 490.916 298.8 490.933 297.9C491.269 293.521 490.112 289.158 487.653 285.52C487.193 284.748 486.602 284.061 485.907 283.49C487.6 285.976 488.903 288.706 489.77 291.586C490.435 294.52 490.66 297.536 490.438 300.536Z" fill="#5450D6"/>
<path d="M452.657 274.367C451.605 277.92 445.824 282.178 443.236 284.828C438.285 289.878 437.27 291.599 436.539 303.57C434.633 299.299 433.246 295.139 433.717 290.485C434.123 285.77 436.241 281.366 439.671 278.106C441.397 276.519 443.47 275.357 445.724 274.712C447.979 274.067 450.353 273.958 452.657 274.392" fill="#263238"/>
<path d="M487.741 288.405C487.242 288.539 486.732 288.63 486.218 288.677C485.723 288.752 485.116 288.838 484.411 288.875C483.705 288.913 482.888 289.012 481.997 288.999C479.895 289.036 477.793 288.92 475.708 288.653C473.16 288.296 470.643 287.742 468.181 286.994C465.729 286.207 463.344 285.221 461.051 284.048C459.188 283.081 457.401 281.976 455.703 280.742C455.043 280.284 454.407 279.792 453.797 279.269C453.313 278.882 452.85 278.468 452.41 278.031C452.016 277.701 451.651 277.337 451.321 276.942C451.764 277.214 452.178 277.529 452.559 277.883C452.943 278.205 453.413 278.588 453.983 278.997C454.552 279.405 455.22 279.925 455.926 280.408C457.641 281.581 459.432 282.64 461.286 283.577C465.838 285.875 470.734 287.414 475.782 288.133C477.833 288.421 479.901 288.57 481.972 288.578C482.863 288.578 483.668 288.578 484.373 288.578C485.079 288.578 485.686 288.578 486.181 288.467C486.698 288.399 487.22 288.378 487.741 288.405Z" fill="#455A64"/>
<path d="M488.197 294.818C487.854 294.915 487.501 294.973 487.145 294.991C486.192 295.109 485.233 295.171 484.273 295.177C477.875 295.234 471.581 293.566 466.051 290.349C465.196 289.873 464.369 289.348 463.575 288.777C463.275 288.585 463 288.357 462.758 288.096C462.758 288.022 463.996 288.876 466.162 290.027C468.937 291.502 471.869 292.66 474.902 293.481C477.964 294.285 481.108 294.733 484.273 294.818C486.687 294.818 488.185 294.719 488.197 294.818Z" fill="#455A64"/>
<path d="M484.682 317.632C484.608 317.558 485.574 316.58 486.638 314.686C488.01 312.189 489.054 309.527 489.745 306.763C490.468 304.005 490.908 301.18 491.058 298.333C491.157 296.154 490.971 294.805 491.058 294.78C491.182 295.08 491.261 295.398 491.293 295.721C491.423 296.59 491.485 297.467 491.478 298.345C491.473 301.242 491.091 304.126 490.34 306.924C489.644 309.744 488.521 312.441 487.01 314.921C486.545 315.671 486.006 316.372 485.4 317.013C484.979 317.447 484.719 317.669 484.682 317.632Z" fill="#455A64"/>
<path d="M473.912 435.185L416.967 443.454C395.564 449.52 373.021 451.29 349.439 449.248L435.202 489.257L469.641 489.79C469.641 489.79 480.126 489.79 482.02 480.641C483.914 471.493 485.882 443.64 485.882 443.64C485.882 443.64 478.975 437.723 473.912 435.185Z" fill="#455A64"/>
<g opacity="0.3">
<path d="M473.751 459.175C474.683 464.902 475.019 470.71 474.754 476.506C476.502 474.583 477.79 472.288 478.522 469.794C479.253 467.3 479.408 464.672 478.975 462.109C478.48 459.287 477.304 456.192 478.777 453.741C479.768 452.095 482.38 450.213 481.996 448.331C481.996 448.331 479.706 448.331 477.626 448.245L472.501 448.071C473.993 451.656 474.314 455.62 473.417 459.398" fill="black"/>
</g>
<path d="M447.359 345.077L475.806 342.675L479.916 343.096L461.768 358.013L452.484 361.244L444.338 357.431L442.37 351.96L447.359 345.077Z" fill="#FFBE9D"/>
<path d="M413.699 377.201L402.991 411.169L380.028 443.603L394.536 454.063L419.641 423.09L428.047 384.702L413.699 377.201Z" fill="#FFBE9D"/>
<path d="M409.057 371.123C409.057 371.123 419.492 355.376 422.674 352.554C426.487 349.174 433.382 346.562 433.382 346.562L447.383 345.064C447.383 345.064 438.717 354.968 448.621 356.206C458.524 357.444 479.915 343.096 479.915 343.096C479.915 343.096 494.882 345.894 498.583 348.122C502.284 350.35 511.693 356.032 511.197 371.123V383.242H482.787L476.845 428.748L462.498 437.413C462.498 437.413 423.813 444.841 421.337 445.299C418.861 445.757 420.706 382.499 420.706 382.499C420.706 382.499 410.777 377.758 409.057 371.123Z" fill="#263238"/>
<path d="M424.483 432.82L477.317 424.885L482.764 383.242H509.218C509.218 383.242 502.942 412.58 501.556 420.095C499.563 430.889 492.16 445.323 488.198 448.047C484.237 450.77 421.351 445.299 421.351 445.299L424.483 432.82Z" fill="#FFBE9D"/>
<path d="M394.475 437.636C394.629 438.004 394.889 438.318 395.222 438.538C395.554 438.759 395.945 438.875 396.344 438.874C396.515 438.871 396.685 438.85 396.852 438.812C398.028 438.515 398.089 436.163 398.089 436.163L403.66 435.618C403.66 435.618 410.543 440.718 412.895 443.949C415.247 447.18 421.919 445.125 421.919 445.125L424.952 433.514L415.396 423.61C415.396 423.61 415.977 424.192 415.396 422.434C414.814 420.676 411.57 421.11 411.57 421.11C411.125 420.231 409.095 419.785 409.095 419.785L400.107 420.231C399.198 420.271 398.309 420.514 397.506 420.943C396.703 421.371 396.005 421.974 395.465 422.707L391.269 428.512C391.269 428.512 388.991 432.672 389.251 433.699C389.362 434.125 389.628 434.494 389.996 434.734C390.365 434.974 390.809 435.069 391.244 434.999C391.244 434.999 391.504 437.859 392.234 438.007C392.998 438.021 393.759 437.891 394.475 437.624V437.636Z" fill="#FFBE9D"/>
<path d="M413.997 430.419C413.997 430.518 412.759 430.332 410.89 430.283C408.41 430.245 405.936 430.545 403.537 431.174C402.216 431.522 400.924 431.973 399.674 432.523C398.56 433.068 397.409 433.489 397.013 434.257C396.921 434.419 396.872 434.602 396.872 434.789C396.872 434.975 396.921 435.159 397.013 435.321C397.156 435.583 397.377 435.795 397.644 435.928C398.102 436.151 398.412 436.039 398.424 436.101C398.436 436.163 398.127 436.324 397.557 436.101C397.224 435.973 396.938 435.743 396.74 435.445C396.6 435.24 396.514 435.003 396.492 434.756C396.471 434.508 396.514 434.26 396.617 434.034C396.905 433.529 397.336 433.12 397.855 432.858C398.379 432.547 398.921 432.266 399.476 432.016C400.737 431.418 402.051 430.937 403.4 430.58C405.853 429.932 408.395 429.685 410.927 429.85C411.973 429.886 413.008 430.078 413.997 430.419Z" fill="#EB996E"/>
<path d="M414.244 436.15C414.244 436.311 410.604 435.927 406.136 435.89C401.667 435.853 398.04 436.175 398.027 436.002C398.789 435.76 399.58 435.623 400.379 435.593C404.213 435.197 408.078 435.23 411.904 435.692C412.701 435.736 413.489 435.89 414.244 436.15Z" fill="#EB996E"/>
<path d="M394.537 437.413C394.509 437.092 394.509 436.769 394.537 436.448C394.542 435.575 394.6 434.702 394.71 433.836C394.785 433.233 394.905 432.637 395.069 432.053C395.281 431.364 395.621 430.722 396.072 430.159C397.046 428.877 398.256 427.793 399.637 426.965C401.01 426.134 402.494 425.501 404.044 425.084C405.322 424.815 406.627 424.703 407.931 424.75C409.033 424.75 409.924 424.873 410.531 424.935C411.137 424.997 411.484 425.047 411.484 425.096C410.302 425.188 409.116 425.209 407.931 425.158C406.68 425.162 405.434 425.311 404.218 425.604C402.731 426.029 401.308 426.649 399.984 427.448C398.654 428.235 397.486 429.269 396.542 430.493C395.77 431.476 395.29 432.655 395.156 433.898C394.698 436.052 394.661 437.413 394.537 437.413Z" fill="#EB996E"/>
<path d="M408.513 422.088C408.513 422.162 407.163 422.088 405.022 422.224C402.88 422.36 399.662 422.335 397.594 425.046C395.642 427.039 393.976 429.293 392.643 431.743C392.18 432.799 391.824 433.898 391.578 435.024C391.511 434.71 391.511 434.385 391.578 434.071C391.683 433.217 391.912 432.382 392.259 431.595C393.526 429.04 395.198 426.708 397.211 424.687C397.752 424.062 398.372 423.508 399.055 423.041C399.719 422.629 400.454 422.344 401.221 422.199C402.477 421.955 403.755 421.834 405.034 421.84C406.2 421.771 407.369 421.854 408.513 422.088Z" fill="#EB996E"/>
<path d="M411.063 441.944C410.879 441.813 410.708 441.664 410.555 441.498L409.144 440.198C407.363 438.625 405.495 437.154 403.549 435.791H403.672L398.102 436.373L398.3 436.15C398.287 436.602 398.225 437.05 398.114 437.487C398.002 437.962 397.752 438.392 397.396 438.725C397.18 438.898 396.917 439.002 396.641 439.022C396.383 439.072 396.119 439.072 395.861 439.022C395.335 438.906 394.866 438.608 394.537 438.181C394.455 438.073 394.384 437.956 394.326 437.834V437.747L394.648 437.884L394.475 437.945C394.235 438.029 393.991 438.099 393.744 438.156C393.492 438.22 393.236 438.266 392.977 438.292H392.556C392.382 438.289 392.212 438.242 392.061 438.156C391.826 437.952 391.654 437.686 391.566 437.388C391.469 437.135 391.394 436.874 391.343 436.608C391.224 436.086 391.137 435.557 391.083 435.024L391.392 435.271C391.013 435.327 390.626 435.278 390.272 435.13C389.919 434.981 389.613 434.739 389.387 434.43C389.152 434.104 389.042 433.704 389.077 433.303C389.127 432.943 389.218 432.59 389.35 432.251C389.845 430.918 390.437 429.623 391.12 428.376L393.336 425.331C393.806 424.671 394.277 424.027 394.747 423.4C395.183 422.722 395.693 422.094 396.27 421.531C396.875 420.979 397.587 420.557 398.362 420.293C399.109 420.068 399.885 419.956 400.664 419.958L409.132 419.575H409.194C409.69 419.691 410.175 419.852 410.642 420.058C411.15 420.24 411.585 420.583 411.88 421.035L411.583 420.924C412.049 420.744 412.553 420.681 413.05 420.741C413.546 420.802 414.02 420.983 414.43 421.271C415.13 421.866 415.574 422.708 415.668 423.623L415.606 423.499L422.192 430.258L423.974 432.115C424.186 432.326 424.381 432.553 424.556 432.796C424.319 432.614 424.095 432.416 423.888 432.201L422.031 430.419L415.309 423.796V423.722C415.209 422.925 414.811 422.195 414.195 421.679C413.835 421.437 413.421 421.287 412.989 421.242C412.558 421.197 412.122 421.257 411.719 421.419L411.521 421.493L411.422 421.308C411.17 420.962 410.821 420.699 410.419 420.553C409.983 420.368 409.532 420.223 409.07 420.119H409.144L400.677 420.565C399.947 420.56 399.221 420.665 398.523 420.875C397.825 421.102 397.181 421.469 396.629 421.952C396.089 422.494 395.608 423.092 395.193 423.734C394.722 424.365 394.264 424.972 393.781 425.665L391.566 428.711C390.892 429.926 390.304 431.188 389.808 432.486C389.693 432.785 389.614 433.097 389.573 433.415C389.546 433.691 389.621 433.969 389.783 434.195C389.956 434.388 390.174 434.536 390.419 434.624C390.663 434.713 390.925 434.74 391.182 434.702H391.467V434.974C391.513 435.486 391.591 435.995 391.702 436.497C391.757 436.946 391.928 437.372 392.197 437.735C392.27 437.757 392.347 437.757 392.42 437.735C392.535 437.747 392.651 437.747 392.766 437.735C393 437.711 393.232 437.669 393.46 437.611C393.694 437.562 393.925 437.5 394.153 437.426H394.326L394.648 437.574V437.648C394.694 437.746 394.752 437.838 394.821 437.921C395.066 438.26 395.428 438.498 395.836 438.589C396.04 438.633 396.251 438.633 396.455 438.589C396.64 438.581 396.817 438.516 396.963 438.403C397.481 437.765 397.749 436.96 397.718 436.138V435.94H397.904L403.487 435.445H403.561C405.5 436.844 407.344 438.37 409.082 440.013C409.689 440.595 410.134 441.065 410.431 441.387C410.667 441.542 410.88 441.729 411.063 441.944Z" fill="#EB996E"/>
<path d="M420.26 365.775C420.35 366.743 420.35 367.716 420.26 368.684C420.26 370.479 420.26 372.942 420.26 375.678C420.26 378.414 420.508 380.877 420.644 382.66C420.786 383.623 420.828 384.598 420.768 385.569C420.466 384.642 420.275 383.682 420.198 382.71C419.877 380.386 419.683 378.047 419.617 375.703C419.54 373.354 419.585 371.003 419.753 368.659C419.8 367.68 419.97 366.711 420.26 365.775Z" fill="#455A64"/>
<path d="M510.79 369.167C510.489 369.236 510.182 369.273 509.874 369.278L507.249 369.476L497.569 370.108L465.63 371.927L433.68 373.549L423.987 373.97L421.35 374.057C421.045 374.078 420.739 374.078 420.434 374.057C420.735 373.986 421.041 373.945 421.35 373.933L423.974 373.735L433.655 373.116L465.593 371.296L497.544 369.662L507.224 369.241L509.861 369.167C510.17 369.137 510.481 369.137 510.79 369.167Z" fill="white"/>
<path d="M480.82 396.327C480.82 396.513 467.314 397.231 450.639 397.937C433.965 398.642 420.434 399.063 420.422 398.89C420.409 398.716 433.928 397.986 450.615 397.28C467.302 396.575 480.82 396.203 480.82 396.327Z" fill="white"/>
<path d="M477.218 420.305C477.029 420.364 476.833 420.397 476.636 420.404L474.989 420.577L468.886 421.122C463.749 421.568 456.643 422.199 448.795 422.991C440.947 423.783 433.866 424.613 428.741 425.219L422.662 425.925L421.004 426.086C420.811 426.121 420.614 426.121 420.422 426.086C420.607 426.024 420.798 425.979 420.991 425.95L422.625 425.665C424.061 425.43 426.129 425.108 428.679 424.749C433.804 424.031 440.885 423.14 448.733 422.273C456.581 421.407 463.699 420.912 468.849 420.59C471.436 420.416 473.516 420.305 474.965 420.255H476.636C476.831 420.238 477.028 420.254 477.218 420.305Z" fill="white"/>
<path d="M419.369 367.929C418.376 367.914 417.397 367.69 416.497 367.273C414.974 366.74 413.786 366.183 413.848 366.035C414.84 366.05 415.819 366.273 416.72 366.691C417.684 366.9 418.589 367.323 419.369 367.929Z" fill="white"/>
<path d="M442.642 351.427C436.578 352.058 430.477 352.269 424.383 352.059C427.4 351.623 430.445 351.408 433.494 351.415C436.54 351.199 439.597 351.203 442.642 351.427Z" fill="white"/>
<path d="M500.119 349.212C500.119 349.397 493.607 349.496 485.586 349.459C477.564 349.422 471.065 349.236 471.065 349.051C471.065 348.865 477.564 348.766 485.586 348.815C493.607 348.865 500.119 349.038 500.119 349.212Z" fill="white"/>
<path d="M482.589 363.645C482.64 364.143 482.64 364.645 482.589 365.143C482.589 366.108 482.515 367.507 482.391 369.265C482.181 372.768 481.624 377.671 481.153 383.266L480.819 382.932H486.142C493.05 382.932 499.301 382.932 503.832 383.031L509.192 383.13C509.855 383.111 510.518 383.153 511.173 383.254C510.526 383.355 509.871 383.396 509.217 383.377L503.869 383.476C499.351 383.538 493.099 383.576 486.192 383.576H480.497V383.241C480.968 377.621 481.611 372.744 481.921 369.253C482.082 367.594 482.206 366.22 482.317 365.155C482.36 364.644 482.451 364.139 482.589 363.645Z" fill="#455A64"/>
<path d="M381.427 453.048C381.427 453.048 345.33 441.696 333.978 438.02C314.456 431.694 301.681 438.094 297.645 445.076C292.409 454.137 304.961 471.815 309.789 475.875C324.099 487.92 348.647 489.492 348.647 489.492L436.886 489.319L411.125 454.509L381.427 453.048Z" fill="#455A64"/>
<path d="M385.24 467.136C370.532 468.846 355.63 466.819 341.913 461.244C339.567 460.182 337.151 459.281 334.684 458.545C332.257 457.937 329.743 457.761 327.256 458.025C326.265 458.05 325.289 458.273 324.385 458.681C323.482 459.09 322.669 459.675 321.995 460.402C320.225 462.729 321.141 466.022 322.119 468.77C323.258 471.989 324.446 475.282 326.687 477.857C329.311 480.877 333.111 482.598 336.924 483.799C344.352 486.151 352.237 486.819 360.048 487.129L386.862 485.655L385.24 467.136Z" fill="#B7C5D5"/>
<path d="M381.278 485.518C380.531 484.956 379.886 484.27 379.372 483.488C378.057 481.651 377.119 479.572 376.611 477.371C376.103 475.17 376.036 472.89 376.413 470.663C376.526 469.74 376.798 468.844 377.218 468.014C377.317 468.014 377.008 469.054 376.81 470.725C376.276 475.116 377.302 479.554 379.706 483.265C380.61 484.677 381.34 485.456 381.278 485.518Z" fill="#263238"/>
<path d="M333.457 458.557C333.457 458.557 333.643 458.792 333.866 459.287C334.175 459.976 334.416 460.693 334.584 461.429C335.157 463.883 335.052 466.446 334.281 468.845C333.509 471.244 332.099 473.387 330.202 475.046C329.637 475.546 329.028 475.994 328.382 476.383C327.924 476.643 327.639 476.755 327.627 476.717C327.614 476.68 328.592 476.049 329.929 474.761C331.7 473.089 333.022 470.999 333.775 468.682C334.528 466.366 334.687 463.897 334.237 461.503C333.853 459.671 333.371 458.594 333.457 458.557Z" fill="#263238"/>
<path d="M380.982 471.592C380.982 471.753 380.041 471.926 378.865 471.976C378.151 472.091 377.419 472.028 376.736 471.79C376.736 471.629 377.677 471.456 378.84 471.406C379.558 471.29 380.294 471.354 380.982 471.592Z" fill="#263238"/>
<path d="M380.177 478.921C380.239 479.057 379.706 479.416 378.939 479.404C378.171 479.391 377.701 479.057 377.701 478.921C377.701 478.785 378.283 478.847 378.939 478.847C379.595 478.847 380.115 478.772 380.177 478.921Z" fill="#263238"/>
<path d="M473.578 450.795C471.486 444.853 471.102 436.126 458.203 431.929C445.304 427.732 435.499 435.779 428.864 438.564C422.229 441.35 385.896 461.28 385.896 461.28C385.896 461.28 379.063 473.474 380.944 478.859C382.826 484.243 391.739 489.567 391.739 489.567H432.355C442.84 489.567 462.338 489.22 462.338 489.22C464.938 484.946 467.27 480.514 469.319 475.949L469.678 474.204C469.74 472.842 475.67 456.774 473.578 450.795Z" fill="#455A64"/>
<path d="M451.072 481.743C451.027 481.953 450.924 482.146 450.775 482.3C450.384 482.768 449.935 483.184 449.438 483.538C447.634 484.797 445.71 485.875 443.694 486.757C442.32 487.404 440.906 487.962 439.461 488.428C437.787 488.94 436.072 489.308 434.336 489.53C430.371 489.932 426.386 490.089 422.402 490C413.96 490.136 406.309 490.458 400.751 490.396C397.978 490.396 395.725 490.26 394.178 490.099C393.584 490.048 392.993 489.966 392.408 489.852C392.199 489.831 391.995 489.781 391.801 489.703C391.801 489.641 392.655 489.802 394.202 489.876C395.75 489.951 397.978 490.025 400.751 489.988C406.285 489.988 413.935 489.567 422.402 489.431C426.364 489.522 430.328 489.386 434.274 489.022C435.978 488.809 437.663 488.461 439.312 487.982C440.75 487.54 442.16 487.011 443.534 486.398C445.542 485.549 447.475 484.535 449.315 483.365C449.812 483.049 450.273 482.68 450.689 482.263C450.973 481.879 451.035 481.669 451.072 481.743Z" fill="#263238"/>
<path d="M391.8 489.604C391.8 489.604 391.615 489.517 391.268 489.319C390.921 489.121 390.402 488.811 389.758 488.378C387.844 487.136 386.053 485.714 384.41 484.132C383.215 482.989 382.197 481.675 381.389 480.233C380.556 478.425 380.347 476.391 380.795 474.451C381.788 469.817 383.456 465.355 385.747 461.206C392.395 457.492 400.02 453.382 408.364 448.901C412.536 446.673 416.881 444.358 421.399 442.018C423.664 440.867 425.942 439.678 428.331 438.601C430.721 437.524 432.998 436.262 435.387 435.049C438.682 433.242 442.217 431.912 445.885 431.1C447.682 430.739 449.512 430.573 451.344 430.604C453.141 430.664 454.927 430.921 456.667 431.372C460.043 432.197 463.212 433.71 465.976 435.816C467.26 436.878 468.396 438.107 469.356 439.468C470.243 440.813 470.974 442.254 471.535 443.764C472.104 445.237 472.525 446.735 472.934 448.183C473.414 449.588 473.802 451.023 474.097 452.478C474.276 455.266 474.043 458.065 473.404 460.785C472.884 463.372 472.24 465.798 471.597 468.051C471.275 469.178 470.953 470.267 470.643 471.32C470.324 472.307 470.059 473.311 469.851 474.328L469.492 476.073C468.386 479.638 466.817 483.043 464.825 486.199C464.119 487.325 463.289 488.367 462.349 489.306L462.498 489.096L462.981 488.514C463.591 487.747 464.157 486.945 464.677 486.113C466.603 482.942 468.117 479.54 469.183 475.987C469.851 475.442 469.715 474.897 469.529 474.241C469.734 473.191 469.998 472.154 470.322 471.134L471.25 467.866C471.869 465.6 472.488 463.199 472.995 460.624C473.611 457.947 473.832 455.195 473.652 452.454C473.348 451.023 472.955 449.614 472.476 448.232C472.067 446.784 471.646 445.311 471.089 443.863C470.533 442.393 469.814 440.989 468.947 439.678C468.016 438.354 466.908 437.163 465.655 436.138C462.946 434.088 459.845 432.617 456.543 431.818C453.1 430.909 449.491 430.824 446.009 431.57C442.391 432.369 438.906 433.682 435.66 435.469C433.283 436.707 430.993 438.007 428.567 439.035C426.14 440.062 423.924 441.275 421.659 442.427C417.153 444.754 412.808 447.056 408.624 449.285L385.97 461.503L386.056 461.416C383.785 465.521 382.118 469.933 381.105 474.513C380.655 476.381 380.837 478.344 381.625 480.096C382.405 481.52 383.389 482.821 384.546 483.959C386.164 485.543 387.916 486.984 389.783 488.267L391.268 489.269C391.639 489.48 391.8 489.604 391.8 489.604Z" fill="#263238"/>
<path d="M457.906 474.538C457.906 474.538 470.013 475.986 468.936 481.904C467.859 487.821 463.91 489.826 463.91 489.826L431.018 489.888C431.018 489.888 450.602 488.527 457.906 474.538Z" fill="#B7C5D5"/>
<path d="M459.081 471.667C459.08 472.244 458.954 472.814 458.71 473.338C458.264 474.674 457.604 475.928 456.754 477.051C455.605 478.673 453.99 479.908 452.124 480.592C453.651 479.446 455.053 478.143 456.308 476.705C457.37 475.105 458.297 473.419 459.081 471.667Z" fill="#263238"/>
<path d="M454.885 473.981C454.89 475.47 454.483 476.931 453.709 478.202C453.129 479.561 452.223 480.756 451.072 481.681C450.948 481.582 452.136 480.047 453.213 477.967C454.29 475.888 454.724 473.956 454.885 473.981Z" fill="#263238"/>
<path d="M470.321 488.168C470.235 488.168 471.002 486.621 471.955 484.083C474.435 477.436 475.251 470.284 474.332 463.249C473.986 460.563 473.565 458.929 473.664 458.904C473.84 459.261 473.969 459.64 474.047 460.03C474.34 461.071 474.568 462.13 474.728 463.199C475.893 470.301 475.062 477.587 472.327 484.244C471.926 485.246 471.463 486.221 470.94 487.166C470.778 487.525 470.57 487.862 470.321 488.168Z" fill="#263238"/>
<g opacity="0.3">
<path d="M463.476 471.344C463.39 470.552 463.068 469.611 462.239 469.45C461.409 469.289 460.629 470.354 460.233 471.245C456.061 480.901 442.345 488.403 431.885 489.381C436.973 489.371 442.052 488.957 447.074 488.143C451.355 487.491 455.368 485.656 458.661 482.845C460.294 481.428 461.579 479.653 462.414 477.658C463.249 475.663 463.613 473.503 463.476 471.344Z" fill="black"/>
</g>
<path d="M383.345 458.223C379.398 456.921 375.578 455.263 371.931 453.271C373.933 453.828 375.881 454.565 377.75 455.474C379.691 456.225 381.564 457.145 383.345 458.223Z" fill="#263238"/>
<g opacity="0.2">
<path d="M395.069 453.135C379.389 450.139 363.672 447.478 347.917 445.15L336.169 448.864C339.462 454.992 345.961 458.891 352.733 460.513C359.504 462.135 366.56 461.751 373.492 461.107C381.118 460.402 388.942 459.337 395.577 455.512C396.084 455.215 396.654 454.781 396.592 454.2C396.53 453.618 395.726 453.271 395.069 453.135Z" fill="black"/>
</g>
<path d="M317.959 406.478L337.691 450.139C338.091 451.025 338.736 451.778 339.549 452.309C340.363 452.84 341.312 453.126 342.284 453.135L399.835 453.89L407.089 449.978L395.725 449.149L378.047 406.701C377.765 406.041 377.299 405.478 376.703 405.078C376.108 404.678 375.41 404.459 374.693 404.448L319.543 404.039C319.253 404.036 318.967 404.106 318.711 404.243C318.455 404.379 318.238 404.579 318.08 404.822C317.921 405.066 317.827 405.345 317.806 405.635C317.785 405.924 317.838 406.214 317.959 406.478Z" fill="#B7C5D5"/>
<path d="M317.959 406.478C317.863 406.32 317.804 406.142 317.786 405.958C317.747 405.682 317.776 405.401 317.868 405.138C317.961 404.875 318.115 404.639 318.318 404.448C318.626 404.161 319.024 403.991 319.444 403.965H324.495L347.595 404.039L363.688 404.126H372.663H375.015C375.866 404.194 376.672 404.532 377.317 405.091C377.929 405.68 378.384 406.412 378.642 407.221C378.951 407.963 379.261 408.718 379.583 409.474L396.072 448.963L395.799 448.765L406.78 449.57H407.163L408.265 449.656L407.287 450.176L400.033 454.088H399.959H399.847L356.186 453.482L346.443 453.345C344.859 453.345 343.336 453.345 341.764 453.246C340.976 453.158 340.217 452.896 339.543 452.479C338.868 452.061 338.295 451.499 337.865 450.832C335.29 445.435 333.148 440.434 331.069 435.854C326.983 426.73 323.641 419.377 321.413 414.264L318.826 408.409L318.169 406.886C318.033 406.54 317.971 406.354 317.971 406.354C317.971 406.354 318.07 406.527 318.231 406.862C318.392 407.196 318.64 407.716 318.937 408.359L321.636 414.165C323.963 419.253 327.305 426.544 331.465 435.68C333.557 440.211 335.785 445.299 338.298 450.535C338.69 451.133 339.21 451.636 339.82 452.009C340.43 452.381 341.115 452.614 341.826 452.689C343.299 452.764 344.896 452.689 346.456 452.776L356.198 452.887L399.847 453.42H399.699L406.953 449.508L407.077 450.114H406.693L395.713 449.31H395.515L395.44 449.124C389.573 435.012 384.027 421.679 379.013 409.597C378.704 408.842 378.382 408.099 378.072 407.357C377.861 406.625 377.46 405.963 376.909 405.438C376.361 404.943 375.664 404.647 374.928 404.596H372.613L363.651 404.509L347.558 404.361L324.47 404.076H320.856H319.42C319.035 404.094 318.668 404.242 318.38 404.497C318.186 404.675 318.035 404.894 317.939 405.139C317.842 405.383 317.803 405.646 317.823 405.908C317.849 406.102 317.895 406.293 317.959 406.478Z" fill="#263238"/>
<path d="M394.029 453.816C393.93 453.662 393.843 453.501 393.769 453.333L393.113 451.922L390.798 446.698C388.879 442.266 386.267 436.138 383.445 429.367C380.622 422.596 378.159 416.357 376.438 411.85C375.584 409.585 374.891 407.765 374.457 406.478C374.259 405.896 374.086 405.413 373.95 405.005C373.882 404.838 373.836 404.663 373.814 404.485C373.814 404.485 373.913 404.646 374.061 404.968L374.655 406.404C375.2 407.741 375.893 409.523 376.809 411.702L383.977 429.144C386.762 435.916 389.3 442.043 391.169 446.574L393.311 451.872C393.534 452.454 393.719 452.937 393.88 453.333C394.041 453.729 394.054 453.804 394.029 453.816Z" fill="#263238"/>
<path d="M358.327 427.646C358.327 428.204 358.162 428.75 357.852 429.214C357.542 429.678 357.101 430.04 356.585 430.254C356.069 430.467 355.502 430.523 354.954 430.414C354.407 430.306 353.904 430.037 353.509 429.642C353.114 429.247 352.846 428.744 352.737 428.197C352.628 427.649 352.684 427.082 352.897 426.566C353.111 426.05 353.473 425.61 353.937 425.299C354.401 424.989 354.947 424.824 355.505 424.824C356.253 424.824 356.971 425.121 357.501 425.65C358.03 426.18 358.327 426.898 358.327 427.646Z" fill="white"/>
<path d="M137.585 446.685L130.962 471.605C130.962 471.605 154.074 486.707 153.244 491.411L104.458 480.27L113.185 441.003L137.585 446.685Z" fill="#455A64"/>
<path d="M116.366 466.059C115.864 466.093 115.392 466.311 115.042 466.672C114.692 467.034 114.489 467.512 114.472 468.015C114.488 468.517 114.696 468.993 115.053 469.345C115.41 469.698 115.889 469.9 116.391 469.909C116.922 469.87 117.421 469.636 117.791 469.252C118.161 468.869 118.376 468.362 118.396 467.829C118.322 467.307 118.049 466.833 117.633 466.508C117.218 466.183 116.693 466.031 116.168 466.084" fill="#B7C5D5"/>
<path d="M104.507 480.332L105.535 476.408L151.932 488.527C151.932 488.527 153.888 489.963 153.294 491.437L104.507 480.332Z" fill="#263238"/>
<path d="M131.804 471.543C131.742 471.778 130.566 471.617 129.179 472.112C127.793 472.608 126.976 473.474 126.79 473.35C126.604 473.226 127.26 471.914 128.894 471.332C130.528 470.751 131.903 471.332 131.804 471.543Z" fill="#263238"/>
<path d="M136.445 474.823C136.445 475.059 135.319 475.232 134.279 476.061C133.239 476.891 132.769 477.893 132.534 477.832C132.298 477.77 132.447 476.383 133.772 475.356C135.096 474.328 136.483 474.588 136.445 474.823Z" fill="#263238"/>
<path d="M137.956 481.607C137.721 481.607 137.659 480.369 138.575 479.131C139.491 477.894 140.716 477.696 140.766 477.894C140.815 478.092 139.974 478.649 139.243 479.627C138.513 480.605 138.191 481.632 137.956 481.607Z" fill="#263238"/>
<path d="M132.682 465.65C132.534 465.848 131.519 465.267 130.145 465.056C128.771 464.846 127.669 465.056 127.557 464.796C127.446 464.536 128.684 463.942 130.293 464.214C131.903 464.487 132.843 465.527 132.682 465.65Z" fill="#263238"/>
<g opacity="0.3">
<path d="M137.584 446.685L130.961 471.605C130.961 471.605 154.073 486.707 153.244 491.411L104.457 480.27L113.185 441.003L137.584 446.685Z" fill="black"/>
</g>
<path d="M120.538 451.525L120.08 477.311C120.08 477.311 146.138 486.435 146.509 491.213L96.4852 492.117L95.5444 451.909L120.538 451.525Z" fill="#455A64"/>
<path d="M104.569 475.43C104.09 475.584 103.686 475.909 103.432 476.343C103.179 476.777 103.094 477.289 103.195 477.782C103.331 478.266 103.649 478.679 104.083 478.935C104.516 479.191 105.032 479.27 105.522 479.156C106.023 478.991 106.446 478.647 106.711 478.191C106.975 477.734 107.063 477.197 106.958 476.68C106.764 476.19 106.387 475.794 105.906 475.577C105.425 475.359 104.879 475.338 104.383 475.516" fill="#B7C5D5"/>
<path d="M96.4846 492.117V488.069L144.429 488.7C144.429 488.7 146.67 489.629 146.447 491.176L96.4846 492.117Z" fill="#263238"/>
<path d="M120.885 477.039C120.885 477.287 119.647 477.423 118.409 478.277C117.171 479.131 116.602 480.122 116.379 480.023C116.156 479.924 116.49 478.512 117.939 477.547C119.387 476.581 120.934 476.792 120.885 477.039Z" fill="#263238"/>
<path d="M126.17 479.119C126.232 479.354 125.18 479.787 124.363 480.839C123.546 481.891 123.335 482.981 123.125 482.968C122.914 482.956 122.691 481.594 123.731 480.307C124.771 479.019 126.158 478.883 126.17 479.119Z" fill="#263238"/>
<path d="M129.266 485.346C129.043 485.346 128.684 484.182 129.266 482.87C129.847 481.558 130.999 480.963 131.098 481.174C131.197 481.384 130.516 482.102 130.033 483.216C129.55 484.33 129.513 485.308 129.266 485.346Z" fill="#263238"/>
<path d="M120.34 471.147C120.241 471.382 119.102 471.06 117.728 471.147C116.354 471.234 115.252 471.716 115.153 471.506C115.054 471.295 116.045 470.417 117.629 470.268C119.214 470.119 120.452 470.961 120.34 471.147Z" fill="#263238"/>
<path d="M90.5932 234.42L84.8492 270.134L89.0334 299.633L89.2191 306.058L93.4652 337.538C93.2299 343.517 92.0168 368.486 91.1007 373.648C89.9742 380.036 93.1062 470.775 93.1062 470.775L121.962 469.537C121.962 469.537 132.868 334.988 132.831 333.515C132.794 332.042 147.835 232.86 147.835 232.86L90.5932 234.42Z" fill="#263238"/>
<path d="M163.531 239.928C163.531 239.928 168.099 339.506 166.589 351.799C165.351 361.702 135.108 468.732 135.108 468.732L108.642 464.189L119.053 348.679L122.766 233.553L163.531 239.928Z" fill="#263238"/>
<path d="M143.402 279.394C143.575 279.394 139.985 308.72 135.392 344.842C130.8 380.965 122.122 469.525 121.961 469.501C121.8 469.476 130.218 380.903 134.811 344.768C139.403 308.633 143.241 279.381 143.402 279.394Z" fill="#455A64"/>
<path d="M135.455 68.9966C133.807 66.0236 132.495 62.8765 131.543 59.6132C130.609 56.3462 130.792 52.8611 132.063 49.7098C132.88 47.9025 134.167 46.3179 134.811 44.4487C135.702 41.8614 135.343 38.8285 136.94 36.6127C139.416 33.1589 144.776 33.9635 148.639 32.1562C151.634 30.7449 153.739 27.6996 156.896 26.6846C159.669 25.8056 162.677 26.6846 165.338 27.7987C168 28.9128 170.612 30.3859 173.484 30.7697C175.546 30.8745 177.611 30.8745 179.673 30.7697C181.757 30.6757 183.798 31.3796 185.38 32.738C186.841 34.2111 187.15 36.9221 185.566 38.2591C189.193 37.6525 192.597 41.2549 192.548 44.9315C192.498 48.6081 189.738 51.8267 186.358 53.3493C182.943 54.6811 179.248 55.1323 175.613 54.6615C165.252 53.8569 154.853 49.9203 147.809 42.2823" fill="#263238"/>
<path d="M137.683 56.0356L130.627 107.31C129.389 115.976 140.283 132.069 149.047 132.787C157.23 133.505 160.028 127.612 161.129 119.479C161.662 115.617 162.107 104.401 162.194 104.005C162.194 104.005 175.415 104.574 178.126 91.7867C179.438 85.5971 181.109 72.6608 182.496 60.9254C183.202 54.8471 181.594 48.7259 177.993 43.7785C174.392 38.8312 169.061 35.4201 163.061 34.2235L161.823 33.9759C148.342 32.0943 139.193 42.4928 137.683 56.0356Z" fill="#FFBE9D"/>
<path d="M162.169 104.005C156.249 102.808 150.796 99.9383 146.459 95.7354C146.459 95.7354 148.935 106.48 161.946 107.879L162.169 104.005Z" fill="#EB996E"/>
<path d="M176.739 71.8316C176.646 72.3068 176.372 72.7272 175.975 73.0043C175.577 73.2814 175.088 73.3935 174.61 73.3171C174.374 73.2897 174.146 73.2153 173.939 73.0985C173.732 72.9816 173.551 72.8246 173.405 72.6366C173.26 72.4486 173.154 72.2334 173.093 72.0038C173.032 71.7741 173.017 71.5346 173.05 71.2993C173.141 70.8218 173.414 70.3984 173.811 70.1187C174.209 69.8391 174.7 69.7253 175.18 69.8014C175.417 69.8287 175.646 69.9034 175.854 70.021C176.062 70.1387 176.244 70.2969 176.389 70.4863C176.535 70.6756 176.641 70.8923 176.701 71.1234C176.761 71.3545 176.774 71.5953 176.739 71.8316Z" fill="#263238"/>
<path d="M178.484 66.6692C178.2 66.8673 177.024 65.5551 175.055 65.1714C173.087 64.7876 171.441 65.4808 171.342 65.1714C171.243 64.8619 171.565 64.6638 172.295 64.3296C173.265 63.9067 174.341 63.7943 175.377 64.0077C176.4 64.2141 177.332 64.7383 178.039 65.5056C178.497 66.1122 178.608 66.5826 178.484 66.6692Z" fill="#263238"/>
<path d="M158.369 68.6496C158.278 69.1271 158.005 69.5505 157.608 69.8302C157.21 70.1098 156.72 70.2236 156.24 70.1475C156.008 70.1127 155.785 70.0326 155.585 69.9117C155.384 69.7908 155.209 69.6316 155.07 69.443C154.931 69.2544 154.83 69.0403 154.774 68.8128C154.717 68.5853 154.707 68.349 154.742 68.1173C154.835 67.6421 155.109 67.2217 155.506 66.9446C155.904 66.6675 156.393 66.5554 156.871 66.6318C157.336 66.7022 157.755 66.9539 158.036 67.3319C158.317 67.7099 158.436 68.1837 158.369 68.6496Z" fill="#263238"/>
<path d="M159.037 63.1663C158.765 63.3643 157.589 62.0521 155.608 61.6684C153.628 61.2846 152.006 61.9779 151.894 61.6684C151.783 61.3589 152.13 61.1608 152.848 60.8266C153.817 60.4046 154.894 60.2922 155.93 60.5047C156.946 60.7444 157.86 61.299 158.542 62.0893C159.05 62.6092 159.173 63.0796 159.037 63.1663Z" fill="#263238"/>
<path d="M163.271 79.2095C164.372 79.0688 165.487 79.0688 166.588 79.2095C167.096 79.2095 167.591 79.2095 167.752 78.9247C167.906 78.4163 167.906 77.8734 167.752 77.365C167.517 76.0528 167.282 74.6787 167.022 73.2427C166.056 67.375 165.449 62.5842 165.685 62.5471C165.92 62.51 166.923 67.2388 167.888 73.1065C168.111 74.5549 168.334 75.929 168.544 77.2412C168.738 77.913 168.69 78.6315 168.408 79.2714C168.302 79.4372 168.158 79.5753 167.988 79.6744C167.818 79.7734 167.627 79.8305 167.43 79.8408C167.139 79.8808 166.843 79.8808 166.551 79.8408C165.436 79.7665 164.334 79.5545 163.271 79.2095Z" fill="#263238"/>
<path d="M157.217 79.4199C157.539 79.4199 157.118 81.611 158.641 83.4927C160.164 85.3743 162.491 85.5971 162.454 85.8942C162.417 86.1913 161.86 86.2161 160.894 86.0428C159.638 85.809 158.504 85.1433 157.688 84.1612C156.911 83.2089 156.53 81.9946 156.623 80.7692C156.71 79.8532 157.056 79.4199 157.217 79.4199Z" fill="#263238"/>
<path d="M161.092 55.5533C160.795 56.0485 158.876 55.4048 156.512 55.2191C154.148 55.0334 152.142 55.2934 151.932 54.7487C151.845 54.4887 152.266 54.0555 153.17 53.6841C154.302 53.2532 155.517 53.0839 156.724 53.1889C157.931 53.294 159.098 53.6706 160.139 54.2907C160.931 54.8106 161.228 55.3181 161.092 55.5533Z" fill="#263238"/>
<path d="M178.894 60.8507C178.461 61.222 177.198 60.4917 175.564 60.1451C173.93 59.7984 172.494 59.8356 172.271 59.3033C172.172 59.0557 172.482 58.6472 173.175 58.3501C174.079 57.9834 175.076 57.914 176.022 58.152C176.975 58.3665 177.839 58.8676 178.498 59.588C178.993 60.1327 179.092 60.6402 178.894 60.8507Z" fill="#263238"/>
<path d="M136.842 65.8027C136.631 65.6665 128.548 61.4328 127.074 70.2592C125.601 79.0855 134.762 78.7389 134.824 78.4789C134.886 78.219 136.842 65.8027 136.842 65.8027Z" fill="#FFBE9D"/>
<path d="M132.681 74.6291C132.681 74.6291 132.508 74.7157 132.236 74.79C131.844 74.883 131.432 74.8209 131.085 74.6167C130.564 74.1657 130.174 73.5829 129.956 72.9295C129.739 72.2761 129.701 71.5761 129.847 70.9029C129.946 70.1422 130.217 69.4141 130.639 68.7737C130.768 68.5127 130.958 68.2865 131.193 68.1142C131.428 67.9419 131.7 67.8284 131.988 67.7834C132.174 67.77 132.358 67.8204 132.511 67.9262C132.665 68.032 132.777 68.1868 132.83 68.3652C132.904 68.6252 132.83 68.7985 132.83 68.8232C132.83 68.848 133.04 68.6994 133.028 68.3281C133.02 68.0993 132.932 67.8806 132.78 67.7091C132.562 67.492 132.271 67.364 131.963 67.3501C131.589 67.3584 131.222 67.4644 130.901 67.6576C130.58 67.8509 130.314 68.1246 130.131 68.4518C129.626 69.1494 129.302 69.9621 129.19 70.8163C128.943 72.5989 129.574 74.4186 130.787 75.0004C131.014 75.1065 131.261 75.1615 131.512 75.1615C131.762 75.1615 132.009 75.1065 132.236 75.0004C132.632 74.8395 132.706 74.6538 132.681 74.6291Z" fill="#EB996E"/>
<path d="M185.034 49.0163C183.511 52.2844 175.737 53.5347 170.031 51.814C164.769 50.2294 162.863 46.8623 159.521 43.978C157.404 42.1335 157.404 42.1335 153.95 41.7868C151.152 41.4897 148.912 44.2627 146.795 46.1196C147.971 53.1386 144.864 60.0709 141.843 66.4957C141.574 67.2353 141.064 67.863 140.395 68.2783C139.157 68.8725 137.77 67.9441 137.052 66.8176C136.046 64.919 135.615 62.7677 135.814 60.628C135.828 55.7472 136.822 50.9188 138.736 46.429C140.656 41.9205 143.864 38.0791 147.958 35.3868C153.204 32.1717 159.497 31.1282 165.5 32.4777C171.468 33.8623 176.849 37.0938 180.875 41.7126C182.837 43.7545 184.262 46.2513 185.022 48.9792" fill="#263238"/>
<path d="M167.121 70.3459C167.195 70.3459 167.121 69.5784 167.53 68.291C168.04 66.4772 169.137 64.8838 170.649 63.7602C171.754 62.9414 173.045 62.4099 174.407 62.2133C175.768 62.0167 177.156 62.1611 178.448 62.6337C179.974 63.1882 181.298 64.1889 182.248 65.5056C183.277 66.9074 183.832 68.6009 183.832 70.3397C183.832 72.0785 183.277 73.772 182.248 75.1738C181.298 76.4906 179.974 77.4912 178.448 78.0457C177.157 78.5216 175.768 78.6679 174.406 78.4712C173.044 78.2744 171.753 77.741 170.649 76.9192C169.135 75.7976 168.037 74.2034 167.53 72.3885C167.171 71.1505 167.195 70.3335 167.121 70.3459C167.089 70.526 167.089 70.7104 167.121 70.8906C167.115 71.4197 167.173 71.9476 167.294 72.4627C167.723 74.3943 168.813 76.1153 170.377 77.3277C171.305 78.0454 172.367 78.5706 173.501 78.8723C174.635 79.174 175.818 79.2463 176.98 79.0849C178.143 78.9235 179.261 78.5316 180.27 77.9322C181.278 77.3329 182.157 76.5382 182.855 75.5947C183.974 74.0725 184.58 72.2348 184.588 70.3459C184.575 68.4541 183.968 66.6142 182.855 65.0847C181.807 63.6733 180.364 62.6048 178.708 62.0147C177.311 61.5005 175.806 61.3512 174.335 61.5808C172.864 61.8104 171.476 62.4114 170.303 63.3269C168.722 64.561 167.63 66.3155 167.22 68.2786C167.099 68.7894 167.04 69.3133 167.047 69.8383C167.044 70.0104 167.069 70.1818 167.121 70.3459Z" fill="#263238"/>
<path d="M146.163 66.6943C146.237 66.6943 146.163 65.9268 146.572 64.6394C147.079 62.8244 148.177 61.2303 149.691 60.1086C150.796 59.2899 152.087 58.7583 153.449 58.5617C154.81 58.3651 156.199 58.5095 157.49 58.9821C159.016 59.5366 160.34 60.5373 161.291 61.8541C162.319 63.2559 162.874 64.9493 162.874 66.6881C162.874 68.4269 162.319 70.1204 161.291 71.5222C160.34 72.839 159.016 73.8396 157.49 74.3942C156.199 74.8701 154.81 75.0163 153.448 74.8196C152.086 74.6229 150.795 74.0895 149.691 73.2677C148.177 72.146 147.079 70.5518 146.572 68.7369C146.213 67.499 146.237 66.682 146.163 66.6943C146.131 66.8745 146.131 67.0589 146.163 67.239C146.157 67.7682 146.215 68.2961 146.337 68.8112C146.765 70.7428 147.855 72.4638 149.419 73.6762C150.347 74.3955 151.409 74.922 152.543 75.2247C153.677 75.5273 154.86 75.6001 156.023 75.4386C157.186 75.2771 158.305 74.8847 159.313 74.2844C160.322 73.684 161.201 72.888 161.897 71.9431C163.022 70.4219 163.629 68.58 163.629 66.6881C163.629 64.7963 163.022 62.9544 161.897 61.4332C161.201 60.4883 160.322 59.6922 159.313 59.0919C158.305 58.4916 157.186 58.0992 156.023 57.9377C154.86 57.7762 153.677 57.8489 152.543 58.1516C151.409 58.4543 150.347 58.9808 149.419 59.7001C147.841 60.9057 146.736 62.6278 146.299 64.5651C146.178 65.076 146.12 65.5998 146.126 66.1249C146.105 66.3154 146.118 66.5081 146.163 66.6943Z" fill="#263238"/>
<path d="M163.408 67.0407C163.494 67.214 164.646 66.6941 165.884 67.0407C167.121 67.3873 167.839 68.4767 168 68.3776C168.161 68.2786 168 68.0063 167.753 67.5606C167.355 66.9675 166.765 66.5302 166.082 66.3227C165.407 66.1124 164.681 66.143 164.027 66.4093C163.569 66.6445 163.408 66.9045 163.408 67.0407Z" fill="#263238"/>
<path d="M134.316 64.4286C136.391 64.7582 138.497 64.8496 140.592 64.7009C142.695 64.789 144.8 64.6395 146.869 64.2553C144.79 63.926 142.68 63.8346 140.58 63.9829C138.482 63.8945 136.381 64.044 134.316 64.4286Z" fill="#263238"/>
<path d="M190.097 172.029L168.099 186.562L168.433 192.318L174.165 204.425C174.165 204.425 176.814 206.901 184.613 199.053C192.412 191.204 202.253 175.532 202.253 175.532L190.097 172.029Z" fill="#FFBE9D"/>
<path d="M227.135 141.761C227.008 141.475 226.808 141.227 226.557 141.041C226.305 140.854 226.01 140.736 225.699 140.697L214.929 139.261C214.461 139.204 213.985 139.245 213.534 139.381C213.082 139.518 212.663 139.746 212.305 140.053L181.443 166.557L182.842 167.906L194.417 170.704L227.345 142.232L227.135 141.761Z" fill="#263238"/>
<path d="M218.581 143.965C218.698 144.088 218.857 144.162 219.027 144.173C219.196 144.185 219.364 144.133 219.497 144.027C219.651 143.954 219.771 143.824 219.831 143.665C219.891 143.505 219.887 143.329 219.819 143.173C219.701 143.05 219.542 142.975 219.373 142.964C219.203 142.953 219.036 143.005 218.903 143.111C218.556 143.333 218.408 143.717 218.581 143.965Z" fill="white"/>
<path d="M227.345 142.244C226.636 142.252 225.928 142.198 225.229 142.083L219.497 141.415L215.536 140.92C215.208 140.858 214.87 140.869 214.547 140.952C214.224 141.036 213.923 141.189 213.666 141.403L211.896 142.938L204.011 149.721C198.403 154.537 193.303 158.857 189.589 161.964L185.17 165.616C184.646 166.078 184.083 166.492 183.486 166.854C183.947 166.325 184.452 165.837 184.996 165.393L189.292 161.593C192.919 158.399 197.957 154.017 203.59 149.214L211.512 142.455L213.295 140.944C213.614 140.687 213.985 140.501 214.382 140.401C214.78 140.3 215.195 140.287 215.598 140.363L219.547 140.932L225.266 141.811C225.969 141.901 226.665 142.046 227.345 142.244Z" fill="#455A64"/>
<path d="M216.142 147.79C216.142 147.79 215.164 147.308 213.802 149.981C212.441 152.655 208.343 160.256 208.343 160.256L203.726 155.862L196.707 154.834C196.707 154.834 194.838 155.787 195.716 156.84C196.595 157.892 200.668 159.848 200.668 159.848L202.55 165.282L194.714 158.362C194.714 158.362 191.458 158.3 191.829 160.392C192.201 162.484 196.694 169.986 196.694 169.986L192.238 168.365L187.757 163.599C187.757 163.599 186.085 163.202 186.308 164.836C186.531 166.471 190.715 173.106 190.715 173.106L196.595 178.33C196.595 178.33 200.408 179.073 201.064 178.082C201.565 177.304 201.98 176.474 202.302 175.606C202.302 175.606 204.431 175.606 205.063 174.777C205.514 174.021 205.797 173.176 205.892 172.301C205.892 172.301 208.838 173.712 209.705 172.091C210.589 170.019 211.121 167.814 211.277 165.567C211.277 164.143 216.427 152.247 216.414 151.838C216.402 151.43 218.321 147.506 216.142 147.79Z" fill="#FFBE9D"/>
<path d="M201.3 178.094C200.667 178.254 200.003 178.254 199.369 178.094C196.226 177.683 193.358 176.089 191.348 173.638C190.605 172.697 190.295 172.016 190.37 171.967C190.444 171.917 192.189 174.306 195.321 175.99C198.453 177.673 201.325 177.859 201.3 178.094Z" fill="#EB996E"/>
<path d="M200.372 175.197C200.223 175.321 199.134 174.343 198.205 172.932C197.277 171.521 196.645 170.209 196.819 170.11C196.992 170.011 197.821 171.125 198.799 172.511C199.777 173.898 200.545 175.061 200.372 175.197Z" fill="#EB996E"/>
<path d="M205.607 170.32C205.458 170.444 204.369 169.491 203.54 168.03C202.894 167.203 202.506 166.204 202.426 165.158C202.624 165.084 203.292 166.248 204.159 167.634C205.025 169.02 205.768 170.184 205.607 170.32Z" fill="#EB996E"/>
<path d="M210.708 166.643C210.2 165.636 209.785 164.583 209.47 163.499C208.957 162.506 208.542 161.466 208.232 160.392C208.381 160.268 209.47 161.432 210.188 163.227C210.722 164.281 210.904 165.478 210.708 166.643Z" fill="#EB996E"/>
<path d="M180.738 175.47L195.234 188.505C195.234 188.505 172.555 213.264 165.524 218.76C158.492 224.257 167.764 181.375 167.764 181.375L180.738 175.47Z" fill="#455A64"/>
<path d="M131.556 97.9888L125.527 106.332L102.081 114.998L91.447 194.744L82.7816 266.061C82.7816 266.061 99.1345 268.97 103.183 263.028C107.911 256.108 144.851 262.347 147.302 264.266L152.105 248.173L155.98 266.767C155.98 266.767 162.801 268.314 166.366 258.101L164.856 222.721C164.856 222.721 169.659 158.919 169.386 149.3C169.114 139.682 162.615 112.955 162.615 112.955L160.139 120.841L139.02 102.829L131.556 97.9888Z" fill="#455A64"/>
<path d="M108.852 112.596C108.852 112.596 93.4526 112.596 88.4637 141.068C83.4749 169.54 76.3198 200.228 80.0088 211.63C83.6978 223.031 98.169 256.071 98.169 256.071L117.976 248.916L109.83 197.109L119.251 146.354C119.251 146.354 120.464 114.676 108.852 112.596Z" fill="#455A64"/>
<path d="M126.171 260.057L118.025 249.015L101.152 255.08C100.825 258.979 100.862 262.9 101.264 266.791C101.858 272.399 102.823 278.415 102.823 278.415L122.779 267.769C123.224 269.984 123.879 272.152 124.735 274.243C125.849 276.571 129.686 274.107 129.686 274.107L126.171 260.057Z" fill="#FFBE9D"/>
<path d="M119.3 146.478C119.3 146.478 119.3 146.788 119.164 147.382C119.028 147.976 118.904 148.88 118.706 150.031C118.285 152.383 117.678 155.8 116.886 160.182C115.277 168.996 112.949 181.672 110.102 197.221V197.134C112.442 211.89 115.24 229.567 118.31 248.928V249.164L118.074 249.25L98.2678 256.418L98.0078 256.505L97.8964 256.257C95.891 251.578 93.7494 246.638 91.5954 241.625C87.8074 232.65 84.1679 223.885 80.9369 215.257C80.5284 214.18 80.1694 213.091 79.8104 212.001C79.6247 211.457 79.5257 210.887 79.3772 210.33C79.2252 209.779 79.1216 209.216 79.0677 208.647C78.9012 207.527 78.802 206.398 78.7706 205.267C78.7706 204.153 78.6839 203.026 78.7706 201.925C78.8997 197.596 79.2675 193.277 79.8723 188.988C80.9617 180.608 82.4472 172.722 83.7965 165.344C85.1459 157.966 86.458 151.096 87.6217 144.82C88.154 141.675 88.7853 138.63 89.4043 135.882C89.8128 134.495 90.1966 133.146 90.5679 131.846C90.9393 130.546 91.5087 129.37 91.942 128.132C93.5236 124.06 95.9494 120.368 99.0601 117.301C101.044 115.376 103.44 113.928 106.067 113.067C106.749 112.852 107.449 112.698 108.159 112.609H108.703H108.889L108.171 112.696C107.47 112.813 106.779 112.982 106.104 113.203C103.523 114.108 101.173 115.571 99.221 117.486C96.1668 120.561 93.7924 124.243 92.2515 128.293C91.8182 129.531 91.3478 130.695 90.9146 132.007C90.4813 133.319 90.1594 134.644 89.7757 136.018C89.1691 138.828 88.5378 141.787 88.0426 144.943C86.8913 151.22 85.5667 158.102 84.3288 165.48C83.0909 172.858 81.5435 180.744 80.4665 189.112C79.8706 193.381 79.511 197.679 79.3895 201.987C79.3895 203.088 79.3895 204.19 79.3895 205.292C79.4264 206.402 79.5256 207.51 79.6866 208.609C79.7406 209.166 79.8442 209.717 79.9961 210.256C80.1323 210.788 80.2313 211.333 80.4046 211.878C80.776 212.955 81.135 214.032 81.5311 215.109C84.7126 223.7 88.4016 232.439 92.1896 241.439C94.3436 246.391 96.4728 251.342 98.4906 256.059L98.1192 255.91L117.926 248.755L117.74 249.077C114.707 229.691 111.959 212.014 109.657 197.258V197.183C112.578 181.648 114.967 168.984 116.626 160.182C117.468 155.812 118.124 152.396 118.582 150.056L119.102 147.419C119.226 146.775 119.3 146.478 119.3 146.478Z" fill="#263238"/>
<path d="M160.213 120.841C160.094 121.205 159.941 121.558 159.755 121.893C159.371 122.648 158.901 123.614 158.307 124.778L153.132 134.805L152.922 135.201L152.662 134.842C150.817 132.304 148.701 129.568 146.373 126.783C142.474 122.094 138.308 117.634 133.895 113.426C132.211 111.804 130.813 110.529 129.847 109.638C129.323 109.207 128.835 108.735 128.386 108.227C128.955 108.596 129.493 109.009 129.996 109.464C131.011 110.294 132.471 111.532 134.192 113.116C138.704 117.272 142.926 121.731 146.831 126.461C149.171 129.259 151.288 132.019 153.108 134.582H152.649L158.022 124.678L159.594 121.868C159.761 121.504 159.969 121.159 160.213 120.841Z" fill="#263238"/>
<path d="M165.412 125.087C165.61 125.087 166.65 128.64 165.895 133.467L165.771 134.322L165.35 133.542C165.127 133.133 164.904 132.688 164.694 132.23C163.568 129.754 162.973 127.34 162.354 125.681C161.735 124.022 161.277 123.044 161.352 122.995C161.953 123.759 162.426 124.616 162.751 125.532C163.469 127.166 164.149 129.543 165.226 131.982C165.424 132.428 165.635 132.861 165.858 133.22L165.313 133.294C165.616 131.358 165.708 129.395 165.585 127.439C165.548 125.978 165.35 125.111 165.412 125.087Z" fill="#263238"/>
<path d="M161.228 124.95C161.228 124.95 161.228 125.062 161.228 125.272C161.228 125.482 161.228 125.829 161.228 126.213C161.228 127.03 161.228 128.243 161.228 129.803C161.228 132.935 161.042 137.453 160.733 143.036C160.151 154.177 158.789 169.59 157.39 186.586C155.991 203.583 154.617 218.921 153.677 230.099C153.181 235.632 152.773 240.114 152.439 243.27C152.29 244.793 152.179 245.994 152.092 246.86C152.092 247.244 152.005 247.541 151.981 247.789C151.979 247.895 151.958 248 151.919 248.098V247.776C151.919 247.529 151.919 247.219 151.919 246.836C151.919 245.969 152.055 244.768 152.166 243.246C152.401 240.089 152.748 235.583 153.169 230.049C154.085 218.908 155.335 203.496 156.722 186.524C158.108 169.552 159.544 154.153 160.238 142.999C160.597 137.428 160.795 132.91 160.918 129.79C160.918 128.268 161.017 127.055 161.042 126.188C161.042 125.804 161.042 125.507 161.042 125.26C161.087 125.147 161.15 125.043 161.228 124.95Z" fill="#263238"/>
<path d="M169.597 152.68C169.757 152.68 168.879 168.463 167.616 187.898C166.353 207.334 165.214 223.08 165.041 223.068C164.868 223.055 165.771 207.297 167.022 187.849C168.272 168.401 169.374 152.667 169.597 152.68Z" fill="#263238"/>
<path d="M123.15 133.604C123.051 133.604 123.051 132.18 122.482 129.989C121.755 127.139 120.33 124.514 118.336 122.353C116.341 120.192 113.839 118.562 111.056 117.61C108.926 116.855 107.503 116.731 107.515 116.632C107.847 116.573 108.186 116.573 108.518 116.632C109.425 116.732 110.32 116.918 111.192 117.189C114.104 118.07 116.726 119.717 118.784 121.958C120.842 124.198 122.26 126.951 122.89 129.927C123.083 130.819 123.194 131.726 123.224 132.638C123.25 132.962 123.225 133.288 123.15 133.604Z" fill="#263238"/>
<g opacity="0.3">
<path d="M165.796 218.265C170.104 206.444 170.861 193.621 167.975 181.375C167.195 193.754 166.539 206.133 165.759 218.513" fill="black"/>
</g>
<g opacity="0.3">
<path d="M118.483 150.885C113.396 177.302 109.261 202.37 109.818 198.904L118.025 249.015L122.853 256.17C118.644 222.523 115.129 184.358 118.483 150.885Z" fill="black"/>
</g>
<path d="M122.728 267.942C122.815 268.079 117.628 270.988 111.166 274.429C104.704 277.87 99.4058 280.544 99.3192 280.396C99.2325 280.247 104.419 277.338 110.894 273.909C117.368 270.48 122.654 267.794 122.728 267.942Z" fill="#455A64"/>
<path d="M114.038 176.547C114.038 176.646 112.379 175.878 109.705 174.789C106.238 173.341 102.687 172.101 99.0716 171.075C95.4507 170.09 91.7763 169.313 88.0665 168.748C85.2069 168.315 83.4243 168.142 83.4367 168.03C83.8482 167.987 84.2631 167.987 84.6746 168.03C85.4793 168.03 86.6553 168.154 88.0913 168.302C91.8548 168.74 95.5794 169.464 99.2325 170.469C102.876 171.479 106.435 172.77 109.879 174.331C111.191 174.938 112.243 175.458 112.961 175.854C113.351 176.033 113.713 176.266 114.038 176.547Z" fill="white"/>
<path d="M112.034 216.754C111.733 216.966 111.404 217.133 111.056 217.25C110.412 217.534 109.446 217.906 108.258 218.327C105.147 219.42 101.961 220.288 98.7259 220.926C95.4864 221.566 92.2062 221.98 88.9092 222.164C87.6713 222.226 86.6315 222.251 85.9135 222.226C85.5481 222.258 85.1799 222.228 84.8241 222.139C86.1684 221.919 87.524 221.774 88.8845 221.706C91.3603 221.471 94.8389 221.038 98.6021 220.295C102.365 219.552 105.708 218.624 108.122 217.893C109.4 217.431 110.707 217.051 112.034 216.754Z" fill="white"/>
<path d="M122.556 138.308C122.444 138.382 121.454 136.822 119.399 134.705C118.2 133.465 116.9 132.326 115.512 131.301C113.797 130.066 111.974 128.988 110.065 128.082C108.145 127.211 106.147 126.523 104.098 126.027C102.435 125.624 100.742 125.354 99.0353 125.223C96.089 125.037 94.2569 125.223 94.2445 125.161C94.6452 125.029 95.0613 124.95 95.4824 124.926C95.9865 124.848 96.4951 124.802 97.0051 124.79C97.6771 124.752 98.3508 124.752 99.0229 124.79C100.78 124.841 102.529 125.056 104.247 125.433C108.468 126.359 112.435 128.197 115.871 130.818C117.271 131.878 118.569 133.067 119.746 134.371C120.184 134.87 120.597 135.391 120.984 135.931C121.31 136.321 121.608 136.735 121.875 137.169C122.148 137.519 122.377 137.901 122.556 138.308Z" fill="white"/>
<path d="M153.132 231.98C152.608 231.99 152.085 231.94 151.572 231.832C150.57 231.683 149.097 231.46 147.351 231.151C143.786 230.544 138.884 229.628 133.486 228.514C128.089 227.4 123.224 226.298 119.721 225.444C117.963 225.011 116.539 224.652 115.574 224.392C115.058 224.288 114.555 224.126 114.076 223.909C114.598 223.941 115.116 224.019 115.623 224.144L119.82 224.999L133.623 227.883L147.438 230.705L151.622 231.584C152.138 231.663 152.644 231.796 153.132 231.98Z" fill="white"/>
<path d="M156.487 187.614C156.487 187.788 146.584 187.193 134.304 186.277C122.024 185.361 112.145 184.47 112.157 184.297C112.17 184.123 122.061 184.718 134.353 185.634C146.646 186.55 156.5 187.429 156.487 187.614Z" fill="white"/>
<path d="M159.694 148.545C159.172 148.677 158.636 148.748 158.097 148.755C157.07 148.842 155.621 148.941 153.727 149.028C150.014 149.226 144.926 149.362 139.293 149.337C133.661 149.312 128.548 149.09 124.859 148.854C123.015 148.743 121.517 148.632 120.489 148.533C119.951 148.51 119.416 148.436 118.892 148.31C119.427 148.247 119.967 148.247 120.502 148.31L124.871 148.446C128.585 148.557 133.661 148.693 139.293 148.731C144.926 148.768 150.014 148.731 153.715 148.619L158.085 148.533C158.621 148.493 159.159 148.497 159.694 148.545Z" fill="white"/>
<path d="M133.388 112.076C132.424 112.395 131.434 112.627 130.429 112.769C125.671 113.758 121.031 115.252 116.589 117.225C115.693 117.694 114.756 118.084 113.792 118.389C114.59 117.76 115.463 117.232 116.391 116.817C118.581 115.7 120.858 114.764 123.2 114.019C125.536 113.263 127.928 112.696 130.355 112.323C131.351 112.11 132.37 112.027 133.388 112.076Z" fill="white"/>
<path d="M158.171 126.064C157.758 125.779 157.376 125.451 157.032 125.086L154.061 122.288C151.585 119.924 148.082 116.681 144.158 113.215C140.233 109.748 136.569 106.691 133.908 104.549L130.751 101.962C130.343 101.666 129.969 101.326 129.637 100.947C130.075 101.177 130.49 101.451 130.875 101.764C131.667 102.321 132.793 103.15 134.155 104.24C136.903 106.332 140.617 109.34 144.566 112.818C148.515 116.297 151.994 119.59 154.383 122.053C155.621 123.291 156.562 124.282 157.205 125C157.566 125.317 157.89 125.674 158.171 126.064Z" fill="white"/>
<path d="M169.511 149.263C167.991 149.352 166.467 149.306 164.955 149.127C163.436 149.17 161.916 149.083 160.412 148.867C161.899 148.442 163.455 148.312 164.992 148.484C166.534 148.452 168.068 148.717 169.511 149.263Z" fill="white"/>
<path d="M166.588 190.548C165.062 190.836 163.504 190.907 161.958 190.759C160.407 190.831 158.853 190.689 157.341 190.338C158.866 190.049 160.424 189.974 161.971 190.115C163.522 190.048 165.076 190.193 166.588 190.548Z" fill="white"/>
<path d="M165.153 231.807C163.265 232.48 161.31 232.949 159.322 233.206C157.371 233.676 155.374 233.934 153.368 233.973C155.255 233.298 157.21 232.829 159.198 232.575C161.151 232.111 163.146 231.854 165.153 231.807Z" fill="white"/>
<path d="M184.452 199.498C183.794 198.607 183.218 197.658 182.731 196.663C181.728 194.893 180.255 192.442 178.671 189.805C177.086 187.168 175.44 184.853 174.289 183.132C173.611 182.258 173.01 181.326 172.494 180.347C173.304 181.09 174.031 181.921 174.66 182.823C175.898 184.445 177.557 186.76 179.215 189.409C180.874 192.058 182.224 194.558 183.14 196.403C183.688 197.384 184.128 198.421 184.452 199.498Z" fill="white"/>
</g>
<defs>
<clipPath id="clip0_16_226">
<rect width="666" height="507.546" fill="white" transform="translate(0 0.193359)"/>
</clipPath>
</defs>
</svg>
