<svg width="5rem" height="5rem" viewBox="0 0 83 80" fill="none" xmlns="http://www.w3.org/2000/svg">
<path d="M2.85712 40C2.85712 61.4286 20 78.5714 41.4285 78.5714C62.8571 78.5714 80 61.4286 80 40C80 18.5714 62.8571 1.42856 41.4285 1.42856C20 1.42856 2.85712 18.5714 2.85712 40ZM62.8571 40C62.8571 51.7143 53.1428 61.4286 41.4285 61.4286C29.7143 61.4286 20 51.7143 20 40C20 28.2857 29.7143 18.5714 41.4285 18.5714C53.1428 18.5714 62.8571 28.2857 62.8571 40Z" fill="#EEF2FA"/>
<path d="M44.2857 61.1428C45.1428 61.1428 46.2857 61.4286 47.1428 61.4286C58.8571 61.4286 68.5714 51.7143 68.5714 40C68.5714 28.2857 58.8571 18.5714 47.1428 18.5714C46.2857 18.5714 45.1428 18.5714 44.2857 18.8571C54.8571 20.2857 62.8571 29.1428 62.8571 40C62.8571 50.8571 54.8571 59.7143 44.2857 61.1428ZM8.5714 40C8.5714 19.7143 24.2857 3.14284 44.2857 1.71427C43.4285 1.71427 42.2857 1.42856 41.4285 1.42856C20 1.42856 2.85712 18.5714 2.85712 40C2.85712 61.4286 20 78.5714 41.4285 78.5714C42.2857 78.5714 43.4285 78.5714 44.2857 78.2857C24.2857 76.8571 8.5714 60.2857 8.5714 40Z" fill="#D5E5F2"/>
<path d="M41.4285 61.4286C38.5714 61.4286 36 60.8571 33.4285 59.7143L29.7143 76.5714C33.4285 77.7143 37.4285 78.5714 41.4285 78.5714C45.4285 78.5714 49.4285 78 53.1428 76.5714L49.4285 59.7143C46.8571 60.8571 44.2857 61.4286 41.4285 61.4286ZM78 28.2857L61.1428 32C62.2857 34.5714 62.8571 37.1428 62.8571 40C62.8571 42.8571 62.2857 45.4286 61.1428 48L78 51.7143C79.1428 48 80 44 80 40C80 36 79.4285 32 78 28.2857ZM41.4285 18.5714C44.2857 18.5714 46.8571 19.1428 49.4285 20.2857L53.1428 3.42856C49.4285 2.2857 45.4285 1.42856 41.4285 1.42856C37.4285 1.42856 33.4285 1.99999 29.7143 3.42856L33.4285 20.2857C36 19.1428 38.5714 18.5714 41.4285 18.5714ZM20 40C20 37.1428 20.5714 34.5714 21.7143 32L4.85712 28.2857C3.42855 32 2.85712 36 2.85712 40C2.85712 44 3.42855 48 4.85712 51.7143L21.7143 48C20.5714 45.4286 20 42.8571 20 40Z" fill="#1CBEF5" fill-opacity="0.65"/>
<path d="M16 44.8569C12.8571 45.4283 9.71426 43.4283 9.14283 40.2854C8.85712 38.2854 8.5714 36.2854 8.5714 34.2854C8.5714 32.5712 8.85712 30.8569 8.85712 29.1426L4.5714 28.2854C3.42855 31.9997 2.85712 35.9997 2.85712 39.9997C2.85712 43.9997 3.42855 47.9997 4.85712 51.714L21.7143 47.9997C21.1428 46.5711 20.8571 45.1426 20.5714 43.714L16 44.8569ZM36.5714 14.5711C36 11.4283 38 8.28543 41.1428 7.71401C43.1428 7.42829 45.1428 7.14258 47.1428 7.14258C48.8571 7.14258 50.5714 7.42829 52.2857 7.42829L53.1428 3.14258C49.4286 1.99972 45.4286 1.14258 41.4286 1.14258C37.4286 1.14258 33.4285 1.71401 29.7143 3.14258L33.4285 19.9997C34.8571 19.4283 36.2857 19.1426 37.7143 18.8569L36.5714 14.5711ZM66.8571 35.1426C70 34.5711 73.1428 36.5712 73.7143 39.714C74 41.714 74.2857 43.714 74.2857 45.714C74.2857 47.4283 74 49.1426 74 50.8569L78.2857 51.714C79.4286 47.9997 80.2857 43.9997 80.2857 39.9997C80.2857 35.9997 79.7143 31.9997 78.2857 28.2854L61.4286 31.9997C62 33.4283 62.2857 34.8569 62.5714 36.2854L66.8571 35.1426ZM46.2857 65.4283C46.8571 68.5712 44.8571 71.714 41.7143 72.2854C39.7143 72.5712 37.7143 72.8569 35.7143 72.8569C34 72.8569 32.2857 72.5712 30.5714 72.5712L29.7143 76.8569C33.4285 77.9997 37.4286 78.8569 41.4286 78.8569C45.4286 78.8569 49.4286 78.2854 53.1428 76.8569L49.4285 59.9997C48 60.5712 46.5714 60.8569 45.1428 61.1426L46.2857 65.4283Z" fill="#1CBEF5"/>
<path d="M41.4286 80C19.4286 80 1.42859 62 1.42859 40C1.42859 18 19.4286 0 41.4286 0C63.4286 0 81.4286 18 81.4286 40C81.4286 62 63.4286 80 41.4286 80ZM41.4286 2.85714C20.8572 2.85714 4.28573 19.4286 4.28573 40C4.28573 60.5714 20.8572 77.1429 41.4286 77.1429C62 77.1429 78.5714 60.5714 78.5714 40C78.5714 19.4286 62 2.85714 41.4286 2.85714Z" fill="#0B1E51"/>
<path d="M41.4286 62.8571C28.8571 62.8571 18.5714 52.5714 18.5714 40C18.5714 27.4286 28.8571 17.1429 41.4286 17.1429C54 17.1429 64.2857 27.4286 64.2857 40C64.2857 52.5714 54 62.8571 41.4286 62.8571ZM41.4286 20C30.2857 20 21.4286 28.8571 21.4286 40C21.4286 51.1429 30.2857 60 41.4286 60C52.5714 60 61.4286 51.1429 61.4286 40C61.4286 28.8571 52.5714 20 41.4286 20Z" fill="#0B1E51"/>
<path d="M4.57115 53.1426C3.99972 53.1426 3.42829 52.8569 3.14258 52.2854C1.99972 48.2854 1.14258 44.2854 1.14258 39.9997C1.14258 35.714 1.71401 31.714 3.14258 27.714C3.42829 27.1426 3.99972 26.5711 4.85686 26.8569L21.714 30.5711C21.9997 30.5711 22.5711 30.8569 22.5711 31.4283C22.5711 31.9997 22.8569 32.2854 22.5711 32.5711C21.714 34.8569 21.1426 37.4283 21.1426 39.9997C21.1426 42.5711 21.714 45.1426 22.5711 47.4283C22.8569 47.714 22.5711 48.2854 22.5711 48.5711C22.5711 48.8569 21.9997 49.1426 21.714 49.4283L4.85686 53.1426H4.57115V53.1426ZM5.71401 29.9997C4.85686 33.4283 4.28544 36.5711 4.28544 39.9997C4.28544 43.4283 4.85686 46.8569 5.71401 49.9997L19.714 46.8569C18.8569 44.5711 18.5711 42.2854 18.5711 39.714C18.5711 37.1426 18.8569 34.8569 19.714 32.5711L5.71401 29.9997V29.9997ZM41.4283 79.9997C37.1426 79.9997 33.1426 79.4283 29.1426 77.9997C28.5712 77.714 27.9997 77.1426 28.2854 76.2854L31.9997 59.4283C31.9997 59.1426 32.2854 58.5711 32.8569 58.5711C33.1426 58.2854 33.714 58.2854 33.9997 58.5711C38.8569 60.5711 44.2854 60.5711 49.1426 58.5711C49.4283 58.2854 49.9997 58.5711 50.2854 58.5711L51.1426 59.4283L54.8569 76.2854C55.1426 77.1426 54.5712 77.714 53.9997 77.9997C49.714 79.4283 45.714 79.9997 41.4283 79.9997V79.9997ZM31.4283 75.714C37.9997 77.714 45.1426 77.714 51.714 75.714L48.5712 61.714C43.9997 63.1426 39.1426 63.1426 34.5712 61.714L31.4283 75.714ZM78.2854 53.1426H77.9997L61.1426 49.4283C60.8569 49.4283 60.2854 49.1426 60.2854 48.5711C60.2854 47.9997 59.9997 47.714 60.2854 47.4283C61.1426 45.1426 61.714 42.5711 61.714 39.9997C61.714 37.4283 61.1426 34.8569 60.2854 32.5711C59.9997 32.2854 60.2854 31.714 60.2854 31.4283C60.2854 31.1426 60.8569 30.8569 61.1426 30.5711L77.9997 26.8569C78.5712 26.5711 79.4283 27.1426 79.714 27.714C80.8569 31.714 81.714 35.714 81.714 39.9997C81.714 44.2854 81.1426 48.2854 79.714 52.2854C79.4283 52.8569 78.8569 53.1426 78.2854 53.1426ZM63.1426 47.1426L77.1426 50.2854C77.9997 46.8569 78.5712 43.714 78.5712 40.2854C78.5712 36.8569 77.9997 33.4283 77.1426 30.2854L63.1426 33.4283C63.9997 35.714 64.2854 37.9997 64.2854 40.5711C64.2854 43.1426 63.9997 44.8569 63.1426 47.1426V47.1426ZM33.4283 21.714C33.1426 21.714 32.8569 21.714 32.8569 21.4283L31.9997 20.5711L28.2854 3.71399C27.9997 2.85685 28.5712 2.28542 29.1426 1.99971C37.1426 -0.571721 45.714 -0.571721 53.714 1.99971C54.2854 2.28542 54.8569 2.85685 54.5712 3.71399L50.8569 20.5711C50.8569 20.8569 50.5712 21.4283 49.9997 21.4283C49.714 21.714 49.1426 21.714 48.8569 21.4283C43.9997 19.4283 38.5712 19.4283 33.714 21.4283L33.4283 21.714V21.714ZM31.4283 4.28542L34.2854 18.2854C38.8569 16.8568 43.714 16.8568 48.2854 18.2854L51.4283 4.28542C44.8569 2.28542 37.9997 2.28542 31.4283 4.28542Z" fill="#0B1E51"/>
</svg>
