<svg width="377" height="146" viewBox="0 0 377 146" fill="none" xmlns="http://www.w3.org/2000/svg">
<path d="M29.5588 4.50353V10.3039H15.7307V94.7112H29.5588V100.512H8.58457V4.50353H29.5588Z" fill="white"/>
<path d="M345.967 4.50353H366.894V100.465H345.967V94.6648H359.748V10.3039H345.967V4.50353Z" fill="white"/>
<path d="M65.7688 86.0209C77.9265 86.0209 88.5064 79.71 93.7963 70.151L89.4344 67.6452C85.1653 75.8122 76.0703 81.2878 65.7688 81.2878C48.6925 81.2878 36.9061 68.4805 36.9061 52.5178C36.9061 36.5552 48.6925 23.7479 65.7688 23.7479C75.9775 23.7479 84.9797 29.1307 89.2488 37.112L93.6107 34.6062C88.2279 25.14 77.7408 19.0148 65.7688 19.0148C46.0011 19.0148 31.9874 33.9566 31.9874 52.5178C31.9874 71.0791 46.0011 86.0209 65.7688 86.0209Z" fill="white"/>
<path d="M93.7963 70.151L95.9899 71.3649L97.1846 69.2061L95.0452 67.9771L93.7963 70.151ZM89.4344 67.6452L90.6833 65.4713L88.4211 64.1718L87.2126 66.4838L89.4344 67.6452ZM89.2488 37.112L87.0381 38.2945L88.2569 40.5731L90.4977 39.2859L89.2488 37.112ZM93.6107 34.6062L94.8596 36.7801L97.0239 35.5368L95.7901 33.367L93.6107 34.6062ZM65.7688 88.528C78.7946 88.528 90.2375 81.7596 95.9899 71.3649L91.6027 68.9371C86.7752 77.6605 77.0584 83.5138 65.7688 83.5138V88.528ZM95.0452 67.9771L90.6833 65.4713L88.1856 69.8192L92.5475 72.3249L95.0452 67.9771ZM87.2126 66.4838C83.405 73.7678 75.2016 78.7807 65.7688 78.7807V83.7948C76.9391 83.7948 86.9257 77.8565 91.6563 68.8067L87.2126 66.4838ZM65.7688 78.7807C50.1302 78.7807 39.4132 67.1495 39.4132 52.5178H34.399C34.399 69.8115 47.2548 83.7948 65.7688 83.7948V78.7807ZM39.4132 52.5178C39.4132 37.8861 50.1302 26.255 65.7688 26.255V21.2408C47.2548 21.2408 34.399 35.2242 34.399 52.5178H39.4132ZM65.7688 26.255C75.1174 26.255 83.2349 31.1841 87.0381 38.2945L91.4595 35.9295C86.7246 27.0772 76.8377 21.2408 65.7688 21.2408V26.255ZM90.4977 39.2859L94.8596 36.7801L92.3619 32.4323L88 34.9381L90.4977 39.2859ZM95.7901 33.367C89.9401 23.0791 78.5979 16.5077 65.7688 16.5077V21.5219C76.8838 21.5219 86.5158 27.2009 91.4313 35.8455L95.7901 33.367ZM65.7688 16.5077C44.5847 16.5077 29.4803 32.604 29.4803 52.5178H34.4945C34.4945 35.3092 47.4176 21.5219 65.7688 21.5219V16.5077ZM29.4803 52.5178C29.4803 72.4317 44.5847 88.528 65.7688 88.528V83.5138C47.4176 83.5138 34.4945 69.7265 34.4945 52.5178H29.4803Z" fill="white"/>
<path d="M151.272 88.3705C170.019 88.3705 184.775 73.4287 184.775 54.8674C184.775 36.3062 170.019 21.3644 151.272 21.3644C132.525 21.3644 117.769 36.3062 117.769 54.8674C117.769 73.4287 132.525 88.3705 151.272 88.3705ZM151.272 83.6374C135.216 83.6374 122.687 70.8301 122.687 54.8674C122.687 38.9048 135.216 26.0975 151.272 26.0975C167.327 26.0975 179.856 38.9048 179.856 54.8674C179.856 70.8301 167.327 83.6374 151.272 83.6374Z" fill="white"/>
<path d="M151.272 90.8776C171.412 90.8776 187.282 74.8042 187.282 54.8674H182.268C182.268 72.0531 168.625 85.8634 151.272 85.8634V90.8776ZM187.282 54.8674C187.282 34.9306 171.412 18.8573 151.272 18.8573V23.8715C168.625 23.8715 182.268 37.6817 182.268 54.8674H187.282ZM151.272 18.8573C131.131 18.8573 115.262 34.9306 115.262 54.8674H120.276C120.276 37.6817 133.919 23.8715 151.272 23.8715V18.8573ZM115.262 54.8674C115.262 74.8042 131.131 90.8776 151.272 90.8776V85.8634C133.919 85.8634 120.276 72.0531 120.276 54.8674H115.262ZM151.272 81.1303C136.627 81.1303 125.195 69.4721 125.195 54.8674H120.18C120.18 72.1881 133.805 86.1445 151.272 86.1445V81.1303ZM125.195 54.8674C125.195 40.2628 136.627 28.6046 151.272 28.6046V23.5904C133.805 23.5904 120.18 37.5467 120.18 54.8674H125.195ZM151.272 28.6046C165.916 28.6046 177.349 40.2628 177.349 54.8674H182.363C182.363 37.5467 168.738 23.5904 151.272 23.5904V28.6046ZM177.349 54.8674C177.349 69.4721 165.916 81.1303 151.272 81.1303V86.1445C168.738 86.1445 182.363 72.1881 182.363 54.8674H177.349Z" fill="white"/>
<path d="M236.958 22.3853H212.55V87.3496H236.958C254.87 87.3496 267.584 72.779 267.584 54.8674C267.584 36.9558 254.87 22.3853 236.958 22.3853ZM236.958 82.7093H217.469V27.0256H236.958C252.271 27.0256 262.758 39.4616 262.758 54.8674C262.758 70.2733 252.271 82.7093 236.958 82.7093Z" fill="white"/>
<path d="M212.55 22.3853V19.8782H210.043V22.3853H212.55ZM212.55 87.3496H210.043V89.8567H212.55V87.3496ZM217.469 82.7093H214.962V85.2164H217.469V82.7093ZM217.469 27.0256V24.5185H214.962V27.0256H217.469ZM236.958 19.8782H212.55V24.8924H236.958V19.8782ZM210.043 22.3853V87.3496H215.057V22.3853H210.043ZM212.55 89.8567H236.958V84.8425H212.55V89.8567ZM236.958 89.8567C256.445 89.8567 270.092 73.9657 270.092 54.8674H265.077C265.077 71.5924 253.295 84.8425 236.958 84.8425V89.8567ZM270.092 54.8674C270.092 35.7692 256.445 19.8782 236.958 19.8782V24.8924C253.295 24.8924 265.077 38.1425 265.077 54.8674H270.092ZM236.958 80.2022H217.469V85.2164H236.958V80.2022ZM219.976 82.7093V27.0256H214.962V82.7093H219.976ZM217.469 29.5327H236.958V24.5185H217.469V29.5327ZM236.958 29.5327C250.647 29.5327 260.251 40.5938 260.251 54.8674H265.266C265.266 38.3294 253.896 24.5185 236.958 24.5185V29.5327ZM260.251 54.8674C260.251 69.1411 250.647 80.2022 236.958 80.2022V85.2164C253.896 85.2164 265.266 71.4054 265.266 54.8674H260.251Z" fill="white"/>
<path d="M300.9 82.7093V56.9092H330.598V52.2689H300.9V27.0256H332.918V22.3853H295.982V87.3496H333.382V82.7093H300.9Z" fill="white"/>
<path d="M300.9 82.7093H298.393V85.2164H300.9V82.7093ZM300.9 56.9092V54.4021H298.393V56.9092H300.9ZM330.598 56.9092V59.4163H333.105V56.9092H330.598ZM330.598 52.2689H333.105V49.7618H330.598V52.2689ZM300.9 52.2689H298.393V54.776H300.9V52.2689ZM300.9 27.0256V24.5185H298.393V27.0256H300.9ZM332.918 27.0256V29.5327H335.426V27.0256H332.918ZM332.918 22.3853H335.426V19.8782H332.918V22.3853ZM295.982 22.3853V19.8782H293.474V22.3853H295.982ZM295.982 87.3496H293.474V89.8567H295.982V87.3496ZM333.382 87.3496V89.8567H335.89V87.3496H333.382ZM333.382 82.7093H335.89V80.2022H333.382V82.7093ZM303.407 82.7093V56.9092H298.393V82.7093H303.407ZM300.9 59.4163H330.598V54.4021H300.9V59.4163ZM333.105 56.9092V52.2689H328.091V56.9092H333.105ZM330.598 49.7618H300.9V54.776H330.598V49.7618ZM303.407 52.2689V27.0256H298.393V52.2689H303.407ZM300.9 29.5327H332.918V24.5185H300.9V29.5327ZM335.426 27.0256V22.3853H330.411V27.0256H335.426ZM332.918 19.8782H295.982V24.8924H332.918V19.8782ZM293.474 22.3853V87.3496H298.489V22.3853H293.474ZM295.982 89.8567H333.382V84.8425H295.982V89.8567ZM335.89 87.3496V82.7093H330.875V87.3496H335.89ZM333.382 80.2022H300.9V85.2164H333.382V80.2022Z" fill="white"/>
<path d="M32.8164 116.293H28.0028L22.2866 125.649L16.5704 116.293H11.7568V137.353H16.5704V125.108L22.0158 134.043H22.5573L28.0028 125.108V137.353H32.8164V116.293ZM99.7653 137.353H105.03L97.8699 116.293H91.7326L84.5723 137.353H89.8372L90.8902 134.043H98.7123L99.7653 137.353ZM92.3343 129.53L94.8012 121.799L97.2682 129.53H92.3343ZM169.409 116.293H153.765V120.926H159.18V137.353H163.994V120.926H169.409V116.293ZM232.529 137.353H237.703L233.221 129.621C235.537 128.447 237.102 126.101 237.102 123.513C237.102 119.512 233.883 116.293 229.881 116.293H221.457V137.353H226.271V130.433H228.558L232.529 137.353ZM226.271 120.806H229.881C231.205 120.806 232.288 121.979 232.288 123.513C232.288 125.048 231.205 126.221 229.881 126.221H226.271V120.806ZM289.908 116.293V137.353H294.722V116.293H289.908ZM364.829 137.353L358.541 126.552L364.528 116.293H359.052L355.803 121.859L352.554 116.293H347.078L353.065 126.552L346.778 137.353H352.253L355.803 131.275L359.353 137.353H364.829Z" fill="white"/>
<g clip-path="url(#clip0_16_158)">
<path d="M142.005 50.3374L135.578 55.6935L142.005 61.0497" stroke="white" stroke-width="3.21367" stroke-linecap="round" stroke-linejoin="round"/>
<path d="M159.145 50.3374L165.572 55.6935L159.145 61.0497" stroke="white" stroke-width="3.21367" stroke-linecap="round" stroke-linejoin="round"/>
<path d="M154.86 43.9102L146.29 67.4771" stroke="white" stroke-width="3.21367" stroke-linecap="round" stroke-linejoin="round"/>
</g>
<defs>
<clipPath id="clip0_16_158">
<rect width="33.208" height="26.7806" fill="white" transform="translate(133.971 42.3027)"/>
</clipPath>
</defs>
</svg>
