<svg width="5rem" height="5rem" viewBox="0 0 80 80" fill="none" xmlns="http://www.w3.org/2000/svg">
<g clip-path="url(#clip0_16_889)">
<path d="M21.25 8.75H3.75C3.08696 8.75 2.45107 9.01339 1.98223 9.48223C1.51339 9.95107 1.25 10.587 1.25 11.25V21.25C1.25 21.913 1.51339 22.5489 1.98223 23.0178C2.45107 23.4866 3.08696 23.75 3.75 23.75H7.0525C7.4783 23.7502 7.897 23.8592 8.26888 24.0665C8.64077 24.2739 8.95353 24.5729 9.1775 24.935L10.3725 26.865C10.5967 27.2268 10.9096 27.5253 11.2814 27.7323C11.6533 27.9394 12.0719 28.048 12.4975 28.048C12.9231 28.048 13.3417 27.9394 13.7136 27.7323C14.0854 27.5253 14.3983 27.2268 14.6225 26.865L15.8175 24.935C16.0415 24.5729 16.3542 24.2739 16.7261 24.0665C17.098 23.8592 17.5167 23.7502 17.9425 23.75H21.25C21.913 23.75 22.5489 23.4866 23.0178 23.0178C23.4866 22.5489 23.75 21.913 23.75 21.25V11.25C23.75 10.587 23.4866 9.95107 23.0178 9.48223C22.5489 9.01339 21.913 8.75 21.25 8.75Z" fill="#FBBC05"/>
<path d="M76.25 8.75H58.75C58.087 8.75 57.4511 9.01339 56.9822 9.48223C56.5134 9.95107 56.25 10.587 56.25 11.25V21.25C56.25 21.913 56.5134 22.5489 56.9822 23.0178C57.4511 23.4866 58.087 23.75 58.75 23.75H62.0525C62.4783 23.7502 62.897 23.8592 63.2689 24.0665C63.6408 24.2739 63.9535 24.5729 64.1775 24.935L65.3725 26.865C65.5967 27.2268 65.9096 27.5253 66.2814 27.7323C66.6533 27.9394 67.0719 28.048 67.4975 28.048C67.9231 28.048 68.3417 27.9394 68.7136 27.7323C69.0854 27.5253 69.3983 27.2268 69.6225 26.865L70.8175 24.935C71.0415 24.5729 71.3542 24.2739 71.7261 24.0665C72.098 23.8592 72.5167 23.7502 72.9425 23.75H76.25C76.913 23.75 77.5489 23.4866 78.0178 23.0178C78.4866 22.5489 78.75 21.913 78.75 21.25V11.25C78.75 10.587 78.4866 9.95107 78.0178 9.48223C77.5489 9.01339 76.913 8.75 76.25 8.75Z" fill="#4530B2"/>
<path d="M48.75 1.25H31.25C30.587 1.25 29.9511 1.51339 29.4822 1.98223C29.0134 2.45107 28.75 3.08696 28.75 3.75V13.75C28.75 14.413 29.0134 15.0489 29.4822 15.5178C29.9511 15.9866 30.587 16.25 31.25 16.25H34.5525C34.9783 16.2502 35.397 16.3592 35.7689 16.5665C36.1408 16.7739 36.4535 17.0729 36.6775 17.435L37.8725 19.365C38.0967 19.7268 38.4096 20.0253 38.7814 20.2323C39.1533 20.4394 39.5719 20.548 39.9975 20.548C40.4231 20.548 40.8417 20.4394 41.2136 20.2323C41.5854 20.0253 41.8983 19.7268 42.1225 19.365L43.3175 17.435C43.5415 17.0729 43.8542 16.7739 44.2261 16.5665C44.598 16.3592 45.0167 16.2502 45.4425 16.25H48.75C49.413 16.25 50.0489 15.9866 50.5178 15.5178C50.9866 15.0489 51.25 14.413 51.25 13.75V3.75C51.25 3.08696 50.9866 2.45107 50.5178 1.98223C50.0489 1.51339 49.413 1.25 48.75 1.25Z" fill="#1CBEF5"/>
<path d="M33.75 11.25H46.25" stroke="#0B1E51" stroke-width="1.47" stroke-linecap="round" stroke-linejoin="round"/>
<path d="M33.75 6.25H46.25" stroke="#0B1E51" stroke-width="1.47" stroke-linecap="round" stroke-linejoin="round"/>
<path d="M48.7498 34.9999C48.7498 37.3205 47.8279 39.5461 46.187 41.1871C44.5461 42.828 42.3205 43.7499 39.9998 43.7499C37.6792 43.7499 35.4536 42.828 33.8126 41.1871C32.1717 39.5461 31.2498 37.3205 31.2498 34.9999C31.2457 34.8079 31.254 34.6158 31.2748 34.4249C31.4245 32.2457 32.3838 30.2012 33.9643 28.6934C35.5448 27.1856 37.6321 26.3234 39.816 26.2764C41.9999 26.2294 44.1223 27.001 45.7662 28.4394C47.4101 29.8778 48.4565 31.8791 48.6998 34.0499C48.7248 34.3749 48.7498 34.6749 48.7498 34.9999Z" fill="#FFD9AA"/>
<path d="M48.6994 34.0499L47.4994 33.7499L40.3494 31.7249C39.2769 31.4191 38.1329 31.4807 37.0994 31.8999L32.4994 33.7499L31.2744 34.4249C31.4241 32.2457 32.3834 30.2012 33.9639 28.6934C35.5444 27.1856 37.6317 26.3234 39.8156 26.2764C41.9995 26.2294 44.1219 27.001 45.7658 28.4394C47.4097 29.8778 48.4561 31.8791 48.6994 34.0499Z" fill="#57565D"/>
<path d="M43.75 48.75C47.0652 48.75 50.2446 50.067 52.5888 52.4112C54.933 54.7554 56.25 57.9348 56.25 61.25V71.25H23.75V61.25C23.75 57.9348 25.067 54.7554 27.4112 52.4112C29.7554 50.067 32.9348 48.75 36.25 48.75H43.75Z" fill="#4530B2"/>
<path d="M43.75 41.25V47.5C43.75 48.4946 43.3549 49.4484 42.6516 50.1516C41.9484 50.8549 40.9946 51.25 40 51.25C39.0054 51.25 38.0516 50.8549 37.3483 50.1516C36.6451 49.4484 36.25 48.4946 36.25 47.5V41.25H43.75Z" fill="#FFD9AA"/>
<path d="M13.75 48.75H6.25V58.75H13.75V48.75Z" fill="#FFD9AA"/>
<path d="M73.75 48.75H66.25V58.75H73.75V48.75Z" fill="#FFD9AA"/>
<path d="M18.7501 42.5005C18.7556 44.4861 18.084 46.4144 16.8461 47.967C15.6083 49.5196 13.8781 50.6038 11.941 51.0407C10.004 51.4777 7.97592 51.2412 6.1914 50.3703C4.40687 49.4994 2.97255 48.0462 2.1251 46.2505H2.1001C1.53455 45.0816 1.2438 43.7989 1.2501 42.5005C1.25585 40.5018 1.94567 38.5654 3.20481 37.0132C4.46396 35.461 6.21654 34.3867 8.17105 33.9689C10.1256 33.5512 12.1642 33.8151 13.9479 34.7168C15.7315 35.6186 17.1527 37.1038 17.9751 38.9255C18.4874 40.0476 18.7518 41.2669 18.7501 42.5005Z" fill="#FFD9AA"/>
<path d="M33.7501 67.5001C33.7501 68.4946 33.355 69.4485 32.6517 70.1517C31.9485 70.855 30.9946 71.2501 30.0001 71.2501H13.7501V78.7501H1.25007V61.2501C1.24658 60.5936 1.37538 59.9431 1.6288 59.3374C1.88223 58.7318 2.25506 58.1834 2.72507 57.7251C3.18345 57.2551 3.73182 56.8822 4.33745 56.6288C4.94308 56.3754 5.59356 56.2466 6.25007 56.2501H12.0001C13.137 56.2481 14.2401 56.6364 15.1251 57.3501L23.1251 63.7501H30.0001C30.9946 63.7501 31.9485 64.1452 32.6517 64.8484C33.355 65.5517 33.7501 66.5055 33.7501 67.5001Z" fill="#FBBC05"/>
<path d="M17.9751 38.9255L6.2501 41.2505V46.2505H2.1001C1.53455 45.0816 1.2438 43.7989 1.2501 42.5005C1.25585 40.5018 1.94567 38.5654 3.20481 37.0132C4.46396 35.461 6.21654 34.3867 8.17105 33.9689C10.1256 33.5512 12.1642 33.8151 13.9479 34.7168C15.7315 35.6186 17.1527 37.1038 17.9751 38.9255Z" fill="#57565D"/>
<path d="M61.25 42.5005C61.2445 44.4861 61.9161 46.4144 63.154 47.967C64.3919 49.5196 66.1221 50.6038 68.0591 51.0407C69.9961 51.4777 72.0242 51.2412 73.8087 50.3703C75.5933 49.4994 77.0276 48.0462 77.875 46.2505H77.9C78.4656 45.0816 78.7563 43.7989 78.75 42.5005C78.7443 40.5018 78.0545 38.5654 76.7953 37.0132C75.5362 35.461 73.7836 34.3867 71.8291 33.9689C69.8746 33.5512 67.8359 33.8151 66.0523 34.7168C64.2686 35.6186 62.8474 37.1038 62.025 38.9255C61.5127 40.0476 61.2484 41.2669 61.25 42.5005Z" fill="#FFD9AA"/>
<path d="M62.0251 38.9255L73.7501 41.2505V46.2505H77.9001C78.4657 45.0816 78.7564 43.7989 78.7501 42.5005C78.7444 40.5018 78.0546 38.5654 76.7954 37.0132C75.5363 35.461 73.7837 34.3867 71.8292 33.9689C69.8747 33.5512 67.836 33.8151 66.0524 34.7168C64.2687 35.6186 62.8475 37.1038 62.0251 38.9255Z" fill="#57565D"/>
<path d="M78.75 61.25V78.75H66.25V71.25H50C49.0054 71.25 48.0516 70.8549 47.3484 70.1517C46.6451 69.4484 46.25 68.4946 46.25 67.5C46.25 66.5054 46.6451 65.5516 47.3484 64.8484C48.0516 64.1451 49.0054 63.75 50 63.75H56.875L64.875 57.35C65.76 56.6364 66.8631 56.2481 68 56.25H73.75C75.073 56.2598 76.3391 56.7898 77.2747 57.7253C78.2103 58.6609 78.7402 59.927 78.75 61.25Z" fill="#1CBEF5"/>
<path d="M66.25 71.25H13.75V78.75H66.25V71.25Z" fill="#57565D"/>
<path d="M33.75 67.5C33.75 68.4946 33.3549 69.4484 32.6517 70.1516C31.9484 70.8549 30.9946 71.25 30 71.25H26.25V63.75H30C30.9946 63.75 31.9484 64.1451 32.6517 64.8484C33.3549 65.5516 33.75 66.5054 33.75 67.5ZM53.75 63.75V71.25H50C49.0054 71.25 48.0516 70.8549 47.3484 70.1516C46.6451 69.4484 46.25 68.4946 46.25 67.5C46.25 66.5054 46.6451 65.5516 47.3484 64.8484C48.0516 64.1451 49.0054 63.75 50 63.75H53.75Z" fill="#FFD9AA"/>
<path d="M31.2488 17.5H34.5513C34.7642 17.5001 34.9735 17.5546 35.1595 17.6583C35.3454 17.762 35.5018 17.9114 35.6138 18.0925L36.8088 20.0225C37.1448 20.5663 37.6143 21.0151 38.1726 21.3264C38.7309 21.6377 39.3595 21.8011 39.9988 21.8011C40.638 21.8011 41.2666 21.6377 41.8249 21.3264C42.3832 21.0151 42.8527 20.5663 43.1888 20.0225L44.3838 18.0925C44.4958 17.9114 44.6521 17.762 44.8381 17.6583C45.024 17.5546 45.2334 17.5001 45.4463 17.5H48.7488C49.7433 17.5 50.6972 17.1049 51.4004 16.4017C52.1037 15.6984 52.4988 14.7446 52.4988 13.75V3.75C52.4988 2.75544 52.1037 1.80161 51.4004 1.09835C50.6972 0.395088 49.7433 0 48.7488 0L31.2488 0C30.2542 0 29.3004 0.395088 28.5971 1.09835C27.8939 1.80161 27.4988 2.75544 27.4988 3.75V13.75C27.4988 14.7446 27.8939 15.6984 28.5971 16.4017C29.3004 17.1049 30.2542 17.5 31.2488 17.5ZM29.9988 3.75C29.9988 3.41848 30.1305 3.10054 30.3649 2.86612C30.5993 2.6317 30.9172 2.5 31.2488 2.5H48.7488C49.0803 2.5 49.3982 2.6317 49.6327 2.86612C49.8671 3.10054 49.9988 3.41848 49.9988 3.75V13.75C49.9988 14.0815 49.8671 14.3995 49.6327 14.6339C49.3982 14.8683 49.0803 15 48.7488 15H45.4463C44.8067 14.9975 44.1772 15.1597 43.6185 15.471C43.0598 15.7823 42.5907 16.2323 42.2563 16.7775L41.0613 18.7075C40.9493 18.8889 40.7928 19.0387 40.6066 19.1426C40.4204 19.2465 40.2107 19.301 39.9975 19.301C39.7843 19.301 39.5746 19.2465 39.3885 19.1426C39.2023 19.0387 39.0457 18.8889 38.9338 18.7075L37.7488 16.7775C37.4137 16.2312 36.9434 15.7806 36.3833 15.4692C35.8231 15.1578 35.1921 14.9962 34.5513 15H31.2488C30.9172 15 30.5993 14.8683 30.3649 14.6339C30.1305 14.3995 29.9988 14.0815 29.9988 13.75V3.75ZM33.7488 7.5H46.2488C46.5803 7.5 46.8982 7.3683 47.1327 7.13388C47.3671 6.89946 47.4988 6.58152 47.4988 6.25C47.4988 5.91848 47.3671 5.60054 47.1327 5.36612C46.8982 5.1317 46.5803 5 46.2488 5H33.7488C33.4172 5 33.0993 5.1317 32.8649 5.36612C32.6305 5.60054 32.4988 5.91848 32.4988 6.25C32.4988 6.58152 32.6305 6.89946 32.8649 7.13388C33.0993 7.3683 33.4172 7.5 33.7488 7.5ZM33.7488 12.5H46.2488C46.5803 12.5 46.8982 12.3683 47.1327 12.1339C47.3671 11.8995 47.4988 11.5815 47.4988 11.25C47.4988 10.9185 47.3671 10.6005 47.1327 10.3661C46.8982 10.1317 46.5803 10 46.2488 10H33.7488C33.4172 10 33.0993 10.1317 32.8649 10.3661C32.6305 10.6005 32.4988 10.9185 32.4988 11.25C32.4988 11.5815 32.6305 11.8995 32.8649 12.1339C33.0993 12.3683 33.4172 12.5 33.7488 12.5ZM78.9988 46.75L79.0163 46.72C79.6517 45.4032 79.9872 43.962 79.9988 42.5C80.0068 40.23 79.2406 38.0252 77.8266 36.2494C76.4126 34.4736 74.4354 33.2331 72.2213 32.7326C70.0072 32.2321 67.6886 32.5016 65.6483 33.4965C63.6079 34.4914 61.9679 36.1523 60.9988 38.205C60.9813 38.23 60.9713 38.26 60.9563 38.285C59.8773 40.5405 59.6965 43.1219 60.4504 45.5057C61.2044 47.8896 62.8366 49.8976 65.0163 51.1225C65.0081 51.1646 65.0023 51.2072 64.9988 51.25V55.7725C64.682 55.9452 64.3809 56.1451 64.0988 56.37L57.4988 61.65V61.25C57.494 57.8216 56.21 54.5184 53.898 51.9868C51.5861 49.4553 48.4127 47.8776 44.9988 47.5625C44.9988 47.54 44.9988 47.52 44.9988 47.5V43.75C44.9928 43.7071 44.9844 43.6645 44.9738 43.6225C46.8858 42.5263 48.3821 40.8292 49.2301 38.795C50.0781 36.7607 50.2304 34.5033 49.6632 32.3736C49.096 30.2439 47.8411 28.3612 46.0936 27.0182C44.3462 25.6752 42.204 24.9471 40 24.9471C37.7961 24.9471 35.6539 25.6752 33.9064 27.0182C32.1589 28.3612 30.904 30.2439 30.3368 32.3736C29.7697 34.5033 29.9219 36.7607 30.7699 38.795C31.618 40.8292 33.1143 42.5263 35.0263 43.6225C35.0148 43.6645 35.0056 43.707 34.9988 43.75V47.5C34.9988 47.5225 34.9988 47.5425 34.9988 47.5625C31.5849 47.8776 28.4114 49.4553 26.0995 51.9868C23.7876 54.5184 22.5036 57.8216 22.4988 61.25V61.65L15.8988 56.37C15.6166 56.1451 15.3155 55.9452 14.9988 55.7725V51.25C14.9928 51.2071 14.9844 51.1645 14.9738 51.1225C17.1532 49.898 18.7856 47.8907 19.5399 45.5074C20.2943 43.124 20.1143 40.543 19.0363 38.2875C19.0188 38.26 19.0088 38.23 18.9913 38.2025C18.4353 37.0133 17.6498 35.9456 16.6801 35.0608C15.7103 34.176 14.5753 33.4915 13.3402 33.0465C12.1052 32.6016 10.7944 32.405 9.48314 32.4681C8.1719 32.5311 6.88602 32.8526 5.69936 33.414C4.51269 33.9754 3.44861 34.7656 2.56821 35.7394C1.68782 36.7132 1.00845 37.8513 0.569129 39.0884C0.129803 40.3254 -0.0608275 41.6371 0.00818247 42.948C0.0771925 44.259 0.404484 45.5434 0.971263 46.7275L0.998763 46.75C1.86632 48.5817 3.26999 50.1066 5.02376 51.1225C5.0131 51.1645 5.00476 51.2071 4.99876 51.25V55.1275C3.58748 55.4156 2.31901 56.1823 1.40792 57.2979C0.496831 58.4135 -0.000954864 59.8096 -0.00123704 61.25V78.75C-0.00123704 79.0815 0.130459 79.3995 0.36488 79.6339C0.5993 79.8683 0.917242 80 1.24876 80H78.7488C79.0803 80 79.3982 79.8683 79.6327 79.6339C79.8671 79.3995 79.9988 79.0815 79.9988 78.75V61.25C79.9985 59.8096 79.5007 58.4135 78.5896 57.2979C77.6785 56.1823 76.4101 55.4156 74.9988 55.1275V51.25C74.9928 51.2071 74.9844 51.1645 74.9738 51.1225C76.7275 50.1066 78.1312 48.5817 78.9988 46.75ZM39.9988 27.5C41.5103 27.5042 42.9853 27.9649 44.2304 28.8219C45.4755 29.6789 46.4326 30.8921 46.9763 32.3025L40.6863 30.515C39.3511 30.1387 37.929 30.2143 36.6413 30.73L33.0613 32.175C33.6225 30.7948 34.5821 29.613 35.8177 28.7804C37.0532 27.9478 38.5088 27.502 39.9988 27.5ZM32.4988 35C32.6589 35.0002 32.8176 34.9697 32.9663 34.91L37.5763 33.05C38.3475 32.7413 39.199 32.6956 39.9988 32.92L47.1513 34.9525C47.2629 34.9766 47.3773 34.985 47.4913 34.9775V35C47.4913 36.9891 46.7011 38.8968 45.2946 40.3033C43.888 41.7098 41.9804 42.5 39.9913 42.5C38.0021 42.5 36.0945 41.7098 34.688 40.3033C33.2814 38.8968 32.4913 36.9891 32.4913 35H32.4988ZM42.4988 44.645V47.5C42.4988 48.163 42.2354 48.7989 41.7665 49.2678C41.2977 49.7366 40.6618 50 39.9988 50C39.3357 50 38.6998 49.7366 38.231 49.2678C37.7622 48.7989 37.4988 48.163 37.4988 47.5V44.645C39.1318 45.1185 40.8657 45.1185 42.4988 44.645ZM24.9988 61.25C25.0091 58.3642 26.128 55.5927 28.1242 53.5086C30.1203 51.4245 32.8411 50.1872 35.7238 50.0525C36.1616 50.7976 36.7865 51.4153 37.5366 51.8445C38.2867 52.2737 39.1358 52.4995 40 52.4995C40.8642 52.4995 41.7134 52.2737 42.4634 51.8445C43.2135 51.4153 43.8384 50.7976 44.2763 50.0525C47.1585 50.1878 49.8786 51.4254 51.8743 53.5094C53.8699 55.5934 54.9885 58.3646 54.9988 61.25V62.5H49.9988C49.1192 62.4941 48.2539 62.7219 47.4913 63.1601C46.7287 63.5984 46.0963 64.2314 45.6586 64.9943C45.2209 65.7572 44.9938 66.6227 45.0004 67.5022C45.007 68.3818 45.2472 69.2437 45.6963 70H34.3038C34.748 69.2428 34.9842 68.3815 34.9884 67.5036C34.9925 66.6257 34.7645 65.7623 34.3275 65.0008C33.8904 64.2394 33.2599 63.6071 32.4997 63.1679C31.7395 62.7287 30.8767 62.4983 29.9988 62.5H24.9988V61.25ZM52.4988 65V70H49.9988C49.3357 70 48.6998 69.7366 48.231 69.2678C47.7622 68.7989 47.4988 68.163 47.4988 67.5C47.4988 66.837 47.7622 66.2011 48.231 65.7322C48.6998 65.2634 49.3357 65 49.9988 65H52.4988ZM32.4988 67.5C32.4988 68.163 32.2354 68.7989 31.7665 69.2678C31.2977 69.7366 30.6618 70 29.9988 70H27.4988V65H29.9988C30.6618 65 31.2977 65.2634 31.7665 65.7322C32.2354 66.2011 32.4988 66.837 32.4988 67.5ZM2.49876 42.5C2.49337 40.9226 2.98694 39.3839 3.90888 38.104C4.83082 36.8241 6.1339 35.8685 7.63175 35.374C9.1296 34.8794 10.7455 34.8712 12.2483 35.3505C13.7511 35.8298 15.0638 36.772 15.9988 38.0425L5.99876 40.025C5.71642 40.0826 5.46266 40.236 5.28044 40.4593C5.09821 40.6825 4.9987 40.9618 4.99876 41.25V45H2.95876C2.66262 44.1994 2.507 43.3536 2.49876 42.5ZM4.44876 47.5H6.24876C6.58028 47.5 6.89823 47.3683 7.13265 47.1339C7.36707 46.8995 7.49876 46.5815 7.49876 46.25V42.2775L17.1513 40.3625C17.3714 41.0541 17.4884 41.7743 17.4988 42.5C17.5043 44.0167 17.0481 45.4991 16.1909 46.7504C15.3338 48.0016 14.1161 48.9624 12.6998 49.505C11.2835 50.0477 9.73564 50.1465 8.26184 49.7883C6.78803 49.4302 5.4581 48.6321 4.44876 47.5ZM12.4988 52.145V55.0425C12.3313 55.03 12.1638 55 11.9988 55H7.49876V52.145C8.31349 52.3697 9.15368 52.489 9.99876 52.5C10.8438 52.489 11.684 52.3697 12.4988 52.145ZM12.4988 71.25V77.5H2.49876V61.25C2.49876 60.2554 2.89385 59.3016 3.59711 58.5984C4.30037 57.8951 5.2542 57.5 6.24876 57.5H11.9988C12.8503 57.5002 13.6765 57.7903 14.3413 58.3225L22.3413 64.73C22.5645 64.9068 22.8415 65.0021 23.1263 65H24.9988V70H21.6663L11.9988 62.75C11.8674 62.6515 11.718 62.5798 11.559 62.5391C11.4 62.4984 11.2345 62.4894 11.072 62.5126C10.9095 62.5358 10.7531 62.5908 10.6119 62.6744C10.4706 62.758 10.3473 62.8687 10.2488 63C10.1503 63.1313 10.0786 63.2808 10.0379 63.4398C9.99713 63.5988 9.98811 63.7643 10.0113 63.9268C10.0345 64.0893 10.0895 64.2456 10.1732 64.3869C10.2568 64.5281 10.3674 64.6515 10.4988 64.75L17.4988 70H13.7488C13.4172 70 13.0993 70.1317 12.8649 70.3661C12.6305 70.6005 12.4988 70.9185 12.4988 71.25ZM64.9988 77.5H14.9988V72.5H64.9988V77.5ZM77.4988 61.25V77.5H67.4988V71.25C67.4988 70.9185 67.3671 70.6005 67.1327 70.3661C66.8982 70.1317 66.5803 70 66.2488 70H62.4988L69.4988 64.75C69.764 64.5511 69.9393 64.255 69.9862 63.9268C70.0331 63.5986 69.9477 63.2652 69.7488 63C69.5499 62.7348 69.2537 62.5595 68.9255 62.5126C68.5974 62.4657 68.264 62.5511 67.9988 62.75L58.3313 70H54.9988V65H56.8713C57.1555 65.0008 57.4315 64.9047 57.6538 64.7275L65.6538 58.3225C66.3192 57.7898 67.1463 57.4997 67.9988 57.5H73.7488C74.7433 57.5 75.6972 57.8951 76.4004 58.5984C77.1037 59.3016 77.4988 60.2554 77.4988 61.25ZM67.4988 55.0425V52.145C69.1318 52.6185 70.8657 52.6185 72.4988 52.145V55H67.9988C67.8338 55 67.6663 55.03 67.4988 55.0425ZM69.9988 50C68.0096 50 66.102 49.2098 64.6955 47.8033C63.2889 46.3968 62.4988 44.4891 62.4988 42.5C62.5091 41.7743 62.6262 41.0541 62.8463 40.3625L72.4988 42.2775V46.25C72.4988 46.5815 72.6305 46.8995 72.8649 47.1339C73.0993 47.3683 73.4172 47.5 73.7488 47.5H75.5488C74.8516 48.2837 73.9969 48.9115 73.0406 49.3423C72.0842 49.773 71.0477 49.9972 69.9988 50ZM74.9988 45V41.25C74.9988 40.9618 74.8993 40.6825 74.7171 40.4593C74.5349 40.236 74.2811 40.0826 73.9988 40.025L63.9988 38.0425C65.0542 36.5789 66.6045 35.5477 68.3623 35.1399C70.12 34.7321 71.966 34.9755 73.558 35.8249C75.1501 36.6744 76.3801 38.0722 77.0201 39.7593C77.6602 41.4464 77.6668 43.3084 77.0388 45H74.9988ZM3.74876 25H7.05126C7.26417 25.0001 7.47351 25.0546 7.65946 25.1583C7.8454 25.262 8.00178 25.4114 8.11376 25.5925L9.30876 27.5225C9.64481 28.0663 10.1143 28.5151 10.6726 28.8264C11.2309 29.1377 11.8595 29.3011 12.4988 29.3011C13.138 29.3011 13.7666 29.1377 14.3249 28.8264C14.8832 28.5151 15.3527 28.0663 15.6888 27.5225L16.8838 25.5925C16.9958 25.4114 17.1521 25.262 17.3381 25.1583C17.524 25.0546 17.7334 25.0001 17.9463 25H21.2488C22.2433 25 23.1972 24.6049 23.9004 23.9017C24.6037 23.1984 24.9988 22.2446 24.9988 21.25V11.25C24.9988 10.2554 24.6037 9.30161 23.9004 8.59835C23.1972 7.89509 22.2433 7.5 21.2488 7.5H3.74876C2.7542 7.5 1.80037 7.89509 1.09711 8.59835C0.393851 9.30161 -0.00123704 10.2554 -0.00123704 11.25V21.25C-0.00123704 22.2446 0.393851 23.1984 1.09711 23.9017C1.80037 24.6049 2.7542 25 3.74876 25ZM2.49876 11.25C2.49876 10.9185 2.63046 10.6005 2.86488 10.3661C3.0993 10.1317 3.41724 10 3.74876 10H21.2488C21.5803 10 21.8982 10.1317 22.1327 10.3661C22.3671 10.6005 22.4988 10.9185 22.4988 11.25V21.25C22.4988 21.5815 22.3671 21.8995 22.1327 22.1339C21.8982 22.3683 21.5803 22.5 21.2488 22.5H17.9463C17.3054 22.4962 16.6744 22.6578 16.1143 22.9692C15.5541 23.2806 15.0838 23.7312 14.7488 24.2775L13.5538 26.2075C13.4418 26.3889 13.2853 26.5387 13.0991 26.6426C12.9129 26.7465 12.7032 26.801 12.49 26.801C12.2768 26.801 12.0671 26.7465 11.8809 26.6426C11.6948 26.5387 11.5382 26.3889 11.4263 26.2075L10.2488 24.2775C9.91372 23.7312 9.44339 23.2806 8.88325 22.9692C8.32312 22.6578 7.69212 22.4962 7.05126 22.5H3.74876C3.41724 22.5 3.0993 22.3683 2.86488 22.1339C2.63046 21.8995 2.49876 21.5815 2.49876 21.25V11.25ZM76.2488 7.5H58.7488C57.7542 7.5 56.8004 7.89509 56.0971 8.59835C55.3939 9.30161 54.9988 10.2554 54.9988 11.25V21.25C54.9988 22.2446 55.3939 23.1984 56.0971 23.9017C56.8004 24.6049 57.7542 25 58.7488 25H62.0513C62.2642 25.0001 62.4735 25.0546 62.6595 25.1583C62.8454 25.262 63.0018 25.4114 63.1138 25.5925L64.3088 27.5225C64.6448 28.0663 65.1143 28.5151 65.6726 28.8264C66.2309 29.1377 66.8595 29.3011 67.4988 29.3011C68.138 29.3011 68.7666 29.1377 69.3249 28.8264C69.8832 28.5151 70.3527 28.0663 70.6888 27.5225L71.8838 25.5925C71.9958 25.4114 72.1521 25.262 72.3381 25.1583C72.524 25.0546 72.7334 25.0001 72.9463 25H76.2488C77.2433 25 78.1972 24.6049 78.9004 23.9017C79.6037 23.1984 79.9988 22.2446 79.9988 21.25V11.25C79.9988 10.2554 79.6037 9.30161 78.9004 8.59835C78.1972 7.89509 77.2433 7.5 76.2488 7.5ZM77.4988 21.25C77.4988 21.5815 77.3671 21.8995 77.1327 22.1339C76.8982 22.3683 76.5803 22.5 76.2488 22.5H72.9463C72.3067 22.4975 71.6772 22.6597 71.1185 22.971C70.5598 23.2823 70.0907 23.7323 69.7563 24.2775L68.5613 26.2075C68.4493 26.3889 68.2928 26.5387 68.1066 26.6426C67.9204 26.7465 67.7107 26.801 67.4975 26.801C67.2843 26.801 67.0746 26.7465 66.8885 26.6426C66.7023 26.5387 66.5457 26.3889 66.4338 26.2075L65.2488 24.2775C64.9137 23.7312 64.4434 23.2806 63.8833 22.9692C63.3231 22.6578 62.6921 22.4962 62.0513 22.5H58.7488C58.4173 22.5 58.0993 22.3683 57.8649 22.1339C57.6305 21.8995 57.4988 21.5815 57.4988 21.25V11.25C57.4988 10.9185 57.6305 10.6005 57.8649 10.3661C58.0993 10.1317 58.4173 10 58.7488 10H76.2488C76.5803 10 76.8982 10.1317 77.1327 10.3661C77.3671 10.6005 77.4988 10.9185 77.4988 11.25V21.25Z" fill="#0B1E51"/>
</g>
<defs>
<clipPath id="clip0_16_889">
<rect width="80" height="80" fill="white"/>
</clipPath>
</defs>
</svg>
