<svg width="6.12rem" height="5rem" viewBox="0 0 98 48" fill="none" xmlns="http://www.w3.org/2000/svg">
<path d="M38.1276 35.3627L36.829 36.829C34.2214 39.4365 30.8992 41.2123 27.2824 41.9317C23.6657 42.6512 19.9168 42.2819 16.5099 40.8707C13.1029 39.4595 10.191 37.0698 8.14225 34.0036C6.09351 30.9374 5 27.3326 5 23.645C5 19.9574 6.09351 16.3526 8.14225 13.2864C10.191 10.2202 13.1029 7.83047 16.5099 6.41927C19.9168 5.00808 23.6657 4.63885 27.2824 5.35827C30.8992 6.07769 34.2214 7.85345 36.829 10.461L60.181 36.829C62.7885 39.4365 66.1107 41.2123 69.7275 41.9317C73.3443 42.6512 77.0932 42.2819 80.5001 40.8707C83.907 39.4595 86.819 37.0698 88.8677 34.0036C90.9164 30.9374 92.0099 27.3326 92.0099 23.645C92.0099 19.9574 90.9164 16.3526 88.8677 13.2864C86.819 10.2202 83.907 7.83047 80.5001 6.41927C77.0932 5.00808 73.3443 4.63885 69.7275 5.35827C66.1107 6.07769 62.7885 7.85345 60.181 10.461L58.8823 11.9274" stroke="#4530B2" stroke-width="10" stroke-linecap="round" stroke-linejoin="round"/>
</svg>
