<svg width="1.4rem" height="1.75rem" viewBox="0 0 23 28" fill="none" xmlns="http://www.w3.org/2000/svg">
<path d="M12.1063 27.1922L12.1064 27.1924L12.1117 27.1877C12.1273 27.1737 12.1611 27.1452 12.2113 27.1027C12.7232 26.67 14.9476 24.7896 17.1337 22.1251C19.5307 19.2036 21.9039 15.3133 21.9039 11.3307C21.9039 8.55595 20.8017 5.89485 18.8396 3.93282C16.8776 1.97078 14.2165 0.868519 11.4418 0.868519C8.66703 0.868519 6.00594 1.97078 4.0439 3.93282C2.08186 5.89485 0.979603 8.55595 0.979603 11.3307C0.979603 15.3133 3.35287 19.2036 5.74981 22.1251C7.93591 24.7896 10.1604 26.67 10.6723 27.1027C10.7225 27.1452 10.7562 27.1737 10.7718 27.1877L10.7717 27.1878L10.7772 27.1922C10.9656 27.3434 11.1995 27.4264 11.441 27.4278L11.4425 27.4278C11.684 27.4264 11.918 27.3434 12.1063 27.1922ZM3.12087 11.3307C3.12087 9.12385 3.99754 7.0074 5.55801 5.44692C7.11848 3.88645 9.23493 3.00979 11.4418 3.00979C13.6486 3.00979 15.7651 3.88645 17.3255 5.44692C18.886 7.0074 19.7627 9.12385 19.7627 11.3307C19.7627 14.2454 18.1711 17.2243 16.3129 19.7066C14.5098 22.1152 12.4705 24.037 11.4418 24.9512C10.413 24.037 8.37369 22.1152 6.57069 19.7066C4.71245 17.2243 3.12087 14.2454 3.12087 11.3307Z" fill="#828C97" stroke="#B3BECA" stroke-width="0.262963"/>
<path d="M16.269 11.3307C16.269 10.3759 15.9858 9.44262 15.4554 8.64878C14.925 7.85494 14.1711 7.23622 13.289 6.87086C12.407 6.5055 11.4364 6.4099 10.5 6.59616C9.56357 6.78242 8.70343 7.24217 8.02833 7.91728C7.35323 8.59238 6.89348 9.45251 6.70722 10.3889C6.52096 11.3253 6.61655 12.2959 6.98191 13.178C7.34728 14.06 7.966 14.8139 8.75984 15.3444C9.55367 15.8748 10.487 16.1579 11.4417 16.1579C12.722 16.1579 13.9498 15.6493 14.8551 14.744C15.7604 13.8388 16.269 12.6109 16.269 11.3307ZM8.75573 11.3307C8.75573 10.7994 8.91326 10.2801 9.2084 9.83841C9.50354 9.3967 9.92303 9.05243 10.4138 8.84914C10.9046 8.64584 11.4447 8.59265 11.9657 8.69629C12.4867 8.79993 12.9653 9.05574 13.341 9.43138C13.7166 9.80702 13.9724 10.2856 14.0761 10.8066C14.1797 11.3277 14.1265 11.8677 13.9232 12.3585C13.7199 12.8493 13.3757 13.2688 12.934 13.564C12.4923 13.8591 11.9729 14.0166 11.4417 14.0166C10.7293 14.0166 10.0462 13.7337 9.54244 13.2299C9.03872 12.7262 8.75573 12.043 8.75573 11.3307Z" fill="#828C97" stroke="#B3BECA" stroke-width="0.262963"/>
</svg>
