<svg width="1.95rem" height="1.7rem" viewBox="0 0 31 27" fill="none" xmlns="http://www.w3.org/2000/svg">
<g clip-path="url(#clip0_16_861)">
<path d="M4.15208 0.584949C1.97745 0.584949 0.214557 2.34784 0.214557 4.52247V18.3626C0.214557 20.5373 1.97745 22.3002 4.15208 22.3002H6.92011C7.566 22.3002 8.08961 21.7765 8.08961 21.1307C8.08961 20.4848 7.566 19.9612 6.92011 19.9612H4.15208C3.26923 19.9612 2.55354 19.2455 2.55354 18.3626V4.52247C2.55354 3.63962 3.26923 2.92394 4.15208 2.92394H26.2963C27.1792 2.92394 27.8949 3.63962 27.8949 4.52247V18.3626C27.8949 19.2455 27.1792 19.9612 26.2963 19.9612H23.5283C22.8824 19.9612 22.3588 20.4848 22.3588 21.1307C22.3588 21.7765 22.8824 22.3002 23.5283 22.3002H26.2963C28.471 22.3002 30.2339 20.5373 30.2339 18.3626V4.52247C30.2339 2.34784 28.471 0.584949 26.2963 0.584949H4.15208Z" fill="#828C97" stroke="#828C97" stroke-width="0.262963"/>
<path d="M18.7919 23.6962L15.5046 19.1411C15.3664 18.9497 15.0816 18.9497 14.9435 19.1411L18.7919 23.6962ZM18.7919 23.6962C18.9571 23.9249 18.7935 24.2446 18.5113 24.2446H11.9367C11.6545 24.2446 11.491 23.9249 11.6561 23.6962H18.7919ZM20.582 22.4043L20.582 22.4043L17.2946 17.8493C16.2755 16.4369 14.1726 16.437 13.1534 17.8493L9.86609 22.4043C8.64731 24.0931 9.85404 26.4522 11.9367 26.4522H18.5113C20.594 26.4522 21.8007 24.0931 20.582 22.4043ZM15.398 19.218L15.398 19.218L18.6853 23.7731L18.6853 23.7731C18.7877 23.9149 18.6864 24.1132 18.5113 24.1132H11.9367C11.7617 24.1132 11.6604 23.9149 11.7627 23.7731L11.7627 23.7731L15.0501 19.218L15.0501 19.218C15.1358 19.0993 15.3123 19.0993 15.398 19.218Z" fill="#828C97" stroke="#828C97" stroke-width="0.262963"/>
</g>
<defs>
<clipPath id="clip0_16_861">
<rect width="30.4483" height="26.2963" fill="white" transform="translate(0 0.370361)"/>
</clipPath>
</defs>
</svg>
