<svg width="104" height="104" viewBox="0 0 112 104" fill="none" xmlns="http://www.w3.org/2000/svg">
<g clip-path="url(#clip0_16_772)">
<path d="M48.4007 39.3787V20.1514V18.4035H82.1903L71.7474 28.8912L82.1903 39.3789H51.8818V47.5007L70.5783 70.7838C82.1665 65.1098 90.1721 53.1986 90.1721 39.3791C90.1721 20.0733 74.5861 4.42041 55.3627 4.42041C36.1394 4.42041 20.5534 20.0729 20.5534 39.3787C20.5534 50.7982 26.0299 60.9069 34.4619 67.2857L48.401 47.5619V39.3787H48.4007ZM81.4696 53.3622H76.2483V58.606H72.7674V53.3622H67.5459V49.8664H72.7674V44.6224H76.2483V49.8664H81.4696V53.3622ZM36.2176 37.6308H32.7367V32.3868H27.5154V28.891H32.7367V23.6472H36.2176V28.891H41.4392V32.3868H36.2176V37.6308Z" fill="#5450D6"/>
<path d="M16.1018 53.7311C16.9296 56.0167 17.9662 58.2475 19.1833 60.3592L22.1969 58.6077C21.082 56.6719 20.1318 54.6287 19.3722 52.536C18.6124 50.4399 18.0329 48.2602 17.6487 46.0615C17.2662 43.8681 17.0724 41.62 17.0724 39.3787C17.0724 37.1373 17.2662 34.8893 17.6487 32.6974C18.0329 30.4972 18.6124 28.3174 19.3722 26.2211C20.1318 24.1284 21.082 22.0852 22.1969 20.1494C23.3069 18.2205 24.5969 16.3735 26.0298 14.6615C27.4609 12.9511 29.0484 11.3569 30.7516 9.91944C32.4564 8.4804 34.2953 7.18486 36.216 6.06854C38.1484 4.94708 40.1831 3.99278 42.2633 3.23152L41.0736 -0.0527344C38.8011 0.776811 36.5813 1.81815 34.4738 3.04205C32.378 4.26081 30.3709 5.67418 28.5113 7.24289C26.6553 8.80981 24.9249 10.5492 23.3647 12.4116C21.8027 14.2807 20.3953 16.2949 19.1836 18.3979C17.9664 20.5094 16.9298 22.7405 16.1002 25.026C15.2724 27.3133 14.6384 29.6913 14.2204 32.0947C13.804 34.4844 13.5916 36.9356 13.5916 39.3782C13.5916 41.8209 13.804 44.272 14.2204 46.6636C14.6384 49.0658 15.2724 51.4436 16.1018 53.7311ZM93.0767 34.444C93.4593 36.6425 93.6529 38.8906 93.6529 41.1268C93.6529 43.363 93.4593 45.6111 93.0767 47.808C92.6911 50.0168 92.1113 52.195 91.3549 54.2841C90.5969 56.3717 89.6467 58.4151 88.5285 60.3559C87.4202 62.2848 86.1302 64.13 84.6956 65.8438C83.2647 67.5524 81.6753 69.1486 79.974 70.5858L82.214 73.2624C84.0685 71.6954 85.8004 69.956 87.3607 68.0936C88.9244 66.2245 90.3318 64.2103 91.5436 62.1056C92.762 59.9872 93.7989 57.7581 94.6249 55.4793C95.4511 53.1986 96.0849 50.8227 96.5067 48.4106C96.9229 46.0157 97.1338 43.5646 97.1338 41.127C97.1338 38.6895 96.9229 36.2384 96.5067 33.8417C96.0851 31.4314 95.4511 29.0554 94.6249 26.7748C93.7989 24.4962 92.762 22.2666 91.5436 20.1485L88.5285 21.8964C89.6467 23.8389 90.5969 25.8821 91.3549 27.9697C92.1113 30.0588 92.6909 32.2368 93.0767 34.444Z" fill="#5450D6"/>
<path d="M41.4389 28.891H36.2175V23.6472H32.7364V28.891H27.5151V32.3868H32.7364V37.6308H36.2175V32.3868H41.4389V28.891Z" fill="white"/>
<path d="M76.2482 44.6226H72.7673V49.8663H67.5458V53.3624H72.7673V58.6061H76.2482V53.3624H81.4696V49.8663H76.2482V44.6226Z" fill="white"/>
<path d="M81.8776 90.4241L50.2296 51.0134L27.9385 82.5582L42.2751 100.556H46.6603V77.8334H50.1414V100.556H58.8436V86.5729H62.3245V100.556H73.68L81.8776 90.4241Z" fill="#1CBEF5"/>
<path d="M66.8253 28.8911L73.787 21.8994H51.8817V35.883H73.787L66.8253 28.8911ZM58.8435 32.3869H55.3626V25.3952H58.8435V32.3869Z" fill="#FBBC05"/>
<path d="M20.6807 79.0435L6.40179 100.556H15.2216H18.8129V90.0686H22.2938V100.556H37.8187L20.6807 79.0435Z" fill="#5450D6"/>
<path d="M90.1718 93.5646H93.6529V100.556H104.791L91.4771 84.1011L78.1638 100.556H90.014H90.1718V93.5646Z" fill="#4530B2"/>
<path d="M91.4772 78.557L84.1209 87.6499L70.5781 70.7834L51.8816 47.5003V39.3785H82.1903L71.7474 28.8908L82.1903 18.4031H48.4007V20.151V39.3783V47.5615L34.4616 67.2853L25.6778 79.7189L20.4258 73.1267L-0.102844 104.052H8.48227H45.0609H70.8518H97.2918H112.103L91.4772 78.557ZM90.0141 100.556H78.1641L91.4774 84.1012L104.791 100.556H93.6529H90.1721H90.0141ZM58.8436 100.556H50.1414H46.6603H42.2752L27.9383 82.5581L50.2296 51.0133L81.8776 90.424L73.6798 100.556H62.3243H58.8436ZM22.2938 100.556H18.8129H15.2216H6.40182L20.6807 79.0433L37.8185 100.556H22.2938ZM51.8818 21.8994H73.7872L66.8254 28.891L73.7872 35.8829H51.8818V21.8994Z" fill="black"/>
<path d="M58.8435 25.3953H55.3626V32.3869H58.8435V25.3953Z" fill="white"/>
<path d="M50.1414 77.8333H46.6603V100.556H50.1414V77.8333Z" fill="#5450D6"/>
<path d="M22.2938 90.0686H18.8129V100.556H22.2938V90.0686Z" fill="#0B1E51"/>
<path d="M93.6526 93.5647H90.1718V100.556H93.6526V93.5647Z" fill="#97EEFF"/>
<path d="M62.3244 86.5728H58.8435V100.556H62.3244V86.5728Z" fill="#5450D6"/>
</g>
<defs>
<clipPath id="clip0_16_772">
<rect width="112" height="104" fill="white"/>
</clipPath>
</defs>
</svg>
