<svg width="6.3rem" height="5rem" viewBox="0 0 102 80" fill="none" xmlns="http://www.w3.org/2000/svg">
<g clip-path="url(#clip0_17_974)">
<path d="M51.6317 31.5791H93.7369C96.0527 31.5791 97.9475 33.4738 97.9475 35.7896V73.6844C97.9475 76.0002 96.0527 77.8949 93.7369 77.8949H20.0527" fill="#4530B2"/>
<path d="M52.6316 69.4737H84.2106C84.2106 65.8947 86.9474 63.1579 90.5263 63.1579V46.3158C86.9474 46.3158 84.2106 43.5789 84.2106 40H25.2632" fill="#72DBFF"/>
<path d="M58.9474 31.579H54.7369V35.7895C54.7369 37.0527 53.8948 37.8948 52.6316 37.8948H48.4211L45.4737 42.1053H52.6316C53.8948 42.1053 54.7369 42.9474 54.7369 44.2106V48.4211C54.7369 49.6842 53.8948 50.5263 52.6316 50.5263H44.2106H42.1053C40.8421 50.5263 40 51.3685 40 52.6316C40 53.8948 40.8421 54.7369 42.1053 54.7369H44.2106H52.6316H54.7369C56 54.7369 56.8421 55.579 56.8421 56.8421V61.0527C56.8421 62.3158 56 63.1579 54.7369 63.1579H52.6316H44.2106C42.9474 63.1579 42.1053 64 42.1053 65.2632C42.1053 66.5263 42.9474 67.3685 44.2106 67.3685H52.6316C53.6842 67.3685 54.7369 68.2106 54.7369 69.4737V73.6842C54.7369 74.9474 53.8948 75.7895 52.6316 75.7895H27.3684C26.1053 75.7895 25.2632 76.6316 25.2632 77.8948H57.2632C58.3158 76.8421 58.9474 75.3685 58.9474 73.6842V69.4737C58.9474 68.4211 58.5263 67.3685 58.1053 66.3158C59.7895 65.2632 61.0527 63.3685 61.0527 61.0527V56.8421C61.0527 54.5263 59.7895 52.6316 58.1053 51.579C58.5263 50.5263 58.9474 49.4737 58.9474 48.4211V44.2106C58.9474 42.5263 58.3158 41.0527 57.2632 40C58.3158 38.9474 58.9474 37.4737 58.9474 35.7895V31.579Z" fill="#72DBFF"/>
<path d="M84.2105 71.5789H52.6316C51.3684 71.5789 50.5263 70.7368 50.5263 69.4737C50.5263 68.2105 51.3684 67.3684 52.6316 67.3684H82.3158C83.1579 64.421 85.4737 62.1052 88.4211 61.2631V48.2105C85.4737 47.3684 83.1579 45.0526 82.3158 42.1052H25.2632C24 42.1052 23.1579 41.2631 23.1579 40C23.1579 38.7368 24 37.8947 25.2632 37.8947H84.2105C85.4737 37.8947 86.3158 38.7368 86.3158 40C86.3158 42.3158 88.2105 44.2105 90.5263 44.2105C91.1579 44.2105 91.579 44.421 92 44.8421C92.4211 45.2631 92.6316 45.8947 92.6316 46.3158V63.1579C92.6316 64.421 91.7895 65.2631 90.5263 65.2631C88.2105 65.2631 86.3158 67.1579 86.3158 69.4737C86.3158 70.1052 86.1053 70.5263 85.6842 70.9473C85.2632 71.3684 84.6316 71.5789 84.2105 71.5789Z" fill="#0B1E51"/>
<path d="M45.4737 42.1053H52.6316C53.8947 42.1053 54.7368 42.9474 54.7368 44.2105V48.4211C54.7368 49.6842 53.8947 50.5263 52.6316 50.5263H44.2105H42.1053C40.8421 50.5263 40 51.3684 40 52.6316C40 53.8947 40.8421 54.7368 42.1053 54.7368H44.2105H52.6316H54.7368C56 54.7368 56.8421 55.5789 56.8421 56.8421V61.0526C56.8421 62.3158 56 63.1579 54.7368 63.1579H52.6316H46.7368L50.7368 67.3684H52.6316C53.6842 67.3684 54.7368 68.2105 54.7368 69.4737H58.9474C58.9474 68.4211 58.5263 67.3684 58.1053 66.5263C59.7895 65.2632 61.0526 63.3684 61.0526 61.0526V56.8421C61.0526 54.5263 59.7895 52.6316 58.1053 51.5789C58.5263 50.5263 58.9474 49.4737 58.9474 48.4211V44.2105C58.9474 42.5263 58.3158 41.0526 57.2632 40H46.7368L45.4737 42.1053Z" fill="#1CBEF5"/>
<path d="M54.7368 47.3684C58.7368 47.3684 62.1052 50.7368 62.1052 54.7368C62.1052 58.7368 58.7368 62.1053 54.7368 62.1053" fill="#4530B2"/>
<path d="M61.0526 58.5265V56.8423C61.0526 54.5265 59.7895 52.6318 58.1053 51.5792C58.5263 50.7371 58.9474 49.6844 58.9474 48.8423C57.6842 48.0002 56.2105 47.5792 54.7368 47.5792V48.4213C54.7368 49.6844 53.8947 50.5265 52.6316 50.5265H51.7895L50.5263 51.3686L54.7368 54.7371C56 54.7371 56.8421 55.5792 56.8421 56.8423V61.0528C56.8421 61.2634 56.8421 61.4739 56.6316 61.895C58.5263 61.2634 60 60.0002 61.0526 58.5265Z" fill="#72DBFF"/>
<path d="M50.5263 52.6316H40V65.2632L23.1579 77.8948H48.4211C50.7368 77.8948 52.6316 76 52.6316 73.6842V69.4737C52.6316 67.1579 50.7368 65.2632 48.4211 65.2632H50.5263C52.8421 65.2632 54.7368 63.3684 54.7368 61.0526V56.8421C54.7368 54.5263 52.8421 52.6316 50.5263 52.6316Z" fill="#FBBC05"/>
<path d="M27.3684 40L40 52.6316H48.4211C50.7369 52.6316 52.6316 50.7369 52.6316 48.4211V44.2105C52.6316 41.8948 50.7369 40 48.4211 40C50.7369 40 52.6316 38.1053 52.6316 35.7895V31.579C52.6316 29.2632 50.7369 27.3684 48.4211 27.3684C50.7369 27.3684 52.6316 25.4737 52.6316 23.1579V18.9474C52.6316 16.6316 50.7369 14.7369 48.4211 14.7369C50.7369 14.7369 52.6316 12.8421 52.6316 10.5263V6.31581C52.6316 4.00002 50.7369 2.10529 48.4211 2.10529H23.1579C20.8421 2.10529 18.9474 4.00002 18.9474 6.31581V10.5263C18.9474 12.8421 20.8421 14.7369 23.1579 14.7369C20.8421 14.7369 18.9474 16.6316 18.9474 18.9474V23.1579C18.9474 25.4737 20.8421 27.3684 23.1579 27.3684C20.8421 27.3684 18.9474 29.2632 18.9474 31.579V35.7895C18.9474 38.1053 20.8421 40 23.1579 40H27.3684Z" fill="#FBBC05"/>
<path d="M42.1049 58.9474C42.1049 67.3684 37.2628 74.5263 30.1049 77.8948H37.6838C42.947 73.2632 46.3154 66.5263 46.3154 58.9474C46.3154 56.8421 46.1049 54.7369 45.4733 52.6316H41.0522C41.6838 54.5263 42.1049 56.8421 42.1049 58.9474Z" fill="#F8AC4E"/>
<path d="M21.0527 33.6842C20.4211 33.6842 19.579 33.6842 18.9474 33.8947V35.7895C18.9474 36.6316 19.1579 37.2632 19.579 37.8947C20 37.8947 20.6316 37.8947 21.0527 37.8947C30.5263 37.8947 38.5263 44 41.0527 52.6316H45.4737C42.7369 41.6842 32.8421 33.6842 21.0527 33.6842Z" fill="#F8AC4E"/>
<path d="M21.0527 77.8947C31.517 77.8947 40 69.4117 40 58.9474C40 48.483 31.517 40 21.0527 40C10.5883 40 2.10529 48.483 2.10529 58.9474C2.10529 69.4117 10.5883 77.8947 21.0527 77.8947Z" fill="#FBBC05"/>
<path d="M21.0526 71.579C22.3158 71.579 23.1579 70.7368 23.1579 69.4737V69.0526C25.6842 68.2105 27.3684 65.8947 27.3684 63.1579C27.3684 59.579 24.6316 56.8421 21.0526 56.8421C20 56.8421 18.9473 55.7895 18.9473 54.7368C18.9473 53.6842 19.7894 52.6316 21.0526 52.6316C22.1052 52.6316 23.1579 53.6842 23.1579 54.7368C23.1579 56 24 56.8421 25.2631 56.8421C26.5263 56.8421 27.3684 56 27.3684 54.7368C27.3684 52 25.6842 49.6842 23.1579 48.8421V48.4211C23.1579 47.1579 22.3158 46.3158 21.0526 46.3158C19.7894 46.3158 18.9473 47.1579 18.9473 48.4211V48.8421C16.421 49.6842 14.7368 52 14.7368 54.7368C14.7368 58.3158 17.4737 61.0526 21.0526 61.0526C22.1052 61.0526 23.1579 62.1053 23.1579 63.1579C23.1579 64.2105 22.3158 65.2632 21.0526 65.2632C20 65.2632 18.9473 64.2105 18.9473 63.1579C18.9473 61.8947 18.1052 61.0526 16.8421 61.0526C15.5789 61.0526 14.7368 61.8947 14.7368 63.1579C14.7368 65.8947 16.421 68.2105 18.9473 69.0526V69.4737C18.9473 70.7368 20 71.579 21.0526 71.579Z" fill="#0B1E51"/>
<path d="M80 58.9474C82.3254 58.9474 84.2105 57.0622 84.2105 54.7368C84.2105 52.4114 82.3254 50.5263 80 50.5263C77.6746 50.5263 75.7895 52.4114 75.7895 54.7368C75.7895 57.0622 77.6746 58.9474 80 58.9474Z" fill="#0B1E51"/>
<path d="M94.7368 29.4737H54.3158C54.1053 28.6316 53.6842 28 53.0526 27.3684C54.1053 26.3158 54.7368 24.8421 54.7368 23.1579V18.9474C54.7368 17.2632 54.1053 15.7895 53.0526 14.7368C54.1053 13.6842 54.7368 12.2105 54.7368 10.5263V6.31579C54.7368 2.73684 52 0 48.4211 0H23.1579C19.5789 0 16.8421 2.73684 16.8421 6.31579V10.5263C16.8421 12.2105 17.4737 13.6842 18.5263 14.7368C17.4737 15.7895 16.8421 17.2632 16.8421 18.9474V23.1579C16.8421 24.8421 17.4737 26.3158 18.5263 27.3684C17.4737 28.4211 16.8421 29.8947 16.8421 31.5789V35.7895C16.8421 36.6316 17.0526 37.4737 17.2632 38.3158C7.57895 40 0 48.6316 0 58.9474C0 70.5263 9.47368 80 21.0526 80H23.1579H48.4211H94.7368C98.3158 80 101.053 77.2632 101.053 73.6842V35.7895C101.053 32.2105 98.3158 29.4737 94.7368 29.4737ZM21.0526 6.31579C21.0526 5.05263 21.8947 4.21053 23.1579 4.21053H48.4211C49.6842 4.21053 50.5263 5.05263 50.5263 6.31579V10.5263C50.5263 11.5789 49.6842 12.6316 48.4211 12.6316H23.1579C22.1053 12.6316 21.0526 11.5789 21.0526 10.5263V6.31579ZM21.0526 18.9474C21.0526 17.8947 21.8947 16.8421 23.1579 16.8421H48.4211C49.4737 16.8421 50.5263 17.8947 50.5263 18.9474V23.1579C50.5263 24.4211 49.6842 25.2632 48.4211 25.2632H23.1579C21.8947 25.2632 21.0526 24.4211 21.0526 23.1579V18.9474ZM21.0526 31.5789C21.0526 30.3158 21.8947 29.4737 23.1579 29.4737H48.4211C49.6842 29.4737 50.5263 30.3158 50.5263 31.5789V35.7895C50.5263 37.0526 49.6842 37.8947 48.4211 37.8947H27.3684H25.2632H23.1579C21.8947 37.8947 21.0526 37.0526 21.0526 35.7895V31.5789ZM33.6842 42.1053H48.4211C49.4737 42.1053 50.5263 43.1579 50.5263 44.2105V48.4211C50.5263 49.6842 49.6842 50.5263 48.4211 50.5263H40.4211C38.9474 47.1579 36.6316 44.2105 33.6842 42.1053ZM4.21053 58.9474C4.21053 49.6842 11.7895 42.1053 21.0526 42.1053C30.3158 42.1053 37.8947 49.6842 37.8947 58.9474C37.8947 68.2105 30.3158 75.7895 21.0526 75.7895C11.7895 75.7895 4.21053 68.2105 4.21053 58.9474ZM50.5263 73.6842C50.5263 74.9474 49.6842 75.7895 48.4211 75.7895H33.6842C36.6316 73.6842 38.9474 70.7368 40.4211 67.3684H48.4211C49.4737 67.3684 50.5263 68.4211 50.5263 69.4737V73.6842ZM52.6316 61.0526C52.6316 62.3158 51.7895 63.1579 50.5263 63.1579H48.4211H41.6842C41.8947 61.8947 42.1053 60.4211 42.1053 58.9474C42.1053 57.4737 41.8947 56 41.6842 54.7368H50.5263C51.7895 54.7368 52.6316 55.5789 52.6316 56.8421V61.0526ZM53.8947 51.5789C54.3158 50.9474 54.5263 50.3158 54.7368 49.4737C54.7368 49.4737 54.7368 49.4737 54.9474 49.4737C57.8947 49.4737 60.2105 51.7895 60.2105 54.7368C60.2105 56.8421 58.9474 58.7368 57.0526 59.5789V56.8421C56.8421 54.5263 55.579 52.6316 53.8947 51.5789ZM53.8947 66.3158C54.7368 65.6842 55.579 65.0526 56 64C60.6316 63.3684 64.2105 59.3684 64.2105 54.7368C64.2105 49.4737 60 45.2632 54.7368 45.2632V44.2105C54.7368 43.5789 54.5263 42.7368 54.3158 42.1053H82.3158C83.1579 45.0526 85.4737 47.3684 88.4211 48.2105V61.2632C85.4737 62.1053 83.1579 64.4211 82.3158 67.3684H54.3158C54.1053 66.9474 54.1053 66.7368 53.8947 66.3158ZM96.8421 73.6842C96.8421 74.9474 96 75.7895 94.7368 75.7895H54.3158C54.5263 75.1579 54.7368 74.5263 54.7368 73.6842V71.5789H84.2105C84.8421 71.5789 85.2632 71.3684 85.6842 70.9474C86.1053 70.5263 86.3158 70.1053 86.3158 69.4737C86.3158 67.1579 88.2105 65.2632 90.5263 65.2632C91.7895 65.2632 92.6316 64.4211 92.6316 63.1579V46.3158C92.6316 45.6842 92.4211 45.2632 92 44.8421C91.579 44.4211 91.1579 44.2105 90.5263 44.2105C88.2105 44.2105 86.3158 42.3158 86.3158 40C86.3158 38.7368 85.4737 37.8947 84.2105 37.8947H54.3158C54.5263 37.2632 54.7368 36.4211 54.7368 35.7895V33.6842H94.7368C96 33.6842 96.8421 34.5263 96.8421 35.7895V73.6842Z" fill="#0B1E51"/>
</g>
<defs>
<clipPath id="clip0_17_974">
<rect width="101.053" height="80" fill="white"/>
</clipPath>
</defs>
</svg>
