<svg width="48.25rem" height="35.5rem" viewBox="0 0 772 569" fill="none"  xmlns="http://www.w3.org/2000/svg">
<g opacity="0.6">
<path opacity="0.6" d="M351.026 473.661C351.026 475.227 350.561 476.758 349.691 478.061C348.821 479.363 347.584 480.379 346.137 480.978C344.69 481.577 343.098 481.734 341.562 481.429C340.025 481.123 338.614 480.369 337.507 479.261C336.399 478.153 335.645 476.742 335.34 475.206C335.034 473.669 335.191 472.077 335.79 470.63C336.39 469.182 337.405 467.946 338.707 467.075C340.009 466.205 341.54 465.74 343.106 465.74C345.207 465.74 347.221 466.575 348.706 468.06C350.191 469.546 351.026 471.56 351.026 473.661Z" fill="#5450D6"/>
<path opacity="0.6" d="M300.796 508.906C300.796 509.67 300.569 510.418 300.144 511.054C299.72 511.689 299.116 512.185 298.41 512.477C297.703 512.77 296.926 512.847 296.176 512.697C295.427 512.548 294.738 512.18 294.197 511.639C293.657 511.099 293.289 510.41 293.139 509.66C292.99 508.91 293.067 508.133 293.359 507.426C293.652 506.72 294.147 506.116 294.783 505.692C295.419 505.267 296.166 505.04 296.93 505.04C297.442 505.027 297.95 505.118 298.425 505.308C298.9 505.498 299.331 505.782 299.692 506.143C300.054 506.505 300.338 506.936 300.528 507.411C300.718 507.886 300.809 508.395 300.796 508.906Z" fill="#5450D6"/>
<path opacity="0.6" d="M537.802 524.501C537.784 525.242 537.547 525.962 537.121 526.57C536.696 527.177 536.101 527.646 535.41 527.917C534.72 528.188 533.965 528.25 533.239 528.094C532.514 527.938 531.851 527.571 531.333 527.04C530.815 526.509 530.465 525.837 530.327 525.108C530.189 524.379 530.269 523.626 530.557 522.942C530.845 522.258 531.328 521.675 531.946 521.264C532.564 520.854 533.289 520.635 534.031 520.635C534.534 520.635 535.033 520.735 535.496 520.931C535.96 521.126 536.38 521.412 536.732 521.773C537.083 522.133 537.359 522.56 537.543 523.028C537.727 523.497 537.815 523.997 537.802 524.501Z" fill="#5450D6"/>
</g>
<path opacity="0.6" d="M217.173 563.669C217.173 565.056 217.723 566.387 218.702 567.369C219.681 568.352 221.009 568.906 222.396 568.911H549.605C550.944 568.831 552.201 568.243 553.12 567.267C554.039 566.291 554.551 565 554.551 563.659C554.551 562.318 554.039 561.028 553.12 560.052C552.201 559.076 550.944 558.488 549.605 558.407C549.18 558.408 548.756 558.458 548.342 558.558C548.346 556.5 547.736 554.488 546.589 552.779C545.442 551.07 543.811 549.742 541.905 548.966C539.999 548.19 537.904 548.001 535.89 548.424C533.876 548.846 532.034 549.86 530.599 551.336H530.505C530.505 550.695 530.599 550.054 530.599 549.45C530.599 546.883 530.094 544.341 529.111 541.97C528.128 539.598 526.687 537.443 524.872 535.629C523.056 533.815 520.9 532.376 518.528 531.395C516.156 530.415 513.614 529.911 511.047 529.914C508.073 529.904 505.137 530.582 502.468 531.894C502.285 528.715 501.022 525.694 498.886 523.333C496.751 520.972 493.873 519.412 490.729 518.912C487.585 518.412 484.364 519.002 481.602 520.585C478.84 522.168 476.702 524.648 475.543 527.613C473.79 524.815 471.354 522.51 468.465 520.913C465.575 519.316 462.327 518.481 459.026 518.486C457.761 518.487 456.498 518.607 455.255 518.844C455.521 517.338 455.654 515.811 455.651 514.281C455.665 509.211 454.22 504.244 451.487 499.973C448.754 495.703 444.85 492.31 440.24 490.2C435.631 488.09 430.512 487.352 425.494 488.074C420.476 488.796 415.773 490.948 411.945 494.273C411.861 494.078 411.753 493.894 411.625 493.726C411.37 487.089 408.555 480.809 403.771 476.204C398.986 471.599 392.604 469.026 385.963 469.026C379.323 469.026 372.94 471.599 368.156 476.204C363.371 480.809 360.556 487.089 360.301 493.726C360.173 493.894 360.065 494.078 359.981 494.273C356.157 490.938 351.453 488.777 346.433 488.047C341.412 487.317 336.288 488.049 331.673 490.156C327.058 492.263 323.148 495.655 320.41 499.927C317.673 504.199 316.224 509.169 316.237 514.243C316.235 515.773 316.367 517.3 316.633 518.807C315.39 518.569 314.128 518.449 312.862 518.448C309.561 518.443 306.313 519.279 303.424 520.875C300.534 522.472 298.098 524.778 296.345 527.575C295.188 524.612 293.054 522.133 290.295 520.549C287.536 518.965 284.319 518.371 281.177 518.866C278.034 519.361 275.156 520.916 273.018 523.271C270.879 525.627 269.61 528.642 269.421 531.818C266.441 530.363 263.14 529.69 259.829 529.862C256.517 530.033 253.304 531.045 250.491 532.8C247.678 534.556 245.357 536.998 243.747 539.898C242.138 542.797 241.292 546.058 241.289 549.375C241.289 550.016 241.289 550.657 241.383 551.261H241.289C239.855 549.784 238.013 548.77 235.998 548.348C233.984 547.926 231.89 548.115 229.984 548.891C228.078 549.667 226.447 550.994 225.3 552.703C224.153 554.412 223.542 556.425 223.546 558.483C223.133 558.383 222.709 558.332 222.283 558.332C220.901 558.372 219.59 558.954 218.634 559.952C217.678 560.951 217.153 562.286 217.173 563.669V563.669Z" fill="#5450D6"/>
<g opacity="0.6">
<path opacity="0.6" d="M738.287 519.315C738.287 521.527 738.943 523.689 740.171 525.528C741.4 527.367 743.146 528.8 745.189 529.647C747.232 530.493 749.481 530.715 751.649 530.283C753.818 529.852 755.811 528.787 757.374 527.223C758.938 525.659 760.003 523.666 760.434 521.497C760.866 519.328 760.644 517.079 759.798 515.036C758.952 512.993 757.519 511.246 755.68 510.017C753.841 508.789 751.679 508.133 749.468 508.133C746.503 508.133 743.659 509.311 741.562 511.408C739.465 513.505 738.287 516.35 738.287 519.315V519.315Z" fill="#5450D6"/>
<path opacity="0.6" d="M720.488 500.797C720.488 501.875 720.807 502.929 721.406 503.825C722.005 504.721 722.856 505.42 723.852 505.832C724.847 506.245 725.943 506.353 727 506.143C728.057 505.932 729.028 505.413 729.79 504.651C730.552 503.889 731.071 502.918 731.281 501.861C731.491 500.804 731.384 499.708 730.971 498.712C730.559 497.716 729.86 496.865 728.964 496.266C728.068 495.667 727.015 495.348 725.937 495.348C724.492 495.348 723.106 495.922 722.084 496.944C721.062 497.966 720.488 499.352 720.488 500.797V500.797Z" fill="#5450D6"/>
<path opacity="0.6" d="M392.298 476.452C392.298 477.53 392.618 478.584 393.217 479.48C393.815 480.376 394.666 481.075 395.662 481.487C396.658 481.9 397.753 482.008 398.81 481.797C399.867 481.587 400.838 481.068 401.6 480.306C402.362 479.544 402.881 478.573 403.092 477.515C403.302 476.458 403.194 475.363 402.782 474.367C402.369 473.371 401.671 472.52 400.775 471.921C399.879 471.322 398.825 471.002 397.747 471.002C396.302 471.002 394.916 471.577 393.894 472.599C392.872 473.621 392.298 475.007 392.298 476.452V476.452Z" fill="#5450D6"/>
</g>
<path opacity="0.6" d="M772 561.556C772 563.519 771.222 565.401 769.836 566.79C768.451 568.179 766.571 568.962 764.609 568.967H303.039C301.986 568.976 300.944 568.761 299.981 568.335C299.018 567.909 298.156 567.283 297.454 566.498C296.752 565.713 296.225 564.788 295.909 563.783C295.593 562.779 295.494 561.718 295.62 560.673C295.745 559.627 296.092 558.62 296.638 557.719C297.183 556.818 297.914 556.044 298.782 555.448C299.65 554.851 300.635 554.447 301.671 554.262C302.708 554.076 303.772 554.114 304.793 554.372C304.791 551.469 305.655 548.631 307.274 546.222C308.892 543.812 311.193 541.941 313.881 540.845C316.569 539.75 319.522 539.482 322.364 540.074C325.205 540.666 327.805 542.092 329.832 544.17H329.964C329.964 543.265 329.832 542.284 329.832 541.454C329.84 536.787 331.033 532.198 333.298 528.117C335.563 524.037 338.827 520.598 342.784 518.124C346.741 515.649 351.261 514.22 355.922 513.97C360.582 513.72 365.229 514.657 369.428 516.694C369.62 512.161 371.374 507.833 374.392 504.445C377.411 501.057 381.507 498.817 385.988 498.105C390.468 497.392 395.058 498.251 398.978 500.536C402.897 502.821 405.907 506.391 407.496 510.641C409.973 506.693 413.413 503.439 417.493 501.186C421.573 498.933 426.159 497.755 430.819 497.761C432.584 497.762 434.345 497.926 436.08 498.251C435.7 496.129 435.51 493.977 435.514 491.821C435.478 484.653 437.509 477.627 441.364 471.584C445.218 465.54 450.733 460.737 457.247 457.748C463.761 454.759 470.998 453.712 478.093 454.731C485.187 455.751 491.836 458.794 497.245 463.497C497.367 463.223 497.518 462.963 497.698 462.724C498.123 453.407 502.123 444.613 508.866 438.17C515.608 431.727 524.574 428.132 533.9 428.132C543.225 428.132 552.191 431.727 558.933 438.17C565.676 444.613 569.676 453.407 570.101 462.724C570.281 462.963 570.432 463.223 570.554 463.497C575.962 458.82 582.601 455.798 589.68 454.79C596.758 453.782 603.977 454.831 610.475 457.813C616.974 460.794 622.478 465.582 626.331 471.605C630.185 477.628 632.225 484.633 632.209 491.783C632.213 493.939 632.024 496.091 631.644 498.214C633.378 497.888 635.139 497.724 636.904 497.723C641.556 497.732 646.129 498.922 650.195 501.181C654.262 503.44 657.688 506.695 660.152 510.641C661.774 506.45 664.782 502.941 668.675 500.698C672.568 498.454 677.112 497.612 681.55 498.31C685.989 499.009 690.054 501.207 693.07 504.538C696.086 507.869 697.87 512.132 698.126 516.619C702.325 514.582 706.972 513.645 711.632 513.895C716.292 514.145 720.813 515.574 724.77 518.048C728.727 520.523 731.991 523.961 734.256 528.042C736.521 532.122 737.714 536.711 737.722 541.379C737.722 542.303 737.722 543.264 737.59 544.094H737.722C739.749 542.016 742.349 540.59 745.19 539.998C748.032 539.406 750.985 539.675 753.673 540.77C756.361 541.865 758.662 543.737 760.28 546.146C761.899 548.556 762.763 551.393 762.761 554.296C763.85 554.019 764.988 553.995 766.088 554.228C767.187 554.46 768.219 554.942 769.103 555.636C769.986 556.331 770.699 557.219 771.185 558.232C771.671 559.246 771.917 560.357 771.906 561.481L772 561.556Z" fill="#5450D6"/>
<g opacity="0.6">
<path opacity="0.6" d="M188.835 434.55C188.835 436.762 188.179 438.924 186.951 440.763C185.722 442.602 183.976 444.035 181.933 444.882C179.89 445.728 177.642 445.95 175.473 445.518C173.304 445.087 171.312 444.022 169.748 442.458C168.184 440.894 167.119 438.901 166.688 436.732C166.256 434.563 166.478 432.314 167.324 430.271C168.17 428.228 169.603 426.481 171.442 425.253C173.281 424.024 175.443 423.368 177.654 423.368C180.619 423.368 183.463 424.546 185.56 426.643C187.657 428.74 188.835 431.585 188.835 434.55Z" fill="#5450D6"/>
<path opacity="0.6" d="M117.959 484.24C117.959 485.318 117.64 486.371 117.041 487.268C116.442 488.164 115.591 488.862 114.596 489.275C113.6 489.687 112.504 489.795 111.447 489.585C110.39 489.375 109.419 488.856 108.657 488.094C107.895 487.331 107.376 486.36 107.166 485.303C106.956 484.246 107.064 483.15 107.476 482.154C107.888 481.159 108.587 480.307 109.483 479.709C110.379 479.11 111.433 478.79 112.51 478.79C113.955 478.79 115.341 479.364 116.363 480.386C117.385 481.408 117.959 482.795 117.959 484.24V484.24Z" fill="#5450D6"/>
<path opacity="0.6" d="M452.333 506.247C452.333 507.325 452.013 508.379 451.415 509.275C450.816 510.171 449.965 510.87 448.969 511.282C447.974 511.695 446.878 511.803 445.821 511.592C444.764 511.382 443.793 510.863 443.031 510.101C442.269 509.339 441.75 508.368 441.54 507.31C441.329 506.253 441.437 505.157 441.85 504.162C442.262 503.166 442.96 502.315 443.857 501.716C444.753 501.117 445.806 500.797 446.884 500.797C448.329 500.797 449.715 501.372 450.737 502.394C451.759 503.416 452.333 504.802 452.333 506.247V506.247Z" fill="#5450D6"/>
</g>
<path opacity="0.6" d="M0.00212875 561.556C0.0021224 563.519 0.780229 565.401 2.1658 566.79C3.55137 568.179 5.43129 568.962 7.39328 568.967H468.963C470.016 568.976 471.058 568.761 472.022 568.335C472.985 567.909 473.846 567.283 474.548 566.498C475.25 565.713 475.777 564.788 476.093 563.783C476.409 562.779 476.508 561.718 476.382 560.673C476.257 559.627 475.91 558.62 475.365 557.719C474.819 556.818 474.088 556.044 473.22 555.448C472.352 554.851 471.367 554.447 470.331 554.262C469.294 554.076 468.23 554.114 467.209 554.372C467.211 551.469 466.347 548.631 464.729 546.222C463.11 543.812 460.809 541.941 458.121 540.845C455.433 539.75 452.48 539.482 449.639 540.074C446.797 540.666 444.197 542.092 442.17 544.17H442.038C442.038 543.265 442.17 542.284 442.17 541.454C442.17 536.774 440.979 532.171 438.708 528.078C436.438 523.986 433.163 520.539 429.193 518.062C425.222 515.585 420.687 514.16 416.014 513.921C411.34 513.681 406.683 514.636 402.48 516.694C402.239 512.202 400.465 507.928 397.455 504.586C394.445 501.243 390.38 499.034 385.938 498.326C381.496 497.618 376.946 498.454 373.046 500.695C369.146 502.936 366.132 506.446 364.506 510.641C362.029 506.693 358.589 503.439 354.509 501.186C350.429 498.933 345.843 497.755 341.183 497.761C339.418 497.762 337.657 497.926 335.922 498.251C336.302 496.129 336.492 493.977 336.488 491.821C336.524 484.653 334.493 477.627 330.639 471.584C326.784 465.54 321.27 460.737 314.755 457.748C308.241 454.759 301.004 453.712 293.91 454.731C286.815 455.751 280.166 458.794 274.757 463.497C274.636 463.223 274.484 462.963 274.304 462.724C273.879 453.407 269.879 444.613 263.136 438.17C256.394 431.727 247.428 428.132 238.103 428.132C228.777 428.132 219.811 431.727 213.069 438.17C206.326 444.613 202.326 453.407 201.901 462.724C201.721 462.963 201.57 463.223 201.449 463.497C196.04 458.82 189.401 455.798 182.323 454.79C175.244 453.782 168.026 454.831 161.527 457.813C155.028 460.794 149.524 465.582 145.671 471.605C141.817 477.628 139.777 484.633 139.793 491.783C139.789 493.939 139.978 496.091 140.358 498.214C138.624 497.888 136.863 497.724 135.098 497.723C130.446 497.732 125.873 498.922 121.807 501.181C117.741 503.44 114.314 506.695 111.85 510.641C110.228 506.45 107.22 502.941 103.327 500.698C99.4342 498.454 94.8904 497.612 90.4519 498.31C86.0135 499.009 81.9481 501.207 78.9322 504.538C75.9164 507.869 74.132 512.132 73.8759 516.619C69.6769 514.582 65.0297 513.645 60.3697 513.895C55.7097 514.145 51.1894 515.574 47.2324 518.048C43.2755 520.523 40.0114 523.961 37.7461 528.042C35.4807 532.122 34.2883 536.711 34.2805 541.379C34.2805 542.303 34.2805 543.264 34.4124 544.094H34.2805C32.2535 542.016 29.6532 540.59 26.8118 539.998C23.9703 539.406 21.0169 539.675 18.329 540.77C15.641 541.865 13.3406 543.737 11.7218 546.146C10.103 548.556 9.23926 551.393 9.24106 554.296C8.1396 554 6.98417 553.964 5.86658 554.192C4.74899 554.421 3.70005 554.907 2.80312 555.612C1.90619 556.316 1.186 557.221 0.69976 558.253C0.213525 559.285 -0.0253498 560.416 0.00212875 561.556V561.556Z" fill="#5450D6"/>
<path opacity="0.6" d="M655.137 568.911H116.866C293.895 568.911 360.434 442.867 366.26 359.592C371.464 285.312 370.22 192.89 370.22 192.89H401.764C401.764 192.89 400.538 285.293 405.724 359.592C411.569 442.867 478.089 568.911 655.137 568.911Z" fill="#5450D6"/>
<path opacity="0.6" d="M630.625 568.911H141.377C318.406 568.911 371.747 442.867 377.573 359.592C382.777 285.312 381.532 192.89 381.532 192.89H390.451C390.451 192.89 389.225 285.293 394.41 359.592C400.255 442.867 453.577 568.911 630.625 568.911Z" fill="#5450D6"/>
<path d="M401.877 420.502L407.684 421.577L408.985 427.705L410.267 421.577L416.075 420.502L410.305 419.088L408.985 413.317L407.646 419.088L401.877 420.502Z" fill="white"/>
<path d="M48.3466 545.66L54.1539 546.735L55.4549 552.844L56.7559 546.735L62.5632 545.66L56.7747 544.245L55.4549 538.456L54.135 544.245L48.3466 545.66Z" fill="white"/>
<path d="M614.372 494.914L620.179 495.989L621.48 502.099L622.781 495.989L628.588 494.895L622.8 493.5L621.48 487.71L620.16 493.5L614.372 494.914Z" fill="white"/>
<path d="M559.071 526.161L562.314 526.765L563.03 530.197L563.766 526.765L567.009 526.161L563.785 525.369L563.03 522.145L562.295 525.369L559.071 526.161Z" fill="white"/>
<path d="M413.623 490.105L416.866 490.708L417.602 494.121L418.318 490.708L421.561 490.105L418.337 489.313L417.602 486.088L416.848 489.313L413.623 490.105Z" fill="white"/>
<path d="M544.571 553.561L547.814 554.164L548.549 557.578L549.265 554.164L552.508 553.561L549.284 552.769L548.549 549.544L547.814 552.769L544.571 553.561Z" fill="white"/>
<path d="M462.552 545.528L465.795 546.112L466.511 549.544L467.246 546.112L470.49 545.509L467.265 544.735L466.511 541.492L465.776 544.735L462.552 545.528Z" fill="white"/>
<path d="M100.292 549.545L103.535 550.148L104.27 553.561L104.987 550.148L108.23 549.545L105.006 548.752L104.27 545.528L103.516 548.752L100.292 549.545Z" fill="white"/>
<path d="M473.601 469.757L476.844 470.361L477.58 473.793L478.296 470.361L481.539 469.757L478.315 468.965L477.58 465.741L476.826 468.965L473.601 469.757Z" fill="white"/>
<path d="M582.093 469.757L585.336 470.361L586.052 473.793L586.788 470.361L590.031 469.757L586.788 468.965L586.052 465.741L585.317 468.965L582.093 469.757Z" fill="white"/>
<path d="M376.743 543.774C376.993 543.774 377.233 543.873 377.41 544.05C377.587 544.227 377.686 544.467 377.686 544.717C377.686 544.967 377.587 545.206 377.41 545.383C377.233 545.56 376.993 545.659 376.743 545.659C376.493 545.659 376.254 545.56 376.077 545.383C375.9 545.206 375.801 544.967 375.801 544.717C375.801 544.467 375.9 544.227 376.077 544.05C376.254 543.873 376.493 543.774 376.743 543.774Z" fill="white"/>
<path d="M498.867 444.225C499.117 444.225 499.357 444.324 499.534 444.501C499.71 444.678 499.81 444.917 499.81 445.167C499.81 445.417 499.71 445.657 499.534 445.834C499.357 446.011 499.117 446.11 498.867 446.11C498.617 446.11 498.377 446.011 498.2 445.834C498.024 445.657 497.924 445.417 497.924 445.167C497.924 444.917 498.024 444.678 498.2 444.501C498.377 444.324 498.617 444.225 498.867 444.225Z" fill="white"/>
<path d="M579.151 548.356C579.401 548.356 579.641 548.456 579.818 548.633C579.994 548.809 580.094 549.049 580.094 549.299C580.094 549.549 579.994 549.789 579.818 549.966C579.641 550.143 579.401 550.242 579.151 550.242C578.901 550.242 578.661 550.143 578.484 549.966C578.308 549.789 578.208 549.549 578.208 549.299C578.208 549.049 578.308 548.809 578.484 548.633C578.661 548.456 578.901 548.356 579.151 548.356Z" fill="white"/>
<path d="M519.514 535.438C519.764 535.438 520.003 535.538 520.18 535.715C520.357 535.891 520.456 536.131 520.456 536.381C520.456 536.631 520.357 536.871 520.18 537.048C520.003 537.225 519.764 537.324 519.514 537.324C519.264 537.324 519.024 537.225 518.847 537.048C518.67 536.871 518.571 536.631 518.571 536.381C518.571 536.131 518.67 535.891 518.847 535.715C519.024 535.538 519.264 535.438 519.514 535.438Z" fill="white"/>
<path d="M400.312 526.859C400.487 526.859 400.655 526.928 400.779 527.052C400.903 527.176 400.972 527.344 400.972 527.519C400.972 527.694 400.903 527.862 400.779 527.985C400.655 528.109 400.487 528.179 400.312 528.179C400.137 528.179 399.969 528.109 399.845 527.985C399.722 527.862 399.652 527.694 399.652 527.519C399.652 527.344 399.722 527.176 399.845 527.052C399.969 526.928 400.137 526.859 400.312 526.859Z" fill="white"/>
<path d="M406.402 366.343C406.577 366.343 406.745 366.412 406.869 366.536C406.992 366.66 407.062 366.827 407.062 367.002C407.062 367.177 406.992 367.345 406.869 367.469C406.745 367.593 406.577 367.662 406.402 367.662C406.227 367.662 406.059 367.593 405.935 367.469C405.812 367.345 405.742 367.177 405.742 367.002C405.742 366.827 405.812 366.66 405.935 366.536C406.059 366.412 406.227 366.343 406.402 366.343V366.343Z" fill="white"/>
<path d="M482.557 516.864C482.715 516.891 482.859 516.973 482.963 517.095C483.066 517.218 483.123 517.373 483.123 517.533C483.123 517.694 483.066 517.849 482.963 517.972C482.859 518.094 482.715 518.176 482.557 518.203C482.399 518.176 482.255 518.094 482.151 517.972C482.048 517.849 481.991 517.694 481.991 517.533C481.991 517.373 482.048 517.218 482.151 517.095C482.255 516.973 482.399 516.891 482.557 516.864V516.864Z" fill="white"/>
<path d="M542.761 503.852C542.92 503.879 543.063 503.961 543.167 504.083C543.271 504.206 543.327 504.361 543.327 504.522C543.327 504.682 543.271 504.837 543.167 504.96C543.063 505.082 542.92 505.164 542.761 505.191C542.603 505.164 542.459 505.082 542.356 504.96C542.252 504.837 542.195 504.682 542.195 504.522C542.195 504.361 542.252 504.206 542.356 504.083C542.459 503.961 542.603 503.879 542.761 503.852V503.852Z" fill="white"/>
<path d="M439.757 506.587C440.141 506.706 440.477 506.945 440.716 507.269C440.954 507.593 441.083 507.985 441.083 508.387C441.083 508.79 440.954 509.182 440.716 509.505C440.477 509.829 440.141 510.069 439.757 510.188C439.372 510.069 439.036 509.829 438.798 509.505C438.559 509.182 438.43 508.79 438.43 508.387C438.43 507.985 438.559 507.593 438.798 507.269C439.036 506.945 439.372 506.706 439.757 506.587Z" fill="white"/>
<path d="M534.238 497.742C534.623 497.862 534.959 498.101 535.197 498.425C535.436 498.749 535.565 499.14 535.565 499.543C535.565 499.945 535.436 500.337 535.197 500.661C534.959 500.985 534.623 501.224 534.238 501.343C533.854 501.224 533.518 500.985 533.279 500.661C533.041 500.337 532.912 499.945 532.912 499.543C532.912 499.14 533.041 498.749 533.279 498.425C533.518 498.101 533.854 497.862 534.238 497.742V497.742Z" fill="white"/>
<path d="M367.956 248.878L373.764 249.953L375.065 256.082L376.366 249.953L382.173 248.878L376.385 247.464L375.065 241.694L373.745 247.464L367.956 248.878Z" fill="white"/>
<path d="M322.554 528.462L325.816 529.065L326.532 532.497L327.249 529.065L330.51 528.462L327.267 527.689L326.532 524.445L325.797 527.689L322.554 528.462Z" fill="white"/>
<path d="M385.605 232.378L388.848 232.982L389.584 236.395L390.3 232.982L393.543 232.378L390.319 231.586L389.584 228.362L388.829 231.586L385.605 232.378Z" fill="white"/>
<path d="M204.691 475.792C204.941 475.792 205.181 475.892 205.358 476.069C205.535 476.245 205.634 476.485 205.634 476.735C205.634 476.985 205.535 477.225 205.358 477.402C205.181 477.579 204.941 477.678 204.691 477.678C204.441 477.678 204.202 477.579 204.025 477.402C203.848 477.225 203.749 476.985 203.749 476.735C203.749 476.485 203.848 476.245 204.025 476.069C204.202 475.892 204.441 475.792 204.691 475.792Z" fill="white"/>
<path d="M342.635 550.676C342.885 550.676 343.124 550.775 343.301 550.952C343.478 551.128 343.577 551.368 343.577 551.618C343.577 551.868 343.478 552.108 343.301 552.285C343.124 552.462 342.885 552.561 342.635 552.561C342.384 552.561 342.145 552.462 341.968 552.285C341.791 552.108 341.692 551.868 341.692 551.618C341.692 551.368 341.791 551.128 341.968 550.952C342.145 550.775 342.384 550.676 342.635 550.676Z" fill="white"/>
<path d="M283.015 537.74C283.265 537.74 283.505 537.839 283.682 538.016C283.858 538.193 283.958 538.432 283.958 538.682C283.958 538.933 283.858 539.172 283.682 539.349C283.505 539.526 283.265 539.625 283.015 539.625C282.765 539.625 282.525 539.526 282.348 539.349C282.171 539.172 282.072 538.933 282.072 538.682C282.072 538.432 282.171 538.193 282.348 538.016C282.525 537.839 282.765 537.74 283.015 537.74Z" fill="white"/>
<path d="M246.06 519.184C246.235 519.184 246.402 519.253 246.526 519.377C246.65 519.501 246.719 519.669 246.719 519.844C246.719 520.019 246.65 520.186 246.526 520.31C246.402 520.434 246.235 520.503 246.06 520.503C245.884 520.503 245.717 520.434 245.593 520.31C245.469 520.186 245.4 520.019 245.4 519.844C245.4 519.669 245.469 519.501 245.593 519.377C245.717 519.253 245.884 519.184 246.06 519.184V519.184Z" fill="white"/>
<path d="M306.263 506.171C306.438 506.171 306.606 506.241 306.73 506.365C306.853 506.488 306.923 506.656 306.923 506.831C306.923 507.006 306.853 507.174 306.73 507.298C306.606 507.422 306.438 507.491 306.263 507.491C306.088 507.491 305.92 507.422 305.796 507.298C305.673 507.174 305.603 507.006 305.603 506.831C305.603 506.656 305.673 506.488 305.796 506.365C305.92 506.241 306.088 506.171 306.263 506.171V506.171Z" fill="white"/>
<path d="M350.629 389.557C350.804 389.557 350.972 389.626 351.096 389.75C351.22 389.874 351.289 390.042 351.289 390.217C351.289 390.392 351.22 390.559 351.096 390.683C350.972 390.807 350.804 390.876 350.629 390.876C350.454 390.876 350.286 390.807 350.163 390.683C350.039 390.559 349.969 390.392 349.969 390.217C349.969 390.042 350.039 389.874 350.163 389.75C350.286 389.626 350.454 389.557 350.629 389.557V389.557Z" fill="white"/>
<path d="M297.741 500.043C298.132 500.157 298.477 500.395 298.721 500.722C298.966 501.048 299.098 501.445 299.098 501.853C299.098 502.261 298.966 502.658 298.721 502.984C298.477 503.311 298.132 503.549 297.741 503.663C297.349 503.549 297.005 503.311 296.76 502.984C296.516 502.658 296.383 502.261 296.383 501.853C296.383 501.445 296.516 501.048 296.76 500.722C297.005 500.395 297.349 500.157 297.741 500.043V500.043Z" fill="white"/>
<path d="M399.671 273.262C400.055 273.381 400.391 273.62 400.63 273.944C400.868 274.268 400.997 274.66 400.997 275.062C400.997 275.465 400.868 275.857 400.63 276.181C400.391 276.505 400.055 276.744 399.671 276.863C399.286 276.744 398.95 276.505 398.712 276.181C398.473 275.857 398.344 275.465 398.344 275.062C398.344 274.66 398.473 274.268 398.712 273.944C398.95 273.62 399.286 273.381 399.671 273.262Z" fill="white"/>
<path d="M177.786 541.963C178.177 542.077 178.521 542.316 178.766 542.642C179.011 542.968 179.143 543.365 179.143 543.773C179.143 544.181 179.011 544.578 178.766 544.905C178.521 545.231 178.177 545.469 177.786 545.583C177.394 545.469 177.05 545.231 176.805 544.905C176.56 544.578 176.428 544.181 176.428 543.773C176.428 543.365 176.56 542.968 176.805 542.642C177.05 542.316 177.394 542.077 177.786 541.963V541.963Z" fill="white"/>
<path d="M311.468 476.037L314.729 476.641L315.446 480.054L316.181 476.641L319.424 476.037L316.181 475.245L315.446 472.021L314.711 475.245L311.468 476.037Z" fill="white"/>
<path d="M682.74 545.66L685.983 546.263L686.718 549.676L687.435 546.263L690.678 545.66L687.454 544.868L686.718 541.624L685.983 544.868L682.74 545.66Z" fill="white"/>
<path d="M331.548 498.233C331.798 498.233 332.037 498.332 332.214 498.509C332.391 498.686 332.49 498.926 332.49 499.176C332.49 499.426 332.391 499.665 332.214 499.842C332.037 500.019 331.798 500.118 331.548 500.118C331.298 500.118 331.058 500.019 330.881 499.842C330.704 499.665 330.605 499.426 330.605 499.176C330.605 498.926 330.704 498.686 330.881 498.509C331.058 498.332 331.298 498.233 331.548 498.233Z" fill="white"/>
<path d="M360.113 447.468C360.363 447.468 360.603 447.568 360.78 447.744C360.957 447.921 361.056 448.161 361.056 448.411C361.056 448.661 360.957 448.901 360.78 449.078C360.603 449.254 360.363 449.354 360.113 449.354C359.863 449.354 359.624 449.254 359.447 449.078C359.27 448.901 359.171 448.661 359.171 448.411C359.171 448.161 359.27 447.921 359.447 447.744C359.624 447.568 359.863 447.468 360.113 447.468Z" fill="white"/>
<path d="M374.236 321.631L377.479 322.235L378.214 325.648L378.931 322.235L382.174 321.631L378.949 320.839L378.214 317.615L377.479 320.839L374.236 321.631Z" fill="white"/>
<path d="M465.852 464.798C466.102 464.798 466.342 464.898 466.518 465.074C466.695 465.251 466.795 465.491 466.795 465.741C466.795 465.991 466.695 466.231 466.518 466.408C466.342 466.584 466.102 466.684 465.852 466.684C465.602 466.684 465.362 466.584 465.185 466.408C465.008 466.231 464.909 465.991 464.909 465.741C464.909 465.491 465.008 465.251 465.185 465.074C465.362 464.898 465.602 464.798 465.852 464.798Z" fill="white"/>
<path d="M424.936 448.807C425.111 448.807 425.279 448.876 425.403 449C425.527 449.124 425.596 449.292 425.596 449.467C425.596 449.642 425.527 449.809 425.403 449.933C425.279 450.057 425.111 450.127 424.936 450.127C424.761 450.127 424.593 450.057 424.47 449.933C424.346 449.809 424.276 449.642 424.276 449.467C424.276 449.292 424.346 449.124 424.47 449C424.593 448.876 424.761 448.807 424.936 448.807Z" fill="white"/>
<path d="M204.032 498.233L207.275 498.836L208.01 502.268L208.727 498.836L211.97 498.233L208.746 497.441L208.01 494.216L207.275 497.441L204.032 498.233Z" fill="white"/>
<path d="M715.699 557.578L718.961 558.181L719.677 561.613L720.413 558.181L723.656 557.578L720.413 556.805L719.677 553.561L718.942 556.805L715.699 557.578Z" fill="white"/>
<path d="M157.347 498.233C157.597 498.233 157.836 498.332 158.013 498.509C158.19 498.686 158.289 498.926 158.289 499.176C158.289 499.426 158.19 499.665 158.013 499.842C157.836 500.019 157.597 500.118 157.347 500.118C157.097 500.118 156.857 500.019 156.68 499.842C156.503 499.665 156.404 499.426 156.404 499.176C156.404 498.926 156.503 498.686 156.68 498.509C156.857 498.332 157.097 498.233 157.347 498.233Z" fill="white"/>
<path d="M219.682 503.193C219.84 503.219 219.984 503.301 220.087 503.424C220.191 503.546 220.248 503.702 220.248 503.862C220.248 504.022 220.191 504.178 220.087 504.3C219.984 504.423 219.84 504.505 219.682 504.531C219.523 504.505 219.38 504.423 219.276 504.3C219.172 504.178 219.116 504.022 219.116 503.862C219.116 503.702 219.172 503.546 219.276 503.424C219.38 503.301 219.523 503.219 219.682 503.193V503.193Z" fill="white"/>
<path d="M311.354 455.954C311.746 456.068 312.09 456.306 312.335 456.633C312.58 456.959 312.712 457.356 312.712 457.764C312.712 458.172 312.58 458.569 312.335 458.895C312.09 459.222 311.746 459.46 311.354 459.574C310.963 459.46 310.619 459.222 310.374 458.895C310.129 458.569 309.997 458.172 309.997 457.764C309.997 457.356 310.129 456.959 310.374 456.633C310.619 456.306 310.963 456.068 311.354 455.954V455.954Z" fill="white"/>
<path d="M572.325 478.263C572.71 478.382 573.046 478.621 573.284 478.945C573.523 479.269 573.652 479.661 573.652 480.063C573.652 480.466 573.523 480.858 573.284 481.182C573.046 481.506 572.71 481.745 572.325 481.864C571.941 481.745 571.605 481.506 571.366 481.182C571.128 480.858 570.999 480.466 570.999 480.063C570.999 479.661 571.128 479.269 571.366 478.945C571.605 478.621 571.941 478.382 572.325 478.263V478.263Z" fill="white"/>
<path opacity="0.6" d="M441.847 339.243C441.847 339.79 441.685 340.325 441.381 340.779C441.077 341.234 440.646 341.589 440.14 341.798C439.635 342.007 439.079 342.062 438.543 341.955C438.006 341.849 437.514 341.585 437.127 341.198C436.74 340.812 436.477 340.319 436.37 339.783C436.263 339.246 436.318 338.69 436.527 338.185C436.737 337.68 437.091 337.248 437.546 336.944C438.001 336.64 438.535 336.478 439.082 336.478C439.815 336.478 440.519 336.769 441.037 337.288C441.556 337.807 441.847 338.51 441.847 339.243V339.243Z" fill="#5450D6"/>
<path d="M354.111 125.875L319.556 163.561C319.556 163.561 354.14 242.672 354.111 243.218L349.243 177.311L359.953 166.278L354.111 125.875Z" fill="#5450D6"/>
<path opacity="0.1" d="M354.111 125.875L319.556 163.561C319.556 163.561 354.14 242.672 354.111 243.218L349.243 177.311L359.953 166.278L354.111 125.875Z" fill="black"/>
<path opacity="0.1" d="M359.875 166.269L352.582 173.815L338.766 142.596L354.11 125.866L359.875 166.269Z" fill="black"/>
<path d="M419.911 125.875L454.466 163.561C454.466 163.561 419.872 242.672 419.911 243.218L424.828 177.311L414.118 166.278L419.911 125.875Z" fill="#5450D6"/>
<path opacity="0.1" d="M419.911 125.875L454.466 163.561C454.466 163.561 419.872 242.672 419.911 243.218L424.828 177.311L414.118 166.278L419.911 125.875Z" fill="black"/>
<path opacity="0.1" d="M414.137 166.269L421.439 173.815L435.256 142.596L419.911 125.866L414.137 166.269Z" fill="black"/>
<g filter="url(#filter0_d_16_655)">
<path d="M407 192.054H366.924C366.924 192.054 348.045 158.303 350.284 118.046C351.414 97.9565 356.662 77.7307 362.942 60.9912C371.676 37.8441 382.425 21.4551 387.05 21.4551C391.674 21.4551 402.433 37.8635 411.109 61.0009C417.389 77.7405 422.608 98.0052 423.708 118.075C425.918 158.322 407 192.054 407 192.054Z" fill="white"/>
</g>
<path opacity="0.2" d="M411.002 112.865C411 117.438 409.642 121.908 407.1 125.708C404.558 129.509 400.946 132.471 396.721 134.219C392.496 135.966 387.848 136.421 383.364 135.527C378.881 134.632 374.763 132.428 371.532 129.192C368.301 125.957 366.102 121.836 365.213 117.35C364.324 112.865 364.786 108.216 366.538 103.993C368.291 99.7698 371.257 96.1612 375.06 93.6237C378.864 91.0863 383.334 89.7339 387.906 89.7378C390.942 89.7378 393.947 90.3362 396.751 91.4989C399.555 92.6615 402.103 94.3655 404.248 96.5135C406.392 98.6615 408.093 101.211 409.252 104.017C410.411 106.823 411.005 109.83 411.002 112.865Z" fill="black"/>
<path d="M410.184 110.509C410.182 115.08 408.825 119.547 406.285 123.347C403.745 127.147 400.135 130.109 395.912 131.858C391.69 133.607 387.043 134.064 382.561 133.173C378.078 132.281 373.96 130.081 370.728 126.849C367.495 123.618 365.293 119.5 364.4 115.017C363.507 110.534 363.962 105.887 365.709 101.663C367.456 97.4392 370.416 93.8279 374.214 91.2857C378.012 88.7436 382.479 87.3847 387.049 87.3809C390.087 87.3783 393.096 87.9747 395.903 89.136C398.711 90.2972 401.261 92.0005 403.41 94.1485C405.559 96.2965 407.263 98.847 408.425 101.654C409.587 104.461 410.185 107.47 410.184 110.509Z" fill="#5450D6"/>
<path opacity="0.1" d="M410.184 110.509C410.182 115.08 408.825 119.547 406.285 123.347C403.745 127.147 400.135 130.109 395.912 131.858C391.69 133.607 387.043 134.064 382.561 133.173C378.078 132.281 373.96 130.081 370.728 126.849C367.495 123.618 365.293 119.5 364.4 115.017C363.507 110.534 363.962 105.887 365.709 101.663C367.456 97.4392 370.416 93.8279 374.214 91.2857C378.012 88.7436 382.479 87.3847 387.049 87.3809C390.087 87.3783 393.096 87.9747 395.903 89.136C398.711 90.2972 401.261 92.0005 403.41 94.1485C405.559 96.2965 407.263 98.847 408.425 101.654C409.587 104.461 410.185 107.47 410.184 110.509Z" fill="black"/>
<path d="M403.096 110.489C403.102 113.66 402.167 116.761 400.41 119.4C398.654 122.04 396.154 124.099 393.227 125.317C390.3 126.535 387.078 126.858 383.968 126.244C380.858 125.631 377.999 124.108 375.754 121.87C373.509 119.631 371.978 116.777 371.355 113.668C370.733 110.56 371.045 107.336 372.255 104.405C373.464 101.474 375.515 98.9677 378.148 97.2028C380.782 95.4379 383.88 94.4939 387.05 94.49C391.299 94.4848 395.376 96.1673 398.385 99.1675C401.393 102.168 403.088 106.24 403.096 110.489V110.489Z" fill="#455A64"/>
<g opacity="0.4">
<path opacity="0.4" d="M403.105 110.489C403.109 112.488 402.739 114.469 402.015 116.332L392.891 125.437C391.029 126.16 389.047 126.527 387.049 126.518C385.601 126.52 384.159 126.32 382.765 125.924L402.511 106.175C402.906 107.579 403.106 109.031 403.105 110.489V110.489Z" fill="white"/>
<path opacity="0.4" d="M389.426 94.6358L371.218 112.846C371.106 112.068 371.047 111.284 371.043 110.499C371.051 106.255 372.74 102.188 375.74 99.1872C378.74 96.1866 382.807 94.4974 387.05 94.4897C387.844 94.4826 388.638 94.5314 389.426 94.6358V94.6358Z" fill="white"/>
<path opacity="0.4" d="M401.1 102.728L379.319 124.512C378.896 124.287 378.486 124.036 378.092 123.762L400.34 101.501C400.613 101.891 400.856 102.28 401.1 102.728Z" fill="white"/>
</g>
<path d="M411.148 61.0009H362.981C371.676 37.8441 382.425 21.4551 387.05 21.4551C391.675 21.4551 402.473 37.8635 411.148 61.0009Z" fill="#5450D6"/>
<g opacity="0.1">
<path opacity="0.1" d="M371.276 55.9953C371.276 56.2629 371.197 56.5246 371.048 56.7472C370.9 56.9697 370.688 57.1432 370.441 57.2456C370.194 57.3481 369.921 57.3749 369.659 57.3226C369.396 57.2704 369.155 57.1415 368.966 56.9523C368.777 56.763 368.648 56.5218 368.596 56.2593C368.543 55.9968 368.57 55.7246 368.673 55.4773C368.775 55.2301 368.949 55.0187 369.171 54.87C369.394 54.7213 369.655 54.6419 369.923 54.6419C370.101 54.6406 370.278 54.6747 370.442 54.7423C370.607 54.8098 370.757 54.9095 370.883 55.0354C371.009 55.1613 371.108 55.311 371.176 55.4758C371.244 55.6406 371.278 55.8172 371.276 55.9953V55.9953Z" fill="black"/>
<path opacity="0.1" d="M379.844 55.9951C379.846 56.2635 379.768 56.5265 379.62 56.7506C379.472 56.9746 379.261 57.1496 379.013 57.2533C378.766 57.3569 378.493 57.3845 378.229 57.3326C377.966 57.2807 377.724 57.1516 377.534 56.9617C377.344 56.7719 377.215 56.5298 377.163 56.2664C377.111 56.003 377.139 55.7301 377.242 55.4824C377.346 55.2347 377.521 55.0234 377.745 54.8754C377.969 54.7275 378.232 54.6495 378.501 54.6514C378.856 54.654 379.197 54.7963 379.448 55.0478C379.699 55.2992 379.842 55.6395 379.844 55.9951V55.9951Z" fill="black"/>
<path opacity="0.1" d="M388.412 56.0047C388.414 56.1836 388.379 56.361 388.311 56.5265C388.243 56.6919 388.143 56.842 388.016 56.9681C387.889 57.0942 387.738 57.1936 387.572 57.2606C387.406 57.3275 387.228 57.3607 387.049 57.3581C386.781 57.36 386.519 57.2823 386.295 57.1348C386.071 56.9872 385.896 56.7765 385.792 56.5294C385.688 56.2823 385.66 56.0099 385.711 55.7467C385.762 55.4835 385.89 55.2415 386.079 55.0512C386.268 54.861 386.509 54.7311 386.772 54.6781C387.035 54.6251 387.307 54.6513 387.555 54.7534C387.803 54.8556 388.015 55.029 388.164 55.2518C388.313 55.4746 388.393 55.7366 388.393 56.0047H388.412Z" fill="black"/>
<path opacity="0.1" d="M396.981 56.0143C396.981 56.2824 396.901 56.5444 396.752 56.7672C396.603 56.99 396.391 57.1634 396.143 57.2656C395.895 57.3677 395.623 57.394 395.36 57.3409C395.097 57.2879 394.856 57.158 394.667 56.9678C394.478 56.7775 394.35 56.5355 394.299 56.2723C394.248 56.0092 394.276 55.7367 394.38 55.4896C394.484 55.2425 394.659 55.0318 394.883 54.8843C395.107 54.7367 395.369 54.659 395.637 54.6609C395.815 54.6609 395.99 54.696 396.154 54.7641C396.318 54.8323 396.466 54.9321 396.591 55.0579C396.716 55.1837 396.815 55.333 396.882 55.4971C396.949 55.6613 396.982 55.837 396.981 56.0143V56.0143Z" fill="black"/>
<path opacity="0.1" d="M405.549 56.0148C405.551 56.2833 405.473 56.5463 405.325 56.7704C405.177 56.9944 404.966 57.1694 404.718 57.273C404.47 57.3767 404.197 57.4043 403.934 57.3524C403.671 57.3005 403.429 57.1714 403.239 56.9815C403.049 56.7917 402.92 56.5496 402.868 56.2862C402.816 56.0227 402.844 55.7498 402.947 55.5021C403.051 55.2544 403.226 55.0432 403.45 54.8952C403.674 54.7472 403.937 54.6693 404.205 54.6712C404.562 54.6712 404.903 54.8127 405.155 55.0647C405.407 55.3167 405.549 55.6585 405.549 56.0148Z" fill="black"/>
</g>
<path d="M371.218 185.871C371.218 186.139 371.138 186.401 370.989 186.623C370.84 186.846 370.628 187.02 370.38 187.122C370.132 187.224 369.859 187.25 369.597 187.197C369.334 187.144 369.093 187.014 368.904 186.824C368.715 186.634 368.587 186.392 368.536 186.129C368.485 185.865 368.513 185.593 368.617 185.346C368.721 185.099 368.896 184.888 369.119 184.74C369.343 184.593 369.606 184.515 369.874 184.517C370.051 184.517 370.227 184.552 370.39 184.62C370.554 184.688 370.703 184.788 370.828 184.914C370.952 185.04 371.051 185.189 371.118 185.353C371.185 185.517 371.219 185.693 371.218 185.871V185.871Z" fill="#5450D6"/>
<path d="M379.786 185.871C379.788 186.139 379.71 186.402 379.562 186.626C379.414 186.85 379.203 187.025 378.955 187.129C378.708 187.232 378.435 187.26 378.171 187.208C377.908 187.156 377.666 187.027 377.476 186.837C377.286 186.647 377.157 186.405 377.105 186.142C377.053 185.878 377.081 185.606 377.185 185.358C377.288 185.11 377.463 184.899 377.687 184.751C377.911 184.603 378.174 184.525 378.443 184.527C378.799 184.527 379.141 184.668 379.393 184.92C379.645 185.172 379.786 185.514 379.786 185.871Z" fill="#5450D6"/>
<path d="M388.354 185.88C388.354 186.148 388.275 186.41 388.126 186.633C387.976 186.856 387.765 187.029 387.517 187.132C387.269 187.234 386.996 187.26 386.733 187.207C386.471 187.154 386.229 187.024 386.041 186.834C385.852 186.644 385.724 186.401 385.672 186.138C385.621 185.875 385.65 185.603 385.753 185.356C385.857 185.108 386.032 184.898 386.256 184.75C386.48 184.603 386.743 184.525 387.011 184.527C387.188 184.527 387.364 184.562 387.527 184.63C387.691 184.698 387.839 184.798 387.964 184.924C388.089 185.05 388.188 185.199 388.255 185.363C388.322 185.527 388.356 185.703 388.354 185.88V185.88Z" fill="#5450D6"/>
<path d="M396.932 185.881C396.934 186.149 396.857 186.411 396.709 186.635C396.561 186.859 396.351 187.034 396.104 187.138C395.857 187.242 395.584 187.27 395.321 187.219C395.058 187.168 394.816 187.04 394.625 186.851C394.435 186.662 394.305 186.421 394.252 186.158C394.199 185.895 394.226 185.622 394.328 185.375C394.43 185.127 394.603 184.915 394.826 184.766C395.049 184.616 395.311 184.537 395.579 184.537C395.936 184.537 396.279 184.678 396.532 184.93C396.786 185.182 396.93 185.523 396.932 185.881Z" fill="#5450D6"/>
<path d="M405.549 185.89C405.565 186.077 405.542 186.265 405.481 186.442C405.42 186.619 405.324 186.782 405.197 186.92C405.07 187.058 404.916 187.168 404.745 187.244C404.573 187.319 404.388 187.358 404.2 187.358C404.013 187.358 403.827 187.319 403.656 187.244C403.484 187.168 403.33 187.058 403.204 186.92C403.077 186.782 402.98 186.619 402.919 186.442C402.859 186.265 402.836 186.077 402.852 185.89C402.85 185.713 402.884 185.538 402.951 185.374C403.018 185.211 403.117 185.062 403.242 184.937C403.367 184.812 403.516 184.713 403.68 184.646C403.843 184.579 404.019 184.545 404.195 184.546C404.373 184.545 404.548 184.579 404.713 184.646C404.877 184.713 405.026 184.812 405.152 184.937C405.278 185.061 405.377 185.21 405.446 185.374C405.514 185.537 405.549 185.713 405.549 185.89V185.89Z" fill="#5450D6"/>
<path d="M403.3 204.1L370.712 204.081L369.193 192.035L404.839 192.064L403.3 204.1Z" fill="#5450D6"/>
<path opacity="0.1" d="M403.3 204.1L370.712 204.081L369.193 192.035L404.839 192.064L403.3 204.1Z" fill="black"/>
<path opacity="0.1" d="M404.839 192.064L404.079 197.926L369.767 196.64L369.193 192.035L404.839 192.064Z" fill="black"/>
<path d="M437.981 347.122L433.941 347.872L433.035 352.127L432.13 347.872L428.099 347.122L432.12 346.138L433.035 342.116L433.96 346.138L437.981 347.122Z" fill="#FCFCFC"/>
<path d="M398.694 312.98L394.653 313.72L393.758 317.986L392.852 313.72L388.812 312.98L392.833 311.997L393.758 307.975L394.673 311.997L398.694 312.98Z" fill="#FCFCFC"/>
<path d="M385.18 211.715L381.14 212.465L380.234 216.721L379.329 212.465L375.298 211.715L379.319 210.732L380.234 206.71L381.159 210.732L385.18 211.715Z" fill="#FCFCFC"/>
<path d="M340.002 355.233L337.753 355.651L337.247 358.027L336.741 355.651L334.482 355.233L336.731 354.678L337.247 352.428L337.763 354.678L340.002 355.233Z" fill="#FCFCFC"/>
<path d="M407.126 368.691L404.867 369.11L404.371 371.485L403.864 369.11L401.606 368.691L403.855 368.136L404.371 365.896L404.877 368.136L407.126 368.691Z" fill="#FCFCFC"/>
<path d="M390.604 306.504L388.345 306.923L387.838 309.299L387.332 306.923L385.083 306.504L387.322 305.959L387.838 303.71L388.354 305.959L390.604 306.504Z" fill="#FCFCFC"/>
<path d="M396.67 244.883L394.411 245.301L393.904 247.677L393.398 245.301L391.149 244.883L393.388 244.337L393.904 242.088L394.42 244.337L396.67 244.883Z" fill="#FCFCFC"/>
<path d="M381.87 298.247C381.709 298.266 381.562 298.344 381.454 298.465C381.347 298.586 381.288 298.742 381.288 298.904C381.288 299.066 381.347 299.222 381.454 299.343C381.562 299.464 381.709 299.541 381.87 299.561C382.03 299.541 382.178 299.464 382.285 299.343C382.393 299.222 382.452 299.066 382.452 298.904C382.452 298.742 382.393 298.586 382.285 298.465C382.178 298.344 382.03 298.266 381.87 298.247V298.247Z" fill="#FCFCFC"/>
<path d="M392.765 216.068C392.592 216.068 392.426 216.137 392.304 216.259C392.182 216.382 392.113 216.547 392.113 216.72C392.113 216.893 392.182 217.059 392.304 217.182C392.426 217.304 392.592 217.373 392.765 217.373C392.938 217.373 393.104 217.304 393.227 217.182C393.349 217.059 393.418 216.893 393.418 216.72C393.418 216.547 393.349 216.382 393.227 216.259C393.104 216.137 392.938 216.068 392.765 216.068V216.068Z" fill="#FCFCFC"/>
<path d="M326.04 370.668C325.879 370.687 325.732 370.765 325.624 370.886C325.517 371.007 325.458 371.163 325.458 371.325C325.458 371.487 325.517 371.643 325.624 371.764C325.732 371.885 325.879 371.963 326.04 371.982C326.2 371.963 326.348 371.885 326.455 371.764C326.563 371.643 326.622 371.487 326.622 371.325C326.622 371.163 326.563 371.007 326.455 370.886C326.348 370.765 326.2 370.687 326.04 370.668Z" fill="#FCFCFC"/>
<path d="M367.509 361.68C367.336 361.68 367.17 361.748 367.047 361.871C366.925 361.993 366.856 362.159 366.856 362.332C366.856 362.505 366.925 362.671 367.047 362.793C367.17 362.916 367.336 362.984 367.509 362.984C367.682 362.984 367.848 362.916 367.97 362.793C368.092 362.671 368.161 362.505 368.161 362.332C368.161 362.159 368.092 361.993 367.97 361.871C367.848 361.748 367.682 361.68 367.509 361.68V361.68Z" fill="#FCFCFC"/>
<path d="M393.213 348.767C393.102 348.783 393 348.839 392.927 348.924C392.853 349.009 392.813 349.118 392.813 349.23C392.813 349.342 392.853 349.451 392.927 349.536C393 349.621 393.102 349.676 393.213 349.692C393.324 349.676 393.426 349.621 393.499 349.536C393.573 349.451 393.613 349.342 393.613 349.23C393.613 349.118 393.573 349.009 393.499 348.924C393.426 348.839 393.324 348.783 393.213 348.767V348.767Z" fill="#FCFCFC"/>
<path d="M385.102 231.337C384.991 231.354 384.889 231.409 384.816 231.494C384.743 231.579 384.702 231.688 384.702 231.8C384.702 231.912 384.743 232.021 384.816 232.106C384.889 232.191 384.991 232.246 385.102 232.262C385.213 232.246 385.315 232.191 385.388 232.106C385.462 232.021 385.502 231.912 385.502 231.8C385.502 231.688 385.462 231.579 385.388 231.494C385.315 231.409 385.213 231.354 385.102 231.337Z" fill="#FCFCFC"/>
<path d="M351.346 339.721C351.234 339.737 351.133 339.793 351.059 339.877C350.986 339.962 350.946 340.071 350.946 340.183C350.946 340.295 350.986 340.404 351.059 340.489C351.133 340.574 351.234 340.63 351.346 340.646C351.457 340.63 351.558 340.574 351.632 340.489C351.705 340.404 351.746 340.295 351.746 340.183C351.746 340.071 351.705 339.962 351.632 339.877C351.558 339.793 351.457 339.737 351.346 339.721V339.721Z" fill="#FCFCFC"/>
<path d="M422.978 341.61C422.644 341.61 422.325 341.742 422.089 341.978C421.854 342.214 421.722 342.533 421.722 342.866C421.722 343.199 421.854 343.519 422.089 343.754C422.325 343.99 422.644 344.122 422.978 344.122C423.311 344.122 423.63 343.99 423.866 343.754C424.101 343.519 424.234 343.199 424.234 342.866C424.234 342.533 424.101 342.214 423.866 341.978C423.63 341.742 423.311 341.61 422.978 341.61V341.61Z" fill="#FCFCFC"/>
<path d="M357.275 335.465C356.942 335.465 356.622 335.597 356.387 335.833C356.151 336.069 356.019 336.388 356.019 336.721C356.019 337.054 356.151 337.374 356.387 337.609C356.622 337.845 356.942 337.977 357.275 337.977C357.608 337.977 357.928 337.845 358.163 337.609C358.399 337.374 358.531 337.054 358.531 336.721C358.531 336.388 358.399 336.069 358.163 335.833C357.928 335.597 357.608 335.465 357.275 335.465V335.465Z" fill="#FCFCFC"/>
<path d="M387.838 259.733C387.505 259.733 387.186 259.865 386.95 260.101C386.715 260.336 386.582 260.656 386.582 260.989C386.582 261.322 386.715 261.642 386.95 261.877C387.186 262.113 387.505 262.245 387.838 262.245C388.171 262.245 388.491 262.113 388.726 261.877C388.962 261.642 389.094 261.322 389.094 260.989C389.094 260.656 388.962 260.336 388.726 260.101C388.491 259.865 388.171 259.733 387.838 259.733V259.733Z" fill="#FCFCFC"/>
<defs>
<filter id="filter0_d_16_655" x="325.1" y="0.455078" width="123.788" height="220.599" filterUnits="userSpaceOnUse" color-interpolation-filters="sRGB">
<feFlood flood-opacity="0" result="BackgroundImageFix"/>
<feColorMatrix in="SourceAlpha" type="matrix" values="0 0 0 0 0 0 0 0 0 0 0 0 0 0 0 0 0 0 127 0" result="hardAlpha"/>
<feOffset dy="4"/>
<feGaussianBlur stdDeviation="12.5"/>
<feComposite in2="hardAlpha" operator="out"/>
<feColorMatrix type="matrix" values="0 0 0 0 0 0 0 0 0 0 0 0 0 0 0 0 0 0 0.15 0"/>
<feBlend mode="normal" in2="BackgroundImageFix" result="effect1_dropShadow_16_655"/>
<feBlend mode="normal" in="SourceGraphic" in2="effect1_dropShadow_16_655" result="shape"/>
</filter>
</defs>
</svg>
