<svg width="104" height="104" viewBox="0 0 104 104" fill="none" xmlns="http://www.w3.org/2000/svg">
<path d="M48.8313 99.0437C73.0627 99.0437 92.7063 79.4002 92.7063 55.1687C92.7063 30.9372 73.0627 11.2937 48.8313 11.2937C24.5998 11.2937 4.95625 30.9372 4.95625 55.1687C4.95625 79.4002 24.5998 99.0437 48.8313 99.0437Z" fill="#1CBEF5"/>
<path d="M8.20674 55.1682C8.21177 43.8197 12.6172 32.9152 20.4967 24.748C28.3762 16.5808 39.1157 11.7872 50.4567 11.3753C49.913 11.3553 49.3804 11.2932 48.8317 11.2932C37.1954 11.2932 26.0356 15.9157 17.8074 24.1439C9.57927 32.3721 4.95674 43.5318 4.95674 55.1682C4.95674 66.8046 9.57927 77.9644 17.8074 86.1925C26.0356 94.4207 37.1954 99.0432 48.8317 99.0432C49.3804 99.0432 49.913 98.9811 50.4567 98.9611C39.1157 98.5492 28.3762 93.7557 20.4967 85.5884C12.6172 77.4212 8.21173 66.5168 8.20674 55.1682Z" fill="#5450D6"/>
<path d="M48.8313 89.2937C67.678 89.2937 82.9563 74.0154 82.9563 55.1687C82.9563 36.322 67.678 21.0437 48.8313 21.0437C29.9845 21.0437 14.7063 36.322 14.7063 55.1687C14.7063 74.0154 29.9845 89.2937 48.8313 89.2937Z" fill="white"/>
<path d="M73.2225 55.1524C73.2225 55.7064 73.1899 56.2598 73.125 56.8099C72.8124 62.1401 70.7178 67.2106 67.1775 71.2074C66.4747 72.0402 65.7028 72.8121 64.87 73.5149C60.8654 77.0381 55.7973 79.1202 50.4725 79.4299C49.3931 79.5598 48.3019 79.5598 47.2225 79.4299C41.3378 79.0704 35.7873 76.5727 31.6155 72.4069C27.4436 68.241 24.938 62.6941 24.57 56.8099C24.5051 56.2598 24.4726 55.7064 24.4725 55.1524C24.4726 54.6201 24.5051 54.0883 24.57 53.5599C24.8762 48.2186 26.9711 43.1358 30.5175 39.1299C31.2005 38.29 31.9623 37.5173 32.7925 36.8224C36.8017 33.2814 41.8826 31.1872 47.2225 30.8749C48.3019 30.7448 49.3931 30.7448 50.4725 30.8749C56.3651 31.2434 61.92 33.7526 66.0919 37.9305C70.2637 42.1083 72.765 47.6668 73.125 53.5599C73.1899 54.0883 73.2224 54.6201 73.2225 55.1524Z" fill="#1CBEF5"/>
<path d="M56.145 56.7942H52.0825C51.6515 56.7942 51.2382 56.623 50.9335 56.3182C50.6287 56.0135 50.4575 55.6002 50.4575 55.1692C50.4575 54.7382 50.6287 54.3249 50.9335 54.0201C51.2382 53.7154 51.6515 53.5442 52.0825 53.5442H56.145C56.576 53.5442 56.9893 53.7154 57.2941 54.0201C57.5988 54.3249 57.77 54.7382 57.77 55.1692C57.77 55.6002 57.5988 56.0135 57.2941 56.3182C56.9893 56.623 56.576 56.7942 56.145 56.7942ZM48.8325 53.5442C48.6191 53.5443 48.4077 53.5024 48.2105 53.4207C48.0133 53.3391 47.8341 53.2194 47.6832 53.0685C47.5323 52.9176 47.4126 52.7384 47.331 52.5412C47.2493 52.344 47.2074 52.1326 47.2075 51.9192V46.2317C47.2075 45.8007 47.3787 45.3874 47.6835 45.0826C47.9882 44.7779 48.4015 44.6067 48.8325 44.6067C49.2635 44.6067 49.6768 44.7779 49.9816 45.0826C50.2863 45.3874 50.4575 45.8007 50.4575 46.2317V51.9192C50.4576 52.1326 50.4157 52.344 50.3341 52.5412C50.2525 52.7384 50.1328 52.9176 49.9818 53.0685C49.8309 53.2194 49.6517 53.3391 49.4545 53.4207C49.2573 53.5024 49.046 53.5443 48.8325 53.5442Z" fill="#3C3B41"/>
<path d="M50.825 57.7354C52.2425 56.6343 52.499 54.5926 51.3979 53.1751C50.2968 51.7576 48.255 51.5011 46.8375 52.6022C45.42 53.7033 45.1635 55.7451 46.2646 57.1626C47.3658 58.5801 49.4075 58.8365 50.825 57.7354Z" fill="white"/>
<path d="M48.8325 16.1692C48.6191 16.1693 48.4077 16.1274 48.2105 16.0457C48.0133 15.9641 47.8341 15.8444 47.6832 15.6935C47.5323 15.5426 47.4126 15.3634 47.331 15.1662C47.2493 14.969 47.2074 14.7576 47.2075 14.5442V8.04419C47.2075 7.61321 47.3787 7.19989 47.6835 6.89514C47.9882 6.59039 48.4015 6.41919 48.8325 6.41919C49.2635 6.41919 49.6768 6.59039 49.9816 6.89514C50.2863 7.19989 50.4575 7.61321 50.4575 8.04419V14.5442C50.4576 14.7576 50.4157 14.969 50.3341 15.1662C50.2525 15.3634 50.1328 15.5426 49.9818 15.6935C49.8309 15.8444 49.6517 15.9641 49.4545 16.0457C49.2573 16.1274 49.046 16.1693 48.8325 16.1692ZM48.8325 103.919C48.6191 103.919 48.4077 103.877 48.2105 103.796C48.0133 103.714 47.8341 103.594 47.6832 103.444C47.5323 103.293 47.4126 103.113 47.331 102.916C47.2493 102.719 47.2074 102.508 47.2075 102.294V95.7942C47.2075 95.3632 47.3787 94.9499 47.6835 94.6451C47.9882 94.3404 48.4015 94.1692 48.8325 94.1692C49.2635 94.1692 49.6768 94.3404 49.9816 94.6451C50.2863 94.9499 50.4575 95.3632 50.4575 95.7942V102.294C50.4576 102.508 50.4157 102.719 50.3341 102.916C50.2525 103.113 50.1328 103.293 49.9818 103.444C49.8309 103.594 49.6517 103.714 49.4545 103.796C49.2573 103.877 49.046 103.919 48.8325 103.919ZM8.20752 56.7942H1.70752C1.27654 56.7942 0.863218 56.623 0.558471 56.3182C0.253724 56.0135 0.0825195 55.6002 0.0825195 55.1692C0.0825195 54.7382 0.253724 54.3249 0.558471 54.0201C0.863218 53.7154 1.27654 53.5442 1.70752 53.5442H8.20752C8.6385 53.5442 9.05182 53.7154 9.35657 54.0201C9.66131 54.3249 9.83252 54.7382 9.83252 55.1692C9.83252 55.6002 9.66131 56.0135 9.35657 56.3182C9.05182 56.623 8.6385 56.7942 8.20752 56.7942ZM95.9575 56.7942H89.4575C89.0265 56.7942 88.6132 56.623 88.3085 56.3182C88.0037 56.0135 87.8325 55.6002 87.8325 55.1692C87.8325 54.7382 88.0037 54.3249 88.3085 54.0201C88.6132 53.7154 89.0265 53.5442 89.4575 53.5442H95.9575C96.3885 53.5442 96.8018 53.7154 97.1066 54.0201C97.4113 54.3249 97.5825 54.7382 97.5825 55.1692C97.5825 55.6002 97.4113 56.0135 97.1066 56.3182C96.8018 56.623 96.3885 56.7942 95.9575 56.7942ZM50.4725 76.3101V82.6801C49.3931 82.81 48.3019 82.81 47.2225 82.6801V76.3101C47.2204 76.0961 47.261 75.8839 47.3419 75.6858C47.4228 75.4877 47.5424 75.3077 47.6938 75.1564C47.8451 75.0051 48.025 74.8854 48.2232 74.8045C48.4213 74.7236 48.6335 74.683 48.8475 74.6851C49.2781 74.6864 49.6907 74.858 49.9951 75.1625C50.2996 75.467 50.4712 75.8795 50.4725 76.3101ZM50.4725 27.6251V34.0601C50.4657 34.489 50.2923 34.8984 49.989 35.2017C49.6858 35.5049 49.2764 35.6783 48.8475 35.6851C48.4169 35.6839 48.0043 35.5123 47.6998 35.2078C47.3953 34.9033 47.2237 34.4907 47.2225 34.0601V27.6251C48.3019 27.495 49.3931 27.495 50.4725 27.6251ZM35.036 71.2622L30.5317 75.7665C29.6766 75.0951 28.9051 74.3235 28.2336 73.4684L32.7379 68.9641C32.8877 68.8113 33.0665 68.6899 33.2638 68.607C33.4611 68.5242 33.673 68.4815 33.887 68.4815C34.101 68.4815 34.3128 68.5242 34.5101 68.607C34.7074 68.6899 34.8862 68.8113 35.036 68.9641C35.3396 69.2695 35.51 69.6826 35.51 70.1132C35.51 70.5437 35.3396 70.9568 35.036 71.2622ZM70.005 53.5276H76.375C76.5049 54.6071 76.5049 55.6982 76.375 56.7776H70.005C69.791 56.7797 69.5788 56.7391 69.3807 56.6582C69.1825 56.5773 69.0026 56.4577 68.8512 56.3064C68.6999 56.1551 68.5803 55.9751 68.4994 55.777C68.4185 55.5789 68.3779 55.3666 68.38 55.1526C68.3813 54.722 68.5529 54.3095 68.8574 54.005C69.1618 53.7005 69.5744 53.5289 70.005 53.5276ZM21.3202 53.5276H27.755C28.1839 53.5344 28.5933 53.7078 28.8965 54.0111C29.1998 54.3144 29.3732 54.7238 29.38 55.1526C29.3788 55.5832 29.2072 55.9958 28.9027 56.3003C28.5982 56.6048 28.1856 56.7764 27.755 56.7776H21.32C21.1899 55.6982 21.1899 54.607 21.32 53.5276H21.3202ZM64.9573 68.9641L69.4616 73.4684C68.7901 74.3235 68.0186 75.0951 67.1635 75.7665L62.6592 71.2622C62.5064 71.1124 62.385 70.9336 62.3021 70.7363C62.2193 70.539 62.1766 70.3272 62.1766 70.1132C62.1766 69.8992 62.2193 69.6873 62.3021 69.49C62.385 69.2927 62.5064 69.1139 62.6592 68.9641C62.9646 68.6606 63.3777 68.4902 63.8082 68.4902C64.2388 68.4902 64.6519 68.6606 64.9573 68.9641ZM30.5318 34.5386L35.082 39.0888C35.3805 39.3969 35.5474 39.809 35.5474 40.2379C35.5474 40.6668 35.3805 41.0789 35.082 41.3869C34.7767 41.6906 34.3636 41.861 33.933 41.861C33.5024 41.861 33.0893 41.6906 32.7839 41.3869L28.2337 36.8368C28.905 35.9815 29.6765 35.2099 30.5318 34.5386Z" fill="#3C3B41"/>
<path d="M48.8475 21.0276C42.0982 21.0276 35.5005 23.029 29.8887 26.7787C24.2768 30.5284 19.903 35.858 17.3201 42.0935C14.7373 48.329 14.0615 55.1904 15.3782 61.81C16.6949 68.4296 19.945 74.5101 24.7175 79.2826C29.4899 84.0551 35.5704 87.3052 42.19 88.6219C48.8096 89.9386 55.671 89.2628 61.9066 86.68C68.1421 84.0971 73.4717 79.7232 77.2214 74.1114C80.9711 68.4996 82.9725 61.9019 82.9725 55.1526C82.9681 46.1034 79.3714 37.4261 72.9727 31.0274C66.5739 24.6287 57.8967 21.032 48.8475 21.0276ZM67.1775 71.2076C66.4747 72.0404 65.7028 72.8123 64.87 73.5151C60.8654 77.0382 55.7973 79.1204 50.4725 79.4301C49.3931 79.56 48.3019 79.56 47.2225 79.4301C41.3378 79.0706 35.7873 76.5729 31.6155 72.407C27.4436 68.2411 24.938 62.6943 24.57 56.8101C24.5051 56.26 24.4726 55.7065 24.4725 55.1526C24.4726 54.6203 24.5051 54.0884 24.57 53.5601C24.8762 48.2188 26.9711 43.1359 30.5175 39.1301C31.2005 38.2901 31.9623 37.5174 32.7925 36.8226C36.8017 33.2816 41.8826 31.1874 47.2225 30.8751C48.3019 30.745 49.3931 30.745 50.4725 30.8751C56.3651 31.2435 61.92 33.7528 66.0919 37.9306C70.2637 42.1085 72.765 47.6669 73.125 53.5601C73.1899 54.0884 73.2224 54.6203 73.2225 55.1526C73.2225 55.7065 73.1899 56.26 73.125 56.8101C72.8124 62.1403 70.7178 67.2108 67.1775 71.2076Z" fill="white"/>
<path d="M55.3325 50.294C55.0112 50.2939 54.697 50.1986 54.4298 50.02C54.1626 49.8415 53.9544 49.5877 53.8314 49.2908C53.7084 48.9939 53.6763 48.6672 53.7389 48.352C53.8016 48.0368 53.9564 47.7473 54.1836 47.52L88.3086 13.395C88.6143 13.0954 89.026 12.9285 89.4541 12.9307C89.8821 12.9328 90.2921 13.1039 90.5948 13.4066C90.8975 13.7093 91.0685 14.1192 91.0707 14.5473C91.0728 14.9754 90.906 15.387 90.6063 15.6928L56.4813 49.8178C56.3307 49.9689 56.1516 50.0888 55.9544 50.1705C55.7573 50.2522 55.5459 50.2942 55.3325 50.294Z" fill="#3C3B41"/>
<path d="M95.4005 17.7938H86.2062V8.59955L93.0995 1.7063L95.4005 8.59955L102.294 10.9005L95.4005 17.7938Z" fill="#1CBEF5"/>
</svg>
