<svg width="22" height="28" viewBox="0 0 22 28" fill="none" xmlns="http://www.w3.org/2000/svg">
<path d="M15.2015 7.16287C15.2015 7.41526 15.1848 7.66764 15.1541 7.91716C15.1681 7.81678 15.182 7.71353 15.1932 7.61315C15.1262 8.11218 14.9979 8.59688 14.811 9.06149C14.8473 8.96972 14.8863 8.87794 14.9226 8.78617C14.7357 9.23931 14.4958 9.66378 14.2029 10.0538C14.2615 9.97639 14.3201 9.89895 14.3787 9.82152C14.0886 10.2058 13.751 10.5529 13.3773 10.8511C13.4526 10.7909 13.5279 10.7307 13.6032 10.6705C13.2238 10.9687 12.811 11.2182 12.3703 11.4104C12.4595 11.3731 12.5488 11.333 12.6381 11.2957C12.1862 11.4878 11.7148 11.6198 11.2294 11.6886C11.327 11.6743 11.4275 11.6599 11.5251 11.6484C11.0369 11.7144 10.546 11.7144 10.0579 11.6484C10.1555 11.6628 10.2559 11.6771 10.3535 11.6886C9.86817 11.6198 9.39676 11.4878 8.94488 11.2957C9.03414 11.333 9.1234 11.3731 9.21266 11.4104C8.77193 11.2182 8.3591 10.9716 7.97974 10.6705C8.05505 10.7307 8.13037 10.7909 8.20568 10.8511C7.8319 10.5529 7.49438 10.2058 7.20428 9.82152C7.26286 9.89895 7.32144 9.97639 7.38001 10.0538C7.08992 9.66378 6.84724 9.23931 6.66035 8.78617C6.69661 8.87794 6.73566 8.96972 6.77192 9.06149C6.58503 8.59688 6.45672 8.11218 6.38977 7.61315C6.40372 7.71353 6.41767 7.81678 6.42882 7.91716C6.36467 7.41526 6.36467 6.91049 6.42882 6.40858C6.41488 6.50896 6.40093 6.61221 6.38977 6.71259C6.45672 6.21356 6.58503 5.72886 6.77192 5.26425C6.73566 5.35602 6.69661 5.4478 6.66035 5.53958C6.84724 5.08643 7.08713 4.66196 7.38001 4.27191C7.32144 4.34935 7.26286 4.42679 7.20428 4.50422C7.49438 4.11991 7.8319 3.77288 8.20568 3.47461C8.13037 3.53483 8.05505 3.59506 7.97974 3.65529C8.3591 3.35702 8.77193 3.1075 9.21266 2.91534C9.1234 2.95263 9.03414 2.99278 8.94488 3.03006C9.39676 2.83791 9.86817 2.70598 10.3535 2.63715C10.2559 2.65149 10.1555 2.66583 10.0579 2.6773C10.546 2.61133 11.0369 2.61133 11.5251 2.6773C11.4275 2.66296 11.327 2.64862 11.2294 2.63715C11.7148 2.70598 12.1862 2.83791 12.6381 3.03006C12.5488 2.99278 12.4595 2.95263 12.3703 2.91534C12.811 3.1075 13.2238 3.35415 13.6032 3.65529C13.5279 3.59506 13.4526 3.53483 13.3773 3.47461C13.751 3.77288 14.0886 4.11991 14.3787 4.50422C14.3201 4.42679 14.2615 4.34935 14.2029 4.27191C14.493 4.66196 14.7357 5.08643 14.9226 5.53958C14.8863 5.4478 14.8473 5.35602 14.811 5.26425C14.9979 5.72886 15.1262 6.21356 15.1932 6.71259C15.1792 6.61221 15.1653 6.50896 15.1541 6.40858C15.1848 6.6581 15.1987 6.91049 15.2015 7.16287C15.2043 7.76228 15.712 8.33875 16.3173 8.31007C16.9198 8.28139 17.4359 7.80531 17.4331 7.16287C17.4275 5.78909 17.0258 4.38377 16.2392 3.26524C16.0272 2.9641 15.8013 2.66869 15.5502 2.40197C15.2964 2.13238 15.0174 1.90007 14.7273 1.67349C14.2001 1.2605 13.6116 0.956491 12.9867 0.721314C10.4679 -0.227998 7.43022 0.618065 5.72589 2.75187C5.49158 3.0444 5.26843 3.34841 5.07875 3.67537C4.88907 3.99945 4.74123 4.34361 4.60455 4.69351C4.34792 5.34168 4.21682 6.03001 4.16382 6.72693C4.06061 8.09211 4.4065 9.51751 5.09827 10.6877C5.76494 11.8177 6.77192 12.787 7.94905 13.3348C8.29494 13.4954 8.6492 13.6446 9.0174 13.7507C9.38281 13.8539 9.75381 13.9113 10.1304 13.9572C10.8166 14.0404 11.5167 13.983 12.1945 13.8425C14.7692 13.3033 16.9254 11.0232 17.3243 8.34736C17.3829 7.95731 17.4275 7.56726 17.4275 7.17147C17.4303 6.57206 16.9114 5.99559 16.3117 6.02427C15.7092 6.04435 15.2015 6.52044 15.2015 7.16287ZM18.9031 25.0966C18.3564 25.0966 17.8096 25.0966 17.2629 25.0966C15.9603 25.0966 14.6604 25.0966 13.3577 25.0966C11.7901 25.0966 10.2224 25.0966 8.65199 25.0966C7.29912 25.0966 5.94626 25.0966 4.5906 25.0966C3.9574 25.0966 3.32421 25.1023 2.69101 25.0966C2.62127 25.0966 2.55154 25.0908 2.48459 25.0822C2.58222 25.0966 2.68264 25.1109 2.78027 25.1224C2.66869 25.1052 2.5627 25.0736 2.45949 25.0306C2.54875 25.0679 2.63801 25.108 2.72727 25.1453C2.61569 25.0966 2.51249 25.0335 2.41486 24.956C2.49017 25.0162 2.56549 25.0765 2.6408 25.1367C2.55712 25.065 2.47901 24.9876 2.41207 24.9015C2.47064 24.979 2.52922 25.0564 2.5878 25.1338C2.51249 25.0335 2.45391 24.9273 2.4037 24.8126C2.43996 24.9044 2.47901 24.9962 2.51528 25.0879C2.47343 24.9818 2.44554 24.87 2.42601 24.7581C2.43996 24.8585 2.45391 24.9618 2.46507 25.0621C2.42044 24.7151 2.45112 24.348 2.45112 23.9981C2.45112 23.588 2.45112 23.1807 2.45112 22.7706C2.45112 22.4637 2.46786 22.1597 2.50691 21.8557C2.49296 21.9561 2.47901 22.0593 2.46786 22.1597C2.54596 21.5718 2.69659 20.9953 2.92253 20.4475C2.88627 20.5393 2.84722 20.6311 2.81095 20.7228C3.02853 20.2009 3.30747 19.7104 3.64499 19.2601C3.58641 19.3376 3.52783 19.415 3.46926 19.4925C3.80677 19.0479 4.1945 18.6464 4.62965 18.2994C4.55434 18.3596 4.47902 18.4198 4.40371 18.48C4.84165 18.133 5.31864 17.8462 5.82631 17.6225C5.73705 17.6598 5.64779 17.6999 5.55853 17.7372C6.0913 17.5078 6.64919 17.35 7.22381 17.2697C7.12618 17.2841 7.02576 17.2984 6.92813 17.3099C7.34096 17.2554 7.75101 17.2525 8.16663 17.2525C8.67709 17.2525 9.18755 17.2525 9.69802 17.2525C10.8891 17.2525 12.0802 17.2525 13.2713 17.2525C13.7315 17.2525 14.189 17.2497 14.6492 17.3099C14.5516 17.2956 14.4512 17.2812 14.3535 17.2697C14.9254 17.35 15.4861 17.5049 16.0188 17.7372C15.9296 17.6999 15.8403 17.6598 15.751 17.6225C16.2587 17.8462 16.7357 18.133 17.1736 18.48C17.0983 18.4198 17.023 18.3596 16.9477 18.2994C17.3801 18.6464 17.7706 19.045 18.1081 19.4925C18.0495 19.415 17.9909 19.3376 17.9324 19.2601C18.2699 19.7104 18.5488 20.2009 18.7664 20.7228C18.7301 20.6311 18.6911 20.5393 18.6548 20.4475C18.878 20.9953 19.0314 21.5689 19.1095 22.1597C19.0956 22.0593 19.0816 21.9561 19.0704 21.8557C19.1234 22.2888 19.1262 22.719 19.1262 23.1549C19.1262 23.6281 19.1262 24.1014 19.1262 24.5746C19.1262 24.7381 19.1318 24.9015 19.1123 25.0621C19.1262 24.9618 19.1402 24.8585 19.1513 24.7581C19.1346 24.8728 19.1039 24.9818 19.0621 25.0879C19.0983 24.9962 19.1374 24.9044 19.1737 24.8126C19.1262 24.9273 19.0649 25.0335 18.9896 25.1338C19.0481 25.0564 19.1067 24.979 19.1653 24.9015C19.0956 24.9876 19.0202 25.0679 18.9366 25.1367C19.0119 25.0765 19.0872 25.0162 19.1625 24.956C19.0649 25.0335 18.9617 25.0937 18.8501 25.1453C18.9393 25.108 19.0286 25.0679 19.1179 25.0306C19.0147 25.0736 18.9059 25.1023 18.7971 25.1224C18.8947 25.108 18.9951 25.0937 19.0928 25.0822C19.0314 25.0908 18.9672 25.0937 18.9031 25.0966C18.6158 25.0994 18.3201 25.2227 18.1137 25.4321C17.9212 25.63 17.7734 25.957 17.7873 26.2438C17.8152 26.8575 18.2783 27.3996 18.9031 27.391C19.9882 27.3738 20.9421 26.6453 21.2601 25.5755C21.3857 25.151 21.3578 24.695 21.3578 24.2591C21.3578 23.261 21.3885 22.2716 21.2211 21.2821C20.9756 19.8337 20.2671 18.4714 19.2964 17.4017C18.3257 16.3319 17.0202 15.5461 15.6395 15.1962C14.8473 14.9954 14.0495 14.9639 13.2406 14.9639C12.4093 14.9639 11.5809 14.9639 10.7496 14.9639C9.92954 14.9639 9.11224 14.9639 8.29215 14.9639C7.4637 14.9639 6.64082 15.004 5.83468 15.2249C4.46508 15.5977 3.17637 16.3921 2.22518 17.4705C1.26562 18.5575 0.571054 19.9227 0.345111 21.3796C0.194483 22.3576 0.225166 23.3385 0.225166 24.3251C0.225166 24.7782 0.200062 25.2514 0.359058 25.6845C0.565475 26.2409 0.894626 26.6797 1.37719 27.0095C1.75377 27.2648 2.23076 27.3881 2.67706 27.3938C2.89464 27.3967 3.11221 27.3938 3.32978 27.3938C3.88767 27.3938 4.44276 27.3938 5.00064 27.3938C5.79284 27.3938 6.58224 27.3938 7.37444 27.3938C8.29494 27.3938 9.21545 27.3938 10.136 27.3938C11.0816 27.3938 12.0244 27.3938 12.97 27.3938C13.8347 27.3938 14.6966 27.3938 15.5614 27.3938C16.2392 27.3938 16.917 27.3938 17.5921 27.3938C17.9798 27.3938 18.3675 27.3938 18.7552 27.3938C18.8055 27.3938 18.8557 27.3938 18.9059 27.3938C19.4889 27.3938 20.0495 26.8661 20.0216 26.2466C19.9937 25.6214 19.5307 25.0966 18.9031 25.0966Z" fill="#AFBCCA"/>
</svg>
